<?xml version="1.0" encoding="utf-8"?>
<!-- Generator: Adobe Illustrator 26.4.1, SVG Export Plug-In . SVG Version: 6.00 Build 0)  -->
<svg version="1.1" id="Layer_1" xmlns="http://www.w3.org/2000/svg" xmlns:xlink="http://www.w3.org/1999/xlink" x="0px" y="0px"
	 viewBox="0 0 3500 3500" style="enable-background:new 0 0 3500 3500;" xml:space="preserve">
<style type="text/css">
	.st0{fill:#FFFFFF;}
	.st1{fill-rule:evenodd;clip-rule:evenodd;fill:#F9A417;}
</style>
<circle class="st0" cx="1750" cy="1750" r="1727.2"/>
<path d="M1678.1,240.9c19-0.5,30.8-19.8,30.2-45.1c-0.7-26.3-12.8-43.7-32.1-43.2c-19.3,0.5-30.2,19.1-29.6,45.1
	C1647.2,223.3,1658.1,241.4,1678.1,240.9L1678.1,240.9z"/>
<path d="M1871.8,247.4c18.8,2.4,33.5-14.9,36.7-40c3.3-26.1-6.1-45.1-25.2-47.5c-19.2-2.4-32.8,14.3-36,40.1
	C1843.9,225.3,1852,244.8,1871.8,247.4z"/>
<polygon points="2092.5,203.5 2091.9,203.3 2016.8,292.9 2063.4,306.1 "/>
<g>
	<g>
		<path class="st1" d="M1690.1,477.3c50.8-2.4,101-1.8,150.5,1.7c-7.6-7.7-15.2-15.3-22.9-22.8c-198.2-10.5-401.8,24.5-595.4,110.9
			c-471.2,210.2-755,667.1-767.5,1150.6l25.7-0.4C495.1,1056,1019.4,509.4,1690.1,477.3L1690.1,477.3z"/>
		<path class="st1" d="M1750,574c-638,0-1157.2,508-1175.5,1141.5l1763.3-30.4c-13.2-396.8-147.8-789.3-398.3-1095.8
			C1877.8,579.3,1814.5,574,1750,574L1750,574z"/>
		<path class="st1" d="M1750,2926c64.3,0,127.4-5.2,188.9-15.2c251-306.7,385.8-699.6,399-1096.8l-1763.4-32.3
			C591.2,2416.5,1111.1,2926,1750,2926z"/>
		<path class="st1" d="M2290.7,360c22.8,0,41.3-18.5,41.3-41.3s-18.5-41.2-41.3-41.2c-22.8,0-41.2,18.5-41.2,41.2
			C2249.5,341.5,2268,360,2290.7,360L2290.7,360z"/>
		<path class="st1" d="M1317.4,323.6c22.8,0,41.2-18.5,41.2-41.2s-18.5-41.2-41.2-41.2s-41.2,18.5-41.2,41.2
			C1276.2,305.1,1294.7,323.6,1317.4,323.6z"/>
		<path class="st1" d="M2926,1750c0-549.7-377.2-1011.3-886.9-1140.1c261.5,295,413.1,674.8,428,1074.4l380.9,65.3l-380.9,65.3
			c-14.9,400.1-166.8,780.2-428.8,1075.4C2548.4,2761.8,2926,2300,2926,1750L2926,1750z"/>
		<path class="st1" d="M3347.8,1037.2c-393.7-882.4-1428.1-1278.7-2310.6-885c-882.4,393.7-1278.7,1428.1-885,2310.6
			s1428.1,1278.7,2310.6,885C3345.2,2954.1,3741.4,1919.7,3347.8,1037.2L3347.8,1037.2z M2449.9,3319
			c-866.5,386.6-1882.3-2.5-2268.9-869.1S183.6,567.6,1050.1,181s1882.3,2.5,2268.9,869.1C3705.5,1916.6,3316.5,2932.4,2449.9,3319z
			"/>
		<path class="st1" d="M1890.8,462.2c9.2,8.1,18.3,16.3,27.3,24.5c597.9,78.6,1072.4,575.6,1102.3,1199.2
			c31.7,662.5-449.8,1230.7-1094.5,1319.5c-11.9,11-23.9,21.9-36.2,32.6c130.7-14.2,261.5-48.6,388.1-105.1
			c653.3-291.5,946.7-1057.4,655.3-1710.7C2738.6,786.5,2333.1,510.9,1890.8,462.2L1890.8,462.2z"/>
		<path class="st1" d="M481.6,1807.5c-0.4-9.2-0.7-18.4-1-27.5l-25.9-0.5c3.7,167,40,336.1,112.3,498.3
			c224.5,503.3,730.6,792.9,1249.9,766.2c10.1-9.9,20.1-19.9,30-30c-11.7,0.9-23.4,1.6-35.1,2.2
			C1110.7,3049.6,515.1,2508.5,481.6,1807.5L481.6,1807.5z"/>
		<path class="st1" d="M939,2996.7c-22.8,0-41.2,18.5-41.2,41.2c0,22.8,18.5,41.2,41.2,41.2c22.8,0,41.2-18.5,41.2-41.2
			C980.2,3015.1,961.7,2996.7,939,2996.7z"/>
		<path class="st1" d="M2566.3,2996.7c-22.8,0-41.2,18.5-41.2,41.2c0,22.8,18.5,41.2,41.2,41.2c22.8,0,41.2-18.5,41.2-41.2
			C2607.5,3015.1,2589.1,2996.7,2566.3,2996.7z"/>
	</g>
	<path d="M2689.1,2819.2c-13.9,12-18.3,30.1-3,47.8c17.2,19.9,37.5,14.8,49.5,4.4l17.5-15.1l-45.8-52.9L2689.1,2819.2L2689.1,2819.2
		z"/>
	<polygon points="1478.9,3164.3 1439.3,3262.9 1480.5,3270.7 1480.3,3164.6 	"/>
	<path d="M541.9,2722.4c-20.6,17.8-14.9,35.1-4.9,46.6l14.1,16.3l52.2-45.2l-14.1-16.3C577.2,2709.9,559.4,2707.3,541.9,2722.4z"/>
	<path d="M263.6,1479.1c44.7,10.3,82.9,5.2,89.2-22c6.2-26.8-25.8-48.5-70.6-58.8c-44.7-10.3-82.8-4.5-88.9,22
		C187.1,1447.4,218.9,1468.7,263.6,1479.1L263.6,1479.1z"/>
	<polygon points="3330.5,1654.4 3330.4,1653.1 3217.8,1637 3221.4,1686.2 	"/>
	<path d="M3279.7,1452.9c22.2-5.1,26.6-21.7,23-37.4l-4.7-20.4l-60.8,13.9l4.8,21C3245.4,1444.8,3257.5,1458,3279.7,1452.9
		L3279.7,1452.9z"/>
	<path d="M3187.4,1479.5c25.6-5.8,30.7-26.2,27.2-41.6l-5.1-22.5l-68.2,15.6l5.4,23.5C3150.7,1472.3,3164.6,1484.7,3187.4,1479.5
		L3187.4,1479.5z"/>
	<path d="M3319,1050.1C2932.4,183.6,1916.6-205.5,1050.1,181C183.6,567.6-205.5,1583.4,181,2449.9
		c386.6,866.5,1402.4,1255.6,2268.9,869.1S3705.5,1916.6,3319,1050.1L3319,1050.1z M3367.9,1676.1l-219.5,71l-2.9-39.5l46.5-14.5
		l-4.3-58.7l-48.2-7.9l-2.8-37.9l227.6,39.2L3367.9,1676.1L3367.9,1676.1z M3321,1353.5l13.3,58c5.9,25.9,4,63-41,73.3
		c-27.2,6.2-45.4-3.9-55-17.6l-0.6,0.1c0,17.2-11.8,40.7-45.1,48.3c-45.7,10.4-68.7-19.4-75.1-47.5l-14.8-64.8L3321,1353.5
		L3321,1353.5z M3257.9,1150.8l38.8,115.2l-30.6,10.3l-13.4-39.9l-181.8,61.2l-11.9-35.4l181.8-61.2l-13.4-39.9L3257.9,1150.8
		L3257.9,1150.8z M3220.1,1065l-29.9,15.3l-29.1-56.9l-53,27.1l26.9,52.7l-27.6,14.1l-26.9-52.7l-58.9,30.1l30.5,59.8l-30.2,15.4
		l-47.1-92.2l199.6-102L3220.1,1065L3220.1,1065z M1312.5,2841.9c-3.2-1.2-6.3-2.7-9.5-4.1c-0.4-0.1-0.7-0.3-1.2-0.5
		c-4.8-1.9-9.5-3.9-14.2-6c-0.1,0-0.1-0.1-0.2-0.1c0,0,0,0-0.1,0C877,2655.6,586.9,2253.2,574.5,1781.7l1437.1,26.3
		c0,0.1,0,0.2,0,0.4c1,0,2-0.1,3-0.1h1.8c4.9,0,9.5,1,14.1,2.3c1.1-0.1,2.2-0.2,3.4-0.2c1,0,1.9,0.1,2.9,0.1c0-0.7,0.1-1.4,0.1-2.1
		l301.1,5.5c-13.2,397.2-148,790.2-399,1096.8c-61.5,9.9-124.5,15.2-188.8,15.2c-151.9,0-297-28.8-430.3-81.3c0,0,0.1,0,0.1,0
		C1317.4,2843.8,1314.9,2842.9,1312.5,2841.9L1312.5,2841.9z M2784.6,1193c-2.4-6.8,3.6,4.9,4.4,6.2c1.3,2.3,2.8,5.3,4.3,8.3
		c0-0.1,0.1-0.3,0.2-0.4c84.7,162.4,132.6,347,132.6,542.9s-47.9,380.4-132.6,542.8c-0.1,0.3-0.2,0.5-0.4,0.8
		c-0.5,1-1.1,2.1-1.6,3.2c0-0.1-0.1-0.3-0.2-0.4c-0.7,1.1-1.3,2.2-2.1,3.3c-1.3,2.9-2.5,5.7-4,8.5c-3,5.6-6.6,11-9.6,16.6
		c0.1,0.2,0.2,0.4,0.2,0.6c-156,277.5-421.2,485.3-737.5,565c262-295.1,413.8-675.3,428.8-1075.3l184.9-31.7
		c0.9-0.3,1.8-0.6,2.7-0.7c2.2-0.4,4.3-0.6,6.4-0.8l7-1.2c1.3-0.4,2.5-0.7,3.9-1.1c7.1-2.2,14.9-2.6,22.4-2.9c0-0.2,0-0.3,0-0.5
		l153.6-26.3l-153.4-26.3c0-0.1,0-0.2,0-0.3c-3.7-0.3-7-1.1-10.2-2.1c-3.6-0.2-7-0.9-10.2-1.7c-1.6-0.1-3.2-0.2-4.8-0.5
		c0,0.1,0,0.2,0,0.3l-202.3-34.7c-14.9-399.7-166.4-779.5-428-1074.4c317.3,80.2,583.2,289.4,738.8,568.5c-0.1,0.3-0.2,0.6-0.3,0.9
		C2780.5,1183.5,2782.8,1188.1,2784.6,1193L2784.6,1193z M2337.8,1685.1c-587.3,10.1-1175,20.3-1763.3,30.4
		c13.4-466.2,298.2-864.4,701.9-1042.3c0.1,0,0.2,0.1,0.3,0.1c2.5-1.5,5.2-2.8,7.9-3.9c5.1-3.1,10.3-5.7,16.2-7.8
		c3.7-1.3,7.6-1.9,11.2-3.3C1447.5,604,1595.2,574,1750,574c64.5,0,127.8,5.3,189.5,15.3C2190.1,895.8,2324.7,1288.3,2337.8,1685.1
		L2337.8,1685.1z M1925.9,3005.4c644.7-88.8,1126.2-657,1094.5-1319.5C2990.5,1062.3,2515.9,565.3,1918,486.7
		c-9-8.3-18.1-16.4-27.3-24.5c442.4,48.8,847.8,324.3,1042.2,760.1c291.5,653.4-1.9,1419.3-655.3,1710.7
		c-126.5,56.5-257.3,90.9-388,105.1C1901.9,3027.3,1914,3016.4,1925.9,3005.4L1925.9,3005.4z M3063.1,799.4l-79.2,56.3l0.5,0.8
		l112.2-9.9l24.8,34.8l-122.3,6.1l-58,127.1l-25.5-35.9l54.1-111.8l-0.5-0.8l-88.8,63.1l-22-31l182.7-129.8L3063.1,799.4
		L3063.1,799.4z M2825.9,766.7c14-13.3,11.5-30.2,5-51.1c-7.9-25.7-11.3-51.3,15.2-76.6c33.4-31.9,70.8-22.5,92.2-0.1
		c15.5,16.3,22.9,35,20.9,53.6l-34.1,3.7c1.4-12.7-2.3-24-10.6-32.7c-9.8-10.3-26.3-14.3-42.3,1c-13.7,13.1-11.2,28.2-5.2,47.8
		c7.3,23.7,13.5,53.6-14,79.8c-31.6,30.2-69.6,25.7-93.6,0.5c-17-17.9-24.8-41.6-22.7-61l34.4-4.3c-1.7,15.2,3.1,30.7,12.9,41.1
		C2794.9,779.7,2811.7,780.3,2825.9,766.7L2825.9,766.7z M2780,497.3l-95.4,210.1l-31.1-24.5l20.6-44.2l-46.3-36.4l-38.3,30.3
		l-29.9-23.5l182.3-141.8L2780,497.3L2780,497.3z M2510.7,316.6l51.6,29.7c23.1,13.3,49,39.9,25.9,79.9
		c-13.9,24.1-33.7,30.6-50.3,28.4l-0.3,0.5c12.6,11.7,21.8,36.3,4.8,65.9c-23.4,40.6-60.9,37.3-85.9,22.9l-57.6-33.2L2510.7,316.6
		L2510.7,316.6z M2290.7,277.5c22.8,0,41.3,18.5,41.3,41.2c0,22.8-18.5,41.3-41.3,41.3s-41.2-18.5-41.2-41.3
		C2249.5,295.9,2268,277.5,2290.7,277.5L2290.7,277.5z M1985,282.2L2089,164l45.7,13l-39.3,138.2l23.8,6.8l-8.6,30.5l-23.8-6.8
		l-13.3,46.9l-32.9-9.3l13.3-46.9l-78-22.1L1985,282.2L1985,282.2z M1811.3,196c5.9-46.8,37.5-71.5,76.1-66.6
		c39.6,5,63.1,36.1,57.1,83.2c-3.1,24.2-13,44.3-25.9,63.1l-55,81.1l-41.1-5.2l58.2-81.6l-0.3-0.4c-6.2,3.7-14,4.6-21.8,3.6
		C1829.1,269.4,1805.2,244,1811.3,196L1811.3,196z M1675.7,122c39.9-1,67.8,26.1,69,73.6c0.6,24.4-6.1,45.7-16.1,66.3l-42.1,88.5
		l-41.5,1l45.2-89.5l-0.3-0.3c-5.6,4.6-13.1,6.7-21,6.9c-29.7,0.7-57.2-20.7-58.4-69.1C1609.3,152.1,1636.8,122.9,1675.7,122
		L1675.7,122z M1493.9,145.8l33.6-4.3l28.2,222.3l-36.7,4.7l-22.7-178.7l-33.5,32.7l-20.7-27L1493.9,145.8L1493.9,145.8z
		 M1317.5,241.1c22.8,0,41.2,18.5,41.2,41.2c0,22.8-18.5,41.2-41.2,41.2s-41.2-18.5-41.2-41.2S1294.7,241.1,1317.5,241.1z
		 M1817.7,456.2c7.7,7.5,15.4,15.2,22.9,22.8c-49.5-3.5-99.7-4.1-150.5-1.7c-670.7,32.1-1195,578.7-1209.7,1239.9l-25.7,0.4
		c12.4-483.5,296.3-940.4,767.5-1150.6C1416,480.6,1619.5,445.6,1817.7,456.2z M1098.7,259.5c20.5-9.3,40.6-10,57.5-2l-7.8,33.4
		c-11.5-5.6-23.4-5.7-34.4-0.8c-13,5.9-22.2,20.1-13,40.3c7.8,17.3,22.9,19.9,43.4,20.7c24.7,1,55.1,5,70.7,39.6
		c18,39.8,1.2,74.1-30.5,88.5c-22.5,10.2-47.4,9.6-65.1,1.3l7.3-33.9c13.8,6.6,30,7.3,43,1.4c14.4-6.5,20.6-22.1,12.5-40
		c-8-17.6-24.7-20.8-46.6-21.7c-26.9-1.1-52.2-6.3-67.3-39.7C1049.2,304.4,1070.4,272.2,1098.7,259.5L1098.7,259.5z M915.8,360.4
		l167,159.1l-33.3,21.4l-34.9-34L965,538.7l16,46.1l-32,20.5L875,386.6L915.8,360.4L915.8,360.4z M705.5,512.2
		c20.1-17.4,53.8-33.2,84,1.8c18.2,21.1,17.9,41.9,10.3,56.8l0.4,0.5c15.2-8.1,41.5-8.7,63.8,17.1c30.7,35.4,15.2,69.7-6.6,88.6
		l-50.2,43.5L660.6,551.1L705.5,512.2L705.5,512.2z M509.9,706.8l106.7,92.4c21.3,18.4,44.3,29.6,61.3,10
		c17-19.6,2.7-40.8-18.6-59.2l-106.7-92.4l24.7-28.5l109.3,94.7c35.6,30.9,51.7,70.4,17.9,109.3c-33.8,39-74.5,28-110.2-2.9
		L485,735.5L509.9,706.8L509.9,706.8z M397,857.4l159.1,102l33.3-52l29.6,19l-54,84.2L376.3,889.7L397,857.4L397,857.4z
		 M282.3,1060.3l86.5,44.3l0.4-0.8l-60.5-95l19.5-38l61.8,105.6l139.5-7.1l-20,39.2l-124.2,3.6l-0.4,0.9l96.9,49.6l-17.3,33.8
		L265,1094.1L282.3,1060.3L282.3,1060.3z M158.5,1412.3c11.2-48.7,63.8-68.1,132.6-52.2c68.8,15.9,108.1,56.5,96.9,105.2
		c-11.3,49-64.4,68-133.2,52.1C186,1501.4,147.1,1461.9,158.5,1412.3L158.5,1412.3z M380,2010.8l-220.6,39.4l-6.7-37.4l220.6-39.4
		L380,2010.8z M137.6,1604.3l223.5,17l-2.9,37.9l-223.5-17L137.6,1604.3L137.6,1604.3z M356.3,1747.1l1.1,41.8l-156.6,67.6l0,0.9
		l158.2-4.6l0.9,34.2l-224,5.7l-1.1-43.3l157.6-67l0-0.9l-159.2,4.3l-0.8-32.9L356.3,1747.1L356.3,1747.1z M147.1,2260.6l-7.7-27.1
		l22.7-29.1l-34.6-12.9l-7.7-27.1l53.4,21l8.4,29.5L147.1,2260.6L147.1,2260.6z M188.8,2197.7c-6.1-21.6-3.9-41.7,6.5-57.1
		l31.9,12.7c-7.2,10.6-9.1,22.3-5.8,33.9c3.9,13.7,16.6,24.9,37.9,18.8c18.3-5.2,23-19.7,26.8-39.9c4.6-24.3,13-53.7,49.6-64.1
		c42-11.9,73.5,9.7,83,43.2c6.8,23.8,2.5,48.3-8.3,64.5l-32.4-12.2c8.6-12.6,11.6-28.6,7.7-42.3c-4.3-15.2-18.9-23.6-37.7-18.2
		c-18.6,5.3-24.2,21.4-28.3,42.9c-5,26.4-13.9,50.7-49.2,60.7C225.9,2253.3,197.2,2227.5,188.8,2197.7L188.8,2197.7z M272.3,2405.9
		c-12-26.5-11.9-64.1,34.2-84.9c41.8-18.9,74.3-0.9,87.3,27.9l10.9,24.2l81.9-37l15.4,34l-204.2,92.3L272.3,2405.9L272.3,2405.9z
		 M349,2563.3l28.2-18.1l34.5,53.8l50.1-32.1l-31.9-49.8l26.1-16.7l31.9,49.8l55.7-35.7l-36.2-56.5l28.5-18.3l55.9,87.1
		l-188.7,120.9L349,2563.3L349,2563.3z M509.4,2785.4c-24.2-28-27.1-60.7,6.7-90c26.3-22.8,52.4-19.8,66.1-10.7l51.7-97.9l26.1,30.1
		l-49.5,88.9l13.9,16l72.2-62.6l24,27.7l-169.4,146.7L509.4,2785.4L509.4,2785.4z M723.1,2998l-28.7-24.9l63.6-73.4l-0.7-0.6
		l-106.7,36.1l-32.3-28l117.3-34.9l26.3-137.2l33.3,28.8l-26.1,121.5l0.7,0.6l71.3-82.3l28.7,24.9L723.1,2998L723.1,2998z
		 M939,3079.2c-22.8,0-41.2-18.5-41.2-41.2c0-22.8,18.5-41.2,41.2-41.2c22.8,0,41.2,18.5,41.2,41.2
		C980.2,3060.7,961.8,3079.2,939,3079.2z M1181.2,3065.5c-11.6-4.7-25.2-2.3-32,14.4c-5.7,14.1,1.5,24.1,16,40.8
		c16.7,18.7,37.4,46.1,21.4,85.6c-19.8,49.1-63.2,60.4-100.5,45.3c-27.3-11-46.3-32.5-54.2-51.8l41.9-27.9
		c5.5,14.2,16.6,26.5,29.7,31.8c12.5,5.1,25.7,0.3,31.5-14.2c6-14.8-1.6-26.4-17.3-44c-19.8-22.2-34.1-45.9-18.8-83.8
		c20.4-50.4,66-57,99.1-43.6c24.7,10,41.5,26.8,48.9,46.3l-42,27.1C1201,3079.4,1192.1,3069.9,1181.2,3065.5L1181.2,3065.5z
		 M1165.1,2937.2l34.7,14l10.5,36l32.2-18.7l34.4,13.9l-55.6,31.3l-38.2-15.4L1165.1,2937.2L1165.1,2937.2z M1234.5,3300.2
		l65.7-236.3l53.7,14.9l-65.7,236.3L1234.5,3300.2z M1481,3360l-1.6-45.8l-54.1-10.2l-18.1,42.1l-54.5-10.2l103.8-230l68.4,12.8
		l13,252L1481,3360L1481,3360z M1766.4,3289.4c-1.8,54-27.2,96.5-87,94.5c-59.9-2-80.6-45.7-78.8-100l5.2-154.4l55.7,1.9l-5,149.6
		c-0.9,27.7,3.9,49,25.7,49.7s28.1-20.2,29-47.9l5-149.6l55.4,1.9L1766.4,3289.4L1766.4,3289.4z M567,2277.8
		c-72.3-162.1-108.6-331.2-112.3-498.3l25.9,0.5c0.2,9.2,0.5,18.3,1,27.5c33.6,701.1,629.1,1242.2,1330.2,1208.6
		c11.8-0.6,23.5-1.3,35.1-2.2c-9.8,10.1-19.8,20.1-30,30C1297.6,3070.7,791.6,2781.1,567,2277.8L567,2277.8z M1849.6,3375.8
		l-18.6-244.5l55.9-4.3l14.7,193.4l65.3-5l3.9,51.1L1849.6,3375.8L1849.6,3375.8z M2042.5,3356.1l-45.3-241l54.8-10.3l45.3,241
		L2042.5,3356.1L2042.5,3356.1z M2290.2,3292l-24.5-38.7l-51.9,18.5l5.6,45.5l-52.2,18.6l-26.3-251l65.6-23.4l138.2,211.1
		L2290.2,3292L2290.2,3292z M2408.1,3247.2L2307,3023.8l50.8-23l101.1,223.4L2408.1,3247.2L2408.1,3247.2z M2566.3,3079.2
		c-22.8,0-41.2-18.5-41.2-41.2c0-22.8,18.5-41.2,41.2-41.2c22.8,0,41.2,18.5,41.2,41.2C2607.6,3060.7,2589.1,3079.2,2566.3,3079.2z
		 M2815.1,2964.6c-20.1,17.4-53.8,33.2-84-1.8c-18.2-21-17.9-41.9-10.3-56.8l-0.4-0.5c-15.2,8.1-41.5,8.7-63.8-17.1
		c-30.7-35.4-15.2-69.8,6.6-88.6l50.2-43.5l146.8,169.4L2815.1,2964.6L2815.1,2964.6z M3011.6,2761.6l-106.7-92.4
		c-21.3-18.4-44.3-29.6-61.3-10c-17,19.6-2.7,40.8,18.6,59.2l106.7,92.4l-24.7,28.5l-109.4-94.7c-35.6-30.9-51.7-70.3-18-109.3
		c33.8-39,74.5-28,110.2,2.9l109.4,94.7L3011.6,2761.6L3011.6,2761.6z M3122.1,2605l-159.1-102l-33.3,51.9l-29.6-19l54-84.2
		l188.7,121L3122.1,2605z M3223.4,2430.8c-10.6,23.4-28,37.3-48.9,41.1l-15.2-30.9c14.8-2.7,25.1-10.2,30.9-22.8
		c12.6-27.7-14.6-56.7-56.1-75.5c-40.9-18.6-80.9-20-93.7,8.3c-6,13.3-2.5,27,4.4,37.8l-32.4,9.3c-11-17.9-14.8-39.4-3.5-64.5
		c20.9-46.1,79.4-54.7,141.4-26.6C3212.8,2335.3,3244,2385.3,3223.4,2430.8L3223.4,2430.8z M3337.8,2064.3l-185.9-33.6l-11,60.7
		l-34.6-6.3l17.8-98.4l220.5,39.9L3337.8,2064.3z M3363.9,1872.7l-188.4-14.8l-4.8,61.5l-35-2.8l7.8-99.7l223.4,17.6L3363.9,1872.7
		L3363.9,1872.7z"/>
	<path d="M321.7,2353.7c-21.6,9.8-26.2,25.8-18.9,41.9l8.9,19.6l64.9-29.3l-8.9-19.6C360.3,2350.1,343.6,2343.8,321.7,2353.7
		L321.7,2353.7z"/>
	<path d="M2512.4,500.2c13.1-22.8,1.6-40.3-12.1-48.2l-20-11.5l-34.9,60.6l20.8,12C2482.2,522.3,2500.7,520.5,2512.4,500.2
		L2512.4,500.2z"/>
	<path d="M767.6,540.8c-14.9-17.2-31.6-13.3-43.8-2.7l-15.8,13.7l40.8,47.1l16.3-14.1C776.6,574.9,782.6,558,767.6,540.8
		L767.6,540.8z"/>
	<polygon points="994.5,484.4 914.5,403.7 913.5,404.4 952.9,511.1 	"/>
	<path d="M2753,2935.9c14.9,17.2,31.6,13.3,43.8,2.7l15.8-13.7l-40.8-47.1l-16.3,14.1C2744,2901.9,2738,2918.7,2753,2935.9
		L2753,2935.9z"/>
	<path d="M2555.6,414.4c11.4-19.8,2.1-34.2-11.8-42.2l-18.1-10.4l-31.1,54l18.6,10.7C2526.3,434.1,2544.2,434.2,2555.6,414.4z"/>
	<polygon points="2738.7,510.3 2737.7,509.5 2649.9,581.8 2688.8,612.3 	"/>
	<path d="M831.5,657.6c13.9-12,18.3-30.1,3-47.8c-17.2-19.9-37.5-14.8-49.5-4.4l-17.5,15.1l45.8,52.9L831.5,657.6L831.5,657.6z"/>
	<polygon points="2189.8,3124 2205.3,3229.2 2244.7,3215.1 2191.1,3123.6 	"/>
	<path d="M1674,932.1c219,219,339.6,510.2,339.6,819.8S1893,2352.8,1674,2571.8c-119,119-259.3,208.9-412.4,266.2
		c11.6,4.4,23.3,8.5,35.1,12.5c434.7-175.3,741.5-601.1,741.5-1098.6s-306.8-923.3-741.5-1098.6c-11.8,4-23.5,8.2-35.1,12.5
		C1414.7,723.2,1555,813.1,1674,932.1L1674,932.1z"/>
	<path d="M2790.8,2321.5c2.3-2.4,4.8-4.7,7.2-7c-68.9-175.5-104.9-364-104.9-558.2s36.1-382.6,104.8-558c-5.3-9.6-10-19.3-14.4-29.2
		c-74.1,181.1-115.1,379.4-115.1,587.2s39.6,399.3,111.4,578C2783.1,2330,2786.8,2325.7,2790.8,2321.5L2790.8,2321.5z"/>
</g>
</svg>
