<?xml version="1.0" encoding="utf-8"?>
<!-- Generator: Adobe Illustrator 27.9.0, SVG Export Plug-In . SVG Version: 6.00 Build 0)  -->
<svg version="1.1" id="Layer_7" xmlns="http://www.w3.org/2000/svg" xmlns:xlink="http://www.w3.org/1999/xlink" x="0px" y="0px"
	 viewBox="0 0 4000 4000" style="enable-background:new 0 0 4000 4000;" xml:space="preserve">
<style type="text/css">
	.st0{fill:#FFFFFF;stroke:#000000;stroke-miterlimit:10;}
	.st1{fill:#224194;}
	.st2{fill:#FFFFFF;}
	.st3{fill:url(#SVGID_1_);}
	.st4{fill:url(#SVGID_00000151539830276095922030000007547929994072471726_);}
	.st5{fill:url(#SVGID_00000114062458202147125590000012441236068889733556_);}
	.st6{fill:url(#SVGID_00000124883091456914448880000004686155149941843876_);}
	.st7{fill:url(#SVGID_00000102537173675222969000000007046960898115905205_);}
	.st8{fill:url(#SVGID_00000083798439574366533890000000294867307777742499_);}
	.st9{fill:url(#SVGID_00000116202632138384838980000012449194843034491545_);}
	.st10{fill:url(#SVGID_00000009564455726987949120000000596591507007362731_);}
	.st11{fill:none;}
</style>
<path class="st0" d="M547,869.9c0,0-267,57.1-279,71.5c-12,14.5-52,62.3-52,62.3l-80,370.5l72,129.6l165.6,216l230.4-44l148,120v620
	l100,364l188,358.8l268,341.2l264.9,236l295.1,188l132,48l192.1-80l591.9-548l432-796l144-576l28-300l220,48l268-288l-47.6-425.5
	L3428,840.7l20-637.3c0,0-256.7,101-534.3,44.7S2178,43.9,1979,59.9s-643,147-831,177.5c-188,30.5-601-16.6-601-16.6V869.9z"/>
<g>
	<path class="st1" d="M3912.9,1393.2L3876,999.5l-5.1-54.5l-51.7-16.6c-111.2-35.6-222.7-67.9-334.5-97
		c2.3-75.7,4.3-151.1,6.2-225.9c2.9-108.3,5.8-220.2,9.8-334.5l3.4-102.1v-7.8L3399,187.2c-311.5,76.6-547.5,7.4-820.8-72.6
		l-0.4-0.1c-102.1-29.9-207.7-60.9-326.9-87.2C2133.6,1.4,2005.1-6.2,1879,5.3c-26.7,2.4-50.9,5.3-71.8,8.5
		c-21.5,3.3-45.2,7.8-70.6,13.4h-0.1c-121.2,26.8-227.1,58.2-329.6,88.7l-0.5,0.1c-266.1,79-495.9,147.3-805.2,71.2l-105.5-26
		l3.8,108.4c4,113.5,6.9,226.6,9.8,335.8v0.2c2,77.3,4.1,155.4,6.5,233.7c-89.4,24.1-178.6,50.4-267.5,78.9l-3.5,1.1l-44.5,14.3
		l-10.7,45.1l-96.1,405l-9.5,40.1l26.6,31.9l237.9,284.7l35,41.9l52.4-16.1c45.9-14.1,91.6-27.6,137-40.7
		c12.4,104.6,26.9,203.7,43.8,299.7c29,164.8,64.4,316.2,108.2,462.8c72.8,244,171.1,467.8,292.2,665.2
		c129.2,210.6,284.9,391.8,462.7,538.6c72.3,59.7,149.7,114.6,229.9,163.3c82.9,50.3,170,94.6,258.7,131.8l32.5,12.9l30.8-12.9
		c116.5-48.8,227.6-107.9,330.4-175.6c99.5-65.6,193.7-141.1,280-224.3c83.5-80.5,161.8-170.4,232.8-267.2
		c68.6-93.5,132.1-195.8,188.7-304.2c42.4-81.1,81.9-167.3,117.4-256.4c35-87.6,66.7-178.9,94.2-271.2v-0.1
		c43.7-146.6,79.1-298,108.2-462.8c18.2-103.5,33.6-210.5,46.6-324.3c48,14.2,96.2,29.1,144.7,44.8l51.7,16.8l35.8-41.3l231-266.7
		l23-26.5L3912.9,1393.2z M3597.6,1667.7c-514.3-166.6-1002.5-247.2-1489-251.2l32.5,82.4c395.5,6,792.7,63.6,1205.2,178.2
		c-32.9,267.5-83,532.6-161.5,796.4h-551.5c17.1,23,33,47,47.5,71.9c20.7,35.5,38.5,72.1,52.9,109.5c14.6,37.7,26.3,77.1,35,118.2
		c10.7,50.9,16.3,103.8,16.3,158.2c0,214.2-87.8,408-229.8,548.1c-47,46.4-100.4,87.1-159,121c-58.1,33.6-121.1,60.1-187.8,78.2
		c-64.6,17.5-132.6,27.1-202.7,27.6v210.1c-4.8,2.1-9.5,4.1-14.3,6.2c-295.5-124.5-536.8-313.9-729.1-546.8
		c-212-256.9-364.4-566.7-463.9-900.8c-0.1-0.4-0.2-0.8-0.4-1.3h568.4c40.5-54.5,88.1-103.6,141.3-145.9
		c58.9-46.8,124.8-85.4,196-114l1.6-0.7c3.6-1.5,7.2-2.7,10.8-3.6c12.6-3.2,25.2-2.9,36.9-0.1c-1.2-15.1-0.6-8.7-1.2-15.5l-0.7-7.9
		l-0.2-1.6c-7.6-81.9-17.7-153.6-27-210.1c-0.7-4.5-2.6-15.3-5.4-30.8l-0.2-1.2l-0.6,0.1c-1.9,0.5-3.9,1-6,1.3l-1,0.2v-0.1l-0.6,0.1
		c-2.1,0.3-4.2,0.6-6.3,0.7c-2.7,0.4-5.4,0.6-8.2,0.6h-0.1v-0.2c-6.6,0-12.7-0.6-18.4-1.8l0,0c-3.1-0.7-6.2-1.5-9.3-2.5
		c-6.3-2.1-12.3-4.9-17.9-8.4l0.1-0.1c-6.1-3.8-11.5-8.1-16-12.8l0,0c-4.8-5-8.9-10.6-12.2-16.7c-1.4-2.3-2.6-4.6-3.7-7.1
		c-0.1-0.2-0.5-1.4-1.8-5c-3.5-9.5-5.3-19.8-5.3-30.3h-0.2v-0.1c0-1.9,0.1-4.3,0.3-7.2l0.4-2.8c0.1-1.3,0.2-2.5,0.4-3.8l30.7-217.5
		c0-0.6,0.1-1.2,0.2-1.9c2.9-23.8,14.1-46.2,34.3-60.1c5.1-3.5,10.9-6.5,17.3-8.7v0.1c6.4-2.2,12.7-3.6,19-4.1v0.1l1.5-0.1h1l0,0
		c1.2,0,2.3-0.1,3.5,0c15.4,0.3,29,4.8,41.1,12.5c8.2,5.3,15.3,11.7,21.5,19c0.7,0.8,1.4,1.6,2.1,2.4l132.2,166.2v-79.4
		c-14.8-0.5-29-4.3-41.7-11.2c-2.6-1.4-5.4-3.2-8.5-5.3c-1.2-0.8-2.2-1.6-3.2-2.3c-0.6-0.4-1.2-0.9-1.8-1.3c-1.2-0.9-2.2-1.8-3-2.4
		l0.1-0.1c-7-6.2-12.8-13.4-17.2-21.3c-1.1-1.8-2.1-3.7-3-5.6c-1.4-3-2.5-5.7-3.4-8c-0.8-2.2-1.6-5.1-2.4-8.6
		c-1.4-6-2.1-12.6-2.1-19.5h-0.2c0-8,1.3-16.4,3.7-25c0.1-0.5,0.5-1.7,1.1-3.4c0.4-1.6,0.9-3.2,1.5-4.8c0.1-0.3,0.1-0.4,0.3-0.9h0.1
		l0.1-0.4l53.2-135.1c-483.5,18.5-969,111-1480.8,268.2l-237.9-284.7l96.1-405c451-144.9,907.9-232,1366.2-262.5l-36.3-80.2
		c-117.3,8.5-234.5,20.7-351.5,36.5c-167.2,22.6-334.1,52.8-500.5,90.5c-51.3,11.6-102.5,24-153.6,37c-2.1-70.8-4-141.5-5.8-212.1
		c-2.9-110.3-5.8-220.4-9.6-329.8c329.2,79,569.8,7.5,845.2-74.5c101.6-30.2,207.9-61.9,324.9-87.8C1822,98.4,1903.4,90,1985,90
		c8.9,0,17.9,0.1,26.8,0.3c72.5,1.6,144.4,9.9,211.9,24.8c115.1,25.5,220.8,56.5,322.1,86.3c281.1,82.6,546.4,147,877.7,67.6
		c-3.8,109.4-9,255.7-11.9,366c-1.6,59-3.2,117.9-5.2,176.6C3074.5,730,2740,677.4,2404.8,654.1l-45.7,80
		c480.7,30.1,960,121.6,1432.4,272.9l36.9,393.8L3597.6,1667.7z"/>
	<path class="st1" d="M1939.4,613.8c3,0,5.5-1.9,6.7-3.4c0.4-0.5,0.6-1,0.8-1.5c0.9-2.7,1.1-6.1,1.1-15.9c0-12.5-3.6-21.3-9.1-21.3
		h-0.2c-6,0-9.4,8.8-9,21.7C1929.9,603,1932.5,613.8,1939.4,613.8z"/>
	<path class="st1" d="M2173.4,622.2v-17c0-6,0.8-13.3,1.4-19.5h-0.6c-2.4,5.8-5,11.5-8.3,18.3c0,0,0,0,0,0.1l-11.9,22.8v0.4h14.4
		C2171.1,627.3,2173.4,625,2173.4,622.2z"/>
	<path class="st1" d="M2056.3,660.3h0.2c8.3,0,9-12.9,9-25.2V635c-0.2-7.4-2.2-17.8-9.8-17.8c-3.2,0-6.1,2.2-7.9,6.3
		c0,0.1,0,0.1-0.1,0.2c-0.8,1.6-1.4,6-1.4,12.9C2046.4,649.2,2049.8,660.3,2056.3,660.3z"/>
	<path class="st1" d="M1660.1,741.7c54.4-2.4,103.6-5.3,151.2-8c161.8-9.4,301.8-17.5,522.8,1.4l51.9-90.9l-24.1-108.7
		c-294.5-39.6-497.6-25.5-726.7,10.5l-21.1,93.9L1660.1,741.7z M2129,629.6l40.3-75.6c0.9-1.7,2.6-2.7,4.5-2.7h21.5
		c2.8,0,5.1,2.3,5.1,5.1v65.8c0,2.8,2.3,5.1,5.1,5.1h2.1c2.8,0,5.1,2.3,5.1,5.1v14.3c0,2.8-2.3,5.1-5.1,5.1h-2.1
		c-2.8,0-5.1,2.3-5.1,5.1v18.6c0,2.8-2.3,5.1-5.1,5.1h-16.9c-2.8,0-5.1-2.3-5.1-5.1v-18.6c0-2.8-2.3-5.1-5.1-5.1h-34.8
		c-2.8,0-5.1-2.3-5.1-5.1V632C2128.4,631.1,2128.6,630.3,2129,629.6z M2038.2,567.4c8.7-8.5,21.5-14.3,31.8-16.3h0.1
		c3.6-0.6,6.6-0.9,9-1.1c1.5-0.1,2.8,0.4,3.8,1.4c1.1,1,1.6,2.3,1.6,3.7v14.6c0,2.6-2,4.8-4.6,5.1c-2.2,0.2-4.5,0.6-6.8,1
		c-15.3,3-23.7,14.3-27.1,29.1h0.8c4.4-5.6,10.9-9.4,19.1-9.4c17.7,0,29.8,15.9,29.8,40.2c0,21.9-11.9,46.6-39.2,46.6
		c-25.3,0-41.6-20.5-41.6-53.8C2015.1,598.9,2025.5,579.8,2038.2,567.4z M1940.4,549.7c24.9,0,38.6,21.3,38.6,53.7
		c0,30.8-10.7,51.5-23.1,63.5c-8.2,8-19.7,13.1-32.8,15c-2.5,0.4-5.1,0.4-7.6,0.4c-2.8,0-5.1-2.3-5.1-5.1V662c0-2.7,2.2-5,4.9-5.1
		c2.7-0.1,4.9-0.4,8-0.9h0.1c4.4-0.8,9.7-3,14.1-6.8c4.8-4.2,9.1-12.3,11.3-21.5h-0.6c-4,4-9.5,6.8-17.3,6.8
		c-17.1,0-31.4-14.9-31.4-38.8C1899.4,574.2,1913.3,549.7,1940.4,549.7z M1813.6,579.8l-16.2,7.9c-1.5,0.7-3,0.7-4.5,0
		s-2.4-1.9-2.7-3.5l-2.8-13.8c-0.5-2.3,0.6-4.6,2.7-5.6l26-12.8c0.7-0.4,1.4-0.5,2.3-0.5h21c2.8,0,5.1,2.3,5.1,5.1v119.1
		c0,2.8-2.3,5.1-5.1,5.1h-20.2c-2.8,0-5.1-2.3-5.1-5.1v-95.8h-0.5V579.8z"/>
	<path class="st2" d="M2039.8,3161.1v381.4c0.6,7.1,2,17.2,6.8,24.9c4.3,6.9,12.2,12.4,26.6,12.3h0.2c0.8,0,1.9,0,3-0.1h0.1
		c0.5,0,1.8-0.1,3.5-0.3c67.8-8,132.6-26.1,192.5-52.8c12-5.3,23.5-10.9,34.6-16.6c11-5.7,22.1-11.8,33-18.3l0,0
		c2.8-1.9,4.6-3.8,5.6-5.9c1.1-2.3,1.6-5.2,1.6-8.5v-0.1c0-17-15.7-44.4-27.6-65.4c-3.5-6.1-6.7-11.7-8-14.2c-0.5-1-1.3-2.4-2.3-4.4
		l0,0c-22.7-44.9-43-90.8-61.2-137.4l0,0c-3.9-9.9-7.3-19-10.4-27.1c-3.1-8.4-6.4-17.4-9.8-27.2l0,0v-0.1v-0.1
		c-3.7-10.5-6.1-18.6-8.3-25.7c-9-29.7-11.8-39-59.1-36.4c-23.3,1.3-47.5,2.4-72.4,3.1l-14.5,0.4h-0.1l-6.6,0.1l-9.1,0.5l-5.9,0.3
		l0,0l0,0l-1,0.2l-0.7,0.2l0,0c-1.1,0.3-2.5,0.8-3.9,1.7l0,0c-1.6,1.1-3.2,2.4-4.2,4.2C2040.7,3152.3,2039.8,3155.8,2039.8,3161.1
		L2039.8,3161.1z"/>
	
		<radialGradient id="SVGID_1_" cx="2000.0002" cy="1066.9666" r="695.3759" gradientTransform="matrix(1 0 0 -1 0 3997.8899)" gradientUnits="userSpaceOnUse">
		<stop  offset="0" style="stop-color:#FFDC00"/>
		<stop  offset="0.2194" style="stop-color:#FED700"/>
		<stop  offset="0.4779" style="stop-color:#FCC900"/>
		<stop  offset="0.755" style="stop-color:#F8B100"/>
		<stop  offset="1" style="stop-color:#F49600"/>
	</radialGradient>
	<path class="st3" d="M2039.8,3161.1v381.4c0.6,7.1,2,17.2,6.8,24.9c4.3,6.9,12.2,12.4,26.6,12.3h0.2c0.8,0,1.9,0,3-0.1h0.1
		c0.5,0,1.8-0.1,3.5-0.3c67.8-8,132.6-26.1,192.5-52.8c12-5.3,23.5-10.9,34.6-16.6c11-5.7,22.1-11.8,33-18.3l0,0
		c2.8-1.9,4.6-3.8,5.6-5.9c1.1-2.3,1.6-5.2,1.6-8.5v-0.1c0-17-15.7-44.4-27.6-65.4c-3.5-6.1-6.7-11.7-8-14.2c-0.5-1-1.3-2.4-2.3-4.4
		l0,0c-22.7-44.9-43-90.8-61.2-137.4l0,0c-3.9-9.9-7.3-19-10.4-27.1c-3.1-8.4-6.4-17.4-9.8-27.2l0,0v-0.1v-0.1
		c-3.7-10.5-6.1-18.6-8.3-25.7c-9-29.7-11.8-39-59.1-36.4c-23.3,1.3-47.5,2.4-72.4,3.1l-14.5,0.4h-0.1l-6.6,0.1l-9.1,0.5l-5.9,0.3
		l0,0l0,0l-1,0.2l-0.7,0.2l0,0c-1.1,0.3-2.5,0.8-3.9,1.7l0,0c-1.6,1.1-3.2,2.4-4.2,4.2C2040.7,3152.3,2039.8,3155.8,2039.8,3161.1
		L2039.8,3161.1z"/>
	<path class="st2" d="M2290.5,3137.3v0.4c0,0.5,0,0.9,0,1.2s0.1,0.8,0.2,1.2c15.6,47.8,33.5,95.5,54.1,142.6
		c4.2,9.6,8.3,18.8,12.3,27.5c4.6,9.9,8.9,19.1,12.9,27.3l0.1,0.1c2.6,5.3,4.9,10.6,7.4,16.3c9.6,21.6,21.4,48.5,36.9,58.6l0,0h0.1
		l0,0c2.1,1.4,4.2,2.3,6.2,2.8c2.2,0.6,4.3,0.9,6.4,0.9c7.9,0,16.5-4,22.9-8l0,0c1.4-0.9,2.8-1.8,4-2.7l0,0c1-0.7,2-1.4,3-2.2l0,0
		l1.2-1l3.5-3.3c1.8-1.7,3.6-3.4,6.4-6.1l0,0c66.1-65.1,118.1-143.9,151.6-231.6c6.5-17,12.3-34.4,17.4-52.2
		c5-17.6,9.4-35.6,12.9-53.8c0.1-1.2,0.2-2.5,0.3-3.8l0,0l0.1-0.9c0.1-1.9,0.2-3.5,0.2-4.7v-0.1l0,0v-0.5l0,0c0-6.1,4.3-6.4,4.2-6.5
		c-6.3,0.5-23,9.2-35.4,15.6c-6.3,3.3-11.7,6.1-15.4,7.6h-0.1c-48,18.9-98.9,32.4-150.2,42.5c-50.6,10-101.9,16.8-151.3,22.5
		c-2.5,0.8-7.9,3.1-10.7,6.8l0,0c-0.4,0.5-0.7,1-0.8,1.5l0,0c-0.2,0.5-0.3,1-0.3,1.4L2290.5,3137.3z"/>
	
		<radialGradient id="SVGID_00000000923903565421270660000011188697273921816472_" cx="2000.0002" cy="1066.9666" r="695.3759" gradientTransform="matrix(1 0 0 -1 0 3997.8899)" gradientUnits="userSpaceOnUse">
		<stop  offset="0" style="stop-color:#FFDC00"/>
		<stop  offset="0.2194" style="stop-color:#FED700"/>
		<stop  offset="0.4779" style="stop-color:#FCC900"/>
		<stop  offset="0.755" style="stop-color:#F8B100"/>
		<stop  offset="1" style="stop-color:#F49600"/>
	</radialGradient>
	<path style="fill:url(#SVGID_00000000923903565421270660000011188697273921816472_);" d="M2290.5,3137.3v0.4c0,0.5,0,0.9,0,1.2
		s0.1,0.8,0.2,1.2c15.6,47.8,33.5,95.5,54.1,142.6c4.2,9.6,8.3,18.8,12.3,27.5c4.6,9.9,8.9,19.1,12.9,27.3l0.1,0.1
		c2.6,5.3,4.9,10.6,7.4,16.3c9.6,21.6,21.4,48.5,36.9,58.6l0,0h0.1l0,0c2.1,1.4,4.2,2.3,6.2,2.8c2.2,0.6,4.3,0.9,6.4,0.9
		c7.9,0,16.5-4,22.9-8l0,0c1.4-0.9,2.8-1.8,4-2.7l0,0c1-0.7,2-1.4,3-2.2l0,0l1.2-1l3.5-3.3c1.8-1.7,3.6-3.4,6.4-6.1l0,0
		c66.1-65.1,118.1-143.9,151.6-231.6c6.5-17,12.3-34.4,17.4-52.2c5-17.6,9.4-35.6,12.9-53.8c0.1-1.2,0.2-2.5,0.3-3.8l0,0l0.1-0.9
		c0.1-1.9,0.2-3.5,0.2-4.7v-0.1l0,0v-0.5l0,0c0-6.1,4.3-6.4,4.2-6.5c-6.3,0.5-23,9.2-35.4,15.6c-6.3,3.3-11.7,6.1-15.4,7.6h-0.1
		c-48,18.9-98.9,32.4-150.2,42.5c-50.6,10-101.9,16.8-151.3,22.5c-2.5,0.8-7.9,3.1-10.7,6.8l0,0c-0.4,0.5-0.7,1-0.8,1.5l0,0
		c-0.2,0.5-0.3,1-0.3,1.4L2290.5,3137.3z"/>
	<path class="st2" d="M1770.8,2276.4c0.8,1.9,1.4,3.8,1.9,5.6c3.9,15.1-1.7,30.4-13.1,39.8l0,0c-2.3,1.9-4.7,3.5-7.3,4.8
		c-2.2,1.1-4.7,2.1-7.3,2.8c-57.7,23.7-111.3,55.2-159.4,93.2c-9.6,7.6-18.8,15.3-27.5,23s-17.5,15.9-26.2,24.4l0,0l-0.1,0.1l0,0
		c-50.2,49.5-92.3,106.8-124.4,169.9c-6.2,12.2-12.1,24.7-17.5,37.5c-33.5,78.1-52,163.9-52,254l0,0v0.1c0,4,0.1,6.4,0.2,8.7
		c1.1,1.4,2.2,2.8,3.5,4.1c2,2,4.2,3.9,6.7,5.5h0.1c3.3,2.2,7.4,4.7,12,7.5l0,0c3.8,2.3,8.2,4.9,13.1,7.7l0.1,0.1
		c22,12.9,53.1,25.7,91.4,37.4c7.6,2.3,15.4,4.6,23.3,6.8c7.8,2.1,16.1,4.3,24.9,6.5l0,0h0.1c41.9,10.3,89.7,19.4,141.9,26.8
		c11.2,1.6,21.6,3,31.1,4.2c9.6,1.2,20.2,2.4,31.9,3.7c3.7-0.2,8.4-0.7,12.2-3c4-2.5,7.9-7.5,10.6-17.3l0,0
		c20.9-81.8,36.1-163.9,46.5-244.5c2-15.2,3.8-30.9,5.6-47.1c10.5-96.1,14.7-189.9,14.7-278.3l0,0v-0.3v-0.3v-0.4l0,0
		c0-21.8-0.2-41.7-0.6-60c-0.4-19.4-1.1-38.9-1.9-58.3v-0.9v-0.2l0,0v-0.1l0,0v-0.1c-0.2-6.4-0.5-14-0.9-22.4
		c-0.3-5-0.5-10.5-0.9-16.4l-0.1-1.4l0,0l-0.6-8.8l-0.3-5.2v-0.8v-0.1l0,0v-0.2l0,0v-0.4v-0.4l0,0l0,0c-0.4-6-0.9-12.5-1.3-19.1
		c-10.5,3.1-21,6.5-31.3,10.1C1770.2,2275.1,1770.5,2275.7,1770.8,2276.4L1770.8,2276.4z"/>
	
		<radialGradient id="SVGID_00000093147672817027903970000002517970276596946323_" cx="2000.0002" cy="1066.9666" r="695.3759" gradientTransform="matrix(1 0 0 -1 0 3997.8899)" gradientUnits="userSpaceOnUse">
		<stop  offset="0" style="stop-color:#FFDC00"/>
		<stop  offset="0.2194" style="stop-color:#FED700"/>
		<stop  offset="0.4779" style="stop-color:#FCC900"/>
		<stop  offset="0.755" style="stop-color:#F8B100"/>
		<stop  offset="1" style="stop-color:#F49600"/>
	</radialGradient>
	<path style="fill:url(#SVGID_00000093147672817027903970000002517970276596946323_);" d="M1770.8,2276.4c0.8,1.9,1.4,3.8,1.9,5.6
		c3.9,15.1-1.7,30.4-13.1,39.8l0,0c-2.3,1.9-4.7,3.5-7.3,4.8c-2.2,1.1-4.7,2.1-7.3,2.8c-57.7,23.7-111.3,55.2-159.4,93.2
		c-9.6,7.6-18.8,15.3-27.5,23s-17.5,15.9-26.2,24.4l0,0l-0.1,0.1l0,0c-50.2,49.5-92.3,106.8-124.4,169.9
		c-6.2,12.2-12.1,24.7-17.5,37.5c-33.5,78.1-52,163.9-52,254l0,0v0.1c0,4,0.1,6.4,0.2,8.7c1.1,1.4,2.2,2.8,3.5,4.1
		c2,2,4.2,3.9,6.7,5.5h0.1c3.3,2.2,7.4,4.7,12,7.5l0,0c3.8,2.3,8.2,4.9,13.1,7.7l0.1,0.1c22,12.9,53.1,25.7,91.4,37.4
		c7.6,2.3,15.4,4.6,23.3,6.8c7.8,2.1,16.1,4.3,24.9,6.5l0,0h0.1c41.9,10.3,89.7,19.4,141.9,26.8c11.2,1.6,21.6,3,31.1,4.2
		c9.6,1.2,20.2,2.4,31.9,3.7c3.7-0.2,8.4-0.7,12.2-3c4-2.5,7.9-7.5,10.6-17.3l0,0c20.9-81.8,36.1-163.9,46.5-244.5
		c2-15.2,3.8-30.9,5.6-47.1c10.5-96.1,14.7-189.9,14.7-278.3l0,0v-0.3v-0.3v-0.4l0,0c0-21.8-0.2-41.7-0.6-60
		c-0.4-19.4-1.1-38.9-1.9-58.3v-0.9v-0.2l0,0v-0.1l0,0v-0.1c-0.2-6.4-0.5-14-0.9-22.4c-0.3-5-0.5-10.5-0.9-16.4l-0.1-1.4l0,0
		l-0.6-8.8l-0.3-5.2v-0.8v-0.1l0,0v-0.2l0,0v-0.4v-0.4l0,0l0,0c-0.4-6-0.9-12.5-1.3-19.1c-10.5,3.1-21,6.5-31.3,10.1
		C1770.2,2275.1,1770.5,2275.7,1770.8,2276.4L1770.8,2276.4z"/>
	<path class="st2" d="M1881.6,2272.4L1881.6,2272.4l0.4,6l0.7,11.5h-0.2c1.4,24.6,2.5,50.2,3.3,76.6c0.9,30.1,1.5,61,1.5,92.7
		c0,80.1-3.4,164.6-11.5,251.2c-8.2,86.9-21.1,175.9-40.4,265.1c-1.5,7.1-3.9,15.7-6.4,24.7c-4.9,17.7-10.3,37.1-10.4,52.4v0.4l0,0
		v0.1l0,0c0.2,3.3,0.5,5.8,1,6.9v-0.6h0.2h0.1l0,0c30.8,2.1,62.1,3.6,93.3,4.6c6.5,0.2,12.8,0.4,18.8,0.5c6.5,0.2,12.8,0.3,18.9,0.4
		h0.8c1.3-0.2,2.2-0.5,2.8-1l0,0c0.9-0.8,1.8-2.2,2.7-4.2l0,0c1.4-3.1,2.2-6.9,2.6-10.2l0,0c0.1-0.8,0.2-1.5,0.2-2.1v-0.1l0.1-1.8
		l0,0v-0.7l0,0v-691.3v-93.3v-23.7c-27.2,1.5-54.1,4.6-80.4,9.2c0.1,1.5,0.2,2.9,0.3,4.5C1880.6,2256.7,1881.1,2264,1881.6,2272.4z"
		/>
	
		<radialGradient id="SVGID_00000001637663764765697820000017999920534119587233_" cx="2000.0002" cy="1066.9666" r="695.3759" gradientTransform="matrix(1 0 0 -1 0 3997.8899)" gradientUnits="userSpaceOnUse">
		<stop  offset="0" style="stop-color:#FFDC00"/>
		<stop  offset="0.2194" style="stop-color:#FED700"/>
		<stop  offset="0.4779" style="stop-color:#FCC900"/>
		<stop  offset="0.755" style="stop-color:#F8B100"/>
		<stop  offset="1" style="stop-color:#F49600"/>
	</radialGradient>
	<path style="fill:url(#SVGID_00000001637663764765697820000017999920534119587233_);" d="M1881.6,2272.4L1881.6,2272.4l0.4,6
		l0.7,11.5h-0.2c1.4,24.6,2.5,50.2,3.3,76.6c0.9,30.1,1.5,61,1.5,92.7c0,80.1-3.4,164.6-11.5,251.2c-8.2,86.9-21.1,175.9-40.4,265.1
		c-1.5,7.1-3.9,15.7-6.4,24.7c-4.9,17.7-10.3,37.1-10.4,52.4v0.4l0,0v0.1l0,0c0.2,3.3,0.5,5.8,1,6.9v-0.6h0.2h0.1l0,0
		c30.8,2.1,62.1,3.6,93.3,4.6c6.5,0.2,12.8,0.4,18.8,0.5c6.5,0.2,12.8,0.3,18.9,0.4h0.8c1.3-0.2,2.2-0.5,2.8-1l0,0
		c0.9-0.8,1.8-2.2,2.7-4.2l0,0c1.4-3.1,2.2-6.9,2.6-10.2l0,0c0.1-0.8,0.2-1.5,0.2-2.1v-0.1l0.1-1.8l0,0v-0.7l0,0v-691.3v-93.3v-23.7
		c-27.2,1.5-54.1,4.6-80.4,9.2c0.1,1.5,0.2,2.9,0.3,4.5C1880.6,2256.7,1881.1,2264,1881.6,2272.4z"/>
	<path class="st2" d="M2039.8,2353.7V3045l0,0c0.1,2.3,0.4,5.8,1.3,9.6c0.2,1.1,0.5,1.9,0.6,2.2l0,0c0.3,0.9,0.5,1.5,0.7,2l0,0
		l0.3,0.8l0,0c1,2,1.9,3.6,2.8,4.3l0,0c0.6,0.5,1.5,0.8,2.8,1c31.4-0.6,62.9-1.6,93.9-3.3c5.7-0.3,11.7-0.6,18.3-1
		c5.5-0.3,11.5-0.7,18.1-1.1h0.1l1.7-0.1v0.5c0.5-1.1,0.8-3.6,1-6.8l0,0c0-16.5-5.7-37-10.9-55.7c-2.6-9.5-5.2-18.5-6.9-26.5l0,0
		v-0.1l0,0c-18.9-88.4-31.6-176.6-39.6-262.7c-8-85.9-11.3-169.5-11.3-249c0-31.7,0.5-62.7,1.5-92.7c0.8-26.4,2-52,3.4-76.5h-0.2
		l0.7-11.6l0.4-6c0.6-10,1.2-18.9,1.8-26.5c-26.3-4.6-53.2-7.7-80.4-9.2v23.7L2039.8,2353.7L2039.8,2353.7z"/>
	
		<radialGradient id="SVGID_00000066477761409800073760000005460269893274238101_" cx="2000.0002" cy="1066.9666" r="695.3759" gradientTransform="matrix(1 0 0 -1 0 3997.8899)" gradientUnits="userSpaceOnUse">
		<stop  offset="0" style="stop-color:#FFDC00"/>
		<stop  offset="0.2194" style="stop-color:#FED700"/>
		<stop  offset="0.4779" style="stop-color:#FCC900"/>
		<stop  offset="0.755" style="stop-color:#F8B100"/>
		<stop  offset="1" style="stop-color:#F49600"/>
	</radialGradient>
	<path style="fill:url(#SVGID_00000066477761409800073760000005460269893274238101_);" d="M2039.8,2353.7V3045l0,0
		c0.1,2.3,0.4,5.8,1.3,9.6c0.2,1.1,0.5,1.9,0.6,2.2l0,0c0.3,0.9,0.5,1.5,0.7,2l0,0l0.3,0.8l0,0c1,2,1.9,3.6,2.8,4.3l0,0
		c0.6,0.5,1.5,0.8,2.8,1c31.4-0.6,62.9-1.6,93.9-3.3c5.7-0.3,11.7-0.6,18.3-1c5.5-0.3,11.5-0.7,18.1-1.1h0.1l1.7-0.1v0.5
		c0.5-1.1,0.8-3.6,1-6.8l0,0c0-16.5-5.7-37-10.9-55.7c-2.6-9.5-5.2-18.5-6.9-26.5l0,0v-0.1l0,0c-18.9-88.4-31.6-176.6-39.6-262.7
		c-8-85.9-11.3-169.5-11.3-249c0-31.7,0.5-62.7,1.5-92.7c0.8-26.4,2-52,3.4-76.5h-0.2l0.7-11.6l0.4-6c0.6-10,1.2-18.9,1.8-26.5
		c-26.3-4.6-53.2-7.7-80.4-9.2v23.7L2039.8,2353.7L2039.8,2353.7z"/>
	<path class="st2" d="M2197.8,2278.1l-0.4,5.7v0.5v0.2l0,0v0.2l-0.1,1.5l-0.3,4.3v0.4v0.3l-0.1,1.5v0.5l-0.1,1.2v0.6l-0.1,1.2v0.6
		l-0.1,1.2v0.4v0.2c-0.4,6.7-0.8,12.9-1.1,18.6c-0.4,8-0.7,15.3-0.9,21.5v1v0.1l0,0v0.5v0.6c-0.8,19.5-1.4,38.9-1.9,58.3
		c-0.4,18.2-0.6,38-0.6,59.6v1.1l0,0c0,127.5,8.8,265.7,32.3,406c4.6,27.4,9.7,54.8,15.4,82c5.6,26.9,12,54.3,19.1,82l0,0v0.2l0,0
		c2.7,9.9,6.6,15,10.7,17.5c3.8,2.4,8.5,2.8,12.2,3c55.6-6.1,107.1-13.9,153.2-23.2c8.8-1.8,17.6-3.6,26.4-5.6
		c8.1-1.8,16.4-3.8,25.1-5.9h0.1h0.2l0,0c43.8-10.8,81.2-23,110.2-35.8c5.7-2.5,11-5,15.8-7.4c5-2.5,9.6-5,13.7-7.4l0.1-0.1h0.1
		c3.9-2.2,8.2-4.8,13.1-7.8l0,0c4.1-2.5,8.1-5,11.9-7.5h0.1c2.5-1.6,4.7-3.4,6.7-5.5c1.2-1.3,2.4-2.6,3.5-4.1
		c0.1-2.3,0.1-4.6,0.1-8.7c0-129.8-38.4-250.6-104.5-352.2c-12.9-19.8-26.8-38.8-41.7-57s-30.8-35.6-47.6-52.2l0,0l0,0l0,0
		c-43.7-43-93.4-80-147.9-109.7c-10.7-5.8-21.5-11.3-32.3-16.5c-10.6-5.1-21.5-9.9-32.6-14.5c-14.8-4.1-25.4-16-28.4-30
		c-0.6-2.7-0.9-5.6-0.8-8.5l0,0c0.1-3,0.4-6,1.1-8.8l0,0v-0.1c0.5-1.9,1.2-3.9,1.9-5.7c0.3-0.6,0.5-1.2,0.8-1.8
		c-10.3-3.6-20.7-7-31.3-10.1c-0.2,2.7-0.4,5.4-0.6,8L2197.8,2278.1z"/>
	
		<radialGradient id="SVGID_00000054246125640013749220000015034814341662943419_" cx="2000.0002" cy="1066.9666" r="695.3759" gradientTransform="matrix(1 0 0 -1 0 3997.8899)" gradientUnits="userSpaceOnUse">
		<stop  offset="0" style="stop-color:#FFDC00"/>
		<stop  offset="0.2194" style="stop-color:#FED700"/>
		<stop  offset="0.4779" style="stop-color:#FCC900"/>
		<stop  offset="0.755" style="stop-color:#F8B100"/>
		<stop  offset="1" style="stop-color:#F49600"/>
	</radialGradient>
	<path style="fill:url(#SVGID_00000054246125640013749220000015034814341662943419_);" d="M2197.8,2278.1l-0.4,5.7v0.5v0.2l0,0v0.2
		l-0.1,1.5l-0.3,4.3v0.4v0.3l-0.1,1.5v0.5l-0.1,1.2v0.6l-0.1,1.2v0.6l-0.1,1.2v0.4v0.2c-0.4,6.7-0.8,12.9-1.1,18.6
		c-0.4,8-0.7,15.3-0.9,21.5v1v0.1l0,0v0.5v0.6c-0.8,19.5-1.4,38.9-1.9,58.3c-0.4,18.2-0.6,38-0.6,59.6v1.1l0,0
		c0,127.5,8.8,265.7,32.3,406c4.6,27.4,9.7,54.8,15.4,82c5.6,26.9,12,54.3,19.1,82l0,0v0.2l0,0c2.7,9.9,6.6,15,10.7,17.5
		c3.8,2.4,8.5,2.8,12.2,3c55.6-6.1,107.1-13.9,153.2-23.2c8.8-1.8,17.6-3.6,26.4-5.6c8.1-1.8,16.4-3.8,25.1-5.9h0.1h0.2l0,0
		c43.8-10.8,81.2-23,110.2-35.8c5.7-2.5,11-5,15.8-7.4c5-2.5,9.6-5,13.7-7.4l0.1-0.1h0.1c3.9-2.2,8.2-4.8,13.1-7.8l0,0
		c4.1-2.5,8.1-5,11.9-7.5h0.1c2.5-1.6,4.7-3.4,6.7-5.5c1.2-1.3,2.4-2.6,3.5-4.1c0.1-2.3,0.1-4.6,0.1-8.7
		c0-129.8-38.4-250.6-104.5-352.2c-12.9-19.8-26.8-38.8-41.7-57s-30.8-35.6-47.6-52.2l0,0l0,0l0,0c-43.7-43-93.4-80-147.9-109.7
		c-10.7-5.8-21.5-11.3-32.3-16.5c-10.6-5.1-21.5-9.9-32.6-14.5c-14.8-4.1-25.4-16-28.4-30c-0.6-2.7-0.9-5.6-0.8-8.5l0,0
		c0.1-3,0.4-6,1.1-8.8l0,0v-0.1c0.5-1.9,1.2-3.9,1.9-5.7c0.3-0.6,0.5-1.2,0.8-1.8c-10.3-3.6-20.7-7-31.3-10.1
		c-0.2,2.7-0.4,5.4-0.6,8L2197.8,2278.1z"/>
	<path class="st2" d="M1358.2,3092.1c0.8,3,1.3,5.2,1.8,7l0,0l2,7.2l0,0v0.1l0,0c22.3,79.1,59.2,152.1,107.7,216
		c9.4,12.4,19.3,24.5,29.7,36.3c10.3,11.7,21,23.1,32.2,34.1l0,0l0.1,0.1l0,0c1.9,1.9,4.1,3.9,6.3,5.9l0,0l3.8,3.6
		c3.7,3.1,11.1,8.3,19.4,11.4c1.5,0.5,3.1,1,4.9,1.5c1.6,0.4,3.2,0.6,4.7,0.7l0,0c0.9,0.1,1.5,0.1,1.9,0.1
		c19.8-0.4,32.8-28.3,42.7-49.4c1.8-3.8,3.5-7.5,4.8-10l0,0l0.7-1.4l0,0c25.4-50.7,47.7-102.5,67-154.7c3.7-9.9,7.3-20.1,10.9-30.6
		c3.6-10.4,7-20.5,10.1-30.1l0.1-1.1l0,0v-1.1l0.1-0.6c0.2-3.7-4.7-6.8-8.3-8.6l0,0c-0.9-0.4-1.7-0.8-2.5-1.1l0,0l-0.9-0.3
		c-84.4-9.7-160-23.4-223.6-40.4c-12.5-3.3-24.5-6.8-36.1-10.4c-11.4-3.6-22.5-7.3-33.2-11.2l0,0h-0.1l0,0c-7-2.6-15-6.7-23.1-10.8
		c-12.4-6.4-25.3-13.1-31.4-12.4c-0.9,0.1-1.2,3.7-0.1,13.8C1352.4,3067.8,1355.1,3080,1358.2,3092.1z"/>
	
		<radialGradient id="SVGID_00000013897119861255591210000014272171149215543737_" cx="2000.0002" cy="1066.9666" r="695.3759" gradientTransform="matrix(1 0 0 -1 0 3997.8899)" gradientUnits="userSpaceOnUse">
		<stop  offset="0" style="stop-color:#FFDC00"/>
		<stop  offset="0.2194" style="stop-color:#FED700"/>
		<stop  offset="0.4779" style="stop-color:#FCC900"/>
		<stop  offset="0.755" style="stop-color:#F8B100"/>
		<stop  offset="1" style="stop-color:#F49600"/>
	</radialGradient>
	<path style="fill:url(#SVGID_00000013897119861255591210000014272171149215543737_);" d="M1358.2,3092.1c0.8,3,1.3,5.2,1.8,7l0,0
		l2,7.2l0,0v0.1l0,0c22.3,79.1,59.2,152.1,107.7,216c9.4,12.4,19.3,24.5,29.7,36.3c10.3,11.7,21,23.1,32.2,34.1l0,0l0.1,0.1l0,0
		c1.9,1.9,4.1,3.9,6.3,5.9l0,0l3.8,3.6c3.7,3.1,11.1,8.3,19.4,11.4c1.5,0.5,3.1,1,4.9,1.5c1.6,0.4,3.2,0.6,4.7,0.7l0,0
		c0.9,0.1,1.5,0.1,1.9,0.1c19.8-0.4,32.8-28.3,42.7-49.4c1.8-3.8,3.5-7.5,4.8-10l0,0l0.7-1.4l0,0c25.4-50.7,47.7-102.5,67-154.7
		c3.7-9.9,7.3-20.1,10.9-30.6c3.6-10.4,7-20.5,10.1-30.1l0.1-1.1l0,0v-1.1l0.1-0.6c0.2-3.7-4.7-6.8-8.3-8.6l0,0
		c-0.9-0.4-1.7-0.8-2.5-1.1l0,0l-0.9-0.3c-84.4-9.7-160-23.4-223.6-40.4c-12.5-3.3-24.5-6.8-36.1-10.4c-11.4-3.6-22.5-7.3-33.2-11.2
		l0,0h-0.1l0,0c-7-2.6-15-6.7-23.1-10.8c-12.4-6.4-25.3-13.1-31.4-12.4c-0.9,0.1-1.2,3.7-0.1,13.8
		C1352.4,3067.8,1355.1,3080,1358.2,3092.1z"/>
	<path class="st2" d="M1691.5,3391.5L1691.5,3391.5l-0.1,0.2c-4.3,8.5-8.6,16.1-12.8,23.7c-9.9,17.6-19.5,34.7-24.5,54.5v0.1
		c-0.4,1.6-0.7,3-0.9,4.2l0,0c-0.2,1.3-0.4,2.4-0.4,3.4c0.1,3.1,0.5,5.9,1.6,8.1c1,2.1,2.7,4,5.5,5.9c56,33.1,117.3,58.2,182.4,73.8
		c12.8,3.1,25.7,5.8,38.5,8.1c12.5,2.2,25.6,4.2,39.2,5.8c1.8,0.1,3.1,0.3,3.5,0.3h0.1c1.2,0.1,2.2,0.1,3,0.1h0.2
		c14.4,0,22.3-5.4,26.6-12.3c4.8-7.6,6.2-17.6,6.8-24.7v-381.5l0,0c-0.1-5.3-1-8.8-2.3-11.2l0,0c-1-1.8-2.6-3.1-4.2-4.2l0,0
		c-1.1-0.7-2.2-1.1-3.2-1.5l-0.9-0.3l-0.8-0.2l-0.2-0.1h-0.5l-6-0.3l-9.2-0.5c-19.6-0.5-38.8-1.1-57.6-1.9l-13-0.6h-0.1l-12.9-0.7
		l0,0l-1.5-0.1l0,0c-54.1-2.9-55.4,1.2-67.4,37.1c-1.4,4.2-2.9,8.7-4.6,13.7c-16.8,49-36.1,97.7-57.9,145.7
		c-4.4,9.8-8.8,19.1-13,27.9C1700.7,3373.1,1696.2,3382.3,1691.5,3391.5z"/>
	
		<radialGradient id="SVGID_00000049939491811933536030000003462218809827029134_" cx="2000.0002" cy="1066.9666" r="695.3759" gradientTransform="matrix(1 0 0 -1 0 3997.8899)" gradientUnits="userSpaceOnUse">
		<stop  offset="0" style="stop-color:#FFDC00"/>
		<stop  offset="0.2194" style="stop-color:#FED700"/>
		<stop  offset="0.4779" style="stop-color:#FCC900"/>
		<stop  offset="0.755" style="stop-color:#F8B100"/>
		<stop  offset="1" style="stop-color:#F49600"/>
	</radialGradient>
	<path style="fill:url(#SVGID_00000049939491811933536030000003462218809827029134_);" d="M1691.5,3391.5L1691.5,3391.5l-0.1,0.2
		c-4.3,8.5-8.6,16.1-12.8,23.7c-9.9,17.6-19.5,34.7-24.5,54.5v0.1c-0.4,1.6-0.7,3-0.9,4.2l0,0c-0.2,1.3-0.4,2.4-0.4,3.4
		c0.1,3.1,0.5,5.9,1.6,8.1c1,2.1,2.7,4,5.5,5.9c56,33.1,117.3,58.2,182.4,73.8c12.8,3.1,25.7,5.8,38.5,8.1
		c12.5,2.2,25.6,4.2,39.2,5.8c1.8,0.1,3.1,0.3,3.5,0.3h0.1c1.2,0.1,2.2,0.1,3,0.1h0.2c14.4,0,22.3-5.4,26.6-12.3
		c4.8-7.6,6.2-17.6,6.8-24.7v-381.5l0,0c-0.1-5.3-1-8.8-2.3-11.2l0,0c-1-1.8-2.6-3.1-4.2-4.2l0,0c-1.1-0.7-2.2-1.1-3.2-1.5l-0.9-0.3
		l-0.8-0.2l-0.2-0.1h-0.5l-6-0.3l-9.2-0.5c-19.6-0.5-38.8-1.1-57.6-1.9l-13-0.6h-0.1l-12.9-0.7l0,0l-1.5-0.1l0,0
		c-54.1-2.9-55.4,1.2-67.4,37.1c-1.4,4.2-2.9,8.7-4.6,13.7c-16.8,49-36.1,97.7-57.9,145.7c-4.4,9.8-8.8,19.1-13,27.9
		C1700.7,3373.1,1696.2,3382.3,1691.5,3391.5z"/>
	<line class="st11" x1="2051.9" y1="3143.7" x2="2051.9" y2="3143.7"/>
	<path class="st1" d="M2032,1343.5L2032,1343.5c-2.7-6.7-6.1-12.7-10.7-17.3c-5.5-5.6-12.3-9-20.8-9.4l-0.5-0.1l0,0l-0.5,0.1
		c-8.6,0.3-15.4,3.8-20.8,9.4c-4.5,4.6-7.9,10.6-10.6,17.2l-0.1,0.1l-90.4,229.1l-0.1,0.2l0,0l0,0l0,0c-0.3,0.7-0.6,1.5-0.9,2.5
		c-0.2,0.6-0.5,1.5-0.8,2.6c-1.3,4.6-2,9.1-2,13.4h0.1c0,3.9,0.5,7.7,1.5,11.4l0,0c0.4,1.3,0.8,2.7,1.3,4h0.1
		c0.5,1.4,1.1,2.7,1.7,3.8l0,0c2.3,4.3,5.3,8.3,9.1,11.6l0,0l0,0l0.2,0.1l0,0l0,0l0.1,0.1l0,0c1,0.8,2.2,1.8,3.6,2.8l0,0
		c1.2,0.8,2.6,1.7,4.2,2.5c7.2,3.9,15.5,5.9,24.5,5.9h0.3h7.2c6.4,0.5,15.4,1.7,22.1,5.7c5.9,3.5,10.6,9.8,10.5,21.5l0,0v0.9l0,0
		v486.7l0,0v71.8v16.3v23.7v93.3V3045l0,0v0.7l0,0l-0.1,1.8v0.1c0,0.6-0.1,1.3-0.2,2.1l0,0c-0.4,3.3-1.2,7.1-2.6,10.2l0,0
		c-0.9,1.9-1.8,3.4-2.7,4.2l0,0c-0.6,0.5-1.5,0.8-2.8,1h-0.8c-6.1-0.1-12.4-0.2-18.9-0.4c-6-0.1-12.3-0.3-18.8-0.5
		c-31.3-1-62.5-2.5-93.3-4.6l0,0h-0.1h-0.2v0.6c-0.5-1.1-0.8-3.6-1-6.9l0,0v-0.1l0,0v-0.4c0.1-15.3,5.5-34.7,10.4-52.4
		c2.5-9,4.9-17.6,6.4-24.7c19.2-89.1,32.2-178.2,40.4-265.1c8.1-86.7,11.5-171.1,11.5-251.2c0-31.7-0.5-62.7-1.5-92.7
		c-0.8-26.5-2-52-3.3-76.6h0.2l-0.7-11.5l-0.4-6l0,0c-0.5-8.4-1-15.7-1.5-21.9c-0.1-1.6-0.2-3.1-0.3-4.5c-0.4-5.3-0.7-9.9-1-13.8
		l-0.6-7.3l-1.2-15.1h-0.1c-3.8-46.8-8.5-90.4-13.4-130.3c-5.4-43.6-11.3-83.5-17.1-118.4c-3.4-20.6-5.6-34.2-7.4-44.2
		c-1.9-10.8-4.2-22.4-7.9-40.4v-0.1v-1.8l0,0c0.1-3,0.5-5.8,1.5-7.7l0,0c0.8-1.5,2.3-2.8,5.1-3.9l23.3-7.1c1.6-0.5,3.3-1,4.9-1.7
		c2.5-1,4.9-2.2,7.2-3.5c2.3-1.4,4.5-2.9,6.4-4.5c9.6-8,15.3-19.3,15.2-31.7l0,0v-0.1l0,0l0,0c0-5.3-1-10.5-2.9-15.5
		c-0.4-1-0.7-1.8-1-2.4c-1.8-4-4.2-7.9-7.1-11.6l-133.8-168l0,0c-3.9-4.8-8.1-8.9-12.9-11.9c-5.4-3.5-11.4-5.5-18-5.6h-0.4
		c-0.8,0-1.5,0.1-2.2,0.1c-2.8,0.3-5.5,0.8-7.8,1.7l0,0c-2.5,0.9-4.7,2.1-6.7,3.5l0,0c-8.9,6.3-14,17.3-15.5,29.3l0,0l-31,219.9v0.1
		c-0.2,1.7-0.4,2.9-0.4,3.7v0.1c-0.1,1.4-0.2,2.8-0.2,3.9v0.1l0,0c0,5.6,0.9,10.9,2.7,15.8v0.1c0.3,0.8,0.6,1.6,0.9,2.3h0.1
		c1.9,4.2,4.4,8.1,7.5,11.3l0,0l0,0l0,0c3.1,3.2,6.7,5.8,10.7,7.8c2,1,4.1,1.8,6.1,2.4c0.9,0.3,2,0.5,3.1,0.8l0,0
		c3.1,0.7,6.4,1,9.8,1l0,0h0.2l0,0c2.7,0,5.3-0.2,7.7-0.6h0.1l1-0.2h0.1c2.2-0.4,4.4-0.9,6.6-1.6l13.8-4.2h0.2l1.5-0.3l0,0l1.6-0.3
		l0,0c3-0.5,6.3-0.9,9.7-0.9l0,0c5.1,0.2,9.5,0.8,12.4,2.7c2.6,1.7,4.7,5.2,6.1,11.6l0,0v0.2v0.1c1.4,7.2,3.1,16.3,5,27.5
		c2,11.1,3.8,21.7,5.4,31.3c9.4,56.8,19.6,129.3,27.4,212.8l0,0l0.9,9.6c0.4,4,1,11.5,2,23.1l1.1,13.6h-0.1l0.8,10l0.4,5.6l1.5,20.1
		l0,0c0,0.2,0,0.4,0,0.5c0.5,6.7,0.9,13.1,1.3,19.1l0,0l0,0v0.4v0.4l0,0v0.2l0,0v0.1v0.8l0.3,5.2l0.6,8.8l0,0l0.1,1.4
		c0.3,5.8,0.6,11.4,0.9,16.4c0.4,8.4,0.7,16.1,0.9,22.4v0.1l0,0v0.1l0,0v0.2v0.9c0.8,19.5,1.4,38.9,1.9,58.3
		c0.4,18.3,0.6,38.2,0.6,60l0,0v0.4v0.3v0.3l0,0c0,88.5-4.2,182.2-14.7,278.3c-1.8,16.1-3.6,31.9-5.6,47.1
		c-10.5,80.7-25.6,162.8-46.5,244.5l0,0c-2.7,9.8-6.6,14.9-10.6,17.3c-3.8,2.4-8.5,2.8-12.2,3c-11.7-1.3-22.3-2.5-31.9-3.7
		c-9.5-1.2-19.8-2.6-31.1-4.2c-52.2-7.4-100-16.4-141.9-26.8h-0.1l0,0c-8.8-2.2-17.1-4.3-24.9-6.5c-7.9-2.2-15.7-4.4-23.3-6.8
		c-38.3-11.7-69.4-24.5-91.4-37.4l-0.1-0.1c-4.9-2.8-9.3-5.4-13.1-7.7l0,0c-4.6-2.8-8.6-5.3-12-7.5h-0.1c-2.5-1.6-4.7-3.5-6.7-5.5
		c-1.2-1.3-2.4-2.6-3.5-4.1c-0.1-2.3-0.2-4.7-0.2-8.7v-0.1l0,0c0-90.1,18.5-175.9,52-254c5.5-12.7,11.3-25.2,17.5-37.5
		c32-63.1,74.2-120.4,124.4-169.9l0,0l0.1-0.1l0,0c8.7-8.5,17.4-16.7,26.2-24.4c8.8-7.7,17.9-15.4,27.5-23
		c48.1-38,101.7-69.5,159.4-93.2c2.6-0.7,5.1-1.7,7.3-2.8c2.6-1.3,5-2.9,7.3-4.8l0,0c11.4-9.4,17-24.7,13.1-39.8
		c-0.5-1.9-1.1-3.7-1.9-5.6l0,0c-0.3-0.6-0.5-1.2-0.8-1.8c-3.6-7.4-9.3-13.6-16.2-17.7c-7.9-4.7-17.4-6.7-26.7-4.4
		c-1.6,0.4-3.1,0.9-4.7,1.5l0,0c-108.7,43.3-204.6,111.2-280.6,196.8c-38,42.8-71.1,90.1-98.2,140.8c-13.2,24.8-25.1,50.5-35.5,77
		c-32,81.6-49.5,170.3-49.5,263c0,161.5,53.1,310.7,143.1,431.7c38.5,51.8,83.9,98.5,134.6,138.6c50.8,40.2,107.1,73.9,167.6,99.9
		c90.7,39,190.9,60.7,296.2,60.7l0,0l0,0l0,0c91,0,178.2-16.2,258.7-45.8c80.6-29.6,154.5-72.6,219-126.2
		c64.5-53.6,119.6-117.9,162.5-190.1c64.4-108.3,101.2-234.4,101.3-368.9c0-68.2-9.5-134.3-27.2-196.8
		c-10.4-36.5-23.5-71.9-39.2-105.9c-15.8-34.1-34.1-66.7-54.6-97.5c-82.4-123.7-201.8-221.3-342.8-277.4l0,0
		c-1.5-0.6-3.1-1.1-4.7-1.5c-9.4-2.3-18.8-0.4-26.7,4.4c-6.9,4.1-12.7,10.4-16.2,17.7c-0.3,0.6-0.6,1.2-0.8,1.8
		c-0.8,1.8-1.4,3.7-1.9,5.7v0.1l0,0c-0.7,2.9-1.1,5.8-1.1,8.8l0,0c0,2.9,0.2,5.8,0.8,8.5c2.9,14,13.6,25.9,28.4,30
		c11.1,4.6,22,9.4,32.6,14.5c10.8,5.1,21.6,10.7,32.3,16.5c54.5,29.6,104.2,66.6,147.9,109.7l0,0l0,0l0,0
		c16.8,16.5,32.7,34,47.6,52.2c14.9,18.2,28.8,37.2,41.7,57c66.2,101.6,104.5,222.4,104.5,352.2c0,4.1-0.1,6.4-0.1,8.7
		c-1.1,1.4-2.2,2.8-3.5,4.1c-2,2-4.2,3.9-6.7,5.5h-0.1c-3.8,2.5-7.8,5-11.9,7.5l0,0c-4.9,3-9.3,5.6-13.1,7.8h-0.1l-0.1,0.1
		c-4.1,2.4-8.7,4.9-13.7,7.4c-4.8,2.4-10.1,4.9-15.8,7.4c-29,12.8-66.4,25-110.2,35.8l0,0h-0.2h-0.1c-8.7,2.1-17,4.1-25.1,5.9
		c-8.8,2-17.6,3.8-26.4,5.6c-46.1,9.2-97.6,17.1-153.2,23.2c-3.7-0.2-8.4-0.7-12.2-3c-4.1-2.5-8-7.6-10.7-17.5l0,0v-0.2l0,0
		c-7.1-27.7-13.4-55.1-19.1-82c-5.7-27.2-10.8-54.6-15.4-82c-23.5-140.3-32.3-278.5-32.3-406l0,0v-1.1c0-21.6,0.2-41.4,0.6-59.6
		c0.4-19.4,1.1-38.9,1.9-58.3v-0.6v-0.5l0,0v-0.1v-1c0.2-6.2,0.5-13.5,0.9-21.5c0.3-5.7,0.7-11.9,1.1-18.6v-0.2v-0.4l0.1-1.2v-0.6
		l0.1-1.2v-0.6l0.1-1.2v-0.5l0.1-1.5v-0.3v-0.4l0.3-4.3l0.1-1.5v-0.2l0,0v-0.2v-0.5l0.4-5.7l0.4-5.7c0.2-2.6,0.4-5.3,0.6-8
		c0.5-6.6,1-13.5,1.5-20.5l0,0l0.4-5.6l0.7-9.9h-0.1l1.1-13.7c0.6-6.9,1.2-14.5,2-23.1l0,0l0.9-9.6v-0.3c1.4-15.4,3.1-31.3,4.8-47.5
		c1.6-14.6,3.3-29.6,5.2-44.8c9.2-74.4,19.5-135.5,27.8-179.1l0,0c1.4-6.5,3.5-10,6.1-11.8c2.9-1.9,7.3-2.5,12.4-2.7l0,0h0.2l0,0
		h0.1h0.2c2.1,0,4.2,0.2,6.3,0.5l0,0l1.2,0.2l0,0c1.8,0.3,3.2,0.5,4.4,0.7l14.3,4.4l0.2,0.1l0.3,0.1l1.7,0.5l0.5,0.2l1.7,0.4h0.2
		c3.8,0.8,7.6,1.2,11.1,1.2l0,0c4.5,0,8.8-0.6,12.9-1.9c1.4-0.4,2.6-0.8,3.7-1.3c1.2-0.5,2.4-1,3.5-1.7c3.5-1.8,6.6-4.2,9.4-7l0,0
		l0.1-0.1l0.2-0.3c1.1-1.2,2.1-2.4,3-3.6l0,0c0.9-1.2,1.7-2.4,2.5-3.8l0,0c3.8-6.6,5.7-14.2,5.7-22.2c0-1.1-0.1-2.4-0.2-3.9l0,0
		c-0.1-1.4-0.2-2.7-0.4-3.7v-0.2l-31.1-220.2l0,0l-0.2-1.4v-0.2c-0.3-2.1-0.8-4.3-1.4-6.6c-0.6-2.1-1.4-4.2-2.3-6.3l0,0
		c-5.1-11.6-14.4-19.7-28.2-20h-0.5c-6.6,0.1-12.6,2.1-18,5.6c-4.8,3-9,7.1-12.9,11.9l0,0l-133.8,168l-0.1,0.1l0,0
		c-0.9,1.1-1.8,2.4-2.7,3.7l0,0c-0.8,1.2-1.6,2.4-2.4,3.9l0,0c-3.9,7-5.9,14.5-5.9,22h0.1c0,1.9,0.1,3.7,0.3,5.4
		c0.3,2.6,0.9,5.1,1.8,7.5l0,0c0.8,2.4,1.9,4.7,3.2,7c5.7,9.9,15.7,17.7,28.3,21.4l0,0l23.6,7.2c2.7,1.1,4.2,2.4,4.9,3.9l0,0
		c1,1.9,1.4,4.6,1.5,7.6v0.4v1v0.7c-3.9,19.1-7.3,37.1-10.3,54.5c-3.3,18.8-6.3,37.3-9.2,55.7c-5,32.2-10.1,68.7-14.9,108.8
		c-4.2,35.4-8.1,73.4-11.4,113.7h-0.1l-1.2,15.6l-0.6,7.3v0.4l-0.4,4.7l-0.4,5.1l0,0c-0.1,1.2-0.2,2.4-0.3,3.6
		c-0.6,7.6-1.2,16.5-1.8,26.5l-0.4,6l-0.7,11.6h0.2c-1.4,24.6-2.6,50.1-3.4,76.5c-0.9,30.1-1.5,61-1.5,92.7
		c0,79.5,3.3,163.1,11.3,249c8,86,20.7,174.3,39.6,262.7l0,0v0.1l0,0c1.7,7.9,4.2,17,6.9,26.5c5.2,18.8,10.9,39.3,10.9,55.7l0,0
		c-0.2,3.2-0.5,5.6-1,6.8v-0.5l-1.7,0.1h-0.1c-6.6,0.4-12.6,0.8-18.1,1.1c-6.6,0.4-12.6,0.7-18.3,1c-31.1,1.6-62.5,2.7-93.9,3.3
		c-1.3-0.2-2.2-0.5-2.8-1l0,0c-0.9-0.8-1.9-2.3-2.8-4.3l0,0l-0.3-0.8l0,0c-0.2-0.5-0.4-1.1-0.7-2l0,0c-0.1-0.4-0.3-1.2-0.6-2.2
		c-0.9-3.8-1.2-7.3-1.3-9.6l0,0v-691.3v-93.3v-23.7v-16.3v-71.8l0,0v-486.7l0,0v-0.9l0,0c0-11.7,4.7-18,10.6-21.5
		c6.7-4,15.7-5.1,22.2-5.7h7.2h0.3h0.1v-0.1c6.2,0,12.2-1,17.5-2.8l0,0c1-0.3,1.9-0.7,2.7-1l0,0c4.5-1.8,8.6-4.4,12.3-7.7l0,0l0,0
		c3.5-3.1,6.4-6.8,8.7-10.9c1.2-2.2,2.1-4.3,2.8-6.4l0,0c0.4-1.2,0.7-2.2,0.9-3.2c0.8-3.3,1.2-6.8,1.2-10.4h0.1v-0.1h-0.1
		c0-3.3-0.3-6.4-0.9-9.4v-0.1l-0.3-1.2v-0.2c-0.6-2.4-1.4-5-2.4-7.6L2032,1343.5z M1776,3190.3c1.7-4.9,3.2-9.5,4.6-13.7
		c11.9-35.9,13.3-40,67.4-37.1l0,0l1.5,0.1l0,0l12.9,0.7h0.1l13,0.6c18.7,0.8,38,1.4,57.6,1.9l9.2,0.5l6,0.3h0.5l0.2,0.1l0.8,0.2
		l0.9,0.3c1,0.3,2.1,0.8,3.2,1.5l0,0c1.6,1,3.1,2.3,4.2,4.2l0,0c1.3,2.4,2.3,5.9,2.3,11.2l0,0v381.5c-0.6,7.1-2,17.1-6.8,24.7
		c-4.3,6.9-12.2,12.4-26.6,12.3h-0.2c-0.8,0-1.9,0-3-0.1h-0.1c-0.5,0-1.8-0.1-3.5-0.3c-13.6-1.6-26.6-3.5-39.2-5.8
		c-12.8-2.3-25.7-5-38.5-8.1c-65-15.6-126.4-40.7-182.4-73.8c-2.8-1.9-4.6-3.8-5.5-5.9c-1.1-2.2-1.5-5-1.6-8.1
		c0.1-1,0.2-2.1,0.4-3.4l0,0c0.2-1.2,0.5-2.6,0.9-4.2v-0.1c5.1-19.8,14.7-36.9,24.5-54.5c4.2-7.5,8.5-15.1,12.8-23.7l0.1-0.2l0,0
		c4.7-9.2,9.2-18.4,13.5-27.6c4.2-8.8,8.6-18.1,13-27.9C1739.9,3288,1759.2,3239.3,1776,3190.3z M1350.1,3041.8
		c6.1-0.7,19,6,31.4,12.4c8.1,4.2,16.1,8.3,23.1,10.8l0,0h0.1l0,0c10.7,3.9,21.8,7.7,33.2,11.2c11.6,3.6,23.6,7.1,36.1,10.4
		c63.6,17,139.2,30.7,223.6,40.4l0.9,0.3l0,0c0.8,0.3,1.7,0.7,2.5,1.1l0,0c3.6,1.8,8.5,4.9,8.3,8.6l-0.1,0.6v1.1l0,0l-0.1,1.1
		c-3.1,9.6-6.5,19.6-10.1,30.1s-7.3,20.7-10.9,30.6c-19.3,52.3-41.6,104.1-67,154.7l0,0l-0.7,1.4l0,0c-1.3,2.6-3,6.2-4.8,10
		c-9.9,21.2-22.9,49-42.7,49.4c-0.4,0-1,0-1.9-0.1l0,0c-1.5-0.1-3.1-0.4-4.7-0.7c-1.8-0.4-3.5-0.9-4.9-1.5
		c-8.3-3.1-15.7-8.3-19.4-11.4l-3.8-3.6l0,0c-2.2-2-4.4-4-6.3-5.9l0,0l-0.1-0.1l0,0c-11.2-11-21.9-22.4-32.2-34.1
		c-10.4-11.8-20.3-24-29.7-36.3c-48.6-63.9-85.5-137-107.7-216l0,0v-0.1l0,0l-2-7.2l0,0c-0.5-1.9-1.1-4.1-1.8-7
		c-3.1-12.1-5.8-24.3-8.2-36.6C1348.9,3045.5,1349.2,3041.9,1350.1,3041.8z M2290.7,3135.5c0.1-0.4,0.5-0.9,0.8-1.5l0,0
		c2.8-3.8,8.2-6.1,10.7-6.8c49.4-5.7,100.7-12.5,151.3-22.5c51.3-10.1,102.3-23.6,150.2-42.5h0.1c3.7-1.5,9.1-4.3,15.4-7.6
		c12.5-6.5,29.2-15.1,35.4-15.6c0.1,0.1-4.3,0.3-4.2,6.5l0,0v0.5l0,0v0.1c0,1.2-0.1,2.8-0.2,4.7l-0.1,0.9l0,0
		c-0.1,1.3-0.2,2.6-0.3,3.8c-3.5,18.2-7.9,36.2-12.9,53.8c-5.1,17.7-10.9,35.1-17.4,52.2c-33.4,87.7-85.5,166.5-151.6,231.6l0,0
		c-2.8,2.8-4.6,4.4-6.4,6.1l-3.5,3.3l-1.2,1l0,0c-1,0.8-2,1.6-3,2.2l0,0c-1.2,0.9-2.6,1.8-4,2.7l0,0c-6.5,4-15,8-22.9,8
		c-2.1,0-4.2-0.3-6.4-0.9c-2-0.6-4.1-1.5-6.2-2.8l0,0h-0.1l0,0c-15.4-10.1-27.3-37-36.9-58.6c-2.5-5.6-4.8-11-7.4-16.3l-0.1-0.1
		c-4-8.2-8.3-17.3-12.9-27.3c-4-8.8-8.1-17.9-12.3-27.5c-20.6-47.2-38.5-94.9-54.1-142.6c-0.1-0.5-0.2-0.9-0.2-1.2
		c0-0.2,0-0.6,0-1.2v-0.4v-0.4C2290.5,3136.5,2290.6,3136,2290.7,3135.5L2290.7,3135.5z M2042,3150c1-1.8,2.6-3.2,4.2-4.2l0,0
		c1.4-0.9,2.8-1.4,3.9-1.7l0,0l0.7-0.2l1-0.2l5.9-0.3l9.1-0.5l6.6-0.1h0.1l14.5-0.4c24.9-0.8,49.1-1.8,72.4-3.1
		c47.3-2.7,50.2,6.7,59.1,36.4c2.2,7.1,4.6,15.2,8.3,25.7v0.1v0.1l0,0c3.4,9.8,6.7,18.8,9.8,27.2c3,8.1,6.5,17.2,10.4,27.1l0,0
		c18.2,46.6,38.6,92.5,61.2,137.4l0,0c1,2,1.7,3.4,2.3,4.4c1.3,2.4,4.6,8.1,8,14.2c12,20.9,27.7,48.4,27.6,65.4v0.1
		c-0.1,3.3-0.5,6.2-1.6,8.5c-1,2.1-2.7,4-5.6,5.9l0,0c-10.9,6.5-22,12.6-33,18.3s-22.6,11.2-34.6,16.6
		c-60,26.7-124.7,44.8-192.5,52.8c-1.8,0.1-3.1,0.3-3.5,0.3h-0.1c-1.2,0.1-2.2,0.1-3,0.1h-0.2c-14.4,0-22.3-5.4-26.6-12.3
		c-4.8-7.7-6.2-17.7-6.8-24.9v-381.4l0,0C2039.8,3155.8,2040.7,3152.3,2042,3150z"/>
	<path class="st1" d="M3619.7,1131.9c-12.9-8.8-32.3-18.1-53.5-23.3c-94.5-23.6-152.7,23.7-169.4,91c-7.6,30.3-7.8,77.9,48.4,133.7
		c30.5,30.1,44.6,45.9,38.2,71.3c-5.1,20.6-24.8,32.4-60,23.7c-17.2-4.3-36.9-12.6-52.2-22.3c-4-2.5-8.4-3.1-12.8-1.7
		c-4.5,1.4-7.7,4.4-9.5,8.7l-20.3,49.1c-2.8,6.8-0.5,14.5,5.7,18.6c15.5,10.2,40.5,21.7,68.2,28.6c86,21.5,156.3-15.2,175.5-92.2
		c10.4-41.8,2.4-89.5-46.1-135.1c-39.6-37.5-45.2-51.2-40.8-68.7c4.7-18.8,23.9-31.4,55.4-23.5c14.5,3.6,26.1,9.2,35.3,15.3
		c3.9,2.6,8.3,3.3,12.8,2s7.9-4.3,9.7-8.6l20.7-48C3628.1,1143.8,3625.8,1136.1,3619.7,1131.9z"/>
	<path class="st1" d="M632,1081.4c-1.9-8.2-10.1-13.4-18.3-11.5l-52.3,12.1c-8.2,1.9-13.3,10.1-11.5,18.3l11.9,51.6
		c17.9,77.6,43,155.7,53.2,188.6l-1.2,0.3c-17.7-29.2-49-76.4-65.4-100l-86.1-125.9c-3.6-5.3-9.8-7.7-16.1-6.3l-60.7,14
		c-8.2,1.9-13.4,10.1-11.5,18.3l87.8,380.3c1.9,8.2,10.1,13.4,18.4,11.5l52.3-12.1c8.2-1.9,13.4-10.1,11.5-18.3l-12.8-55.5
		c-18.5-80.2-37.9-147.3-47.8-182.1l1.2-0.3c14.3,28.6,45.6,78.3,65.7,106.9l81.3,116.6c3.6,5.2,9.8,7.6,16,6.2l60.8-14
		c8.2-1.9,13.4-10.1,11.5-18.3L632,1081.4z"/>
	<path class="st1" d="M1089.2,1329.9c-1.5-8.3-9.4-13.9-17.7-12.4l-71.3,12.6c-8.3,1.5-16.3-4.1-17.7-12.4l-11.2-63.4
		c-1.5-8.3,4.1-16.3,12.4-17.7l60.3-10.6c8.3-1.5,13.9-9.4,12.4-17.7l-8.6-48.6c-1.5-8.3-9.4-13.9-17.7-12.4l-60.3,10.6
		c-8.3,1.5-16.3-4.1-17.7-12.4l-8.3-47.4c-1.5-8.3,4.1-16.3,12.4-17.7l64.6-11.4c8.3-1.5,13.9-9.4,12.4-17.7L1024,999
		c-1.5-8.3-9.4-13.9-17.7-12.4l-159.9,28.2c-8.3,1.5-13.9,9.4-12.4,17.7l67.8,384.4c1.5,8.3,9.4,13.9,17.7,12.4l166.7-29.4
		c8.3-1.5,13.9-9.4,12.4-17.7L1089.2,1329.9z"/>
	<path class="st1" d="M1355,1230.1c-0.7-8.4,5.5-15.8,13.8-16.6c32.2-3,74.2-18,99-46.1c0.1-0.1,0.2-0.2,0.3-0.3
		c22-26.4,34.5-62.5,30.3-111c-3-34.8-17.4-69.9-46.1-90.5c-0.1-0.1-0.1-0.1-0.2-0.2c-32.2-24.1-73.1-26.7-126-22.1
		c-27.6,2.4-55.9,7.1-78.7,12.7c-7.4,1.8-12.2,8.6-11.6,16.2l33.7,385.1c0.7,8.4,8.2,14.6,16.6,13.9l65.3-5.7
		c8.4-0.7,14.6-8.2,13.9-16.6L1355,1230.1z M1350.9,1018.9c1-0.1,2.1-0.3,3.1-0.4c31.1-2.7,47,21,49.9,54.6
		c2.5,29.1-6.4,57.5-40.7,62.9c-4.3,0.7-8.3-0.3-11.8-3s-5.5-6.3-5.8-10.7l-7.6-86.9C1337.3,1027.3,1342.9,1020.1,1350.9,1018.9z"/>
	<path class="st1" d="M2132.7,811.6c-8.4-0.1-15.4,6.6-15.6,15l-0.4,25.6c-0.1,8.4,6.6,15.4,15,15.6l122.4,2.1
		c8.4,0.1,15.4-6.6,15.6-15l0.4-25.6c0.1-8.4-6.6-15.4-15-15.6L2132.7,811.6z"/>
	<path class="st1" d="M2802.7,972.4c0.9-8.4-5.2-15.9-13.6-16.8l-53.4-5.6c-8.4-0.9-15.9,5.2-16.8,13.6l-5.5,52.7
		c-8.3,79.2-10,161.2-11.1,195.6l-1.3-0.1c-7.2-33.4-21.5-88.2-29.3-115.9l-40.4-147.1c-1.7-6.2-6.8-10.5-13.2-11.2l-62-6.5
		c-8.4-0.9-15.9,5.2-16.8,13.6l-40.8,388.2c-0.9,8.4,5.2,15.9,13.6,16.8l53.4,5.6c8.4,0.9,15.9-5.2,16.8-13.6l6-56.6
		c8.6-81.9,12.2-151.6,14.1-187.7l1.2,0.1c4.2,31.7,17.7,88.9,27.3,122.5l38.9,136.7c1.7,6.1,6.8,10.4,13.1,11l62.1,6.5
		c8.4,0.9,15.9-5.2,16.8-13.6L2802.7,972.4z"/>
	<path class="st1" d="M1827.1,1316.7l-10.5-300.2c-0.3-8.4,6.3-15.5,14.8-15.8l43.1-1.5c8.4-0.3,15.1-7.4,14.8-15.8l-2.1-59.3
		c-0.3-8.4-7.4-15.1-15.8-14.8l-212.8,7.4c-8.4,0.3-15.1,7.4-14.8,15.8l2.1,59.3c0.3,8.4,7.4,15.1,15.8,14.8l42.4-1.5
		c8.4-0.3,15.5,6.3,15.8,14.8l10.5,300.2c0.3,8.4,7.4,15.1,15.8,14.8l66.2-2.3C1820.8,1332.2,1827.4,1325.1,1827.1,1316.7z"/>
	<path class="st1" d="M2316.8,1162.2l4.1-237c0.1-8.4-6.6-15.4-15-15.6l-66.2-1.2c-8.4-0.1-15.4,6.6-15.6,15l-4.4,254.5
		c-1,59.3-15.6,71.6-33.7,71.2c-17.5-0.3-32.2-16.8-31.2-72.4l4.4-254.5c0.1-8.4-6.6-15.4-15-15.6l-66.2-1.2
		c-8.4-0.1-15.4,6.6-15.6,15l-4.1,235.7c-1.8,105.5,28.2,175.5,126.8,177.2C2274.4,1335.2,2314.9,1270.2,2316.8,1162.2z"/>
	<path class="st1" d="M3184.4,1035c0-7.5-5.3-13.7-12.6-15l-90.9-16c-7.2-1.3-14.1,2.6-16.8,9.3l-149.3,370c-1.8,4.4-1.5,9,0.8,13.1
		c2.3,4.2,6,6.8,10.7,7.7l61,10.7c7.4,1.3,14.5-2.8,17.1-9.9l19.8-55.1c2.6-7.1,9.7-11.2,17.1-9.9l41.6,7.3
		c7.4,1.3,12.7,7.7,12.6,15.2l-0.6,58.2c-0.1,7.5,5.2,13.9,12.6,15.2l61.4,10.8c4.6,0.8,8.9-0.3,12.5-3.4c3.6-3,5.5-7.1,5.4-11.8
		L3184.4,1035z M3096.1,1269c-3.6,2.9-7.7,3.9-12.2,3.1l-15.6-2.8c-4.6-0.8-8.2-3.3-10.5-7.3c-2.4-4-2.8-8.3-1.3-12.7l20.4-59.6
		c7.6-21.5,21.9-66.5,30.7-91.6l1.2,0.2c-0.9,26.5-3.2,72.4-4.3,96.3l-2.7,63.1C3101.6,1262.2,3099.7,1266.1,3096.1,1269z"/>
	<path class="st1" d="M2174.2,389.8l66.5,2.3c2.8,0.1,5.2-2.1,5.3-4.9l0.8-21.9c0.1-1.4-0.4-2.6-1.4-3.7c-1-1-2.1-1.6-3.6-1.6
		l-29.3-1c-2.8-0.1-5-2.5-4.9-5.3l0.9-26.2c0.1-2.8,2.5-5,5.3-4.9l25,0.9c2.8,0.1,5.2-2.1,5.3-4.9l0.7-20.5c0.1-2.8-2.1-5.2-4.9-5.3
		l-25-0.9c-2.8-0.1-5-2.5-4.9-5.3l0.7-20c0.1-2.8,2.5-5,5.3-4.9l26.7,0.9c2.8,0.1,5.2-2.1,5.3-4.9l0.8-21.9c0-1.4-0.4-2.6-1.4-3.7
		c-1-1-2.1-1.6-3.6-1.6l-63.8-2.2c-2.8-0.1-5.2,2.1-5.3,4.9l-5.3,151.3C2169.2,387.3,2171.4,389.7,2174.2,389.8z"/>
	<path class="st1" d="M2210.5,220.8h0.2c9.3,0.3,17.3-7.3,17.6-16.7c0.3-9.6-7.1-17.5-16.4-17.9c-8.9-0.3-17,7.1-17.4,16.7
		C2194.2,212.3,2201.6,220.5,2210.5,220.8z"/>
	<path class="st1" d="M2015.8,386.8h26.7c2.8,0,5.1-2.3,5.1-5.1v-47.3c0-2.8,2.3-5.1,5.1-5.1c0,0,0.3,0,0.4,0
		c12.4,0,29.2-4.3,39.7-14.3l0.1-0.1c9.3-9.3,15.3-22.8,15.3-41.4c0-13.4-4.3-27.3-14.6-36.2c0,0,0,0-0.1-0.1
		c-11.5-10.3-27.1-12.7-47.4-12.7c-10.9,0-22.2,0.9-31.2,2.3c-2.5,0.4-4.3,2.5-4.3,5v149.8C2010.7,384.5,2013,386.8,2015.8,386.8z
		 M2047.6,259.4c0-2.6,2-4.8,4.6-5.1c0.7-0.1,1.5-0.1,2.2-0.1c12,0,17.3,9.6,17.3,22.5c0,11.5-4.6,22.3-18.7,22.8
		c-1.4,0-2.7-0.4-3.7-1.4s-1.6-2.2-1.6-3.7v-35H2047.6z"/>
	<path class="st1" d="M1908.5,388.8l27-0.5c2.8,0,5.1-2.4,5-5.2l-2.6-151.4c0-2.8-2.4-5.1-5.2-5l-27,0.5c-2.8,0-5.1,2.4-5,5.2
		l2.6,151.4C1903.3,386.6,1905.7,388.9,1908.5,388.8z"/>
	<path class="st1" d="M2465.6,411.7l25.1,3.5c2.5,0.3,4.8-1.1,5.6-3.5l7.3-22.6c0.8-2.4,3.1-3.8,5.6-3.5l17.3,2.4
		c2.5,0.3,4.3,2.4,4.4,4.9l0.6,23.7c0.1,2.5,1.9,4.6,4.4,4.9l25.3,3.5c1.5,0.2,3-0.2,4.1-1.3c1.2-1,1.7-2.4,1.7-4l-6.3-153.8
		c-0.1-2.5-1.9-4.5-4.4-4.9l-36.3-5.1c-2.4-0.3-4.7,1-5.5,3.3l-52.9,145.4c-0.5,1.5-0.4,3,0.4,4.4
		C2462.7,410.6,2464,411.4,2465.6,411.7z M2514.1,351.5l7.3-24c2.6-8.3,7.5-25.8,10.6-35.6l0.5,0.1c0,10.2-0.3,27.8-0.4,37
		l-0.2,25.1c0,1.5-0.6,2.8-1.8,3.8s-2.5,1.4-4,1.2l-7.8-1.1c-1.5-0.2-2.8-1-3.6-2.3C2513.8,354.5,2513.6,353,2514.1,351.5z"/>
	<path class="st1" d="M1615.8,411.5l66.3-5.8c2.8-0.2,4.9-2.7,4.6-5.5l-1.8-21.1c-0.1-1.4-0.7-2.6-1.8-3.5c-1.1-0.9-2.3-1.3-3.7-1.2
		l-29.2,2.6c-2.8,0.2-5.3-1.8-5.5-4.6l-10.5-119.5c-0.1-1.4-0.7-2.6-1.8-3.5c-1.1-0.9-2.3-1.3-3.7-1.2l-26.9,2.3
		c-2.8,0.2-4.9,2.7-4.6,5.5l13.2,150.8C1610.5,409.7,1613,411.7,1615.8,411.5z"/>
	<path class="st1" d="M1510.1,334.3c-0.7-1.3-0.8-2.7-0.3-4.1l22.4-64.8c0.6-1.7,0.3-3.5-0.8-4.9c-1.1-1.4-2.8-2.1-4.6-1.9
		l-28.8,3.5c-2.2,0.3-3.9,1.8-4.4,3.9l-10.8,47.7c-1.7,7.7-3,15.1-4.3,22.3l-0.7,0.1l-8-65.4c-0.3-2.8-2.9-4.8-5.7-4.4l-26.5,3.3
		c-2.8,0.3-4.8,2.9-4.4,5.7l18.5,150.3c0.3,2.8,2.9,4.8,5.7,4.4l26.5-3.3c2.8-0.3,4.8-2.9,4.4-5.7l-5.3-43.2c-0.1-0.9,0-1.6,0.3-2.4
		l0.1-0.3c0.8-2,2.5-3.2,4.6-3.3c2.1-0.1,3.9,1.1,4.8,3l20.2,44.7c0.9,2.1,3,3.2,5.3,3l29.1-3.6c1.7-0.2,3.1-1.2,3.9-2.7
		s0.8-3.2,0-4.8L1510.1,334.3z"/>
	<path class="st1" d="M2315.3,397.7c6.3,1.1,14.9,2.5,23.6,3.1c24.2,1.7,40.5-2.3,52.5-11.3c16.5-12.1,26.3-35.9,28.5-66.7
		c2.1-30.1-2.6-52.1-16-66.2c-10.3-11.1-25-17.1-46.8-18.7c-11.6-0.8-22.7-0.6-30.8,0.2c-2.5,0.2-4.4,2.2-4.6,4.7l-10.5,149.5
		C2310.9,394.9,2312.7,397.2,2315.3,397.7z M2356.4,272.5c0.2-2.8,2.6-4.9,5.4-4.7h0.2c16,1.1,21.6,20.7,19.5,50.6
		c-2.8,39.9-14.1,54-26.9,53.2c-1.4-0.1-2.6-0.7-3.5-1.7c-0.9-1.1-1.4-2.3-1.3-3.7L2356.4,272.5z"/>
	<path class="st1" d="M1741.4,398.3l25.3-1.8c2.5-0.2,4.5-2.1,4.7-4.6l2.4-23.7c0.3-2.5,2.2-4.4,4.7-4.6l17.5-1.2
		c2.5-0.2,4.7,1.5,5.3,3.9l5.5,23c0.6,2.4,2.8,4.1,5.3,3.9l25.5-1.8c1.6-0.1,2.9-0.8,3.8-2.1c0.9-1.3,1.2-2.7,0.8-4.3l-38.1-149.1
		c-0.6-2.4-2.8-4-5.3-3.8l-36.6,2.6c-2.4,0.2-4.4,2-4.7,4.4L1736,392.5c-0.2,1.6,0.2,3,1.3,4.2
		C1738.4,397.8,1739.8,398.4,1741.4,398.3z M1778.5,304.4c0.8-8.7,2-26.8,2.9-37h0.5c2.1,10,5.5,27.3,7.3,36.3l5,24.6
		c0.3,1.5,0,2.9-0.9,4.1s-2.2,1.9-3.7,2l-7.9,0.5c-1.5,0.1-2.9-0.4-4-1.5s-1.6-2.5-1.4-4L1778.5,304.4z"/>
</g>
</svg>
