<?xml version="1.0" encoding="utf-8"?>
<!-- Generator: Adobe Illustrator 22.1.0, SVG Export Plug-In . SVG Version: 6.00 Build 0)  -->
<svg version="1.1" id="Layer_1" xmlns="http://www.w3.org/2000/svg" xmlns:xlink="http://www.w3.org/1999/xlink" x="0px" y="0px"
	 width="255.2px" height="275px" viewBox="0 0 255.2 275" style="enable-background:new 0 0 255.2 275;" xml:space="preserve">
<style type="text/css">
	.st0{fill:#FFFFFF;}
	.st1{fill:#EB0028;}
</style>
<g>
	<path class="st0" d="M241,101c-5.6-13.6-13.4-25.9-23.3-36.6l-0.6-0.7l-5.1-38.9l-24.4-9.9l-5.5,22.4l-3-1.3
		c-1-0.5-1.9-0.8-2.6-1.1c-8.2-3.4-16.8-6-25.5-7.7l-2.2-0.4L148.3,5h-41.4l-0.5,21.7l-2.2,0.4c-9.7,1.8-19.1,4.8-28.1,8.8l-3,1.3
		L67.6,15l-24.4,9.8l-5.1,38.8l-0.6,0.7C27.8,74.7,20.1,86.8,14.6,100C8.2,115.3,5,131.3,5,147.7c0.1,15.8,3.1,31.3,9.2,46.1
		c6,14.7,14.7,27.9,25.8,39.3c11.5,11.7,25,20.9,40.3,27.3c15.1,6.3,31.1,9.6,47.4,9.6l0.3,0c15.8-0.1,31.3-3.1,46.1-9.2
		c14.7-6,27.9-14.7,39.3-25.8c11.7-11.5,20.9-25,27.3-40.3c6.4-15.3,9.6-31.3,9.6-47.7C250.1,131.2,247.1,115.7,241,101z"/>
	<g>
		<g>
			<path d="M245.7,99C240,85.1,232,72.5,222,61.5l-5.3-40.2L184.1,8l-5.4,22.2c-0.1,0-0.1-0.1-0.2-0.1c-8-3.3-16.2-5.9-24.7-7.6
				L153.2,0H102l-0.6,22.5c-8.5,1.7-16.9,4.3-24.9,7.7L71.1,8.2L38.6,21.2l-3.7,26.7l0,0.1l-1.6,13.5C23.5,72.2,15.6,84.5,9.9,98.1
				C3.3,114-0.1,130.7,0,147.7c0.1,16.5,3.3,32.6,9.5,48c6.3,15.3,15.3,29.1,26.8,40.9c11.9,12.2,26,21.8,41.9,28.4
				c15.8,6.6,32.3,9.9,49.3,9.9l0.4,0c16.5-0.1,32.6-3.3,48-9.5c15.3-6.3,29.1-15.3,40.9-26.8c12.2-11.9,21.8-26,28.4-41.9
				c6.7-15.9,10-32.6,9.9-49.7C255.2,130.5,252,114.4,245.7,99z M239.6,194.3c-6.3,15.1-15.4,28.6-27.1,39.9
				c-11.2,11-24.3,19.6-38.9,25.5c-14.6,6-30,9-45.7,9.1c-0.1,0-0.2,0-0.3,0c-16.1,0-31.9-3.2-46.9-9.5
				c-15.1-6.3-28.6-15.4-39.9-27.1c-11-11.2-19.6-24.3-25.5-38.9c-6-14.6-9-30-9.1-45.7c-0.1-16.3,3.1-32.2,9.5-47.3
				C21.1,87.3,28.8,75.4,38.3,65l0.8-0.9l5-38.5l22.6-9.1l5.5,22.3l4.2-1.9c8.9-4,18.3-6.9,27.9-8.7l3-0.6L108,6.1h39.3l0.5,21.5
				l3,0.6c8.6,1.6,17.1,4.2,25.3,7.6c0.9,0.4,1.7,0.7,2.6,1.1l4.2,1.9l5.5-22.4l22.7,9.2l5,38.6l0.8,0.9
				c9.8,10.6,17.6,22.9,23.1,36.3c6,14.6,9,30,9.1,45.7C249.1,163.3,246,179.2,239.6,194.3z"/>
			<path d="M70.2,213.7c0,0-10.6-10.3-11.4-11.3l-3.6,3.5l2.7,3l-12.5,13.8l-2.6-2.8l-3.5,3.2c2.6,3.5,9.5,9.8,9.5,9.8l3.1-3.4
				l-1.4-1.4l5.3-5.8l2.4,2.2l-3.6,13.5c2.1,1.8,7.1,5.3,7.1,5.3l2.8-3.9l-2.8-2.2l2.2-8.8c1.7,0.6,3.3,0.7,4.7,0.3
				c1.4-0.3,2.7-1.1,3.8-2.4c1.7-1.9,2.3-3.9,1.9-6C73.9,218,72.5,215.8,70.2,213.7z M66.5,221.3c-1.5,1.7-3.4,1.5-5.6-0.5l-2-1.8
				l4.4-4.9l2.5,2.2c0.9,0.8,1.4,1.6,1.5,2.5C67.5,219.6,67.2,220.5,66.5,221.3z"/>
			<path d="M99.2,235.4l2,0.7l-6.3,5.1l-1.6-7.9l1.8,0.6l1.6-4.5c0,0-7-2.6-12.2-5.7l-2.1,4.4l3.3,2.1l3.6,13.5l-2.6,7.2l-3.6-1.4
				l-1.8,4.5c3.4,1.6,10.4,4.1,14.5,5.2l1.4-4.6l-3.5-1.3l2.5-7.2l11.1-8.3l3.7,0.5l1.1-4.6c-5-0.9-11.5-2.9-11.5-2.9L99.2,235.4z"
				/>
			<path d="M144.2,245l4.8-0.7l-1.5-11.3c-9.2,1.9-17.1,2.1-25.6,1.9l0.3,11.4l4.8,0l0-6.2l4.4,0.1l1.3,18.3l-4,0.3l0,4.8
				c4.6,0.1,13-0.9,15.9-1.3l-0.6-4.8l-4,0.4l-1.3-18.2l4.4-0.6L144.2,245z"/>
			<path d="M187.7,241.1l-13.5-13.6l3.5-2.5l-2.5-4.1c-6.3,4.3-16.7,8.4-16.7,8.4l1.8,4.4l4-1.6l3.7,19.1l-2.9,1.2l1.6,4.3
				c3.1-1,9.7-4,9.7-4l-2.1-4.1l-1.6,0.7l-0.9-5l6.5-3.4l3.4,3.7l-2.2,1.3l2.3,4.1c0,0,7.2-3.9,11.1-6.6l-2.8-4.1L187.7,241.1z
				 M171.2,240.1l-1.7-8.8l6,6.5L171.2,240.1z"/>
			<path d="M211.9,214.9c-1.7-1.4-3.5-2.2-5.4-2.2c-2,0-4.2,0.6-6.7,1.8l-1.1,0.6c-1.1,0.5-2,0.9-2.5,1.1c-0.6,0.2-1.2,0.3-1.7,0.3
				c-0.6,0-1.1-0.2-1.5-0.6c-0.5-0.4-0.7-1-0.7-1.7c0-0.7,0.3-1.4,0.8-2c0.7-0.8,1.6-1.3,2.6-1.4c1-0.1,2.1,0.3,3.3,1l3.2-3.7
				l-6.4-5.5l-3.2,3.7l1.6,1.3c-1.1-0.1-2.1,0-3,0.4c-0.9,0.4-1.8,1-2.5,1.9c-0.9,1.1-1.5,2.3-1.7,3.6c-0.3,1.4-0.1,2.7,0.3,4
				c0.5,1.3,1.3,2.4,2.4,3.4c1.4,1.2,3.1,1.8,5,1.8c1.9,0,4.3-0.7,7.1-2c1.6-0.8,2.9-1.2,3.9-1.3c1-0.1,1.8,0.2,2.5,0.8
				c0.6,0.6,1,1.3,1,2.1c0.1,0.8-0.2,1.6-0.8,2.3c-0.9,1-1.9,1.5-3,1.5c-1.2,0-2.4-0.5-3.8-1.5l-3.2,3.7l6.7,6l3.7-3.4l-1.6-1.5
				c2.3,0.2,4.3-0.7,5.9-2.6c1.7-1.9,2.4-4,2.3-6.1C214.9,218.5,213.9,216.6,211.9,214.9z"/>
			<path d="M202.6,181.4c9.1-20,9.8-42.4,2.1-63c-7.7-20.6-23-36.9-43.1-46c-10.8-4.9-22.2-7.4-33.9-7.4c-9.9,0-19.7,1.8-29,5.3
				c-20.6,7.7-36.9,23-46,43.1c-9.1,20-9.8,42.4-2.1,63c7.7,20.6,23,36.9,43.1,46c10.8,4.9,22.2,7.4,33.9,7.4c9.9,0,19.7-1.8,29-5.3
				C177.2,216.7,193.5,201.4,202.6,181.4z M197,178.8c-2.3,5.2-5.2,10-8.5,14.4c-0.9-0.3-1.8-0.7-2.7-1.1
				c-7.2-3.3-13.4-8.1-18.2-14.2l8.8-8.2l-7.5-11l6.2-8.3h28.6C203.4,160.1,201.1,169.7,197,178.8z M143.5,193.2l-7.6,12.1h-16.7
				l-7.6-12.1l6.1-16.7l-10.1,11.8l-20.9-19.4l7-10.3l-6.9-9.4l4.9-8.7l0.7-13.8l1.1-22.7l13.8,12h40.6l13.8-12l1.8,36.5l4.9,8.7
				l-6.9,9.4l3.7,5.4l3.3,4.9l-20.9,19.4l-10.1-11.8L143.5,193.2z M124.5,109.9l0-12.3h6.1l0,12.3H124.5z M203.8,144.3h-31.1
				l-3.1-5.6v0v0l-1.1-23c5.3-6.3,12.1-11.2,20-14.3c4.3,5.7,7.9,12.1,10.5,19.1C201.8,128.3,203.4,136.3,203.8,144.3z M100.8,76.1
				c8.7-3.3,17.8-4.9,26.9-4.9c10.7,0,21.4,2.3,31.4,6.8c9.8,4.4,18.4,10.8,25.3,18.5c-6.1,2.6-11.6,6.3-16.4,10.7l-0.8-16.2
				l-18.1,15.8V84.6l-6.2,0l0.1,25.3l-6.2,0l-0.1-18.4l-6.1,0l-0.1-12.3h-6l-0.1,12.3l-6.1,0l-0.1,18.4l-6.1,0V84.6l-6.1,0l0,22.3
				L88,91.1l-0.8,16.2c-4.4-4.2-9.5-7.7-15.3-10.3c-0.4-0.2-0.7-0.3-1.1-0.5C78.9,87.5,89.1,80.5,100.8,76.1z M58.2,115.9
				c2.3-5.2,5.2-10,8.6-14.5c0.9,0.3,1.8,0.7,2.6,1.1c6.8,3.1,12.7,7.6,17.4,13.2l-1.1,23v0v0l-3.1,5.6H51.5
				C51.9,134.6,54.1,125,58.2,115.9z M51.5,150.4h28.6l6.2,8.3l-7.5,11l8.8,8.2c-5.4,6.8-12.5,12.1-20.8,15.3
				c-4.3-5.7-7.8-12.1-10.4-19C53.4,166.5,51.8,158.4,51.5,150.4z M154.4,218.7c-8.7,3.3-17.8,4.9-26.9,4.9
				c-10.7,0-21.4-2.3-31.4-6.8c-9.8-4.4-18.4-10.8-25.4-18.6c8.4-3.6,15.7-9.1,21.3-16.1l12.9,12l0,0l10.8,17.3h23.4l10.8-17.3l0,0
				l12.9-12c5.3,6.6,12.2,12,20.2,15.6c0.4,0.2,0.7,0.3,1.1,0.5C176.3,207.2,166.1,214.3,154.4,218.7z"/>
			<ellipse transform="matrix(0.3827 -0.9239 0.9239 0.3827 -120.0943 114.4872)" cx="25.6" cy="147.1" rx="6.4" ry="6.4"/>
			<circle cx="229.5" cy="147.1" r="6.4"/>
			<path d="M120.7,153.8c0,0-11.1-4.8-18.2-8.1l4.7,8.3l10.7,5.2l2.4,8.8L120.7,153.8z"/>
			<polygon points="97.3,113.1 96.7,133.7 102.6,125.8 			"/>
			<polygon points="158,113.1 152.7,125.8 158.5,133.7 			"/>
			<path d="M152.7,145.7c-7,3.3-18.2,8.1-18.2,8.1l0.3,14.3l2.4-8.8l10.7-5.2L152.7,145.7z"/>
			<polygon points="119.5,188 118.7,191.5 127.6,200.4 136.5,191.5 135.7,188 			"/>
		</g>
		<path d="M51.9,74.9l15.9,8.6l3.2-2.9l-7-16.7l2.1-1.7l-2.1-2.8c-2.7,1.9-5.9,4.5-6.8,5.4l2.4,2.6l1.4-1.1l4.3,10.1l-9.6-5.4
			l1.4-1.4l-2.5-2.5c0,0-4.4,4-6.9,6.9l2.5,2.5L51.9,74.9z"/>
		<path d="M74,57.1l6.6,12l-2.8,1.8l1.9,3.1c0,0,6.3-4,9.9-5.6L88,65.2l-2.6,1.3l-6.6-11.9l2.8-1.6L80,49.8c0,0-8.2,4.1-10.7,6
			l2,2.9L74,57.1z"/>
		<path d="M92.8,48.4l3.7,13.1l-3,1.3l1.3,3.4c7.8-3.4,18-5.2,18-5.2l-2.3-10.2l-4,1l1.3,6.3l-5.9,1.7l-3.8-13.2l2.9-0.8l-1-3.4
			c0,0-7.3,2-11.1,3.6l1.1,3.3L92.8,48.4z"/>
		<path d="M117.5,56.6l0.2,3.5c2.7-0.4,9.2-0.4,9.2-0.4l0-3.5l-2.5,0l-0.1-11.9l9,15.9l4.6,0.5l1.2-17.7l2.7,0.5l0.4-3.3
			c-4.7-0.8-8.5-1.1-8.5-1.1l-0.1,3.3l1.7,0.3l-0.8,9.6l-7.8-13.5c0,0-6.4-0.1-9,0.1l0.2,3.2l2.7,0l0,14.2L117.5,56.6z"/>
		<path d="M157,61.1l-3.2-1.2l3.8-13.2l3.1,1l1-3.4c0,0-6.6-2.1-11.6-3.2l-0.7,3.4l3,0.8l-3.8,13.2l-3.3-0.6l-0.8,3.4
			c0,0,6.9,1.4,11.4,3.1L157,61.1z"/>
		<path d="M168.5,70c2.2,1.3,4.1,1.7,5.6,1.3c1.5-0.4,2.9-1.7,4.1-3.8l5.2-9.2l2.1,1.3l1.7-2.9c-2.2-1.4-6.6-4-6.6-4l-1.8,3l1.2,0.7
			l-4.7,8.3c-0.8,1.4-1.6,2.3-2.3,2.7c-0.7,0.3-1.5,0.3-2.4-0.2c-0.5-0.3-0.9-0.7-1.1-1.1c-0.2-0.4-0.3-0.9-0.2-1.6
			c0.1-0.6,0.5-1.5,1-2.5l4.7-8.3l1.4,0.7l1.8-3.1c-3.7-2.1-8.7-4.1-8.7-4.1l-1.5,3l2.2,1l-4.6,8c-1,1.7-1.5,3.2-1.7,4.5
			c-0.1,1.3,0.2,2.4,0.9,3.3C165.7,68.1,166.9,69.1,168.5,70z"/>
		<path d="M187.2,73.7l-2.8-2.1l-4.3,5.6l2.8,2.1L184,78c0,1.7,0.7,3.1,2.1,4.2c1.5,1.1,3,1.6,4.5,1.4c1.5-0.2,2.9-1.1,4.1-2.6
			c1-1.3,1.4-2.6,1.3-4c-0.1-1.4-0.6-3-1.6-4.7l-0.5-0.8c-0.4-0.8-0.7-1.4-0.9-1.8c-0.2-0.4-0.3-0.8-0.3-1.2c0-0.4,0.1-0.8,0.4-1.1
			c0.3-0.4,0.7-0.6,1.2-0.6c0.5,0,1,0.2,1.5,0.5c0.6,0.5,1,1.1,1.1,1.8c0.1,0.7-0.1,1.5-0.6,2.4l2.5,2.2l3.8-4.6
			c-0.9-1-2.6-2.4-2.6-2.4l-0.9,1.2c0-0.8-0.1-1.5-0.4-2.2c-0.3-0.7-0.8-1.2-1.5-1.7c-0.8-0.6-1.7-1-2.7-1.1c-1-0.1-1.9,0-2.9,0.4
			s-1.7,1-2.3,1.9c-0.8,1.1-1.2,2.3-1.1,3.7c0.1,1.4,0.7,3.1,1.8,5c0.6,1.2,1,2.1,1.1,2.8c0.1,0.7-0.1,1.3-0.4,1.8
			c-0.4,0.5-0.9,0.8-1.5,0.9c-0.6,0.1-1.2-0.1-1.7-0.5c-0.8-0.6-1.2-1.3-1.2-2.1C186.2,75.7,186.5,74.8,187.2,73.7z"/>
	</g>
	<g>
		<path class="st1" d="M87.2,107.3L88,91.1l18.1,15.8l0-22.3l6.1,0v25.3l6.1,0l0.1-18.4l6.1,0l0.1-12.3h6l0.1,12.3l6.1,0l0.1,18.4
			l6.2,0l-0.1-25.3l6.2,0v22.3l18.1-15.8l0.8,16.2c4.7-4.5,10.2-8.1,16.4-10.7c-7-7.8-15.5-14.1-25.3-18.5
			c-10-4.5-20.7-6.8-31.4-6.8c-9.1,0-18.1,1.6-26.9,4.9c-11.7,4.4-21.9,11.4-29.9,20.4c0.4,0.2,0.7,0.3,1.1,0.5
			C77.7,99.6,82.8,103.1,87.2,107.3z"/>
		<path class="st1" d="M85.7,138.8L85.7,138.8L85.7,138.8l1.1-23c-4.7-5.6-10.6-10.1-17.4-13.2c-0.9-0.4-1.7-0.8-2.6-1.1
			c-3.3,4.4-6.2,9.3-8.6,14.5c-4.1,9.1-6.4,18.7-6.8,28.4h31.1L85.7,138.8z"/>
		<path class="st1" d="M163.1,182.1l-12.9,12v0l-10.8,17.3h-23.4L105,194.1l0,0l-12.9-12c-5.6,7-12.9,12.5-21.3,16.1
			c7,7.8,15.5,14.1,25.4,18.6c10,4.5,20.7,6.8,31.4,6.8c9.1,0,18.1-1.6,26.9-4.9c11.7-4.4,21.9-11.4,30-20.5
			c-0.4-0.2-0.7-0.3-1.1-0.5C175.3,194.1,168.5,188.8,163.1,182.1z"/>
		<path class="st1" d="M168.4,115.8l1.1,23l0,0l0,0l3.1,5.6h31.1c-0.3-8-1.9-16-4.9-23.8c-2.6-6.9-6.1-13.3-10.5-19.1
			C180.6,104.5,173.7,109.4,168.4,115.8z"/>
		<path class="st1" d="M87.6,178l-8.8-8.2l7.5-11l-6.2-8.3H51.5c0.3,8,1.9,16.1,4.9,23.8c2.6,6.9,6.1,13.3,10.4,19
			C75.1,190,82.2,184.8,87.6,178z"/>
		<polygon class="st1" points="124.6,97.6 124.5,109.9 130.7,109.9 130.7,97.6 		"/>
		<path class="st1" d="M169,158.8l7.5,11l-8.8,8.2c4.8,6,11,10.9,18.2,14.2c0.9,0.4,1.8,0.8,2.7,1.1c3.3-4.4,6.2-9.3,8.5-14.4
			c4.1-9.1,6.4-18.7,6.8-28.4h-28.6L169,158.8z"/>
	</g>
</g>
</svg>
