<?xml version="1.0" encoding="utf-8"?>
<!-- Generator: Adobe Illustrator 26.3.1, SVG Export Plug-In . SVG Version: 6.00 Build 0)  -->
<svg version="1.1" id="Layer_1" xmlns="http://www.w3.org/2000/svg" xmlns:xlink="http://www.w3.org/1999/xlink" x="0px" y="0px"
	 viewBox="0 0 2951.7 3194.1" style="enable-background:new 0 0 2951.7 3194.1;" xml:space="preserve">
<style type="text/css">
	.st0{fill:#53D3BD;}
	.st1{fill:#EDEDED;}
	.st2{fill:#D6D6D6;}
	.st3{fill:#B5B5B5;}
	.st4{fill:#6C6C6C;}
	.st5{fill:#7AE9DA;}
	.st6{fill:#737373;}
	.st7{fill:#6B6B6B;}
</style>
<g id="Layer_2_00000056418078846416973400000015855207132282023102_">
	<g id="design">
		<path class="st0" d="M2917,1775.8c-0.9-1.3-2-2.6-3.1-3.9c-0.9-1.2-2-2.2-3.1-3.2c-30.8-32.2-74-49.4-118.5-47.2
			c-46,2.8-90.3,24.1-133.8,38.6c-33.7,11.4-67.5,22.3-101.5,32.8c1.9-3.6,3.7-7.2,5.4-10.7c11.9-25.5,18.9-53,20.3-81.1
			c4.6-49.8,0.8-100.1-11.2-148.7c-7.6-28.7-18.9-56.3-33.5-82.1c7.1-9.5,13-19.7,17.7-30.5c19.8-42.6,14-93.2,5-138
			c-8.5-42-28.6-78.7-47.2-116.8c-7.8-16.7-16.5-32.9-26-48.7l0,0c15.7-13.6,24.1-33.9,22.6-54.6c-3.5-43.6-38.5-88.1-70.8-115.5
			c-13.5-11.5-28.2-21.6-43.8-30c1.4-5.8,2.5-11.6,3.8-15.7c15.6-49.4,19.3-101.8,10.6-152.9c-1.6-13.5-5.7-26.5-12.1-38.5
			c-2.2-3.5-4.8-6.8-7.9-9.6c2.3-2.5,4.7-5,7.1-7.5c24.2-24.7,58.4-46.7,53.9-86c-4.8-42.3-51.1-61.9-88.2-66.2
			c-16.9-1.9-34-1.5-50.8,1c7-59.3,13.5-118.6,8.9-178.3c-6.7-79-26.2-156.4-57.5-229.3c-14.8-36.9-32.1-72.8-51.8-107.4
			c-10.7-18.1-22.5-37.6-44-43.8c-24.8-7.2-45.8,6.5-59.3,26.1c-20.2,29.1-36,61-57.4,89.3c-20.9,26.1-44.8,49.6-71.3,70.1
			c-31.5,25-63.7,48.6-95.5,74.8c-14.9,12.3-29.5,24.9-43.4,38.2c-7.1,6.8-14,13.9-20.7,21.1l-5.9-4.6
			c-12.6-9.9-25.8-19.1-39.4-27.6c-25.6-15.6-52.5-28.9-80.3-39.7c-26.9-10.7-54.5-19.4-82.6-26c-12.4-1.8-24.6-4.4-36.6-7.9
			c2.6,0.7-5.3-4.6-7.3-6.3c-6.8-6-13.7-12-20.4-18c-22.3-20.4-43.6-53.8-77-54.5c-31.5-0.7-52.2,24.5-71.5,46
			c-7.9,9.2-16.4,17.8-25.6,25.8c2.4-2.1-8.7,5.5-10,6.2l-3.8,1.6c-3.9,1.3-7.9,2.1-12,3.1c-27.8,6.3-55.2,14.2-82.2,23.6
			c-31.6,11.1-62.2,25.2-91.2,42c-14.3,8.5-28.2,17.9-41.4,28c-5.3,4-10.5,7.9-15.7,12.2c-5.2-5.2-10.3-10.5-15.3-15.7
			c-14.3-14.1-29.1-27.5-44.6-40.3c-30.3-25.3-63-46.5-94.4-70.8c-51.5-39.6-94.1-89.6-124.8-146.9c-10-18.8-19.4-38.6-42-44.8
			c-24.5-6.9-44.4,6.4-58.6,24.6c-22.2,30.5-40.6,63.7-54.7,98.8c-33.4,76-55.5,156.5-65.4,238.9c-5.2,46.7-3.9,93.9,3.7,140.2
			c3.1,19.1,4.9,39.4,6.9,59.7c-14.1-2-28.4-2.5-42.7-1.5c-42.2,3.2-97,25.7-99.2,75.3c-1.2,27.7,15.7,42.3,35,58.4
			c10.2,8.7,19.9,17.9,29.1,27.6c-4,3.7-7.4,8.1-10.1,12.8c-11.5,20.4-13.3,51.8-14.3,74.5c-0.7,26,2,52,7.9,77.4
			c3.6,17.4,8.2,34.6,13.9,51.5c-5.1,2.7-10.1,5.4-15,8.6c-37.8,24.2-68,58.6-87.3,99.2c-11.7,25.5-17.4,53.4-1.7,78.7
			c3.6,5.8,8.1,11,13.4,15.3c-33,51.5-57.3,108.1-71.8,167.6c-10.6,41.7-13.7,85.7,2.9,126.3c5.1,13.8,12.3,26.7,21.4,38.2
			c-2.1,3.8-4.1,7.9-5.9,11.6c-10.9,23.5-19.4,47.9-25.6,73c-11.7,49.2-15.5,100-11.3,150.4c3,36.7,15,72,34.9,102.9
			c-21.4-6.4-43.2-11.9-63.9-18.9c-39.3-13.1-78.7-32.9-120.3-35.7c-80.8-5.5-150.2,56.2-159.7,135c-4.8,40.1,9,78.7,19,117.3
			c6.9,26.3,13.8,52.6,19.5,79.2c0.8,3.6,1.5,7.2,2.2,10.8c-0.2,0.4-0.4,0.8-0.5,1.3c-1.2,5.4-1.8,11-1.9,16.6
			c-3.4,28.8-6.8,57.6-10.2,86.6c-19.1,160.7-38.4,321.5-57.9,482.6c-9.1,75.8-20.3,151.9-27,228.2
			c-8.5,97.1,72.2,181.7,170.8,169.8c24.4-4.2,48.2-11.4,70.8-21.3c20.5-7.9,41.4-12.9,62.3-19c36.2-10.4,70.3-26.9,101-48.7
			c26.2,3.3,52.8,1.2,78.2-6.1c5-1.6,9.9-3.8,14.5-6.4l0,0c12.4-3.2,24.7-6.6,37.2-9.8c37.7-9.4,74.8-16.9,107.7-39.4
			c23.6-15.9,44.3-35.7,61.4-58.5c36.7,24.4,80.4,35.9,124.3,32.7c19.1-1.8,25.8-3.6,41.8-4c14.6,0,29.3-0.5,43.8,0
			c6.6,0,13.1,0.5,19.8,0.9l10.2,0.8h1.4l7.5,1.5c10.9,13.8,22.5,26.9,34.9,39.4c14.8,16.4,29.9,32.6,45.2,48.6
			c30.8,32.3,61.9,64.2,93.4,95.8c17.5,17.6,35.1,35.1,52.7,52.5c22,21.6,65.6,13.6,72.3-19.1l0.5-2.3
			c28.1,18.8,57.9,34.8,89.1,47.7c38.6,17.2,81.2,23.1,123,17.1c49.5-8.3,98.1-31.9,141.7-56c9-5,17.9-10.2,26.8-15.7
			c1.3,31.5,38.5,49.4,65.1,34.2c32.1-18.4,56.6-48,78.7-76.8c24.7-31.9,47.2-65.4,69.7-98.8c8.9-13.1,18-25.9,27.1-38.7l0,0
			l0.5-0.6c0.7-0.8,3.6-3.5,4.9-5s2.1-1.3,1.5-1.1c3.2-0.5,6.6-0.4,9.8-0.6c42.7-2.4,85.4-2.8,128.1-1.4c15.7,0.5,31.3,1.3,46.6,2.3
			l12,0.9l7.9,0.6h2.7l10.9,1.6c23.9,3.2,48.2,3.2,72.1,0c23.8,19.1,51.7,32.6,81.5,39.4c39.4,10.6,78.7,20.9,118.1,31.5
			s78.2,20.7,117.2,31.5c44,12.1,87.4,19.5,132.5,7.9c49.7-14.2,92.4-46.4,119.6-90.4c30-46.2,43-99.1,51.3-152.8
			c15.7-102.9,39.9-204.6,55.6-307.6c6.1-39.4,13.1-80.3,12.3-120.4c-0.5-19.3-3.9-38.4-10-56.7c22.7-25.7,37.8-57.2,43.8-91
			c10.1-52.8,19.8-105.8,29.2-158.7s18.8-103.7,26.9-155.8C2956.8,1861.3,2949.2,1816.9,2917,1775.8L2917,1775.8z M2377.9,926.8
			c0,0,0.8,0,1.3,0.6L2377.9,926.8z M531.4,1876.4C535.5,1876.4,532.8,1876.4,531.4,1876.4z M562.8,936.5c0.3-0.3,0.8-0.5,1.3-0.5
			C563.6,936.1,563.2,936.3,562.8,936.5z M1630.8,3080.2L1630.8,3080.2C1630.5,3079.3,1630.5,3079,1630.8,3080.2L1630.8,3080.2z
			 M1630.8,3081.6v1.5c0-0.6,0-1.3-0.5-1.8L1630.8,3081.6z M756,81.6L756,81.6C750.4,77.1,753.6,75.3,756,81.6z M552.8,960.2
			C554.1,963.3,552.8,966.2,552.8,960.2z M959.4,2914.8C961.3,2915.8,961.8,2916.8,959.4,2914.8z"/>
		<path d="M2878,1807.1c-21.5-24.8-52.9-38.7-85.6-38c-15.4,0.5-30.7,3.5-45.2,9c-77.5,27.2-161.1,55.7-247.4,80
			c-28,9-54.1,23-77.2,41.3c-12.2-4-25-5.8-37.9-5.6c-11.8,0.3-23.6,2.1-34.9,5.3c-95.4,25.7-195.4,47.2-306,65.9
			c-13,2.1-25.6,6-37.5,11.5h-7.3c-19.7,1-39.3,3.6-58.6,7.9l0.6-2.1l-18.6,2.5l-143.4,19.4c-21.8,2.9-74.2,5.4-105.5,6.9l0,0
			c-31.5,1.4-40.4,1.9-48.9,3.1l-18,2.6l-162,7c-14.9-1-31.5-1.3-50-1s-38.2,1.3-56.3,2.2l0,0c-14.5,0.7-28.1,1.4-39.3,1.6h-12.7
			l-75.7-3.5c-15.9-6.8-32.7-11.2-49.9-13h-1.1c-15.7-1.6-38.9-3.4-63-5.3l0,0c-36-2.8-85.2-6.6-105.8-9.8l0,0l-3.5-0.5l0,0
			c-14-1.7-28.1-2.4-42.2-2.2c-13.2,0.2-26.4,1.4-39.3,3.8c-26.1-15.7-56.7-21.3-86.6-26.8l-14.1-2.8c-9.7-2.1-93.1-19.4-143.5-25.8
			l-11.6-1.4c-11.1-5.8-23-9.9-35.3-12.4l0,0l-3.1-0.6l0,0c-45.4-7.9-90.2-19.3-133.8-34.2l-5.8-1.9l0,0
			c-11.4-4.5-23.4-7.2-35.6-7.9c-9.4-5.1-19.4-9-29.7-11.8c-48.5-13.3-99.9-30.3-157.6-51.9c-15.2-6-31.5-9.1-47.9-9.1l0,0
			c-33.1,0.4-64.1,15.9-84.3,42.1c-14.7,19.4-30.5,52.8-18.3,100.5c2,7.9,5,19.5,8.6,32.7l0,0c22.7,85.2,27.9,112.4,29,120.7
			c-7.1,62.1-28.9,242.7-49.9,417.1v2.1c-31.5,258.8-46,382.6-47.2,399.6c-4.4,33.5,6.2,67.2,29,92.2c21.2,22.9,51.2,35.6,82.5,34.9
			c14.9-0.4,29.6-3.3,43.4-8.7l18.3-7.1c19.8-8.2,40.1-15,60.9-20.2c42.8-9.4,82.8-28.7,116.8-56.4c11.5,3.4,23.4,5,35.3,4.8
			c8.5-0.2,17.1-1.2,25.4-3l14.9-3.2l2-0.4l1.7-1l5.7-3.4c6.9-2.1,24.1-6.9,64.9-16.9l3.9-0.9c39.3-6.3,75.6-25.2,103.3-53.9
			c17-17.9,31.3-38.1,42.6-60.1c31.4,34.6,75.9,54.4,122.7,54.6c5.8-0.1,11.6-0.6,17.4-1.5l13.1-2.1c48.1-2.1,124.7-3.1,136.2,11.1
			c61.1,75.4,229.2,240.5,229.2,240.5l13.8-66.9c0,0,135.7,120.5,236.1,97.8s200.5-98.6,200.5-98.6s18.9,9.3,15.7,67
			c58.6-32.4,132.3-166.8,170.1-211.1c8.6-9.5,20.6-15.2,33.4-15.7c70.2-4.4,140.6-3.8,210.7,2.1c12.3,2.3,24.8,3.6,37.3,3.9h9
			c15.6-0.2,31.1-2.2,46.3-5.8c15.8,19.2,37.2,33.1,61.2,39.8c5.9,1.7,27.9,7.9,84.4,22.6l1.6,0.5c65.5,17.4,164.4,43.7,181.6,48.8
			c18.5,5.7,37.8,8.6,57.1,8.3c55.9-0.9,103.7-30,134.7-81.8c29.7-49.5,36.8-95.6,43.1-136.3c1.5-9.5,3-19.4,4.7-28.6
			c2.1-10.9,4.6-23.6,7.4-38.6v-1.1c10.9-55.9,25.7-132.4,37-200.3c22-131.3,18.8-158.7,12-183.1c-3-11.3-7.1-22.3-12.2-32.8
			c27.7-20.8,46.2-51.5,51.6-85.6c20.5-108.4,39.8-216.2,57.3-320.6C2909.4,1867.8,2901.1,1833.8,2878,1807.1L2878,1807.1z"/>
		<path class="st1" d="M1305.2,2854c34.4-1.4,68.8-2.3,103.3-2.9c11.7,10.6,17.6,15.7,29,26.8v43.1c-7.2,8.7-10.8,13-17.9,21.7
			l18,17.2v55.1c-10.6,10.8-15.7,16.2-26.1,27.1c-32.6,0.5-65.3,1.4-97.9,2.8L1305.2,2854L1305.2,2854z M1348.1,2890.2l1.2,36.6
			c19-0.6,28.5-0.8,47.2-1.1l-0.6-36.6C1377.2,2889.4,1367.3,2889.7,1348.1,2890.2L1348.1,2890.2z M1350.5,2965.7l1.3,39.9
			c18.5-0.6,27.8-0.8,46.3-1.1l-0.6-40C1378.7,2964.9,1369.4,2965.2,1350.5,2965.7L1350.5,2965.7L1350.5,2965.7z"/>
		<path class="st1" d="M1479.6,2851.2c24.7,0.4,49.4,0.9,74.1,1.7c11.2,11.6,16.7,17.5,27.6,29.2l-1.9,42c-16.3-0.7-24.4-1-40.7-1.6
			l1-32.4c-18.7-0.6-28.1-0.8-47.2-1.1l-1.9,115.5c18,0,27.1,0.5,45.1,1.1l1.4-44.2c15.7,0.5,24.2,0.8,40.2,1.5l-2.4,55.1
			c-11.4,10.3-17.1,15.7-28.3,25.9c-23.1-0.8-46.3-1.4-69.5-1.6c-10.3-10.9-15.7-16.4-26.1-27.1V2878
			C1462.4,2867.2,1468,2861.8,1479.6,2851.2L1479.6,2851.2z"/>
		<path class="st1" d="M2837,1842.4c-11-12.6-27-19.6-43.8-19.2c-9.7,0.4-19.2,2.4-28.2,6c-78.7,27.5-163,56.3-250.6,81.1
			c-21.5,7.2-41.6,18.2-59.3,32.4c-8.8,7.7-17.1,15.8-25,24.4c-11.2-12.7-27.6-19.7-44.6-19.1c-7.4,0.2-14.7,1.4-21.8,3.4
			c-97,26.1-198.7,48-311,67.1c-12.7,1.9-24.9,6.7-35.5,14c-5.6-1.4-11.4-2-17.2-1.9l0,0c-18.3,1.3-36.5,3.9-54.4,7.9
			c-22.2,4.2-50.4,9.4-82.6,13.9l1.6-5.2l-78.1,10.8c-24.2,3.2-76.1,5.7-110.2,7.2c-27.9,1.3-37.8,1.8-43.8,2.7l-20.7,3L1444,2078
			c-14.1-1-29.9-1.4-48.3-1.1s-37,1.3-55.1,2.1c-14.9,0.8-29,1.5-41,1.6h-15.7l-47.2-2.1l-3.5,30.7c-18.2-26-47.1-42.6-78.7-45.3
			h-0.5c-15.3-1.6-37.8-3.3-61.5-5.1c-39-3-87.4-6.8-110.2-10.2h-1.9c-11.7-1.4-23.4-2-35.1-1.9c-17.8,0-35.4,3-52.2,8.9
			c-18.7-20.6-48.1-26.1-84.2-32.8l-14.7-2.9c-7-1.5-90.6-19-139.4-25.1l-22.7-3.6c-8.5-5.7-18-9.7-28.1-11.6h-1.7
			c-48.3-8.3-95.8-20.4-142.1-36.2l-3.2-1h-1.6l-1.3-0.6c-8.1-3.7-16.9-5.6-25.8-5.6l0,0c-2.6,0-5.3,0.3-7.9,0.7
			c-8.4-6.8-18.2-11.6-28.7-14.3c-49.3-13.5-102.3-30.8-161.5-53.1c-8.9-3.6-18.4-5.5-28-5.6l0,0c-16.6,0.2-32.2,7.9-42.3,21
			c-11.2,15.8-14.5,35.9-8.7,54.5c1.9,7.9,4.9,19,8.3,32c7.9,28.6,30.6,114.9,31.5,135.4c-6.5,56.9-29,244-50.8,425
			C111.6,2768,94.2,2913.1,92.9,2930c-2.6,18.2,2.8,36.6,14.8,50.4c10.8,11.6,26,18,41.8,17.6c8.7-0.3,17.2-2,25.3-5.3l17.8-6.9
			c21.8-9.1,44.2-16.5,67.1-22.4c42.2-8.9,80.8-30,111-60.8c3.4-3.6,6.6-7.2,9.8-11c11.6,12.1,27.8,18.6,44.5,17.9
			c5-0.1,10-0.7,15-1.8l7.9-1.7l4.8-2.9c6.5-2.4,24.9-7.9,74.6-20l6-1.5c28.7-4.2,55.2-17.8,75.3-38.7
			c16.1-17.4,29.4-37.2,39.3-58.7c6.5-12.8,25.3-63,49.1-128.4c-5.4,52.8,4.6,94.9,30.2,125.2c20.9,25.1,51.8,39.8,84.5,40.1
			c3.3-0.1,6.6-0.4,9.9-0.9l35.3-5.7c50-7.9,97.2-15.7,145.4-19.8c18.2-1.5,40.8-19.1,53.4-26.5l24.2,11.2c15.7,0,31.5,0,46.5-0.5
			s31.5,0,47.2-0.5c23.6-0.4,43-1.1,61.2-2.1c19.5-1.1,40.4-1.9,63.8-2.3c30.1-0.6,61,0,90.8,0h10.5c24.7-0.2,48.7-7.6,69.3-21.2
			l1.6,2c13,15.2,32.4,23.4,52.4,22c49,0,98,2.9,146.6,8.7c4.5,0.5,9,0.6,13.5,0.6c22.8-0.8,45.2-6.1,65.8-15.7
			c11.9,17.2,31.4,27.5,52.3,27.6c27.4,3.5,275.5,42.5,296.7,46.7c11.8,2.3,23.9,3.3,35.9,3.1c26.6,0.2,52.6-7.4,75-21.7
			c2.2,27.6,21.7,50.8,48.5,57.9c5.7,1.6,32.4,8.7,83.2,22.2c70.4,18.6,166.7,44.2,184.9,49.7c13.2,4.1,26.9,6.2,40.7,6.1
			c25.8-0.5,62.2-10.4,89.2-55.5c24.2-40.4,30.2-79.2,36-116.7c1.6-10,3.1-20.4,5.1-30.5s4.7-24.6,7.9-39.8
			c10.8-55.6,25.6-131.9,36.8-199c19.7-120.1,17.3-143.7,12.9-159.4c-14.7-52.3-48.9-68.6-79.7-71.9c14.3-1.6,28.4-3.1,42.5-3.9
			c40.9-2.4,67.7-26.1,75.5-66.9c20.5-107.9,39.4-215.3,57.1-319.4C2850.9,1890.1,2855.3,1863.6,2837,1842.4L2837,1842.4z"/>
		<path class="st2" d="M1562.3,2408.3c-470.2,10.9-940.4,26.6-1410.8,27.1l-11.6,96.6c-28.5,236.1-45.9,381.2-47.2,398.1
			c-2.6,18.2,2.8,36.6,14.8,50.4c10.8,11.7,26.2,18.1,42.1,17.6c8.7-0.3,17.2-2,25.3-5.3l17.8-6.9c21.8-9.1,44.2-16.5,67.1-22.4
			c42.2-8.9,80.8-30,111-60.8c3.4-3.6,6.6-7.2,9.8-11c11.6,12.1,27.8,18.6,44.5,17.9c5-0.1,10-0.7,15-1.8l7.9-1.7l4.8-2.9
			c6.5-2.4,24.9-7.9,74.6-20l6-1.5c28.7-4.2,55.2-17.8,75.3-38.7c16.1-17.4,29.4-37.2,39.3-58.7c6.5-12.8,25.3-63,49.1-128.4
			c-5.4,52.8,4.6,94.9,30.2,125.2c20.9,25.1,51.8,39.8,84.5,40.1c3.3-0.1,6.6-0.4,9.9-0.9l35.3-5.7c50-7.9,97.4-13.7,145.4-19.8
			c39.3-4.9,38.3-16.8,51-24.2l7.9,7.9c7.5,4.1,15.9,5.9,24.4,5.3c89.7-6.6,275.5-10.3,304-10.2h10.5c24.7-0.2,48.7-7.6,69.3-21.2
			l1.6,2c13,15.2,32.4,23.4,52.4,22c49,0,98,2.9,146.6,8.7c4.5,0.5,9,0.6,13.5,0.6c22.8-0.8,45.2-6.1,65.8-15.7
			c11.9,17.2,31.4,27.5,52.3,27.6c27.4,3.5,275.5,42.5,296.7,46.7c11.8,2.3,23.9,3.3,35.9,3.1c26.6,0.2,52.6-7.4,75-21.7
			c2.2,27.6,21.7,50.8,48.5,57.9c5.7,1.6,32.4,8.7,83.2,22.2c70.4,18.6,166.7,44.2,184.9,49.7c13.2,4.1,26.9,6.2,40.7,6.1
			c25.8-0.5,62.2-10.4,89.2-55.5c24.2-40.4,30.2-79.2,36-116.7c1.6-10,3.1-20.4,5.1-30.5s4.7-24.6,7.9-39.8
			c10.8-55.6,25.6-131.9,36.8-199c7.7-41.4,12.9-83.3,15.7-125.4C2358.8,2396.6,1960.4,2399,1562.3,2408.3L1562.3,2408.3z"/>
		<path d="M1522.2,2726.5c51-0.1,102,2.9,152.6,8.9c20.1,0.8,40.1-3.9,57.8-13.5c12.1-8.2,22.2-18.9,29.6-31.5
			c65.8-99.4,200.9-485.3,244.6-605.4c7.9-13.6-67.1,10.8-175.2,22.2c-5.1,12.5-10.6,38.1-11.4,39.4c12.9,17.4,19.1,30.4,7.9,56.4
			c-29.9,68.6-132.2,365.6-135.1,368.6l-4.5,12.5c-1.4,4.1-5.2,6.9-9.6,7.1h-14.5c24.7-101.4,77.4-315.9,128.8-483.1
			c-40.8,5.5-142.8,7.9-153.8,9.8c-3.6,4.8-123.4,557.3-130.4,590.3C1506.3,2720.7,1506.8,2726.7,1522.2,2726.5L1522.2,2726.5z"/>
		<path d="M974.7,2098.4c-15.7-1.8-81.2-8.8-92.5,32.3c-23,63-118.7,438.1-131.8,507.1c-23.6,123.2,48.8,135.2,63,132.9
			c61.2-9.6,122.4-20.6,184.2-25.8c19.3-1.6,33.5-12.5,46.3-25.8c28.2-30.9,48.1-68.4,57.9-109.1c15.7-56.7,32-113.2,48.2-169.9
			c13.8-49.2,27.5-98.4,41.2-147.6c3.4-12.1,51.7-167.9-42.6-178.4C1108.2,2110,1013.1,2104.2,974.7,2098.4L974.7,2098.4z
			 M1061.3,2258.3l-52.1,185.1c-12.7,49.3-25.5,98.5-37.8,147.7c-2.7,10.8-7.4,15.7-19.1,15.7c-18.7,0-44.6,8.4-54.3-0.7
			c-11.5-10.9-5.6-20.4-1.4-38.1c9.2-38.7,28.1-104,38.5-142.5c16.4-63,35-112.4,51.2-175.3c1.4-5.6,2.7-11.5,9.8-10.9
			c20.3,1.5,40.7,3.1,60.8,5.8c8,1,6.1,7.9,4.6,13.6L1061.3,2258.3L1061.3,2258.3z"/>
		<path d="M1231.6,2726.4c55.1-3.1,110.2-2.8,165.3-2.6c25.4,0.5,49.6-11.2,64.9-31.5c28.1-33.5,39.3-74.3,49.5-115.2
			c3.9-14.9,5.8-28.9,10.3-45.8c4.2-24.8-24.4-18.8-24.4-18.8s-54.2,3.5-79.3,2.8c-8.2-1.3-16.3,2.8-20,10.2
			c-5.2,3.8-13.5,41.8-13.5,41.8l0,0c-5,6.5,0,19.9-13.8,20.5c-18.7,0.6-37.4,1.4-56.1,1.6c-6.1,0-16.9,3.3-10.3-10.1
			c12.1-52,97.3-320.1,136-450.6c-53-3.9-120.2,4.5-158.7,2.7c-0.8,6.6-107.3,478-170.7,568.1c-7.9,10.6-27.1,22-31.9,30.3
			C1130,2728.5,1180.5,2729.3,1231.6,2726.4L1231.6,2726.4z"/>
		<path d="M794.8,2228.1c1.8-9.2,10.7-15.2,19.8-13.4l0.1,0c10.9,1,15.7-1.4,18.2-8.7c5.6-25.7,15.7-58,22.6-84.5
			c9.2-34.4,7.4-37.8-56.2-49.6l-15.3-3c0,0-87-18.4-135.6-24.5c10.6,24.7,36.3,85.9,32.9,96.2C648.9,2241.7,544,2562,542.4,2568.1
			l0,0c0,3.9-0.6,10.1-5.2,7.3c-6.3-3.9-3.5-7.9-1.3-20.1c0.6-7.9,59.3-378.4,73.3-495.4c1.7-14.1,3-26.6-15-30.1
			c-50.8-8.8-100.8-21.5-149.5-38c-11.4-2.1-21.8-12.4-14.3,5c7.9,18.7,13.7,45.4,20.5,64.6c4.4,12.4,11.7,23.6,7.9,38.2
			c-32.6,116-142.2,477.7-142.2,477.7c0,5,0.9,14.6-6,11.1s67.2-446.9,82.1-591.1c1.4-13.2,1.8-21.9-14.2-26.2
			c-55.8-15.4-111.4-34.1-166-54.5c-12.2-4.6-15.7-3.3-12.4,10.6c8.7,35.2,43.8,157.4,40.8,183.9c-12.8,114.1-95.1,789.7-98.2,823.5
			c-1.1,11.8,0.9,15.7,13.9,10.9c29.7-12.5,60.3-22.9,91.5-31.1c75.2-18.2,111.8-62,129.6-130.6c1-3.8,2.8-7.4,3.8-11.2
			c17.4-59.7,65.4-231.9,66.7-239.6l0,0c0.9-2.6,1.1-6.6,2.8-7.9c3.1-1.6-31.5,275.9-35.3,316.9c-1,10.2-2.1,19.4,13.1,16.2
			c10.3-6.1,81.8-23.1,94.4-26.3c42.3-5.6,62-36.1,78.7-70.4C622.8,2721,794.9,2228.1,794.8,2228.1L794.8,2228.1z"/>
		<path d="M2781.8,1876.8c-83.8,29.4-168,57.9-253.6,82c-14.1,5.3-27.4,12.6-39.4,21.9c-52.3,45.6-70.8,95.5-85.8,162.7
			c-13.1,59.1-24.2,116.7-35.9,176.1c-9.3,47.2-24.7,101.4,0,139.5c21.8,33.6,48.2,34.9,61.8,35.3c34.6,0.8,69.1,4.3,103.6,5.4
			c16.7,0.6,19,6.1,15,21.6c-8.8,35-16.2,70.8-23.6,105.9c-13,61-12,61-73.6,47.2c-11.7-2.6-15.7-6.1-12.7-18.8
			c5-19.8,7.2-40.3,11.9-60.1c2.8-12-1.4-15.7-12.4-16.2c-36.7-2.4-73.6-5-110.6-7.9c-9.7-0.8-13.9,2.3-15.7,12.1
			c-16.4,76.9-33.1,153.7-50.2,230.4c-3.4,8,0.3,17.2,8.3,20.6c1.1,0.4,2.2,0.8,3.3,1c14.4,4.2,238.4,63,268.4,72
			c32,9.6,54.5,2.6,72.2-27c24.9-41.6,25.7-83.3,34.8-130.7c17.5-91.9,68.1-341.7,58.7-375.1c-7.9-27.6-20.8-37.1-49.4-35.6
			c-36.8,2.1-73.4,4.5-110.2,6.5c-46.2,2.7-29.8-57-29.8-57c3.6-14.3,14.2-63,14.1-63c9.2-52,9.8-52.2,61.9-61.1l2.3-0.4
			c34.6-6,22.5,29.4,22.5,29.7s0,0,0,0l0,0c-1.2,11.6-3,23.1-5.4,34.5c-3.8,14.9,1.6,17.8,15.7,15.7c28.8-3.9,57.8-7.9,86.6-9.5
			c18.1-1,25.3-7.9,28.7-26c20.1-105.9,39.1-212,56.9-318.3C2802.8,1871.3,2797.1,1871.5,2781.8,1876.8L2781.8,1876.8z"/>
		<path d="M2240.8,2545.2c-48.2-4-70.8-8.4-81.9-7.9c-14.4,0-16.5,17.1-27.6,75c-3.9,20.4-10.9,21.4-34.5,19.1
			c-12.6-1.1-25.1-3.1-37.5-5.9c-11.6-2.4-19.9,0.6-16.1-13.3c11.3-42.2,21.6-84.6,32.4-127c2.6-12.7,12.7-9.5,20.8-9.2
			c25.2,0.9,50.4,2.4,75.5,3.5c8.5,0.4,17.6,2.4,23.6-6.6l0,0c3.9-22.3,22.8-93.1,26.8-106.6s1-17-12.8-15.7
			c-26.7,1.7-53.5,1.7-80.2,3c-12.4,0.6-17.4-2-12.8-15.7c6.4-19.4,10.8-39.4,15.7-59.2c15.7-58.9,15.7-58.5,77.4-64.4
			c15.7-1.5,22.6,0,16.3,17.9c-5.2,14.8-6.9,30.8-11.7,45.6c-4.6,13.7-0.5,16.4,12.8,15.3c29.8-2.6,59.7-5,89.6-5.7
			c14.6,0,20.6-5.2,23.6-19.5c17-83.9,34.6-167.9,52.8-251.9c3.6-16.5,0-19.5-15.7-15.4c-104,28-209.5,50.1-315.7,68.1
			c-15.7,2.6-21.6,8.7-25.2,24.4c-25.4,110.4-137.6,499.7-168.8,559c-27.9,53.4-42.7,63-70.8,80.6c-13.4,8.5-2.1,14.5,7.5,14.3
			c6.2,0,282.1,43.3,303.9,47.7c1.3,0,53,11.2,82.9-19.6c27-34,45.2-74.2,53-116.9c3.9-19.3,8.7-38.4,13.5-57.4
			C2271.2,2547.3,2272,2547.8,2240.8,2545.2L2240.8,2545.2z"/>
		<path class="st3" d="M2478.3,1478.2c-4.8-7.1-18.7-22-27-32.9c15.7,6.8,26.4,14.4,48.1,4.8c14.4-9.6,18.8-26.4,19.3-47.2
			c2.4-52.9-9.3-105.5-33.9-152.4c-22-40.4-36-85.4-73.6-118.8c7.2-2,10.9-3.3,14.7-3.9c33.6-4.7,43.6-22.6,27.6-52.9
			c-20.7-41.2-54.8-74.2-96.7-93.4c-18.6-7.9-20.1-14.4-13.9-32c19.4-55.1,31.5-112.1,16.3-171c-1.6-6.1-1.1-13.4-7.9-15.7
			c-8.5-3.2-12.7,4.2-17.4,9.3c-9.7,10.3-31.5,41.2-34.5,38.4c-4.7-4.8,41.6-104.8,80-138.4c24.9-21.8,29-35.4-1.6-49.3
			c-10.2-4.2-21.1-6.5-32.1-6.8c-31-1.2-61.8,5-89.9,18c6-56.9,14.2-111.2,16.8-165.8c3.5-90.1-12.3-179.9-46.3-263.4
			c-17.6-46.5-39.4-91.3-65.1-133.8c-12.1-19.6-16.7-19.1-27.8,0c-7.9,14.2-16.5,28.2-25.3,42c-22,36.5-49.2,69.5-80.8,98.1
			c-67.5,58.5-145.7,105.5-202.8,176.1c-6.2,7.9-10.2,6.3-16.8,0c-68.9-64.4-152.9-97.3-244-115.1c-9.4-1.6-18.1-5.8-25.3-12
			c-18.1-15.1-35.4-31.2-51.9-48.1c-5.3-6.4-11.5-12.1-18.3-17c-1.1-0.2-2.2-0.2-3.2,0c-6.8,4.9-12.9,10.6-18.3,17
			c-16.4,16.9-33.8,33-51.9,48.1c-7.2,6.2-16,10.4-25.4,12.1c-90.7,17.8-174.7,50.5-244,115.1c-6.6,6.1-10.6,7.9-16.8,0
			c-57.1-70.8-134.9-117.6-202.8-175.9c-31.6-28.6-58.8-61.6-80.8-98.1c-8.9-13.8-17.2-27.9-25.3-42c-11-19.2-15.7-19.6-27.8,0
			c-25.6,42.4-47.3,87.1-64.8,133.4c-33.8,83.3-49.5,172.9-46,262.7c2.6,54.5,10.9,108.8,16.8,165.8c-28.1-13-58.9-19.2-89.9-18
			c-11,0.3-21.9,2.6-32.1,6.8c-30.7,13.8-26.4,27.5-1.6,49.3c38.3,33.6,84.7,133.8,80,138.4c-2.7,2.8-24.8-28.1-34.5-38.4
			c-4.6-5-8.9-12.5-17.4-9.3c-6.8,2.6-6.4,9.9-7.9,15.7c-15.1,59-3.2,115.6,16.3,171c6.1,17.6,4.6,23.6-13.9,32
			c-42,19.3-76.2,52.3-96.8,93.7c-15.7,30.3-6.1,48.1,27.5,52.9c3.8,0.6,7.5,1.9,14.7,3.9c-37.6,33.4-51.7,78.7-73.6,118.8
			c-24.6,46.9-36.3,99.5-33.9,152.4c0.4,21.2,4.8,37.9,19.3,47.2c21.6,9.6,32,2,48.1-4.8c-7.9,10.9-22.1,25.8-27,32.9
			c-53.3,78.7-63,165.8-52.4,257.3c2.9,23.6,14.9,44.5,27.2,64.8c7.9,13.4,14.2,10.7,23,0.4c14.7-17.4,30.2-34.2,46.3-50.4
			c12.9-13.4,31.3-20.2,49.8-18.4c-19.6,24.4-39.4,45.5-43.3,74.7c-1.3,6.1-2.3,12.3-2.9,18.6c-1.3,9.9-1.1,19.9,0.8,29.8
			c5.6,2,78.7,28,81.1,59.3c40.7,12.5,72.2,25.8,112.9,39.4c82.1,26.7,36.9-24.6,105.7,29.4c3,0.6,25.7,7.9,16.4,26.3
			c36.1,5.8,72,13.5,107.7,20.1c22.3,4.2,44.7,7.9,66.8,12.6l4,0.9c15.6,2.2,31,5.5,46.2,9.8c21.9,5.9,42.7,15.2,61.5,27.7
			c16.6,10.2,29.2,25.9,35.6,44.3c21.4,69.2,82.6,132.1,114.8,139.4c48,12.3,60.2,9.2,112.9,10.1c20.6,0,42.7,1,65,1.5h64.9
			c22.3-0.5,44.3-1.1,64.8-1.5c52.7-0.9,64.9,2.1,112.9-10.1c32.1-7.3,93.4-70.2,114.8-139.4c6.4-18.4,19-34.1,35.6-44.3
			c18.8-12.6,39.6-22.1,61.5-28.2c15.2-4.3,30.6-7.6,46.2-9.8l4-0.9c22-5,44.6-8.4,66.8-12.6c35.7-6.7,71.6-14.3,107.7-20.1
			c-9.3-18.6,13.4-25.7,16.4-26.3c68.7-53.9,23.6-2.7,105.7-29.4c40.6-13.2,72.1-26.4,112.9-39.4c2.3-31.5,75.5-57.3,81.1-59.3
			c1.9-9.8,2.1-19.8,0.8-29.8c-0.6-6.2-1.6-12.4-2.9-18.6c-4.2-29.2-23.6-50.3-43.3-74.7c18.7-1.7,37.2,5.3,50.1,19.1
			c15.7,16.2,31.5,33.1,46.3,50.4c8.7,10.3,14.9,13,23-0.4c12.3-20.3,24.2-40.8,27.1-64.8C2542.1,1644,2531.6,1556.6,2478.3,1478.2
			L2478.3,1478.2z"/>
		<path class="st4" d="M1254.5,1988.4c-29-29.6-40.2-64.9-58.2-101.8c-18.5-38.6-28.1-80.9-28.2-123.7c-0.1-17.2,1.2-34.4,3.9-51.4
			c-7.1-21.6-6.5-49.7-7.9-65.8c-0.9-9.2,1.9-19-3.9-27.6l0,0c-11.1-20.5-83-41.8-83.1-52c0-11.7,13.5-7.2,20.2-11.7
			c1-0.7,1.6-2.3,2.5-3.9l-3.9-2.3c-5.4-2.4-10.4-5.5-14.9-9.3c-30.6-27.2-49.7-62.3-70.8-96.1l-7.9-14.5c0,12.5,3.2,25.2,0,23.1
			c-57.9-38.2-120.8-29.1-183.3-21.2c-42.2,0.4-84.2-5.5-124.7-17.6c47.7,25,51.2,23.1,85.7,30.1c-40.6,11.8-79.2,5.5-118.8-1.4l0,0
			c-9-2.7-18.3-3.9-27.6-3.5c9.6,7.2,16.7,12.3,24.1,16.8c26.4,16.5,43.2,21.5,77,28.9c24.5,5.3,72.2,12,88.9,9.6
			c7.9-1.1,38.5-4.8,44-3c1.5,0.5-3,3.2-11.7,6.5l-1.3,0.5c-13.1,4.4-46.2,25.3-76.7,30.5c-33.8,5.3-85.5,1.4-143.1,33.4
			c-2.3,1.2-4.9,1.7-7.4,1.3l-3.6-0.6l0,0c5.3,15.3,42,6.5,51.2,7.9c21.2,0,132.2,47.2,194.5,74.9c17.6,6.9,34.7,14.9,51.3,23.8
			c-84.1-5.3-146.7,0-193.4,10.7c7.7,6.8,17.8,10.4,28.1,9.8c37.9,0.6,75.9-1.4,113.7,5.4c0,10.7-40.6,26.3-23.1,39.3
			c31.5,24.1,69.7,100.6,91.1,135.5c-2-11-25.4-83.6-17.9-87.8s112.2,128.9,118,138.8c2.1,3.5,6.6,4.6,10,2.6
			c2.3-1.4,3.7-3.9,3.6-6.5v-0.5c-1.2-50,7.3-99.8,24.9-146.5c1.5-4.1,1.3-12.5,9.8-9c1.9,0.8-1.6,30.8-1.8,42.3
			c0,0-3.1,42.1-3.5,43.4c0.6,8.8,10.6,9.4,13,0c3.6-15.9,8.9-31.4,15.7-46.3c2.3-4.7,4.5-11.2,11.7-8.7c0.9,0.4,1.8,0.9,2.5,1.6
			h0.4c0.6,0.1,1.1,0.6,1,1.2c0,0.1,0,0.2-0.1,0.3c1.5,2.7,2.2,5.8,1.7,8.9c-3.9,41.8,4.6,82.7,8.3,124c3.1,33.8,15,64.9,25.9,96.3
			c8.9,10.8,25.7,37.6,33.9,47.2c13.6,20.5,60.3,38.2,82.9,36.7c45.9-3,61.2,36.1,68.3,59.3c-6.2-29.1-22.6-77.4-26-79.9l0,0
			c-21.7-29.1-41.4-59.3-51.2-94.9c-3.3-13.6-4.5-27.7-3.4-41.6c-0.7,12.8-1.7,30.6-1.7,30.6
			C1261.7,1992.8,1259.2,1993.2,1254.5,1988.4L1254.5,1988.4z"/>
		<path d="M2478.3,1478.2c-4.8-7.1-18.7-22-27-32.9c15.7,6.8,26.4,14.4,48.1,4.8c14.4-9.6,18.8-26.4,19.3-47.2
			c2.4-52.9-9.3-105.5-33.9-152.4c-22-40.4-36-85.4-73.6-118.8c7.2-2,10.9-3.3,14.7-3.9c33.6-4.7,43.6-22.6,27.6-52.9
			c-20.7-41.2-54.8-74.2-96.7-93.4c-18.6-7.9-20.1-14.4-13.9-32c19.4-55.1,31.5-112.1,16.3-171c-1.6-6.1-1.1-13.4-7.9-15.7
			c-8.5-3.2-12.7,4.2-17.4,9.3c-9.7,10.3-31.5,41.2-34.5,38.4c-4.7-4.8,41.6-104.8,80-138.4c24.9-21.8,29-35.4-1.6-49.3
			c-10.2-4.2-21.1-6.5-32.1-6.8c-31-1.2-61.8,5-89.9,18c6-56.9,14.2-111.2,16.8-165.8c3.5-90.1-12.3-179.9-46.3-263.4
			c-17.6-46.5-39.4-91.3-65.1-133.8c-12.1-19.6-16.7-19.1-27.8,0c-7.9,14.2-16.5,28.2-25.3,42c-22,36.5-49.2,69.5-80.8,98.1
			c-67.5,58.5-145.7,105.5-202.8,176.1c-6.2,7.9-10.2,6.3-16.8,0c-68.9-64.4-152.9-97.3-244-115.1c-9.4-1.6-18.1-5.8-25.3-12
			c-18.1-15.1-35.4-31.2-51.9-48.1c-5.3-6.4-11.5-12.1-18.3-17c-1.1-0.2-2.2-0.2-3.2,0c-6.8,4.9-12.9,10.6-18.3,17
			c-16.4,16.9-33.8,33-51.9,48.1c-7.2,6.2-16,10.4-25.4,12.1c-90.7,17.8-174.7,50.5-244,115.1c-6.6,6.1-10.6,7.9-16.8,0
			c-57.1-70.8-134.9-117.6-202.8-175.9c-31.6-28.6-58.8-61.6-80.8-98.1c-8.9-13.8-17.2-27.9-25.3-42c-11-19.2-15.7-19.6-27.8,0
			c-25.6,42.4-47.3,87.1-64.8,133.4c-33.8,83.3-49.5,172.9-46,262.7c2.6,54.5,10.9,108.8,16.8,165.8c-28.1-13-58.9-19.2-89.9-18
			c-11,0.3-21.9,2.6-32.1,6.8c-30.7,13.8-26.4,27.5-1.6,49.3c38.3,33.6,84.7,133.8,80,138.4c-2.7,2.8-24.8-28.1-34.5-38.4
			c-4.6-5-8.9-12.5-17.4-9.3c-6.8,2.6-6.4,9.9-7.9,15.7c-15.1,59-3.2,115.6,16.3,171c6.1,17.6,4.6,23.6-13.9,32
			c-42,19.3-76.2,52.3-96.8,93.7c-15.7,30.3-6.1,48.1,27.5,52.9c3.8,0.6,7.5,1.9,14.7,3.9c-37.6,33.4-51.7,78.7-73.6,118.8
			c-24.6,46.9-36.3,99.5-33.9,152.4c0.4,21.2,4.8,37.9,19.3,47.2c21.6,9.6,32,2,48.1-4.8c-7.9,10.9-22.1,25.8-27,32.9
			c-53.3,78.7-63,165.8-52.4,257.3c2.9,23.6,14.9,44.5,27.2,64.8c7.9,13.4,14.2,10.7,23,0.4c14.7-17.4,30.2-34.2,46.3-50.4
			c12.9-13.4,31.3-20.2,49.8-18.4c-19.6,24.4-39.4,45.5-43.3,74.7c-1.3,6.1-2.3,12.3-2.9,18.6c-1.3,9.9-1.1,19.9,0.8,29.8
			c5.6,2,80.7,46.4,83,77.6c40.7,12.5,70.3,7.9,110.9,20.7c82.1,26.7,49-3.9,105.7,29.4c3,0.6,25.7,7.9,16.4,26.3
			c36.1,5.8,72,13.5,107.7,20.1c22.3,4.2,44.7,7.9,66.8,12.6l4,0.9c15.6,2.2,31,5.5,46.2,9.8c21.9,5.9,42.7,15.2,61.5,27.7
			c16.6,10.2,29.2,25.9,35.6,44.3c21.4,69.2,82.6,132.1,114.8,139.4c48,12.3,60.2,9.2,112.9,10.1c20.6,0,42.7,1,65,1.5h64.9
			c22.3-0.5,44.3-1.1,64.8-1.5c52.7-0.9,64.9,2.1,112.9-10.1c32.1-7.3,93.4-70.2,114.8-139.4c6.4-18.4,19-34.1,35.6-44.3
			c18.9-12.5,39.7-21.9,61.5-27.9c15.2-4.3,30.6-7.6,46.2-9.8l4-0.9c22-5,44.6-8.4,66.8-12.6c35.7-6.7,71.6-14.3,107.7-20.1
			c-9.3-18.6,13.4-25.7,16.4-26.3c68.7-53.9,23.6-2.7,105.7-29.4c40.6-13.2,72.1-26.4,112.9-39.4c2.3-31.5,75.5-57.3,81.1-59.3
			c1.9-9.8,2.1-19.8,0.8-29.8c-0.6-6.2-1.6-12.4-2.9-18.6c-4.2-29.2-23.6-50.3-43.3-74.7c18.7-1.7,37.2,5.3,50.1,19.1
			c15.7,16.2,31.5,33.1,46.3,50.4c8.7,10.3,14.9,13,23-0.4c12.3-20.3,24.2-40.8,27.1-64.8C2542.1,1644,2531.6,1556.6,2478.3,1478.2
			L2478.3,1478.2z M2462.5,1686.9c-14.1-15.1-31.9-25.3-48.4-37.2c-34.6-13.8-68-32.2-105.2-36.1c-67.1-7.2-181.9-7.2-296.5,55.1
			c263.7-16.7,317,73.6,324.1,87.4c1.8,3.5,2.4,7.5,1.6,11.3c-2.7-0.5-5.3-1.2-7.9-2.2c-11.9-1.4-195.9-33.8-333.9,105.6
			c-3.9,4.7,26.1-84.4,17.7-89s-112.2,128.9-118.1,138.8c-2.1,3.5-6.6,4.6-10,2.6c-2.3-1.4-3.7-3.9-3.6-6.5v-0.5
			c1.2-50-7.3-99.8-24.9-146.5c-1.5-4.1-1.3-12.5-9.8-9c-1.9,0.8,1.6,30.8,1.8,42.3c0,0,3.1,42.1,3.5,43.4c-0.6,8.8-10.6,9.4-13,0
			c-3.6-15.9-8.9-31.4-15.7-46.3c-2.3-4.7-4.5-11.2-11.6-8.7c-4.4,2.2-6.7,7.2-5.6,12c3.9,41.8-4.6,82.7-8.3,124
			c-3.3,36.3-16.8,69.4-28.2,103.3c-18.7,44.9-41.9,87.8-69.3,128c-9.2,18.2-21.2,32.7-43.8,33c-9.2,2.7-69.9,1.5-70.8-3.6l0,0
			c-5.8-8.8,23.1-97.5,27.6-101.1l0,0c21.7-29.1,41.4-59.3,51.2-94.9c10.6-39.4-12.7-166.1-21.1-176.1c-2.8,12.8-4.7,25.8-5.5,38.9
			v0.6c-0.9,12.4-0.9,24.4-1,36.4c0,3.4,1.5,8.6-4.2,8.7c-1.1,0-2.2-2-3.3-4s-1.1-2.1-1.7-2.9c-10.5-20.4-34.6-31.1-61.2-34.7
			c-6.3-0.8-12.6-1.3-19-1.4h-14.6c-3,0-6,0.5-8.9,0.9c-8.6,1-17.2,2.8-25.5,5.3l-6.5,1.8c-15.9,7.2-34.1,7.2-50,0l-6.5-1.8
			c-8.3-2.5-16.9-4.3-25.5-5.3c-2.9,0-5.9-0.6-8.9-0.9h-14.6c-6.3,0.1-12.7,0.6-19,1.4c-26.5,3.6-50.8,14.3-61.2,34.7
			c-0.6,0.8-1.1,1.9-1.7,2.9s-2.2,4-3.3,4c-5.7,0-4.1-5.3-4.2-8.7c0-12,0-24-1-36.4v-0.6c-0.8-13.1-2.7-26.1-5.5-38.9
			c-8.4,9.9-33.9,136.5-21.1,176.1c9.7,35.6,29.4,65.8,51.2,94.9l0,0c4.6,3.5,33.4,92.3,27.6,101.1l0,0c-1.3,5.1-61.9,6.3-70.8,3.6
			c-22.7,0-34.6-14.9-43.8-33c-28.1-40.2-51.9-83.1-71.2-128.2c-11.5-33.8-24.9-67.1-28.2-103.3c-3.8-41.3-12.3-82.2-8.3-124
			c1.1-4.8-1.2-9.8-5.6-12c-7.1-2.5-9.3,4.1-11.7,8.7c-6.8,14.8-12.1,30.3-15.7,46.3c-2.4,9.3-12.3,8.7-13,0
			c0.5-1.4,3.6-43.5,3.5-43.4c0-11.6,3.7-41.6,1.8-42.3c-8.4-3.5-7.9,4.9-9.8,9c-17.7,46.8-26.2,96.5-24.9,146.5v0.5
			c0.1,4-3.1,7.4-7.1,7.5c-2.7,0.1-5.2-1.3-6.5-3.6c-6.1-9.8-110.2-143.3-118-138.8c-7.9,4.6,21.6,93.8,17.7,89
			c-138.3-139.1-322.3-106.7-334.2-105.3c-2.5,1-5.2,1.7-7.9,2.2c-0.8-3.9-0.2-7.8,1.7-11.3c7.1-13.8,60.4-104.1,324.1-87.4
			c-114.6-62.4-229.4-62.4-296.5-55.1c-37.2,3.9-70.8,22.3-105.2,36.1c-16.5,11.9-34.4,22.1-48.4,37.2c-1,3.9,6.7-72.9,19.5-100.2
			c24.9-56.5,84.2-89.6,145.4-81.3c31.5,3.5,63.9,5.3,95.9,7.9c70,8.8,141-21.3,135.7-23.1s-36.4,2-44,3
			c-16.8,2.4-64.5-4.2-88.9-9.6c-33.8-7.4-50.5-12.4-77-28.9c-7.3-4.6-14.4-9.6-24.1-16.8c9.3-0.4,18.7,0.8,27.6,3.5l0,0
			c39.3,6.9,78.2,13.3,118.8,1.4c-35.8-7.4-38.2-5-91.6-33.3l0,0c-53.3-32.4-108.8-49.5-175-27.9c7.2-35.1,69.7-106.7,69.8-109.6
			s-2.4-4.8-10.4,0c-34.9,18.6-63,45.3-94.4,77.3c8.7-61.8,28.2-112.6,67.5-154.4c11.4-14.1,25.3-25.9,41-34.9
			c8.7-4.2,15.7-6.7,25.6,0.5c33.5,24.7,110.2,46.7,108.8,44.9c-40.8-53.1-84-102.9-152.9-121c-5-1.5-9.2-4.7-12-9.1
			c-2.6-3.1-1.7-6.8,1.8-11.9c1.2-1.7,2.6-3.5,4.2-5.7c8.3-10.7,19.5-18.9,32.3-23.6c16.4-5.6,62.5,10.6,63,10.9
			c7.1,3.8,23.6,6.8,30.8,3.2c2-1-19.3-41.6-26.8-50.8c-35.4-42.8-43.9-95.6-56.1-149.5c13.5,5,18,14.9,25.7,21.3
			s42.5,39.4,52.6,37.3c36-7.2,0-111.5,2.2-119.4c5.4,3.1,66.1,89.9,77.1,133.8c7.4,27.7,1,57.2-17.2,79.3
			c-8.7,11.3-12.6,23.6-2.4,36.2c22.5-9.9,44.5-21,66.2-32.7c53.8-29,106.2-62.1,163.4-92.2c-0.9,3.4-2.1,6.5-3.1,9.6
			c-1.7,4.9-3.8,9.7-6.1,14.3c-4.1,8.4-9.4,16.1-15.7,23c-9.9,10.6-19.8,21.2-30.1,31.5l0,0c-10.1,10.2-21.1,19.6-32.7,28.2
			l-3.3,2.5c-3.1,2-4.9,5.3-5,9c0,0.4,0,0.8,0,1.2c0.2,0.9,0.4,1.7,0.8,2.5c1.2,3.5,3.8,6.3,7.2,7.9c3.4,1.3,7.1,1.3,10.6,0l2.4-0.8
			c4.2-1.4,8.4-3.1,12.4-5c1.6-0.8,3.2-1.7,4.6-2.5c29.1-20.1,56.8-42,83-65.7c55.1-59.1,186.3-152.5,186.4-153.1
			c0-7.3-13.4-5.8-11.4-14.5c10.7-5.8,19.5,4.3,29.4,2.3c2.9-1.6,2.9-3,2.1-4.5s-1.7-2.2-2.1-3.3s0-0.8,0-0.9
			c-37.1-28-130-9.4-139.1-6.8c-9.1,2.6-8.9-1.7-8.7-6.8v-3.8c-0.1-7.9-0.7-15.8-1.9-23.6c-3.6-20.6-10.1-40.6-19.3-59.3
			c-1.5-3.4-3.1-6.7-4.8-10c-16.6-23.2-34.4-45.6-53.3-67c-11.3-12.8-23-25.4-34.9-37.7c-3-3.2-6-6.3-9-9.5
			c-6.2-6.8-12.1-13.8-17.8-21.1c-2.7-3.6-5.3-7.2-7.9-10.9c-10.5-14.8-19.5-30.6-26.8-47.2c-2.8-6.4-3.7-15.7-12.8-13.8
			c-2.5,0.4-4.8,1.8-6.2,3.9c-0.5,0.8-0.9,1.7-1.2,2.6c-0.2,0.9-0.4,1.8-0.5,2.8v3c0,2.5,0.5,5.1,0.7,7.9c1.5,18.8,3.3,37.6,5,56.4
			c-13.5-15.1-41.2-73.9-45.7-86.6c-1.1-3.2-2.2-6.4-3.2-9.5c-1.9-6.4-3.5-12.8-4.8-19.4c-2.5-19.8-3.5-39.8-2.8-59.7
			c-0.9-27.5,20.8-85.2,10-85.2c-1-0.1-1.9-0.1-2.9,0l-1.3,0.5c-1.4,1-2.6,2.2-3.5,3.7l0,0c-2,2.9-3.9,5.9-5.7,9
			c-34.3,59.8-60,124-76.3,191c-0.9,3.4-4.2,18.5-4.9,22.5c0,2.2-1.6,27.3-7.9,33.4c-1.4-9-2-18.2-1.9-27.3
			c1.2-19.1-5.4-197.6,78.7-355.9l0,0c2.2,3.5,4.3,7,6.3,10.4l2.9,5c4.4,7.8,9.3,15.3,14.6,22.5c56.6,74.6,123.2,140.9,197.9,197.3
			c18.7,14.1,36.7,28.9,54.1,44.2c52.2,46.3,99.3,98,140.6,154.2c9.5,12.8,17.9,26.5,25.1,40.7c5.4,10.7,34,79.6,36.8,83.8
			c1.5,3.2,5.3,4.7,8.6,3.4c1.4-0.5,2.6-1.3,3.6-2.4c2-2.6,2.8-5.9,2.1-9.1c-0.1-1.3-0.3-2.6-0.6-3.9l-0.6-2.4
			c-0.6-2.4-22.5-68.7-33.2-98.1c-12.8-31.6-27.5-62.4-44.1-92.2c-5.6-9.9-55.1-83.4-55.6-84.1c-0.9-0.9-1.5-2.2-1.7-3.5
			c0-1.9,1.2-4.1,5.5-6.6c9.1-5.2,18.1-10.4,27.3-15.3c4.6-2.4,9.2-4.9,13.8-7.2c23.6-12.4,49.4-20,76-22.3l-3.9,9.8
			c-2.5,6.4-14.5,69.7-15.3,78.7c-3.3,36.1,12.1,81.5,23.1,101.1c15.3,23.8,32.3,46.4,50.7,67.9c3,2.6,6.3,4.8,9.8,6.7
			c14.2,12,40.6,0,23.6-14.7l0,0c-14.9-19.4-39.3-41.5-40.4-69.5c-2-34,1.7-68.2,10.9-101.1c2-6.8,4.4-13.5,7.2-19.9
			c7.3-16.5,14.2-33.2,22-49.4c9.8-21.2,23.1-40.7,39.3-57.5l0,0c17.8-24.5,39.3-45.9,56.3-70.8c2.2-3.3,4.3-6.7,6.3-10.1
			c1.2-2,3.3-3.3,5.7-3.3l0,0c2.1,0,3.9,1.1,5,2.9c2.1,3.6,4.3,7.1,6.5,10.5c16.8,25.3,38.6,46.7,56.3,70.8l0,0
			c16.3,16.8,29.6,36.2,39.3,57.5c7.9,16.2,14.7,33,22,49.4c2.9,6.5,5.3,13.1,7.2,19.9c9.4,32.9,13.3,67.1,11.5,101.2
			c-0.8,28-25.4,50-40.4,69.5l0,0c-17.3,14.7,9.1,26.7,23.6,14.7c3.5-1.9,6.7-4.1,9.8-6.7c18.4-21.5,35.3-44.2,50.7-67.9
			c11.1-19.6,26.4-64.9,23.1-101.1c-0.9-9.4-12.8-72.7-15.3-78.7l-3.9-9.8c26.6,2.3,52.4,9.9,76,22.3c4.6,2.3,9.3,4.7,13.8,7.2
			c9.1,5,18.2,10.2,27.3,15.3c4.3,2.5,5.7,4.6,5.5,6.6c-0.2,1.3-0.8,2.5-1.7,3.5c-0.7,0.8-50.1,74.3-55.6,84.1
			c-16.9,29.7-31.8,60.4-44.9,91.9c-10.7,29.4-32.6,95.8-33.2,98.1l-0.6,2.4c-0.3,1.3-0.5,2.6-0.6,3.9c-0.6,3.2,0.1,6.5,2.1,9.1
			c1,1.1,2.2,1.9,3.6,2.4c3.3,1.3,7.1-0.2,8.6-3.4c2.9-4.2,31.5-73.1,36.8-83.8c7.2-14.2,15.6-27.8,25.1-40.7
			c41.2-56.1,88.3-107.7,140.3-153.9c17.4-15.4,35.4-30.1,54.1-44.2c74.7-56.4,141.2-122.8,197.8-197.3c5.3-7.2,10.1-14.7,14.6-22.5
			l2.9-5c2-3.4,4.1-6.8,6.3-10.4l0,0c84.4,158.4,77.8,336.8,78.7,355.9c0.1,9.1-0.5,18.3-1.9,27.3c-6.1-6.1-7.9-31.5-7.9-33.4
			c-0.7-4-4-19.1-4.9-22.5c-15.9-66.1-41-129.7-74.4-188.9c-2.1-3.7-4.3-7.3-6.7-10.9l-0.7-1.1c-0.9-1.5-2.1-2.7-3.5-3.7l-1.3-0.5
			c-1-0.1-1.9-0.1-2.9,0c-10.7,0,10.9,57.8,10,85.2c0.6,20-0.3,39.9-2.8,59.7c-1.3,6.5-2.9,13-4.8,19.4c-0.9,3.2-2,6.4-3.1,9.5
			c-4.5,12.7-32.2,71.5-45.6,86.6c1.6-18.8,3.5-37.6,5-56.4c0-2.4,0.6-5,0.7-7.9v-3c-0.1-0.9-0.2-1.8-0.5-2.8
			c-0.3-0.9-0.6-1.8-1.2-2.6c-1.5-2.1-3.7-3.5-6.2-3.9c-9.1-2-10,7.4-12.8,13.8c-7.3,16.6-16.3,32.4-26.8,47.2
			c-2.6,3.7-5.2,7.3-7.9,10.9c-5.6,7.2-11.5,14.3-17.8,21.1c-2.9,3.2-5.9,6.4-9,9.5c-12,12.3-23.6,24.9-34.9,37.7
			c-18.8,21.5-36.5,44-53,67.4c-1.7,3.3-3.3,6.6-4.8,10c-9.1,18.9-15.4,38.9-18.8,59.6c-1.2,7.8-1.8,15.7-1.9,23.6v3.8
			c0,5.2,0,9.4-8.7,6.8S1768,765,1731.2,793v0.9c0,0.3-1.6,2.2-2.1,3.3s-0.8,2.9,2.1,4.5c9.8,2,18.7-7.9,29.4-2.3
			c2,8.7-11.7,7.2-11.4,14.5c0,0.6,131.4,94,186.4,153.1c26.2,23.7,53.9,45.7,83,65.7c1.5,0.9,3.1,1.7,4.6,2.5c4,1.9,8.2,3.6,12.4,5
			l2.4,0.8c3.4,1.3,7.1,1.3,10.6,0c3.4-1.5,6-4.4,7.2-7.9c0.4-0.8,0.6-1.7,0.8-2.5c0-0.4,0-0.8,0-1.2c-0.1-3.6-1.9-7-5-9l-3.3-2.5
			c-11.6-8.5-22.5-17.9-32.7-28.2l0,0c-10.3-10.2-20.1-20.9-30.1-31.5c-6.4-6.8-11.7-14.6-15.7-23c-2.3-4.7-4.3-9.4-6.1-14.3
			c-1.1-3-2.1-6.2-3.1-9.6c57.2,30.1,109.6,63,163.4,92.2c21.7,11.7,43.6,22.8,66.2,32.7c10.2-12.7,6.4-24.9-2.4-36.2
			c-18.4-22-25-51.6-17.8-79.3c11-43.7,71.7-130.6,77.1-133.8c2.2,7.9-33.8,112.1,2.2,119.4c10,2,44.6-30.6,52.6-37.3
			c8-6.7,12.2-16.4,25.7-21.3c-12.3,54.2-20.7,106.9-56.1,149.5c-7.9,9.1-28.8,49.8-26.8,50.8c7.2,3.6,23.6,0.6,30.8-3.2
			c0.6,0,46.7-16.4,63-10.9c12.8,4.7,23.9,12.9,32.3,23.6c1.7,2.1,3.1,3.9,4.2,5.7c3.5,5.1,4.4,8.9,1.8,11.9c-2.8,4.4-7,7.6-12,9.1
			c-68.9,18.2-112.1,68.1-152.9,121c-1.3,1.7,75.3-20.2,108.8-44.9c9.8-7.2,16.9-4.6,25.6-0.5c15.7,9,29.6,20.8,41,34.9
			c39.4,41.9,58.8,92.6,67.5,154.4c-30.8-32-59.2-58.8-94.4-77.3c-7.9-5-10.5-2.4-10.4,0s62.5,74.5,69.8,109.6
			c-66.2-21.6-121.8-4.4-175,27.9l0,0c-53.4,28.2-55.8,25.9-91.6,33.3c40.6,11.8,79.2,5.5,118.8-1.4l0,0c8.9-2.7,18.3-3.9,27.6-3.5
			c-9.6,7.2-16.7,12.3-24.1,16.8c-26.4,16.5-43.2,21.5-77,28.9c-24.5,5.3-72.2,12-88.9,9.6c-7.9-1.1-38.5-4.8-44-3
			s65.6,31.5,135.7,23.1c31.9-2.6,64-4.4,95.9-7.9c61.1-8.3,120.4,24.8,145.4,81.3c13,27.2,20.9,104,19.8,100.1L2462.5,1686.9
			L2462.5,1686.9z"/>
		<path d="M1523.5,1144.4L1523.5,1144.4c-0.9,2.7-1.7,5.3-2.4,7.9c-0.4,1.5-0.7,2.9-1.1,4.4s-0.7,2.9-0.9,4.3
			c-0.4,2.1-0.8,4.1-1.1,6.2c-1.4,8.6-2.1,17.2-2.1,25.9l0,0c0,9.6,0.7,19.2,1.9,28.7c9.8,12.2,18.3,10.7,24.2-3.2
			c5.8-13.8,13.6-26.7,23.1-38.3c21.1-24.4,47.9-43.2,78-54.7c41.1-17.1,198.7-81.1,209.7-90.3c3.3-2.5,5.8-6,6.9-10
			c0.6-2.9,0.1-6-1.3-8.7c-0.9-1.9-2.2-3.7-3.9-5.1c-4.7-3.6-10.9-4.2-16.2-1.7c-3.9,1.5-7.6,3.2-11.1,5.3l-3.6,2
			c-10.1,5.2-20.6,9.5-31.5,12.8c-26.7,7.7-54,12.9-81.6,15.7l-8.3,1.1l-8.3,1.2c28.6-34.5,67.9-46.5,108.2-57.2
			c1.2-0.3,2.4-0.5,3.7-0.6h4.6c9,0,18.8,0,19.1-10.6c0-5.3-1.8-7.9-5-8.5c-27.4-4.2-99,10-131.5,23.6l-8.4,3.7l-4.6,2.2l-4.4,2.2
			l-3.4,1.8c-3.4,1.8-6.7,3.8-10,5.8l-2.5,1.6c-3.9,2.5-7.9,5.3-11.7,7.9c-1.1,0.8-2.1,1.7-3.1,2.7l0,0c-2.1,2-66.7,45.2-91.1,48
			c-5.4,0.6-10.9,0.9-16.3,1.1s-9.6,0.4-14.3,0.7c-22.2,1.4-41.6-14.8-44.2-36.9c-4.2-34.4-7.4-81.4-13.7-109.7
			c-5.5,33.1-9,66.4-10.5,99.9c-2,27.1-25.3,47.7-52.5,46.3h-7c-5.4,0-10.9-0.6-16.3-1.1c-24.5-2.8-89.1-46-91.1-48l0,0
			c-1-1-2-1.8-3.1-2.7c-3.8-2.9-7.9-5.6-11.7-7.9l-2.5-1.6c-3.3-2.1-6.6-4-10-5.8l-3.4-1.8l-4.4-2.2l-4.6-2.2l-8.4-3.7
			c-32.4-13.5-104.1-27.7-131.5-23.6c-3.2,0.5-5.2,3.3-5,8.5c0,10.6,10.1,10.3,19.1,10.6h4.6c1.2,0.1,2.5,0.3,3.7,0.6
			c40.2,10.8,79.6,22.8,108.2,57.2l-8.3-1.2l-8.3-1.1c-27.6-2.8-54.9-8.1-81.6-15.7c-10.8-3.4-21.4-7.7-31.5-12.8l-3.6-2
			c-3.5-2.1-7.2-3.9-11.1-5.3c-5.3-2.5-11.6-1.8-16.2,1.7c-1.6,1.4-2.9,3.2-3.9,5.1c-1.4,2.6-1.9,5.7-1.3,8.7c1.1,4,3.5,7.5,6.8,10
			c10.9,9.1,168.7,73.3,209.7,90.3c30.1,11.5,56.9,30.3,78,54.7c9.5,11.6,17.3,24.5,23.1,38.3c5.9,13.8,14.4,15.7,24.2,3.2
			c1.2-9.5,1.9-19.1,1.9-28.7l0,0c0-8.7-0.7-17.3-2.1-25.9c-0.3-2.1-0.7-4.1-1.1-6.2s-0.7-3.5-0.9-4.3c-0.4-1.5-0.7-2.9-1.1-4.4
			c-0.7-2.7-1.6-5.3-2.4-7.9l0,0c4.3,0.8,8.7,1.6,13,2.2c7.2,1.1,14.4,1.9,21.6,2.5l21.1,2.8l23.6-2.8c7.2-0.6,14.4-1.4,21.6-2.5
			C1514.7,1146.1,1519.2,1145.2,1523.5,1144.4L1523.5,1144.4z"/>
		<path d="M2095.5,1238.4c5.1-4.7,7.2-19.2-24.1-14.4c-35.3,6.8-69.3,18.9-101.1,35.7l0,0c-9.1-7.9-23.6-69.4,57.8-100.7
			c16.8-4.8,21.2-1.1,23.6-5l0.9-1.5c2.2-4.2,2-9.2-0.6-13.1c-0.9-1.8-2.2-3.5-3.6-5c-1.8-1.8-3.8-3.2-6.1-4.1l-1.7-0.6
			c-5-1.3-10.2-1.5-15.3-0.6c-6.1,0.9-12,1.9-18,3c-20.4,3.6-40.2,10.3-58.6,19.7c-4.6,2.4-9.2,4.8-13.8,7.4l-8.7,5l-5.5,3.3
			l-7.5,4.6c-35.4,22.2-68.9,47.2-106.4,66.1c-5.7,2.8-11.9,6.5-18.2,9.2l-3.4,1.3c-4,1.6-8.3,2.4-12.6,2.4h-4.2l-1.7-0.5l-2.2-0.9
			c-2.1-1-4-2.2-5.8-3.8l-0.5-0.4c-1-1-2-2-2.9-3.2c-14.7-17.8,0.6-35.2,10.6-51c2.1-2.9,4-5.9,5.7-9.1c0.5-1.1,0.8-2.4,0.9-3.6
			c0.1-0.8,0.1-1.6,0-2.4c-0.1-0.4-0.3-0.8-0.5-1.3c-0.4-0.9-1-1.8-1.7-2.5c-1.4-1.7-3.4-2.9-5.5-3.4c-0.9-0.2-1.8-0.2-2.7,0
			c-3.7,1-7.2,2.9-10,5.6l-2.3,1.7c-13.4,10.1-24.5,23-32.6,37.8c-4.3,7.2-8.3,14.6-12.4,21.9c-5.6,10.3-11.9,20.3-18.7,29.9
			l-3.6,4.7c-5.5,6.8-28.5,57.9-84.6,59.5c-16.8-0.5-33.1-6.3-46.4-16.6c-1-1.1-1.9-2.2-2.8-3.4c-0.9-1.2-1.7-2.5-2.4-3.9
			c-1.1-2.1-2.1-4.2-3-6.4c-1.1-3.6-2.9-6.9-5.5-9.7c-0.8-0.7-1.8-1.2-2.8-1.5c-1.7-0.5-3.5-0.5-5.2,0c-0.6,2.4-1.3,4.9-1.9,7.2v1.3
			c0,2.1-0.6,4-0.7,6.1c-1,12.6,0.9,25.2,5.6,36.9c1.7,2.5,3.3,5.2,4.6,7.9c0.3,0.7,0.6,1.4,0.9,2.2c0.4,1.2,0.7,2.5,0.7,3.8
			c-0.3,3.2-2,6.2-4.8,7.9l-2.1,1.6c-3.2,2.2-7.4,4.7-12.8,7.9s-10.3,5.3-11.4,10.9c-0.1,0.8-0.1,1.6,0,2.4l0,0l6.3,2
			c12.8,4.3,25,10.2,36.2,17.6c2.2,1.4,4.3,2.9,6.4,4.5c2.1,1.6,4.1,3.2,6.1,4.8c2.3,1.3,4.4,2.6,6.5,3.9
			c20.1,13.8,35.3,33.6,43.4,56.5c11.1,23.3,18.2,48.4,21.2,74.1c0.8,5.2,1.6,10.3,2.3,15.7c0.8,5.5,2.1,10.9,3.7,16.2
			c0.5,1.7,1,3.3,1.6,5c1.7,4.9,3.5,9.8,5.4,14.6c0.3,0.8,0.7,1.5,1.1,2.2c1.1,2.2,3.1,3.7,5.4,4.2h0.5c-0.9-7.6-1.4-15.3-1.5-23
			c-0.2-23.1,3.6-46,11.2-67.8c0-1.2,0.4-2.4,0.6-3.5s0.5-2.8,0.8-4.2c1.5-6.8,3.9-13.5,7.2-19.7c1.4-2.7,2.9-5.3,4.6-7.9
			c8.1-13,17.9-24.9,29-35.4h0.4c4.1-3.9,8.3-7.9,12.7-10.9c4.4-3.5,9.1-6.8,13.8-9.8c3.1-1.9,6.1-3.6,9.1-5.2
			c7.9-4.5,16.8-7.2,25.9-7.9h0.4c5.3,0,10.4,0,15.7-0.9c37.6-4,68.6-21,98.1-43.1c6.9-5.2,14-10.4,20.6-16.3
			c66.4-59.2,166-97.3,173.1-101.7C2076.4,1247.9,2094.1,1239.7,2095.5,1238.4L2095.5,1238.4z"/>
		<path d="M1920.9,1433.2l-6.1,6c-8.4,7.9-17.1,15.3-26.4,22.2c-6.9,5.2-14,10.1-21.3,14.6c-4.4,2.8-8.9,5.2-13.5,7.9
			s-9.2,4.6-13.9,6.8l-9.3,4.5c-3.9,1.9-7.9,3.9-11.4,5.9l-6.7,3.9c-17.9,11.9-32.4,28.1-42.2,47.2c-14.6,26.3-22.1,55.9-21.6,86
			c0.2,9.9,1.2,19.8,3.2,29.6c1,5,7.4,45.5,9.6,44.9c7.2-21.6,6.6-50.1,8.3-66.2c0.9-9.2-1.9-19,3.9-27.6l0,0
			c10.9-20.6,82.8-42.1,82.8-52.1c0-11.7-13.5-7.2-20.2-11.7c-1.1-0.7-1.6-2.4-2.7-4.2c6.9-2.8,13.3-6.6,19.1-11.2
			c30.6-27.2,49.7-62.3,70.8-96.1l7.9-14.5c0-1.8,0.8-3.7,0.9-5.6l0,0c0.1-0.6,0.1-1.2,0-1.8
			C1928.6,1425.4,1924.8,1429.3,1920.9,1433.2L1920.9,1433.2z"/>
		<path d="M1414.5,1371.6c-5.4-3.2-9.7-5.7-12.8-7.9l-2.1-1.6c-2.8-1.7-4.5-4.6-4.8-7.9c0-1.3,0.3-2.6,0.7-3.8
			c0-0.7,0.6-1.4,0.9-2.2c1.4-2.7,2.9-5.3,4.6-7.9c4.7-11.7,6.6-24.3,5.6-36.9c0-2.1-0.4-4.1-0.7-6.1v-1.3c-0.5-2.3-1.2-4.7-1.9-7.2
			c-1.7-0.5-3.5-0.5-5.2,0c-1,0.3-2,0.8-2.8,1.5c-2.6,2.8-4.4,6.1-5.5,9.7c-0.8,2.2-1.8,4.4-3,6.4c-0.7,1.3-1.5,2.6-2.4,3.9
			c-0.8,1.2-1.8,2.3-2.8,3.4c-13.3,10.3-29.6,16.1-46.4,16.6c-56.1-1.6-78.7-52.7-84.6-59.5l-3.6-4.7c-6.8-9.6-13.1-19.6-18.7-29.9
			c-4.2-7.3-7.9-14.7-12.4-21.9c-8.1-14.8-19.2-27.7-32.6-37.8l-2.3-1.7c-2.8-2.6-6.3-4.6-10-5.6c-0.9-0.2-1.8-0.2-2.7,0
			c-2.2,0.5-4.1,1.7-5.5,3.4c-0.7,0.8-1.3,1.6-1.7,2.5c-0.2,0.4-0.3,0.8-0.5,1.3c-0.1,0.8-0.1,1.6,0,2.4c0.1,1.2,0.4,2.5,0.9,3.6
			c1.6,3.2,3.5,6.2,5.7,9.1c10.1,15.7,25.3,33.2,10.6,51c-0.9,1.1-1.9,2.2-2.9,3.2l-0.5,0.4c-1.7,1.5-3.7,2.8-5.8,3.8l-2.2,0.9
			l-1.7,0.5h-4.2c-4.3,0-8.6-0.8-12.6-2.4l-3.4-1.3c-6.4-2.8-12.5-6.4-18.2-9.2c-37.5-18.5-70.8-43.9-106.4-66.1l-7.5-4.6l-5.5-3.3
			l-8.7-5c-4.5-2.6-9.1-5-13.8-7.4c-18.5-9.4-38.2-16-58.6-19.7c-6-1.1-12-2.1-18-3c-5.1-0.9-10.3-0.7-15.3,0.6l-1.7,0.6
			c-2.3,0.9-4.4,2.3-6.1,4.1c-1.4,1.5-2.7,3.1-3.6,5c-2.5,4-2.8,9-0.6,13.1l0.9,1.5c2.7,3.9,7,0,23.6,5
			c81.8,31.5,66.9,92.6,57.8,100.7l0,0c-31.7-16.9-65.8-28.9-101.1-35.7c-31.5-4.8-29.1,9.7-24.1,14.4c1.3,1.2,19.1,9.4,20.8,10.5
			c7.2,4.4,106.7,42.4,173.1,101.7c6.6,5.9,13.7,11.1,20.6,16.3c29.5,22,60.5,39.3,98.1,43.1c5,0.6,10.2,0.9,15.7,0.9h0.4
			c9.1,0.7,17.9,3.4,25.9,7.9c3,1.5,6.1,3.3,9.1,5.2c4.8,3,9.4,6.2,13.8,9.8c4.3,3.4,8.6,7,12.7,10.9h0.4
			c11.2,10.5,20.9,22.4,29,35.4c1.7,2.7,3.2,5.3,4.6,7.9c3.3,6.2,5.7,12.8,7.2,19.7c0,1.4,0.6,2.8,0.8,4.2s0.5,2.4,0.6,3.5
			c7.6,21.8,11.4,44.7,11.2,67.8c-0.1,7.7-0.6,15.4-1.5,23h0.5c2.3-0.5,4.3-2,5.4-4.2c0.4-0.7,0.8-1.4,1.1-2.2
			c1.9-4.8,3.8-9.7,5.4-14.6c0.5-1.6,1.1-3.3,1.6-5c1.6-5.3,2.9-10.7,3.7-16.2c0.8-5.2,1.5-10.3,2.3-15.7
			c2.9-25.7,10.1-50.7,21.2-74.1c8.1-23,23.3-42.8,43.4-56.5c2.1-1.3,4.2-2.7,6.5-3.9s4.1-3.2,6.1-4.8s4.2-3.1,6.4-4.5
			c11.2-7.4,23.4-13.4,36.2-17.6l6.3-2l0,0c0.1-0.8,0.1-1.6,0-2.4C1424.5,1377.3,1419.2,1374.3,1414.5,1371.6L1414.5,1371.6z"/>
		<path d="M1121,1504.6l-6.7-3.9c-3.8-2.1-7.9-4-11.4-5.9l-9.3-4.5c-4.6-2.2-9.3-4.5-13.8-6.8c-4.6-2.4-9.1-4.9-13.5-7.9
			c-7.3-4.5-14.4-9.4-21.3-14.6c-9.2-6.9-18-14.3-26.4-22.2l-6.1-6c-3.9-3.9-7.7-8-11.3-12.2c-0.1,0.6-0.1,1.2,0,1.8l0,0
			c0,1.8,0.7,3.8,0.9,5.6l7.9,14.5c21.4,33.7,40.6,68.9,70.8,96.1c5.8,4.6,12.2,8.4,19.1,11.2c-1.1,1.8-1.6,3.5-2.7,4.2
			c-6.7,4.3-20.2,0-20.2,11.7c0,10,71.8,31.5,82.8,52.1l0,0c5.8,8.6,3,18.3,3.9,27.6c1.7,15.7,1.1,44.6,8.3,66.2
			c2.2,0.7,8.5-39.8,9.6-44.9c2-9.7,3.1-19.7,3.2-29.6c0.4-30.1-7.1-59.7-21.6-86C1153.2,1532.3,1138.7,1516.3,1121,1504.6
			L1121,1504.6z"/>
		<path class="st5" d="M1723.5,1366.4c7.8-0.8,15.7-0.9,23.6-0.5c8.8,2.1,17.7,3.3,26.8,3.8c105.5-6.2,138.8-124,144-143.3l-12,14.4
			c-82.2,12-145.8,90.6-161.3,104.3C1737.2,1351.8,1730.1,1358.9,1723.5,1366.4L1723.5,1366.4z"/>
		<path class="st5" d="M1194.6,1345.2c-15.7-13.7-79.1-92.3-161.3-104.3l-12-14.4c5.1,19.4,38.5,137,144,143.3
			c9-0.5,18-1.7,26.8-3.8c7.9-0.4,15.8-0.3,23.6,0.5C1209.1,1359,1202,1351.8,1194.6,1345.2z"/>
		<path class="st2" d="M2220,529.6v-9.1c-0.6-33.5,1.2-201.6-78.7-351.6l0,0c-2.2,3.5-4.3,7-6.3,10.4l-2.9,5
			c-4.6,7.7-9.6,15.2-15,22.4c-56.6,74.6-123.2,141-197.9,197.3c-18.5,14.1-36.5,28.8-53.9,44.2c-52,46.2-99,97.8-140.2,153.9
			c-9.5,12.8-17.8,26.4-25,40.6c-5.1,10.1-30.8,72.1-36.1,82.5c30.8-29.6,66-54.3,104.3-73.2c12-5.1,24-10,36-14.9l18-7.5
			c6-2.5,11.9-5.1,17.8-7.9c8.8-4.1,17.6-8.3,26.1-13.1c14.4-7.8,28-17,40.7-27.4c3.8-2.9,7.8-5.6,12-7.9l7.9-4.5
			c6.9-3.8,13.2-8.5,18.6-14.2c6.8-7.6,13.4-15.3,19.8-23.1c25.4-31.4,46.9-65.8,64.2-102.3c1.5-3,2.9-6.1,4.2-9.3
			c0.6-1.3,1.2-2.5,1.8-3.7c1.9-3.6,4.1-7,6.5-10.2c4.2-5.3,8.7-10.4,13.6-15.1l6.1-5.9l3.1-3c3.1-3,6.1-6.1,9.2-9.4l3-3.3l2.2,8.5
			c2.9,11.2,5.6,22.3,7.9,33.3c1.1,5.2,2.1,10.7,3.1,16.3c3.8,21.3,4.8,43.1,2.8,64.7c0,2.7-0.6,5.4-1,7.9
			c-2.1,14.1-15.3,36.7-21.5,48.2v3.2c13.5-15.1,41.2-73.9,45.6-86.6c1.1-3.2,2.1-6.4,3.1-9.5c1.9-6.4,3.5-12.8,4.8-19.4
			c2.5-19.8,3.5-39.8,2.8-59.7c0.9-27.5-20.8-85.2-10-85.2c1-0.1,1.9-0.1,2.9,0l1.3,0.5c1.4,1,2.6,2.2,3.5,3.7l0.7,1.1
			c2.4,3.5,4.6,7.2,6.7,10.9c33.5,59.2,58.5,122.8,74.4,188.9c0.9,3.4,4.2,18.5,4.9,22.5c0,2.2,1.6,27.3,7.9,33.4
			c1.2-7.4,1.9-14.9,2-22.3L2220,529.6L2220,529.6z"/>
		<path class="st2" d="M1144,962.4L1144,962.4c-12.3,2.2-24.5,5.1-36.5,8.8h1c27.4-4.2,99,10,131.5,23.6l8.4,3.7l4.6,2.2l4.4,2.2
			l3.4,1.8c3.4,1.8,6.7,3.8,10,5.8l2.5,1.6c3.9,2.5,7.9,5.3,11.7,7.9c1.1,0.8,2.1,1.7,3.1,2.7l0,0c2.1,2,66.7,45.2,91.1,48
			c5.4,0.6,10.9,0.9,16.3,1.1s9.6,0.4,14.3,0.7c22.2,1.4,41.6-14.8,44.2-36.9c3.6-29.8,6.5-69.2,11.3-97.6c0-2.4,2.5-2.4,2.5,0
			c4.8,28.4,7.9,67.7,11.3,97.6c2.6,22.1,22,38.3,44.2,36.9c4.8,0,9.6-0.6,14.3-0.7s10.9-0.6,16.3-1.1c24.5-2.8,89.1-46,91.1-48l0,0
			c1-1,2-1.8,3.1-2.7c3.8-2.9,7.9-5.6,11.7-7.9l2.5-1.6c3.3-2.1,6.6-4,10-5.8l3.4-1.8l4.4-2.2l4.6-2.2l8.4-3.7
			c32.4-13.5,104.1-27.7,131.5-23.6h1c-12-3.7-24.2-6.6-36.5-8.8l0,0c-72.3-12-122.5-60.4-138.6-133.3c-1.5-6.7-2.8-16.8-7-18.7
			c-8.4-3.9-47.2,31-54.2,23.6c-45-47.2-66.6-105.4-78.7-168c-4.3-15.5,0.1-32.2,11.7-43.5c9.2-7.6,14.8-18.8,15.3-30.8
			c1.6-32.3-4-64.5-16.3-94.4c-11.7-25.7-26.1-49.9-39.3-74.8c-5.3-9.8-2.8-27.4-15.3-28.7l0,0c-12.4,1.3-10.1,18.9-15.3,28.7
			c-13.3,24.9-27.9,49.1-39.3,74.8c-12.3,29.9-17.9,62.2-16.3,94.4c0.5,12,6,23.2,15.3,30.8c11.5,11.3,16,28,11.7,43.5
			c-11.9,63-33.4,120.7-78.7,168c-7.1,7.4-45.8-27.5-54.2-23.6c-4.3,2-5.6,12-7,18.7C1266.5,902,1216.3,950.4,1144,962.4L1144,962.4
			z"/>
		<path class="st2" d="M1565.2,1180.5c-5.3,6.4-10,13.3-14.2,20.5c-2.2,4.6-4.2,6.7-6.1,10.9c-1.1,3.5-2.6,6.9-4.4,10.1
			c-5.8,10.8-13.6,11.2-22.6,0c-1.2-9.5-1.9-19.1-1.9-28.7l0,0c0-8.7,0.7-17.3,2.1-25.9c0.3-2.1,0.7-4.1,1.1-6.2
			c0.4-2.1,0.7-3.5,0.9-4.3c0.4-1.5,0.7-2.9,1.1-4.4c0.7-2.7,1.6-5.3,2.4-7.9l0,0c-4.3,0.8-8.7,1.6-13,2.2
			c-7.2,1.1-14.4,1.9-21.6,2.5l-20.2,2.4h-4.2l-20.2-2.4c-7.2-0.6-14.4-1.4-21.6-2.5c-4.3-0.6-8.6-1.4-13-2.2l0,0
			c0.9,2.7,1.7,5.3,2.4,7.9c0.4,1.5,0.7,2.9,1.1,4.4s0.7,2.9,0.9,4.3c0.4,2.1,0.8,4.1,1.1,6.2c1.4,8.6,2.1,17.2,2.1,25.9l0,0
			c0,9.6-0.7,19.2-1.9,28.7c-9,11.2-16.8,10.8-22.6,0c-1.7-2.1-8.3-16.5-10.5-21.1c-4.2-7.2-8.9-14-14.2-20.5
			c-21.1-24.4-47.9-43.2-78-54.7c-36.4-15.1-164.8-67.4-200.8-85.3l40.1,30.1l16.2,11.9c38.6,27.2,73.1,59.9,102.3,97
			c13.1,18.1,24.2,37.5,33.1,57.9c3.2,6.8,6.1,13.6,9.1,20.5c8.4,19.8,10.7,35.3-11.6,46.1l-1.3-0.6v0.7l1.7,2
			c15.4,14.7,35.8,23.1,57.1,23.6c16.8-0.5,33.1-6.3,46.4-16.6c1-1.1,1.9-2.2,2.8-3.4c0.7-1,1.3-2.1,2-3.2l1-2.4
			c0.9-2.5,2-4.9,3.4-7.2c0.9-2.8,2.5-5.3,4.6-7.3c0.8-0.7,1.8-1.2,2.8-1.5c1.7-0.5,3.5-0.5,5.2,0c0.6,2.4,1.3,4.9,1.9,7.2v1.3
			c0,2.1,0.6,4,0.7,6.1c1,12.6-0.9,25.2-5.6,36.9l-1.7,2.8l-0.7,2l-2.4,3.9l-0.6,1.6c-0.4,1.2-0.7,2.5-0.7,3.8
			c0.3,3.2,2,6.2,4.8,7.9l2.1,1.6c3.2,2.2,7.4,4.7,12.8,7.9s10.3,5.3,11.4,10.9c0.1,0.8,0.1,1.6,0,2.4l0,0l-6.3,2
			c-12.8,4.3-25,10.2-36.2,17.6c-2.2,1.4-4.3,2.9-6.4,4.5c-2.1,1.6-4.1,3.2-6.1,4.8c-2.3,1.3-4.4,2.6-6.5,3.9
			c-20.1,13.8-35.3,33.6-43.4,56.5l-1.7,3.5l-0.5,1.4v0.5l1.3,0.9l0.7-1.4l0,0c1.4,0.4,2.9,0.6,4.3,0.7c2.5-0.1,4.9-0.8,7-2.2
			c1.6-0.9,3.5-2.1,6-3.5l9-5.8c7.1-5.3,15.4-8.6,24.2-9.5c3.4-0.1,6.9,0.5,10.1,1.7c1.8,0.7,3.4,1.6,5,2.6c1.8,1.1,3.5,2.3,5.1,3.6
			c3,2.4,5.7,5.2,7.9,8.3c1,1.5,1.9,3.1,2.7,4.8c0.7,1.7,1.3,3.5,1.7,5.3c0.4,1.9,0.6,3.9,0.6,5.9v3.2c-0.2,2.3-0.6,4.6-1.1,6.8
			c-0.3,1.2-0.7,2.4-1,3.7c-4.7,14.7-9.2,29.5-13.7,44.3c-31.5,103.7-58.4,208.4-85.2,313.3c-0.6,2.3-1.2,4.6-1.7,6.8l-0.6,2.3
			c-1.3,5.1-1.7,10.5-1.2,15.7c0.5,3.8,1.7,7.4,3.6,10.7l0.7-1.3c0.6-1,1.1-2.1,1.7-2.9c10.5-20.4,34.6-31.1,61.2-34.7
			c6.3-0.8,12.6-1.3,19-1.4h14.6c3,0,6,0.5,8.9,0.9c8.6,1,17.2,2.8,25.5,5.3l6.5,1.8c7.2,3,14.9,4.8,22.7,5.3v-0.6h4.7v0.6
			c7.8-0.5,15.5-2.3,22.7-5.3l6.5-1.8c8.3-2.5,16.9-4.3,25.5-5.3c2.9,0,5.9-0.6,8.9-0.9h14.6c6.3,0.1,12.7,0.6,19,1.4
			c26.5,3.6,50.8,14.3,61.2,34.7c0.6,0.8,1.1,1.9,1.7,2.9l0.7,1.3c1.9-3.3,3.2-6.9,3.6-10.7c0.5-5.3,0.1-10.6-1.2-15.7l-0.6-2.3
			c-0.6-2.3-1.2-4.6-1.7-6.8c-26.9-104.8-54-209.7-85.2-313.3c-4.5-14.8-9-29.6-13.7-44.3c-0.4-1.3-0.8-2.5-1-3.7
			c-0.6-2.2-0.9-4.5-1.1-6.8v-3.2c0-2,0.2-4,0.6-5.9c0.4-1.8,0.9-3.6,1.7-5.3c0.7-1.7,1.6-3.3,2.7-4.8c2.2-3.2,4.8-6,7.9-8.3
			c1.6-1.3,3.3-2.5,5.1-3.6c1.6-1,3.3-1.9,5-2.6c3.2-1.3,6.6-1.9,10.1-1.7c8.8,0.9,17.2,4.2,24.2,9.5l9,5.8c2.4,1.6,4.4,2.7,6,3.5
			c2.1,1.3,4.5,2.1,7,2.2c1.5-0.1,2.9-0.3,4.3-0.7l0,0l0.7,1.4l1.3-0.9v-0.5l-0.5-1.4l-1.7-3.5c-8.1-23-23.3-42.8-43.4-56.5
			c-2.1-1.3-4.2-2.7-6.5-3.9s-4.1-3.2-6.1-4.8s-4.2-3.1-6.4-4.5c-11.2-7.4-23.4-13.4-36.2-17.6l-6.3-2l0,0c-0.1-0.8-0.1-1.6,0-2.4
			c1.1-5.6,6.8-7.9,11.4-10.9s9.7-5.7,12.8-7.9l2.1-1.6c2.8-1.7,4.5-4.6,4.8-7.9c0-1.3-0.3-2.6-0.7-3.8l-0.6-1.6l-2.4-3.9l-0.7-2
			l-1.7-2.8c-4.7-11.7-6.6-24.3-5.6-36.9c0-2.1,0.4-4.1,0.7-6.1v-1.3c0.5-2.3,1.2-4.7,1.9-7.2c1.7-0.5,3.5-0.5,5.2,0
			c1,0.3,2,0.8,2.8,1.5c2.1,2.1,3.6,4.6,4.6,7.3c1.4,2.3,2.5,4.7,3.4,7.2l1,2.4c0.6,1.1,1.3,2.1,2,3.2c0.8,1.2,1.8,2.3,2.8,3.4
			c13.2,10.4,29.4,16.4,46.2,17.1c21.3-0.5,41.7-8.9,57.1-23.6l1.7-2v-0.7l-1.3,0.6c-22.3-10.8-20-26.3-11.6-46.1
			c2.9-6.9,5.9-13.8,9.1-20.5c9-20.4,20.1-39.8,33.1-57.9c29.2-37.1,63.7-69.8,102.3-97l15.8-12.5l40.1-30.1
			c-36,17.9-164.3,70.1-200.8,85.3C1612.9,1137.1,1586.1,1156,1565.2,1180.5L1565.2,1180.5z"/>
		<path class="st2" d="M1111.3,629.6l18,7.5c12,4.9,24.1,9.8,36.1,14.9c38.3,18.9,73.5,43.6,104.3,73.2c-5.3-10.4-31-72.4-36.1-82.5
			c-7.2-14.2-15.6-27.8-25.1-40.7c-41.2-56.1-88.2-107.7-140.2-153.9c-17.4-15.4-35.4-30.1-54.1-44.2
			c-74.8-56.3-141.4-122.7-198-197.2c-5.3-7.2-10.1-14.7-14.6-22.5l-2.9-5c-2-3.4-4.1-6.8-6.3-10.4l0,0c-80,150-78.2,318-78.7,351.6
			v9.1l0,0c0.1,7.5,0.8,15,2,22.3c6.1-6.1,7.9-31.5,7.9-33.4c0.7-4,4-19.1,4.9-22.5c15.9-66.1,41-129.7,74.5-188.9
			c2.1-3.7,4.3-7.3,6.7-10.9l0.7-1.1c0.9-1.5,2.1-2.7,3.5-3.7l1.3-0.5c1-0.1,1.9-0.1,2.9,0c10.7,0-10.9,57.8-10,85.2
			c-0.7,20.1,0.2,40.1,2.8,60c1.3,6.5,2.9,13,4.8,19.4c0.9,3.2,2,6.4,3.2,9.5c4.5,12.7,32.2,71.5,45.7,86.6v-3.2
			c-6.2-11.6-19.4-34.2-21.5-48.2c-0.4-2.7-0.7-5.4-1-7.9c-1.9-21.6-1-43.3,2.8-64.7c0.9-5.2,1.9-10.7,3.1-16.3
			c2.3-10.9,5-22,7.9-33.3l2.2-8.5l3,3.3c3.1,3.3,6.1,6.4,9.2,9.4l3.1,3l6.1,5.9c4.9,4.7,9.4,9.8,13.6,15.1
			c2.4,3.2,4.6,6.6,6.5,10.2c0.6,1.2,1.2,2.4,1.8,3.7c1.4,3.1,2.8,6.2,4.2,9.3c17.3,36.5,38.8,70.9,64.2,102.3
			c6.3,7.9,12.9,15.6,19.8,23.1c5.5,5.6,11.8,10.4,18.7,14.2l7.9,4.5c4.2,2.3,8.2,5,12,7.9c12.7,10.4,26.3,19.6,40.7,27.4
			c8.5,4.7,17.2,9,26.1,13.1C1099.3,624.5,1105.3,627.1,1111.3,629.6L1111.3,629.6z"/>
		<path class="st4" d="M684.1,1001.2c4.6-11.7,8.4-21.3,24.6-23.6c11.3-1.4,18.2,2.3,20.9,17.8c1.4,7.9-3.7,18.5-2.4,26.4
			c1,6.2,4.8,19.2,16.8,14.4l0,0c-10.2-12.7-6.4-24.9,2.4-36.2c18.1-22.2,24.4-51.7,16.9-79.2c-11-43.7-71.7-130.6-77.1-133.8
			c-2.2,7.9,33.8,112.1-2.2,119.4c-10,2-44.5-30.6-52.6-37.3c-8-6.7-12.2-16.4-25.7-21.3c12.3,54.2,20.7,106.9,56.1,149.5
			c10.2,15.1,19,31,26.2,47.7C681.6,1018.8,681.6,1007.4,684.1,1001.2L684.1,1001.2z"/>
		<path class="st4" d="M2249.1,1001.2c-4.6-11.7-8.4-21.3-24.6-23.6c-11.3-1.4-18.2,2.3-20.9,17.8c-1.4,7.9,3.7,18.5,2.4,26.4
			c-1,6.2-4.8,19.2-16.8,14.4l0,0c10.2-12.7,6.4-24.9-2.4-36.2c-18-22.2-24.3-51.7-16.8-79.2c11-43.7,71.7-130.6,77.1-133.8
			c2.2,7.9-33.8,112.1,2.2,119.4c10,2,44.6-30.6,52.6-37.3c8-6.7,12.2-16.4,25.7-21.3c-12.3,54.2-20.7,106.9-56.1,149.5
			c-10.2,15.1-19,31-26.2,47.7C2251.6,1018.8,2251.6,1007.4,2249.1,1001.2L2249.1,1001.2z"/>
		<path class="st6" d="M861.8,1224c35.3,6.8,69.3,18.9,101.1,35.7l0,0c9.1-7.9,23.6-69.4-57.8-100.7l-2.4-0.6
			c-6.3-1.4-12.8-2.2-19.3-2.7l0,0c1.4,2.5,3,4.8,4.7,7c34.2,37.2,52.5,64.6,3.8,58c-6.6-0.9-10.6,0-22.8-0.9
			c-7.8-0.1-15.7,1.1-23.1,3.5C851.3,1222.9,856.6,1223.1,861.8,1224L861.8,1224z"/>
		<path class="st6" d="M2071.4,1224c-35.3,6.8-69.3,18.9-101.1,35.7l0,0c-9.1-7.9-23.6-69.4,57.8-100.7l2.4-0.6
			c6.4-1.4,12.8-2.2,19.3-2.7l0,0c-1.4,2.5-3,4.8-4.7,7c-34.2,37.2-52.5,64.6-3.8,58c6.6-0.9,10.6,0,22.8-0.9
			c7.9-0.1,15.7,1.1,23.1,3.5C2081.9,1222.9,2076.6,1223.1,2071.4,1224L2071.4,1224z"/>
		<path class="st4" d="M1678.8,1988.4c29-29.6,40.2-64.9,58.2-101.8c18.5-38.6,28.1-80.9,28.2-123.7c0.1-17.2-1.2-34.4-3.9-51.4
			c7.1-21.6,6.5-49.7,7.9-65.8c0.9-9.2-1.9-19,3.9-27.6l0,0c10.9-20.6,82.8-42.1,82.8-52.1c0-11.7-13.5-7.2-20.2-11.7
			c-1-0.7-1.6-2.3-2.5-3.9l3.9-2.3c5.4-2.4,10.4-5.5,14.9-9.3c30.6-27.2,49.7-62.3,70.8-96.1l7.9-14.5c0,12.5-3.2,25.2,0,23.1
			c57.9-38.2,120.8-29.1,183.3-21.2c42.2,0.4,84.2-5.5,124.7-17.6c-47.7,25-51.2,23.1-85.7,30.1c40.6,11.8,79.2,5.5,118.8-1.4l0,0
			c8.9-2.7,18.3-3.9,27.6-3.5c-9.6,7.2-16.7,12.3-24.1,16.8c-26.4,16.5-43.2,21.5-77,28.9c-24.5,5.3-72.2,12-88.9,9.6
			c-7.9-1.1-38.5-4.8-44-3c-1.5,0.5,3,3.2,11.6,6.5l1.3,0.5c13.1,4.4,46.2,25.3,76.7,30.5c33.8,5.3,85.6,1.4,143.1,33.4
			c2.3,1.2,4.9,1.7,7.4,1.3l3.6-0.6l0,0c-5.3,15.3-42,6.5-51.2,7.9c-21.2,0-132.2,47.2-194.5,74.9c-17.7,7-35,15.1-51.7,24.2
			c84.1-5.3,146.7,0,193.4,10.7c-7.8,6.8-17.8,10.2-28.1,9.6c-37.9,0.6-75.9-1.4-113.7,5.4c0,10.7,40.6,26.3,23.1,39.3
			c-31.5,24.1-69.6,100.6-91.1,135.5c2-11,25.4-83.6,17.9-87.8s-112.2,128.9-118.1,138.8c-2.1,3.5-6.6,4.6-10,2.6
			c-2.3-1.4-3.7-3.9-3.6-6.5v-0.5c1.3-49.8-6.9-99.4-24.4-146.2c-1.5-4.1-1.3-12.5-9.8-9c-1.9,0.8,1.6,30.8,1.8,42.3
			c0,0,3.1,42.1,3.5,43.4c-0.6,8.8-10.6,9.4-13,0c-3.6-15.9-8.9-31.4-15.7-46.3c-2.3-4.7-4.5-11.2-11.6-8.7
			c-0.9,0.4-1.8,0.9-2.5,1.6h-0.4c-0.6,0.1-1.1,0.6-1,1.2c0,0.1,0,0.2,0.1,0.3c-1.5,2.7-2.1,5.8-1.7,8.9c3.9,41.8-4.6,82.7-8.3,124
			c-3.1,33.8-15,64.9-25.9,96.3c-8.9,10.8-25.7,37.6-33.9,47.2c-13.6,20.5-60.3,38.2-82.9,36.7c-45.9-3-61.2,36.1-68.3,59.3
			c6.2-29.1,22.6-77.4,26-79.9l0,0c21.7-29.1,41.4-59.3,51.2-94.9c3.3-13.6,4.5-27.7,3.4-41.6c0.7,12.8,1.7,30.6,1.7,30.6
			C1671.6,1992.7,1673.9,1993.2,1678.8,1988.4L1678.8,1988.4z"/>
		<path class="st7" d="M1254.1,550.3c-0.4-14.2,4.4-8.7,9.8-4.3c-8.8-23.8-12.8-49.2-11.7-74.6c0.9-9.4,12.8-72.7,15.3-78.7l3.9-9.8
			c-26.6,2.3-52.4,9.9-76,22.3c-4.6,2.3-9.3,4.7-13.8,7.2c-9.1,5-18.2,10.2-27.3,15.3c-4.3,2.5-5.7,4.6-5.5,6.6
			c0.2,1.3,0.8,2.5,1.7,3.5c0.7,0.8,50.1,74.3,55.6,84.1c16.7,29.7,31.4,60.4,44.2,92c4.3,11.9,10.5,29.8,16.3,47.2l0,0
			C1259.4,624.5,1255.2,587.5,1254.1,550.3L1254.1,550.3z"/>
		<path class="st7" d="M1679.2,550.3c0.4-14.2-4.4-8.7-9.8-4.3c8.8-23.8,12.8-49.2,11.7-74.6c-0.9-9.4-12.8-72.7-15.3-78.7l-3.9-9.8
			c26.6,2.3,52.4,9.9,76,22.3c4.6,2.3,9.3,4.7,13.8,7.2c9.1,5,18.2,10.2,27.3,15.3c4.3,2.5,5.7,4.6,5.5,6.6
			c-0.2,1.3-0.8,2.5-1.7,3.5c-0.7,0.8-50.1,74.3-55.6,84.1c-16.6,29.7-31.4,60.4-44.2,92c-4.3,11.9-10.5,29.8-16.3,47.2l0,0
			C1673.9,624.5,1678.1,587.5,1679.2,550.3L1679.2,550.3z"/>
	</g>
</g>
</svg>
