<?xml version="1.0" encoding="utf-8"?>
<!-- Generator: Adobe Illustrator 27.5.0, SVG Export Plug-In . SVG Version: 6.00 Build 0)  -->
<svg version="1.1" id="Layer_1" xmlns="http://www.w3.org/2000/svg" xmlns:xlink="http://www.w3.org/1999/xlink" x="0px" y="0px"
	 viewBox="0 0 940 1042.4" style="enable-background:new 0 0 940 1042.4;" xml:space="preserve">
<style type="text/css">
	.st0{fill:#00803F;}
	.st1{fill:#FFFFFF;}
	.st2{fill:#FC8231;}
</style>
<g>
	<g>
		<g>
			<g>
				<path class="st0" d="M920,106.9v35.4c0,83.5-0.6,147.2-3.3,207c-0.6,12.6-1.2,24-2,34.8c-3.2,49.6-8.3,92.8-15.5,132
					c-2.2,11.6-4.5,23.2-7.2,34.4c-27.2,117-79.3,207.3-168.8,292.5c-4.9,4.6-9.9,9.3-15.1,13.9c-5.4,5-11.5,10.3-19,16.7
					c-2.2,2-4.5,3.9-6.8,5.7l-0.5,0.5c-52.2,43.6-116,87.1-195,133l-16.8,9.8l-16.8-9.8c-79-45.9-142.7-89.5-194.8-132.9
					c-2.3-1.9-4.9-4.1-7.5-6.3c-6.8-5.9-13.1-11.3-18.9-16.6c-4.9-4.4-10.1-9.1-15.3-14.1C127.3,757.7,75.3,667.5,48,550.5
					c-2.6-11.2-5.1-22.8-7.2-34.4c-7.3-39.2-12.3-82.5-15.6-132.2c-0.7-10.7-1.3-22-1.9-34.7C20.6,289.5,20,225.7,20,142.2v-35.3
					c0-17.5,0-35.4,0-53.7V19.8H920v33.5C920,71.5,920,89.4,920,106.9z"/>
			</g>
		</g>
	</g>
	<g>
		<path d="M886.5,53.3h-833c0,18.3,0,36.2,0,53.7v35.3c0,75.8,0.4,143.7,3.3,205.5c0.5,11.6,1.1,22.9,1.9,34
			c3,45.9,7.7,88.4,15.1,128.3c2.1,11.1,4.4,22.1,6.9,32.8c24.5,105.2,71,191.8,159.3,275.9c4.7,4.5,9.5,9,14.5,13.4
			c5.9,5.4,12,10.7,18.3,16.1c2.3,2,4.7,4,7.1,6c51,42.6,113.5,85.1,190.1,129.7c76.7-44.6,139.3-87.2,190.3-129.8
			c2.3-2,4.6-3.9,6.9-5.9c6.3-5.4,12.5-10.7,18.4-16.2c4.9-4.4,9.8-8.9,14.4-13.3c88.3-84.1,134.8-170.8,159.3-276
			c2.5-10.8,4.8-21.7,6.9-32.8c7.4-39.8,12.1-82.3,15.1-128.2c0.8-11.1,1.4-22.5,1.9-34c2.9-61.8,3.3-129.7,3.3-205.5V107
			C886.5,89.5,886.5,71.6,886.5,53.3z M91.8,372.9c69.1-17.6,141.9-30.3,217.3-37.8c11.8,19.5,21.8,40.1,29.9,61.8
			c8.3,22.2,14.4,45,18.4,68.2c-86.9,5.7-171.2,18.2-250.9,36.9C99.1,462.2,94.6,419.3,91.8,372.9z M273.4,804.5
			C207.1,743.8,164,681.8,136.3,611c-9.4-24.1-17-49.4-23.1-76.1c78-18.4,161.3-30.8,248.3-36.5
			C369.3,597.1,339.4,702.5,273.4,804.5z M453.2,803.1c-48.8,0.4-96.9,3-144.2,7.6c64.7-104.4,93.8-212.2,85.8-314.2
			c19.3-0.9,38.8-1.4,58.4-1.6V803.1z M453.2,461.4c-20.9,0.1-41.6,0.7-62.3,1.7c-4.3-26.6-11.1-52.6-20.6-78.1
			c-6.9-18.4-15.1-36.1-24.4-53.2c35.3-2.7,71.1-4.3,107.3-4.6V461.4z M486.7,327.3c36.2,0.3,72.1,1.9,107.5,4.6
			c-9.4,17.1-17.5,34.8-24.4,53.2c-9.5,25.4-16.4,51.5-20.6,78.1c-20.7-1-41.5-1.6-62.5-1.7V327.3z M486.7,803.1V494.9
			c19.7,0.1,39.3,0.7,58.6,1.6c-8,102,21.1,209.8,85.8,314.2C583.8,806.1,535.6,803.6,486.7,803.1z M803.6,611
			c-27.6,70.8-70.7,132.7-136.9,193.4c-65.9-101.9-95.9-207.3-88-306c86.9,5.7,170.2,18.2,248.1,36.5
			C820.7,561.6,813.1,586.9,803.6,611z M833.6,501.9c-79.7-18.6-163.9-31.1-250.7-36.9c3.9-23.2,10-46,18.3-68.2
			c8.1-21.7,18.1-42.3,29.9-61.8c75.2,7.5,148.1,20.2,217.1,37.8C845.4,419.3,840.8,462.1,833.6,501.9z"/>
	</g>
	<g>
		<path class="st1" d="M848.2,372.9c-2.8,46.4-7.4,89.3-14.6,129.1c-79.7-18.6-163.9-31.1-250.7-36.9c3.9-23.2,10-46,18.3-68.2
			c8.1-21.7,18.1-42.3,29.9-61.8C706.4,342.5,779.2,355.3,848.2,372.9z"/>
	</g>
	<g>
		<path class="st0" d="M826.8,534.8c-6.2,26.7-13.8,52.1-23.2,76.2c-27.6,70.8-70.7,132.7-136.9,193.4
			c-65.9-101.9-95.9-207.3-88-306C665.6,504,748.9,516.5,826.8,534.8z"/>
	</g>
	<g>
		<path class="st2" d="M631.1,810.7c-47.3-4.6-95.6-7.1-144.4-7.6V494.9c19.7,0.1,39.3,0.7,58.6,1.6
			C537.3,598.5,566.5,706.3,631.1,810.7z"/>
	</g>
	<g>
		<path class="st2" d="M594.2,331.9c-9.4,17.1-17.5,34.8-24.4,53.2c-9.5,25.4-16.4,51.5-20.6,78.1c-20.7-1-41.5-1.6-62.5-1.7V327.3
			C523,327.6,558.9,329.2,594.2,331.9z"/>
	</g>
	<g>
		<path class="st2" d="M453.2,327.3v134.2c-20.9,0.1-41.6,0.7-62.3,1.7c-4.3-26.6-11.1-52.6-20.6-78.1
			c-6.9-18.4-15.1-36.1-24.4-53.2C381.2,329.2,417.1,327.6,453.2,327.3z"/>
	</g>
	<g>
		<path class="st2" d="M453.2,494.9v308.2c-48.8,0.4-96.9,3-144.2,7.6c64.7-104.4,93.8-212.2,85.8-314.2
			C414.2,495.6,433.6,495.1,453.2,494.9z"/>
	</g>
	<g>
		<path class="st1" d="M273.4,804.5C207.1,743.8,164,681.8,136.3,611c-9.4-24.1-17-49.4-23.1-76.1c78-18.4,161.3-30.8,248.3-36.5
			C369.3,597.1,339.4,702.5,273.4,804.5z"/>
	</g>
	<g>
		<path class="st0" d="M357.3,465.1c-86.9,5.7-171.2,18.2-250.9,36.9c-7.3-39.8-11.8-82.7-14.6-129.1
			c69.1-17.6,141.9-30.3,217.3-37.8c11.8,19.5,21.8,40.1,29.9,61.8C347.3,419,353.4,441.8,357.3,465.1z"/>
	</g>
	<g>
		<g>
			<path class="st1" d="M174.3,86.7c-9.7,0-14.5,0-24.2,0c-7.9,10.8-11.8,16.4-19.7,27.6c-7.7-10.8-11.5-16.4-19.2-27.6
				c-9.7,0-14.5,0-24.2,0c0,14,0,20.9,0,35.2c21.9-0.7,32.9-1.1,55-1.7c-19.8,61.4-37,123.7-53.2,186.1c0.4,13.3,0.6,19.8,1.2,32.7
				c32.2-8,48.7-11.7,82.3-18c-0.3-11.8-0.4-17.9-0.5-30.2c-21.2,3.4-31.8,5.3-52.5,9.3c17.1-60.6,34.7-121.1,54.6-180.8
				C174,106.1,174.1,99.7,174.3,86.7z"/>
			<path class="st1" d="M269.5,86.7c-16.8,0-25.2,0-42,0c-13.2,76.6-24.4,153.7-35.3,230.6c12.3-2.2,18.5-3.2,31-5.1
				c2.1-17.3,3.2-26.1,5.6-44.2c15.1-1.8,22.6-2.6,37.9-4.1c2.7,17.1,4.1,25.4,7.1,41.4c12.9-1.5,19.2-2.2,31.7-3.5
				C291.8,230.4,280.8,158.6,269.5,86.7z M232.9,237.4c5.8-43.2,8.9-68.7,15-111.6c5.5,42.6,8.2,67.6,14.3,108.9
				C250.4,235.8,244.6,236.3,232.9,237.4z"/>
			<path class="st1" d="M356.2,270.7c-0.2-61.3,0.3-122.6,0.7-184c-12.5,0-18.7,0-31.2,0c-0.4,71.1-0.9,142.2-0.1,213.2
				c29-2.6,42.7-3.4,71.7-4.7c0-10.4,0-15.7,0-26.6C380.8,269.3,372.5,269.7,356.2,270.7z"/>
			<path class="st1" d="M474.5,151.1c0-12,0-17,0-27.9c0-4.2-2.8-7.6-6.3-7.6c-6.4,0-9.7,0-16.1,0c-3.4,0-6.3,3.4-6.3,7.6
				c-0.1,45.7-0.2,91.4-0.3,137.2c0,3.9,2.8,7,6.3,7c6.5-0.1,9.8-0.1,16.3-0.1c3.5,0,6.3-3.1,6.3-7.1c0-17.2,0-26.1,0-44.5
				c-5.1,0-7.7,0-12.9,0c0-10.7,0-16.2,0-27.3c17.7,0,26.6,0,44.3,0.2c0.1,31.9,0.1,47,0.2,75.6c0,20.3-9.9,29.5-30,29.4
				c-12.9,0-19.4,0-32.3,0.2c-20,0.3-29.9-8.8-29.9-29.2c0-48.4,0.3-96.9,0.6-145.3c0.1-22.1,10.1-32.7,29.8-32.7
				c12.7,0,19,0,31.7,0c19.7,0,29.6,10.6,29.6,32.7c0.1,12.6,0.1,18.2,0.1,31.9C493.4,151.2,487.1,151.1,474.5,151.1z"/>
			<path class="st1" d="M531.6,86.7c0.4,69.4,0.9,138.8,0.8,208.2c12.5,0.5,18.7,0.8,31.1,1.4c0.3-69.9-0.3-139.7-0.7-209.6
				C550.3,86.7,544,86.7,531.6,86.7z"/>
			<path class="st1" d="M662,222.8c13.5-2.3,20.1-12.9,20-33c-0.2-27.5-0.3-42-0.6-68.4c-0.3-23.4-10.2-34.7-30-34.7
				c-25.1,0-37.7,0-62.8,0c0.5,70.4,1.1,140.8,0.5,211.3c12.3,0.9,18.3,1.4,30.8,2.5c0.4-29.9,0.5-45.7,0.5-79.3
				c4.1,0.2,6.2,0.3,10.3,0.6c10.4,34.3,15.3,50.6,25.5,82.3c13.8,1.6,20.7,2.4,34.4,4.3C679.5,275.3,673.7,258.3,662,222.8z
				 M650.4,184.8c0,4.6-2.8,8.1-6.2,8c-9.5-0.5-14.3-0.7-23.9-1.1c-0.1-30.1-0.2-46-0.4-75.2c9.6,0.1,14.3,0.2,23.9,0.3
				c3.4,0,6.2,3.7,6.3,8.1C650.3,147.9,650.3,160.7,650.4,184.8z"/>
			<path class="st1" d="M707,86.7c1.1,74.7,2,149.5,1,224.2c12.6,1.9,18.8,2.9,31.2,4.9c1.2-76.4,0.2-152.8-0.9-229.2
				C725.8,86.7,719.5,86.7,707,86.7z"/>
			<path class="st1" d="M852.6,237.5c-0.3,26.7-0.5,39.7-1.3,64.7c-0.7,25-10.5,34.4-29.3,30.1c-11.4-2.6-17.1-3.8-28.6-6.2
				c-19-3.9-28.4-16.5-28.2-39.6c0.1-12.2,0.2-18.4,0.2-31c12.3,1.6,18.5,2.5,30.7,4.2c-0.1,11.2-0.1,16.7-0.3,27.5
				c-0.1,4.6,2.6,8.7,5.9,9.3c5.4,1,8.1,1.5,13.4,2.5c3.3,0.6,6.1-2.6,6.2-7.3c0.4-21.2,0.5-32.1,0.7-54.5c0-5-2.7-9.4-6-9.8
				c-9.1-1.1-13.7-1.7-22.9-2.7c-18.3-2.1-27.7-15.3-27.9-41.5c-0.2-24.4-0.3-36.6-0.7-59.8c-0.3-24.8,9.3-36.8,28.8-36.8
				c12.1,0,18.2,0,30.4,0c19.5,0,29.2,13,29.3,39.7c0,14.2,0,20.4,0,35.7c-12.4-0.9-18.6-1.3-31-2.1c-0.1-12.9-0.1-18.2-0.2-30.1
				c0-4.9-2.8-9.1-6.3-9.2c-5.5-0.2-8.3-0.2-13.8-0.4c-3.4-0.1-6.2,3.8-6.1,8.6c0.2,20.7,0.3,31.7,0.4,53.6c0,5.1,2.8,9.5,6.2,9.8
				c9.1,0.8,13.6,1.2,22.7,2.1C843.7,196.1,852.9,211,852.6,237.5z"/>
		</g>
	</g>
	<g>
		<g>
			<polygon class="st1" points="414,851.4 414,894.1 405.5,894.1 405.5,863.7 394.7,863.7 394.7,856.3 405.5,856.3 405.5,851.4 			
				"/>
		</g>
		<g>
			<path class="st1" d="M441.1,850.4c-10.3,0-17.2,5.4-17.2,14.9c0,8.9,6.3,14.2,15.5,14.2c3.6,0,8.3-1,11.3-4.4
				c-0.3,7.7-3.1,12.7-8,12.7h-4.2c-2.6,0-5.2-1.6-6-4.2h-8.7c1.3,6.8,6.4,11.6,16.5,11.6c15.3,0,18.9-12.2,18.9-23.2
				C459.3,857.7,452.9,850.4,441.1,850.4z M443.1,872.3h-3.6c-4.3,0-7.1-3.2-7.1-7.4c0-4.3,2.9-7,6.6-7h4c3.8,0,7.2,2.5,7.2,7.4
				C450.3,870.1,446.6,872.3,443.1,872.3z"/>
		</g>
		<g>
			<path class="st1" d="M496.3,876.8v-25.3h-17.9l-13,24.4v8.2h22.7v10.1h8.3v-10.1h5.9v-7.3H496.3z M488.1,876.8h-14.2v-1.1
				l8.6-16.8h5.6V876.8z"/>
		</g>
		<g>
			<path class="st1" d="M539.3,876.8v-25.3h-17.9l-13,24.4v8.2h22.7v10.1h8.3v-10.1h5.9v-7.3H539.3z M531.1,876.8h-14.2v-1.1
				l8.6-16.8h5.6V876.8z"/>
		</g>
	</g>
</g>
</svg>
