<?xml version="1.0" encoding="utf-8"?>
<!-- Generator: Adobe Illustrator 22.1.0, SVG Export Plug-In . SVG Version: 6.00 Build 0)  -->
<svg version="1.1" id="Layer_1" xmlns="http://www.w3.org/2000/svg" xmlns:xlink="http://www.w3.org/1999/xlink" x="0px" y="0px"
	 width="438.7px" height="392.1px" viewBox="0 0 438.7 392.1" style="enable-background:new 0 0 438.7 392.1;" xml:space="preserve"
	>
<style type="text/css">
	.st0{fill-rule:evenodd;clip-rule:evenodd;fill:#C4CAD5;}
	.st1{fill-rule:evenodd;clip-rule:evenodd;fill:#202335;}
	.st2{fill-rule:evenodd;clip-rule:evenodd;fill:#429ED2;}
	.st3{fill:#FCFEFF;}
	.st4{fill:#C4CAD5;}
	.st5{fill:#429ED2;}
	.st6{fill:#FFFFFF;}
	.st7{fill-rule:evenodd;clip-rule:evenodd;fill:#FFFFFF;}
	.st8{fill-rule:evenodd;clip-rule:evenodd;fill:#EA001D;}
</style>
<path class="st0" d="M391.1,101.4C356.6,38.8,290.9,0,219.4,0C147.9,0,82.2,38.8,47.7,101.4c-0.7,1.2-1.8,1.9-3.2,1.9
	c-2.2,0-4.5,0-6.7,0c-6.6,0-12.7,2.4-17.5,7c-3.9,3.7-7.8,7.4-11.9,11c-5.5,5-8.4,11.6-8.4,19c0,14.4,0,28.8,0,43.2
	c0,14.4,0,28.8,0,43.1c0,7.6,3,14.4,8.7,19.5c3.7,3.3,7.3,6.7,10.9,10.1c3.9,3.8,8.5,6.2,13.8,7.2c1.3,0.2,2.3,1.1,2.7,2.3
	c28.9,76,101.9,126.4,183.3,126.4c108.3,0,196-87.8,196-196c0-4.3-0.1-8.6-0.4-12.8c-0.1-2,1.3-3.7,3.3-3.8
	c12.2-1.1,20.5-10.9,20.5-23.1c-0.1-9.8-0.1-19.6,0-29.4c0.2-13.8-9.8-23.8-23.5-23.7c-7,0-14,0.1-21,0.1
	C392.9,103.3,391.7,102.6,391.1,101.4"/>
<path class="st1" d="M281.3,156.3c-4.8,0-9.7,0-14.5,0c0,2.7,0,5.5,0,8.2c4.4-1,8.9-1.9,13.3-3c2-0.5,3.9-0.4,5.5,0
	C284.2,159.8,282.7,158.1,281.3,156.3"/>
<path class="st1" d="M219.4,12.5c72.6,0,135.3,42.1,165.1,103.3l-0.5,0c10.4,0,20.9,0,31.3-0.1c6.8,0,11,4.3,11,11.1
	c-0.1,9.9-0.1,19.7,0,29.6c0,6.5-4.2,10.9-10.8,10.6c-4.1-0.1-8.2-0.1-12.3,0c-0.9,0-1.7,0-2.6-0.2c1.5,9.5,2.3,19.3,2.3,29.3
	c0,101.4-82.2,183.6-183.6,183.6c-82,0-151.5-53.8-175-128c-2,0-4.1-0.1-6.1-0.1c-3.9-0.1-7.2-1.4-10-4.2
	c-3.7-3.6-7.4-7.1-11.3-10.5c-3-2.7-4.5-6.1-4.5-10.1c0.1-14.4,0-28.8,0-43.2c0-14.4,0-28.8,0-43.2c0-3.8,1.4-7.1,4.2-9.7
	c4.1-3.7,8.1-7.5,12.1-11.3c2.5-2.3,5.5-3.5,8.9-3.5c5.5,0,11,0,16.6,0C84,54.6,146.8,12.5,219.4,12.5"/>
<path class="st2" d="M168.2,351.7c2.6,4,5.8,7.6,9.5,10.8C124.4,349.3,81,311.1,60.5,261.1c2.8,0,5.6-0.1,8.3-0.2
	C87.3,303.7,123.5,337.1,168.2,351.7 M378.4,260.7c-20.4,50.2-63.9,88.6-117.4,101.9c3.7-3.2,6.9-6.9,9.5-10.8
	c44.7-14.7,80.9-48,99.4-90.8c2,0.1,3.9,0.1,5.9,0.1C376.7,261,377.6,260.9,378.4,260.7z M196.2,33.8
	c-48.9,6.9-90.9,35.4-115.9,75.6h-9.1C99.5,61,148.9,30.4,202.8,25.2C199.9,27.5,197.7,30.4,196.2,33.8z M251.3,27.4
	c18,3.4,35,9.6,50.6,18.1l0.1,0.1c0.6,0.3,1.1,0.6,1.7,0.9c0.1,0.1,0.2,0.1,0.4,0.2l0,0c26.3,14.9,48.2,36.6,63.5,62.7h-9.1
	c-15.2-24.4-36.7-44.5-62.2-58.1l0,0C281.5,43.5,265.7,38,249.4,35c-0.3-0.1-0.6-0.1-1-0.2c-0.3-0.1-0.6-0.1-0.9-0.2
	c-0.7-0.1-1.5-0.2-2.2-0.4l0,0c-2.4-0.4-4.7-0.7-7.1-1c-1.5-3.3-3.9-6.2-6.8-8.5C238.1,25.3,244.7,26.1,251.3,27.4z"/>
<path class="st3" d="M208.2,351.5c4.3-5.6,9.5-10.2,14-15.6c4.5-5.5,8.4-11.2,9.3-18.5c0.5-3.7,0.1-7.3-1-10.8
	c-0.5-1.5-0.1-1.8,1.3-2.1c4.9-0.9,5-0.9,6.7,3.8c6.1,16.9,7.5,34.2,3.6,51.8c-0.2,0.8-0.3,1.6-0.5,2.4c-8.3-0.6-16.4-2.4-24.1-5.7
	C214.3,355.4,210.8,354.2,208.2,351.5 M240.4,360.8c1.6-5,1.9-10.1,2.3-15.3c0.4-6.6-0.2-13.1-1.1-19.6c-0.9-6.4-2.4-12.7-4.8-18.7
	c-0.3-0.8-0.8-1.9-1.9-1.4c-1.2,0.5-0.2,1.4,0.1,2.1c4.3,11.8,6.4,24,6.3,36.6C241.1,350,240.8,355.4,240.4,360.8z"/>
<path class="st3" d="M184.7,329.8c5.7-6.3,12.7-11.1,20.1-15.3c6.1-3.5,12.6-6,19.3-8.2c2.1-0.7,2.8,0,3.3,2
	c1.5,6.2,0.5,12.1-2.6,17.6c-3.6,6.3-8.7,11.4-13.6,16.7c-2.2,2.3-4.3,4.7-6.5,7c-4.5-3-8.7-6.4-12.2-10.6
	C189.8,336,187.3,332.8,184.7,329.8 M211.2,339.9c1.1,0.1,1.5-0.6,2-1.1c3.8-4.2,7-8.9,9.5-13.9c2.4-4.6,3.7-9.5,3-14.7
	c-0.1-1.1-0.3-2.4-1.9-2.1c-1.8,0.3-1.1,1.6-0.8,2.6c0.8,3,0.6,5.9-0.2,8.9c-1.5,5.5-4.5,10.1-7.7,14.7
	C213.9,336,212.2,337.6,211.2,339.9z"/>
<path class="st3" d="M175.4,307.2c0.3-0.7,0.5-1.4,0.8-2c1.6-3.7,3.5-6.2,8.3-6.5c7-0.4,13.7-3.3,20.8-4.1c5.4-0.6,10.7-0.5,15.4,3
	c1.7,1.2,3.1,2.8,4.1,4.9c-6.8,1.9-13.2,4.4-19.3,7.5c-8.4,4.3-15.8,9.9-22.9,16.1C179.7,320,176.7,313.9,175.4,307.2 M179.9,301.6
	c1.5,0.4,2.9,0.4,4.3,0.1c5.3-1.1,10.6-2.2,16-3.2c6.4-1.1,12.8-1.7,18.2,3.3c1,1,2.2,0.4,2.9-0.4c0.8-0.9-0.4-1.4-0.9-1.9
	c-4.5-4.1-9.9-4-15.4-3.4c-6.5,0.7-12.8,2.7-19.2,3.9C183.9,300.4,181.8,300.4,179.9,301.6z"/>
<path class="st3" d="M245.3,362.5c1.3-6.9,2.6-13.7,2.6-20.8c0.1-12.3-2-24.2-6.3-35.8c-0.3-0.7-1.4-1.8-0.1-2.2
	c1.2-0.3,3.1-1,3.8,0.8c3.8,9.6,11.1,16.3,19,22.3c2.3,1.8,3,3.5,2.5,6.4c-2.1,11.7-7.1,21.6-16.4,29.3
	C248.8,362.6,247,362.5,245.3,362.5"/>
<path class="st4" d="M208.2,351.5c2.6,2.7,6.1,3.9,9.4,5.3c7.6,3.3,15.8,5.1,24.1,5.7c0,0.1-0.1,0.4-0.1,0.4
	c-1.6,5.9-3.8,7.9-9.6,9.8c-10.5,2.5-20.6,2.1-30.7-1.9c-1.6-0.6-2-1.4-1.8-3C200.7,361.4,203.9,356.2,208.2,351.5"/>
<path class="st4" d="M184.7,329.8c2.6,3.1,5.2,6.2,7.8,9.3c3.5,4.1,7.7,7.6,12.2,10.6c-3.1,4.4-6.5,8.8-7.9,14.2
	c-1.2,4.4-1.3,4.4-5.2,1.6c-7.5-5.3-12.9-12.2-16.6-20.6c-0.6-1.4-0.5-2.5,0.3-3.8C178.1,337,180.9,333,184.7,329.8"/>
<path class="st3" d="M182.8,295.1c7.4-8.2,16-13.5,26.4-15.7c1.2-0.3,2.3,0.1,3.4,0.5c9.7,3.4,16.6,10.1,21.7,18.9
	c0.8,1.4,0.6,1.9-1,2c-1,0-2,0.3-2.9,0.5c-1.2,0.3-1.9,0-2.6-1.2c-4.3-7.5-11.2-9.8-19.4-9.4c-7.7,0.4-15,2.8-22.4,4.3
	C185.1,295.2,184.2,295.5,182.8,295.1"/>
<path class="st3" d="M247.3,287.5c-4,2.4-4.5,6-3.9,10.1c0.1,0.8,1.2,2.2-0.3,2.4c-1.5,0.1-3.4,1.2-4.5-1.1c-1.7-3.6-4-6.9-6.6-10
	c-3.5-4.1-7.7-7.4-12.4-10.1C225.6,277.1,240.6,281.7,247.3,287.5"/>
<path class="st4" d="M175.4,307.2c1.3,6.7,4.3,12.8,7.2,18.8c-3.3,3.8-6.8,7.5-9.8,12.2C170.3,327.2,171,317.1,175.4,307.2"/>
<path class="st3" d="M249.1,304c5.3,0.6,9.9,2,14.2,4.2c0.7,0.4,1,1,1.3,1.7c1.6,4.6,2.6,9.3,2.9,14.7
	C259.8,318.9,253.1,313,249.1,304"/>
<path class="st3" d="M261.4,303.4c-4.4-1.7-8.4-2.5-12.5-3.1c-0.4-0.1-1-0.1-1.2-0.4c-2.1-2.2-0.8-8.4,2-9.7
	c0.8-0.4,1.2-0.1,1.7,0.4C255.2,294.2,258.7,298.1,261.4,303.4"/>
<path class="st4" d="M245.3,362.5c1.7,0,3.5,0.1,5.2,0.1c-1.7,1.8-3.6,3.1-6,4.5C244.5,365.3,244.8,363.9,245.3,362.5"/>
<path class="st4" d="M240.4,360.8c0.4-5.4,0.7-10.8,0.8-16.2c0.1-12.6-2.1-24.8-6.3-36.6c-0.2-0.6-1.3-1.5-0.1-2.1
	c1.1-0.5,1.6,0.6,1.9,1.4c2.4,6,3.9,12.3,4.8,18.7c0.9,6.5,1.6,13,1.1,19.6C242.3,350.7,242,355.8,240.4,360.8"/>
<path class="st4" d="M211.2,339.9c1-2.3,2.7-3.9,4-5.8c3.2-4.6,6.1-9.2,7.7-14.7c0.8-3,1-5.9,0.2-8.9c-0.3-1-1-2.3,0.8-2.6
	c1.6-0.2,1.7,1.1,1.9,2.1c0.6,5.2-0.7,10.1-3,14.7c-2.6,5-5.7,9.7-9.5,13.9C212.7,339.3,212.3,340,211.2,339.9"/>
<path class="st4" d="M179.9,301.6c1.8-1.2,3.9-1.1,5.9-1.5c6.4-1.1,12.7-3.1,19.2-3.9c5.5-0.6,10.9-0.7,15.4,3.4
	c0.5,0.5,1.7,1,0.9,1.9c-0.7,0.7-1.9,1.3-2.9,0.4c-5.4-5-11.7-4.4-18.2-3.3c-5.4,0.9-10.7,2.1-16,3.2
	C182.8,302,181.4,302,179.9,301.6"/>
<path class="st4" d="M260.7,327.1c-5.5-3.3-9.5-8.1-13.3-13c-1.7-2.2-3.3-4.6-4.3-7.2c-0.3-0.7-0.7-1.5,0.2-1.9
	c1-0.5,1.1,0.6,1.4,1.2c3.3,7.5,8.3,13.5,14.6,18.7c0.7,0.6,1.6,1.4,1.7,2.4C261,327.2,260.7,327.1,260.7,327.1"/>
<path class="st4" d="M212,280.9c5.8,1.8,11.8,6.4,15.7,10.8c1.4,1.6,2.6,3.3,3.7,5c0.5,0.8,2,1.8,0.8,2.7c-1.4,1.1-2.2-0.4-2.8-1.6
	c-1.8-3.7-4.4-6.8-7.3-9.7c-2.5-2.5-5.6-4.2-8.5-6.3L212,280.9z"/>
<path class="st4" d="M244.4,287.7c-1.6,3.1-3,6.1-2.3,9.7c0.1,0.6-0.2,1.3-0.9,1.4c-0.8,0.1-1.1-0.5-1.2-1.2
	C239.4,293.8,241.3,288.8,244.4,287.7L244.4,287.7z"/>
<path class="st3" d="M194.5,236c-9.1,0.2-18.3,0.4-27.4,0.7c-15.4,0.6-30.8,1.3-46.2,2.1c-1.6,0.1-2-0.2-1.9-1.8
	c0.1-6.5,0.1-13.1,0-19.6c0-1.5,0.6-2.5,1.6-3.3c2.1-1.7,2.5-3.9,2.5-6.5c-0.1-16-0.1-32,0-48.1c0-2.7-0.5-5-2.6-6.7
	c-1.1-0.9-1.4-2.1-1.4-3.6c0.1-7.7,0.1-15.4,0-23.1c0-1.6,0.3-2.1,2.1-2.1c25.2,0.1,50.4,0,75.5,0c1.3,0,2.2,0.3,3.2,1.2
	c4.1,3.9,8.3,7.8,12.5,11.6c1,0.9,1.4,1.9,1.4,3.3c-0.1,11.1-0.1,22.2,0,33.3c0,1.4-0.4,2.4-1.4,3.3c-1.6,1.4-3.1,2.9-4.7,4.3
	c-0.8,0.7-0.9,1.3-0.1,2c0.7,0.6,1.2,1.5,1.9,2c3.8,2.8,4.5,6.5,4.4,11.1c-0.3,10.2-0.1,20.3-0.1,30.5c0,1.7-0.5,2.9-1.7,4
	c-0.2,0.2-0.3,0.4-0.6,0.7c-2.8,2.7-7.3,4.1-13.4,4.6L194.5,236z M155.9,161.5c0,3.7,0.1,7.5,0,11.2c0,1.6,0.4,2.1,2,1.7
	c7.2-1.6,14.4-3.2,21.6-4.7c1.5-0.3,1.9-0.9,1.8-2.4c-0.1-5.8-0.1-11.7,0-17.5c0-1.5-0.5-1.8-1.9-1.8c-7.2,0.1-14.4,0.1-21.6,0
	c-1.4,0-1.9,0.3-1.9,1.8C156,153.7,155.9,157.6,155.9,161.5z M181.2,206c0-3.9,0-7.8,0-11.7c0-1.4-0.4-1.8-1.8-1.5
	c-7.2,1.6-14.5,3.3-21.8,4.8c-1.3,0.3-1.8,0.7-1.8,2.1c0.1,5.8,0.1,11.5,0,17.3c0,1.4,0.4,1.9,1.8,1.9c7.3-0.1,14.6-0.1,21.8,0
	c1.4,0,1.7-0.5,1.7-1.8C181.2,213.5,181.2,209.8,181.2,206z M208.5,171.3c0-9.9,0-19.4,0-29c0-1-0.5-1.5-1.1-2.1
	c-3.5-3.2-7-6.4-10.4-9.7c-1.1-1-2.2-1.4-3.6-1.4c-21.7,0-43.4,0-65.1,0c-0.7,0-1.5-0.3-2.2,0.3c1.1,1.8,2.6,2.6,4.8,2.6
	c19.6-0.1,39.1,0,58.7-0.1c3.3,0,5.8,0.6,8.1,3.1c2,2.2,4.3,4.1,6.5,6.1c1.1,1,1.5,2.1,1.5,3.6c-0.1,7.1,0,14.2-0.1,21.4
	C205.5,168.3,206.2,169.9,208.5,171.3z M150.7,175.7c0-8.3,0-16.2,0-24.1c0-1.5-1.2-2.2-2.3-3c-0.6,1-0.4,1.8-0.4,2.6
	c0,6.4,0.1,12.7-0.1,19.1C147.8,172.4,148.5,174,150.7,175.7z M198.8,230.6l5.3-4.7c1.4-1.2,1.5-3,1.5-5c-0.2-7.6,0-15.2-0.1-22.8
	c0-2.3,0.7-3.9,2.6-5c0.7,0.5,0.4,1.1,0.4,1.7c0,9.7,0,19.5,0,29.2c0,1.4-0.4,2.4-1.4,3.3c-2.8,2.6-2.9,2.6-5.2,4.7
	c-0.6,0.6-0.5,0.7-1.4,0.8c-0.6,0-1.3,0-1.9,0C197.5,232.8,197.6,231.7,198.8,230.6z M150.7,218.7c0-5.6,0.1-10.9-0.1-16.2
	c0-1.3-1.2-2-2.7-2.3c0,4.9,0.1,9.6,0,14.4C147.8,216.6,148.8,217.6,150.7,218.7z"/>
<path class="st5" d="M20.8,183.5c0-14.4,0-28.8,0-43.2c0-1.5,0.3-2.5,1.5-3.5c4.2-3.7,8.2-7.6,12.3-11.4c0.9-0.9,1.9-1.3,3.1-1.3
	c18.9,0,37.8,0,56.7,0c1.3,0,2.2,0.4,3.2,1.2c4.1,3.9,8.3,7.8,12.5,11.6c1,0.9,1.4,1.7,1.4,3c-0.1,6.9-0.1,13.9,0,20.8
	c0,1.6-0.5,2.2-2,2.5c-9.3,1.8-18.6,3.5-27.9,5.4c-1.9,0.4-2.3-0.1-2.3-1.9c0.1-5.4,0-10.8,0.1-16.3c0-1.8-0.4-2.5-2.4-2.5
	c-7,0.1-14.1,0.1-21.1,0c-1.7,0-2.1,0.6-2.1,2.2c0,22.1,0,44.2,0,66.4c0,1.9,0.6,2.5,2.5,2.4c6.9-0.1,13.9-0.1,20.8,0
	c1.8,0,2.3-0.6,2.3-2.3c-0.1-4.3,0-8.6-0.1-13c0-1.6,0.4-2.4,2.1-2.7c9.3-1.6,18.5-3.3,27.7-5c1.7-0.3,2.4-0.1,2.4,1.9
	c-0.1,9.7-0.1,19.5,0,29.2c0,1.3-0.4,2.2-1.4,3.1c-2.8,2.5-5.7,5.1-8.4,7.8c-1.6,1.6-3.3,2.3-5.6,2.5c-19.2,1.4-38.3,3.3-57.6,2.7
	c-1.8-0.1-3.2-0.5-4.5-1.8c-3.8-3.7-7.6-7.2-11.5-10.8c-1.2-1.1-1.8-2.2-1.8-3.9C20.8,212.3,20.8,197.9,20.8,183.5 M106.3,157.8
	c0-5.1,0-10,0-14.8c0-1.4-0.4-2.4-1.4-3.3c-3.4-3.1-6.7-6.2-10-9.4c-1.1-1-2.2-1.4-3.6-1.4c-16,0-32,0-48.1,0h-3.9
	c1.4,2.3,3.1,3.1,5.4,3.1c14.4-0.1,28.8,0,43.2-0.1c3,0,5.3,0.7,7.4,2.9c2.5,2.7,6.2,4.6,7.6,7.7c1.3,3.1,0.5,7.2,0.4,10.8
	C103.1,155.7,104.1,156.9,106.3,157.8z M45.7,148.3c0,22.4,0,44.5,0,66.6c0,2,1.3,2.9,3,3.8v-3.1c0-20.7,0-41.3,0.1-62
	C48.8,151.3,48.1,149.6,45.7,148.3z M93.4,237.9c3.8-3.6,7.6-7.2,11.5-10.7c1.1-1,1.4-2,1.3-3.3c0-6.4,0-12.9,0-19.3
	c0-0.6,0.4-1.3-0.4-1.8c-1.9,1.4-2.8,3.2-2.7,5.6c0.2,4.7,0,9.5,0.1,14.2c0,1.4-0.4,2.4-1.4,3.3c-2.7,2.4-5.3,5-8.1,7.4
	C92.1,234.8,91.9,236.1,93.4,237.9z"/>
<path class="st3" d="M266,124c14.1,0,28.1,0,42.2,0c1.9,0,2.4,0.5,2.4,2.4c-0.1,10-0.1,20,0,30c0,1.7-0.4,2.4-2.2,2.3
	c-4.2-0.1-8.5-0.1-12.7,0c-1.3,0-2.2-0.4-3-1.5c-2-2.6-4.2-5.1-6.2-7.7c-0.8-1-1.6-1.5-3-1.5c-7.6,0.1-15.3,0.1-22.9,0
	c-1.6,0-2.2,0.3-2.2,2c0.1,7.5,0.1,15.1,0,22.6c0,1.9,0.7,2.1,2.2,1.7c7.1-1.6,14.2-3.1,21.3-4.8c1.7-0.4,2,0,2,1.6
	c-0.1,6.4-0.1,12.9,0,19.3c0,1.4-0.3,2-1.9,2.3c-7.3,1.5-14.5,3.2-21.8,4.8c-1.5,0.3-1.9,0.9-1.8,2.3c0.1,5.7,0.1,11.4,0,17
	c0,1.4,0.4,1.9,1.9,1.9c7.8-0.1,15.6-0.1,23.4,0c1.3,0,2-0.5,2.6-1.5c2.1-3.5,4.4-6.8,6.5-10.3c0.7-1.2,1.5-1.6,2.8-1.6
	c4.3,0.1,8.6,0.1,13,0c1.6,0,2,0.5,2,2c-0.1,9.5-0.1,19,0,28.5c0,1.6-0.3,2.1-2.1,2.1c-14.9-0.7-29.8-1.3-44.7-1.7
	c-13-0.3-26.1-0.4-39.1-0.5c-2.4,0-3.2-0.4-3.1-3c0.2-4.8,0.2-9.7,0-14.5c-0.1-1.9,0.3-3.5,1.8-4.7c1.7-1.4,2.1-3.2,2.1-5.4
	c-0.1-16.7-0.1-33.4,0-50.1c0-1.7-0.2-3.2-1.6-4.3c-1.9-1.6-2.4-3.6-2.4-6c0.2-7,0.1-14.1,0-21.1c0-2.1,0.4-2.8,2.7-2.8
	C238.2,124.1,252.1,124,266,124 M305.4,151.6c0-6.9-0.1-13.4,0-19.9c0-2-0.5-2.6-2.6-2.6c-24.1,0.1-48.3,0-72.4,0.1
	c-0.6,0-1.4-0.4-1.7,0.4c1.1,2,2.8,2.4,4.9,2.4c22.1-0.1,44.2,0,66.3-0.1c2.1,0,2.8,0.5,2.7,2.7c-0.2,4.1,0.1,8.3-0.1,12.4
	C302.5,149,303.2,150.4,305.4,151.6z M253.3,175.9c0-8.3,0-16.2,0-24c0-1.7-1.2-2.4-2.5-3.4c-0.1,0.6-0.2,0.9-0.2,1.2
	c0,7.6,0,15.2,0,22.8C250.5,174.3,251.7,174.9,253.3,175.9z M250.6,200.2c0,5.3-0.1,10.4,0,15.5c0,1.4,1.2,2.2,2.7,2.8
	c0-5-0.1-9.9,0-14.7C253.4,201.9,252.6,200.9,250.6,200.2z M305.1,235.1c-2.1-1.1-2.6-2.6-2.6-4.7c0.1-5.1,0.1-8,0-13.2
	c-0.1-2,0.6-3.4,2.6-4.5V235.1z M278.9,187.2c0-2.8,0-5.2,0-7.7c0-0.9-0.4-1.5-1-1.9c-0.5-0.3-0.9-1-1.5-0.7
	c-0.3,0.2-0.3,0.9-0.3,1.4c0,1.7,0.1,3.4,0,5.1C275.9,185.3,276.8,186.4,278.9,187.2z"/>
<path class="st3" d="M367.8,124c15.8,0,31.7,0,47.5,0c2.2,0,2.7,0.6,2.6,2.7c-0.1,9.9-0.1,19.8,0,29.7c0,1.7-0.4,2.4-2.2,2.3
	c-4.2-0.1-8.5-0.1-12.7,0c-1.3,0-2.2-0.3-3-1.4c-1-1.5-2.4-2.7-3.3-4.2c-2.5-4.6-6.3-5.7-11.2-5.1c-1.2,0.2-1.6,0.4-1.6,1.6
	c0,20.2,0,40.3,0,60.5c0,1.1,0.4,1.8,1.1,2.4c2.5,2.1,3.1,4.7,3,7.9c-0.2,6.8-0.1,13.6,0,20.3c0,1.8-0.3,2.5-2.3,2.5
	c-12.5,0.1-24.8-1.7-37.2-2.5c-1.1-0.1-1.5-0.4-1.4-1.5c0-7.5,0-14.9,0-22.4c0-1.3,0.9-2,1.7-2.7c1.7-1.6,2.4-3.4,2.4-5.8
	c-0.1-19.2,0-38.5,0.1-57.7c0-2.2-0.7-2.4-2.7-2.6c-4.3-0.5-7.6,0.7-9.6,4.6c-2.8,5.3-4,6.2-10.5,6.1c-2.3,0-7.2-0.1-9.6,0
	c-1.2,0-1.6-0.4-1.6-1.6c0-10.5,0.1-21,0-31.5c0-2.1,1.4-1.5,2.4-1.5C335.8,124,351.8,124,367.8,124 M376,156.3L376,156.3l0,0.9v0
	l0,1.9l0,0.9v0l0,0.9v0l0,0.9l0,0l0,0.9v0l0,0.9l0,0l0,0.9v0l0,0.9l0,0.9v0l0,0.9l0,0l0,0.9v0l0,0.9h0l0,0.9v0l0,0.9l0,0v0.9h0v0.9
	h0v0.9l0,0v0.9l0,0v0.9h0v0.9v0v0.9l0,1.9v1.9v0v0.9l0,2.8h0v0.9h0l0,1.9v0l0,0.9h0l0,0.9l0,0.9v0l0,0.9h0l0,0.9h0l0,1.9l0,0.9h0
	l0,0.9h0l0,0.9h0l0,0.9l0,0.9l0,1.9l0,0.9h0l0,0.9h0l0,0.9h0l0,0.9h0l0,0.9h0l0,0.9h0l0,0.9h0l0,0.9h0l0,0.9h0l0,0.9h0l0,0.1l0,0.1
	h0l0,0.1l0,0.1l0,0.2v0l0,0.1h0l0,0.1l0,0.1v0l0,0.1v0c0,0.1,0,0.2,0,0.2v0l0,0.2v0c0,0.2,0,0.3,0.1,0.5v0l0,0.1v0
	c0,0.1,0,0.2,0.1,0.3v0c0,0,0,0.1,0,0.1v0c0,0.1,0,0.1,0.1,0.2v0c0,0.1,0.1,0.1,0.1,0.2v0c0,0.1,0.1,0.2,0.2,0.3v0l0,0.1v0l0,0.1v0
	l0,0.1v0l0,0.1v0c0.1,0.1,0.1,0.2,0.2,0.3v0l0,0.1v0l0,0.1v0l0,0.1v0l0,0.1v0l0,0.1v0l0.1,0.1v0l0.1,0.1v0l0.1,0.1h0l0.1,0.1
	l0.1,0.1v0l0.1,0.1l0.1,0.1h0l0.1,0.1h0l0.1,0.1h0l0.1,0.1v0l0.1,0.1l0,0l0.1,0.1h0l0.1,0.1h0l0.1,0.1h0l0.1,0.1h0l0.1,0.1h0
	l0.1,0.1h0l0.1,0.1h0l0.1,0.1h0l0.1,0.1h0l0.1,0.1h0l0.1,0.1h0l0.1,0.1l0,0l0.1,0.1h0l0.1,0.1h0l0.1,0.1l0.1,0.1l0.1,0.1h0l0.1,0.1
	l0.1,0.1h0l0.1,0.1h0l0.1,0.1h0l0,0.1v0l0,0.1l0,0.1l0,0l0,0.1l0,0.1l0,0.1v0l0,0.1l0,0.1l0,0.1l0,0.1l0,0.1v0l0,0.1v0l0,0.1v0
	l0,0.1v0l0,0.1v0l0,0.1l0,0.1l0,0.1l0,0.1v0c0,0.1,0,0.1,0,0.2v0l0,0.2h0c0,0.2,0.1,0.3,0.1,0.5l0,0.1v0l0,0.1h0c0,0.3,0,0.6,0,0.9
	l0,0.1l0,0l0,0.1l0,0l0,0.1l0,0l0,0.1l0,0l0,0.1l0,0c-0.1,1-0.1,2.1-0.1,3.1v0c0,1.8,0,3.7,0,5.5c0,0.8,0,1.7-0.1,2.5
	c0,0.4,0,0.8,0,1.2c0,0.4,0,0.7,0,1.1c-0.1,2.5,1,3.9,3.1,5.1c0-0.7,0-1.5,0-2.3l0,0c0-3.2,0-6.3,0-9.4v-0.1V228
	c0-2.8,0-5.5,0.1-7.9l0-0.2v0l0-0.1v0l0-0.1v0l0-0.1v0l0-0.1v0l0-0.1l0-0.1l0-0.1h0l0-0.1l0-0.1l0,0l0-0.1l0-0.1l0-0.1l0-0.1l0-0.1
	v0l0-0.1l0-0.1l0-0.1v0l0-0.1l0-0.1l0-0.1v0l0-0.1l0-0.1l0-0.1l0,0l0-0.1l0-0.1h0l0-0.1l0-0.1l0-0.1h0l0-0.1l0-0.1l0-0.1l0-0.1
	l0-0.1l0-0.1l0-0.1h0l0-0.1h0l0-0.1l0-0.1h0l0-0.1h0l0-0.1c0,0-0.1-0.1-0.1-0.1l0-0.1h0l0-0.1h0l0-0.1l-0.1-0.1h0
	c0,0-0.1-0.1-0.1-0.1h0c0,0-0.1-0.1-0.1-0.1h0l-0.1-0.1l-0.1-0.1h0c0,0-0.1-0.1-0.1-0.1c-0.2-0.2-0.4-0.4-0.6-0.5l-0.1-0.1h0
	c-0.1-0.1-0.2-0.1-0.2-0.2h0l-0.1-0.1h0c0,0-0.1-0.1-0.1-0.1h0l-0.1-0.1h0c-0.1-0.1-0.2-0.2-0.2-0.3c0,0-0.1-0.1-0.1-0.1
	c0,0-0.1-0.1-0.1-0.1h0l-0.1-0.1h0c0-0.1-0.1-0.1-0.1-0.2h0l0-0.1h0l0-0.1v0l0-0.1h0l0-0.1l0-0.1h0l0-0.1l0-0.1h0l0-0.1h0l0-0.1v0
	l0-0.1h0l0-0.1h0l0-0.1l0-0.1h0l0-0.1h0l0-0.1h0l0-0.1h0l0-0.1h0l0-0.1v0l0-0.1h0l0-0.1h0l0-0.1l0-0.1l0,0l0-0.1l0,0l0-0.1v0l0-0.1
	l0,0l0-0.1h0l0-0.1h0l0-0.1l0,0l0-0.1l0-0.1v0l0-0.1v0l0-0.1h0l0-0.1l0-0.1h0l0-0.1l0,0l0-0.1v0l0-0.1h0l0-0.1v0l0-0.1v0l0-0.1v0
	l0-0.1l0,0l0-0.1l0,0l0-0.1l0,0l0-0.1v-0.1l0-2.6v0l0-3.5v0l0-0.9v0l0-1.8h0l0-0.9v0l0-0.9v0l0-0.9v0l0-0.9v0l0-1.8v0l0-0.9h0l0-0.9
	v0l0-0.9v0l0-0.9v0l0-0.9v0l0-0.9l0-0.9v0l0-0.9l0-0.9l0-0.9v0l0-0.9l0-0.9v0l0-0.9l0-0.9v-0.9h0v-0.9h0v-0.9v0l0-0.9l0-0.9l0-0.9h0
	l0-0.9l0-0.9l0-0.9l0-0.9v0l0-0.9l0-0.9h0l0-0.9l0-0.9l0-0.9l0-0.9l0-0.9v0l0-0.9l0-0.9l0-0.9l0-0.9l0-0.9h0l0-0.9l0-0.9v0l0-0.9
	l0-0.9v0l0-0.9l0-1.8h0l0-1.8l0-1.8h0l0-0.9l0-0.1l0-0.1l0,0l0-0.1v0l0-0.1l0,0l0-0.1l0,0l0-0.1v0l0-0.1l0,0l0-0.1v0l0-0.1l0,0
	l0-0.1v0l0-0.1v0l0-0.1v0l0-0.1v0l0-0.1v0l0-0.1v0l0-0.1v0l0-0.1v0l0-0.1l0-0.1v0l0-0.1l0-0.1v0l0-0.1l0-0.1l0-0.1l0-0.1
	c0-0.1,0-0.1-0.1-0.2h0l0-0.1h0l0-0.1v0l0-0.1h0l0-0.1l0-0.1l0-0.1v0l0-0.1h0c0-0.1-0.1-0.1-0.1-0.2l-0.1-0.1h0l-0.1-0.1L378,150
	l-0.1-0.1l0,0l-0.1-0.1l-0.1-0.1h0l-0.1-0.1h0l-0.1-0.1l-0.1-0.1h0l-0.1-0.1v0l-0.1-0.1l-0.1-0.1l-0.1-0.1l0,0l-0.1-0.1v0l-0.1-0.1
	l0,0l-0.1-0.1l0,0l-0.1-0.1h0l-0.1-0.1h0l-0.1-0.1h0l-0.1-0.1l-0.1-0.1l-0.1-0.1h0l-0.1-0.1h0l-0.1-0.1h0l-0.1-0.1h0l-0.1-0.1h0
	l-0.1-0.1h0l-0.1-0.1h0c0,1,0,1.7,0,2.3L376,156.3z M324.4,129.5c1,1.7,2.4,2.5,4.5,2.5c26.1-0.1,52.2,0,78.3-0.1
	c2.1,0,2.8,0.5,2.7,2.7c-0.2,4.2,0,8.5-0.1,12.7c-0.1,2,0.7,3.3,2.8,4.1c0-6.5-0.1-12.8,0.1-19c0.1-2.4-0.4-3.3-3.2-3.3
	c-27.6,0.1-55.3,0.1-82.9,0.1C326,129.2,325.2,128.9,324.4,129.5z"/>
<path class="st5" d="M198.8,230.6l5.3-4.7c1.4-1.2,1.5-3,1.5-5c-0.2-7.6,0-15.2-0.1-22.8c0-2.3,0.7-3.9,2.6-5
	c0.7,0.5,0.4,1.1,0.4,1.7c0,9.7,0,19.5,0,29.2c0,1.4-0.4,2.4-1.4,3.3c-2.8,2.6-2.9,2.6-5.2,4.7c-0.6,0.6-0.5,0.7-1.4,0.8
	c-0.6,0-1.3,0-1.9,0C197.5,232.8,197.6,231.7,198.8,230.6"/>
<path class="st5" d="M89.2,183.5c0-1.4-0.1-2.9,0-4.3c0.1-2.3,1.8-3.4,3.8-2.3c2.5,1.3,4.9,2.7,7.2,4.2c1.6,1,1.6,3.1,0,4.2
	c-2.2,1.7-4.5,3.3-6.9,4.7c-2.2,1.3-4,0.2-4.1-2.4C89.1,186.2,89.2,184.9,89.2,183.5L89.2,183.5z"/>
<path class="st5" d="M208.5,171.3c-2.3-1.4-3-3-3-5.3c0.1-7.1,0-14.2,0.1-21.4c0-1.5-0.4-2.6-1.5-3.6c-2.2-2-4.5-3.9-6.5-6.1
	c-2.2-2.5-4.8-3.1-8.1-3.1c-19.6,0.1-39.1,0-58.7,0.1c-2.2,0-3.7-0.7-4.8-2.6c0.7-0.6,1.5-0.3,2.2-0.3c21.7,0,43.4,0,65.1,0
	c1.4,0,2.6,0.3,3.6,1.4c3.4,3.3,6.9,6.5,10.4,9.7c0.6,0.6,1.1,1.1,1.1,2.1C208.5,151.9,208.5,161.4,208.5,171.3"/>
<path class="st5" d="M150.7,175.7c-2.2-1.7-2.8-3.2-2.8-5.4c0.1-6.4,0-12.7,0.1-19.1c0-0.8-0.2-1.7,0.4-2.6c1.1,0.8,2.3,1.5,2.3,3
	C150.7,159.5,150.7,167.3,150.7,175.7"/>
<path class="st5" d="M150.7,218.7c-1.8-1.1-2.8-2.1-2.8-4.2c0.1-4.7,0-9.4,0-14.4c1.5,0.3,2.7,1,2.7,2.3
	C150.7,207.8,150.7,213.1,150.7,218.7"/>
<path class="st3" d="M106.3,157.8c-2.2-0.9-3.1-2.1-3-4.4c0.2-3.6,1-7.7-0.4-10.8c-1.3-3.1-5.1-5-7.6-7.7c-2.1-2.2-4.3-3-7.4-2.9
	c-14.4,0.2-28.8,0-43.2,0.1c-2.4,0-4-0.7-5.4-3.1h3.9c16,0,32,0,48.1,0c1.4,0,2.6,0.3,3.6,1.4c3.3,3.2,6.6,6.3,10,9.4
	c1,0.9,1.5,1.9,1.4,3.3C106.2,147.9,106.3,152.7,106.3,157.8"/>
<path class="st3" d="M45.7,148.3c2.4,1.3,3.1,3,3,5.4c-0.1,20.7-0.1,41.3-0.1,62v3.1c-1.8-0.9-3-1.8-3-3.8
	C45.7,192.8,45.7,170.7,45.7,148.3"/>
<path class="st3" d="M93.4,237.9c-1.5-1.8-1.3-3.1,0.4-4.6c2.8-2.3,5.3-5,8.1-7.4c1.1-0.9,1.4-1.9,1.4-3.3
	c-0.1-4.7,0.1-9.5-0.1-14.2c-0.1-2.5,0.7-4.2,2.7-5.6c0.7,0.5,0.4,1.2,0.4,1.8c0,6.4,0,12.9,0,19.3c0,1.3-0.3,2.3-1.3,3.3
	C101,230.7,97.3,234.3,93.4,237.9"/>
<path class="st5" d="M305.4,151.6c-2.1-1.2-2.9-2.6-2.8-4.6c0.1-4.1-0.1-8.3,0.1-12.4c0.1-2.2-0.6-2.7-2.7-2.7
	c-22.1,0.1-44.2,0-66.3,0.1c-2.1,0-3.8-0.4-4.9-2.4c0.4-0.8,1.2-0.4,1.7-0.4c24.1,0,48.3,0,72.4-0.1c2,0,2.6,0.6,2.6,2.6
	C305.3,138.2,305.4,144.7,305.4,151.6"/>
<path class="st5" d="M253.3,175.9c-1.6-1-2.8-1.6-2.8-3.4c0-7.6,0-15.2,0-22.8c0-0.3,0.1-0.6,0.2-1.2c1.3,1,2.5,1.7,2.5,3.4
	C253.3,159.8,253.3,167.6,253.3,175.9"/>
<path class="st5" d="M305.1,235.1c-2.1-1.1-2.6-2.6-2.6-4.7c0.1-5.1,0.1-8,0-13.2c-0.1-2,0.6-3.4,2.6-4.5V235.1z"/>
<path class="st5" d="M250.6,200.2c2,0.7,2.8,1.7,2.8,3.7c-0.1,4.8,0,9.6,0,14.7c-1.5-0.6-2.7-1.5-2.7-2.8
	C250.5,210.6,250.6,205.5,250.6,200.2"/>
<path class="st5" d="M278.9,187.2c-2.2-0.8-3-1.8-2.9-3.8c0.1-1.7,0-3.4,0-5.1c0-0.5,0-1.2,0.3-1.4c0.6-0.4,1,0.4,1.5,0.7
	c0.7,0.4,1.1,1,1,1.9C278.9,182,278.9,184.4,278.9,187.2"/>
<path class="st5" d="M376,148.3c2.4,1.3,3,2.9,3,5.2c-0.1,18.7,0,37.4-0.1,56.2c0,2.2,0.4,4,2.1,5.4c1.6,1.3,2.1,3,2,5.1
	c-0.1,5.8-0.1,13.8-0.1,19.8c-2.1-1.3-3.2-2.7-3.1-5.1c0.2-3.7-0.1-9.7,0.1-13.4c0.1-2.3-0.5-4.1-2.2-5.6c-1.4-1.2-1.8-2.6-1.8-4.5
	c0.1-20.2,0-40.5,0-60.7C376,150,376,149.3,376,148.3"/>
<path class="st5" d="M324.4,129.5c0.8-0.6,1.6-0.3,2.3-0.3c27.6,0,55.3,0,82.9-0.1c2.7,0,3.2,0.8,3.2,3.3c-0.2,6.3-0.1,12.5-0.1,19
	c-2.1-0.9-2.9-2.1-2.8-4.1c0.1-4.2-0.1-8.5,0.1-12.7c0.1-2.2-0.7-2.7-2.7-2.7c-26.1,0.1-52.2,0-78.3,0.1
	C326.8,132,325.4,131.2,324.4,129.5"/>
<path class="st6" d="M323.3,251.6l1.6,7.8l-5.5-0.2l2.2-7.7L323.3,251.6z M309,267.2l-0.2,4.7l10.2,0.4l0.2-4.7l-2.2-0.1l1-3.5
	l7.8,0.3l0.7,3.6l-2.2-0.1l-0.2,4.7l10.9,0.4l0.2-4.7l-1.9-0.1l-4.8-21l-14.4-0.5l-0.2,4.7l2.1,0.1l-5.1,15.9L309,267.2z
	 M293.7,266.3l-3.3-15.8l2.3,0.1l0.1-4.7l-11.2-0.3l-0.1,4.7l1.8,0l5.1,21l10.5,0.3l6.3-20.7l1.9,0l0.1-4.7l-10.6-0.3l-0.1,4.7
	l2.2,0.1l-4.3,15.6L293.7,266.3z M266.5,250.1l1.8,7.8l-5.5-0.1l2.1-7.8L266.5,250.1z M252.6,266.1l-0.1,4.7l10.2,0.2l0.1-4.7
	l-2.2,0l1-3.5l7.8,0.1l0.8,3.6l-2.2,0l-0.1,4.7l10.9,0.2l0.1-4.7l-1.9,0l-5.3-20.9l-14.4-0.2l-0.1,4.7l2.1,0l-4.8,16L252.6,266.1z
	 M221.6,265.7l0,4.7l10.3,0.1l0-4.7l-2.4,0l0.1-12.7l0.4,0l8,17.4l8.1,0l0.1-20.8l2,0l0-4.7l-9.9,0l0,4.7l2.3,0l-0.1,11.8l-7.5-16.6
	l-11.3-0.1l0,4.7l2.3,0l-0.1,16.1L221.6,265.7z M204,244.6c-6.9,0-11.8,2.8-11.8,13.4c0.1,11,5.1,13.3,11.9,13.3
	c7,0,11.9-2.8,11.8-13.4C215.8,246.9,210.8,244.6,204,244.6z M204,249.4c2.9,0,4.7,1.1,4.7,8.5c0,7.4-1.5,8.5-4.6,8.6
	c-3.1,0-4.6-1.1-4.7-8.5C199.4,250.6,201.1,249.4,204,249.4z M175.7,245.5l0.1,4.7l2.4,0l0.2,13.5c0,2-0.7,2.7-2.3,2.7
	c-0.6,0-1.3-0.1-1.7-0.2l0-2.7l-5.3,0.1l0.1,7c1.7,0.6,4.6,1,6.7,1c6.8-0.1,9.2-2.4,9.1-7.7l-0.2-13.8l1.8,0l-0.1-4.7L175.7,245.5z
	 M142.6,245.6c-6.6,0.2-10.4,4.2-10.2,13.7c0.2,9.5,3.5,13.1,11.5,12.9c6.1-0.2,10.8-2.1,10.6-10l-5.9,0.2c0.1,3.3-1.1,4.7-4.2,4.7
	c-3.1,0.1-4.7-0.8-4.8-7.9c-0.2-6.8,1.3-8.1,4.6-8.1c2.7-0.1,3.8,1.2,3.9,3.4l0,0.8l6-0.2l-0.2-9.2l-4.8,0.1l0,2
	C148.2,246.5,146.1,245.5,142.6,245.6z M112.5,251.9l3.7-0.1c1.5-0.1,2.1,0.6,2.1,2.4c0.1,2-0.4,2.8-1.9,2.9l-3.7,0.1L112.5,251.9z
	 M117.2,261.7c2.2-0.1,2.7,0.7,2.8,2.9c0.1,2.7-0.9,3.2-2.5,3.3l-4.4,0.2l-0.2-6.2L117.2,261.7z M103.5,247.5l0.2,4.7l2.3-0.1
	l0.6,16.1l-2.3,0.1l0.2,4.7l13.5-0.5c6.2-0.2,9.2-1.8,9-7.6c-0.1-3.6-1.3-5.5-4.2-6.2c1.7-0.9,2.5-2.5,2.4-5.4
	c-0.2-5.1-2.7-6.5-7.2-6.3L103.5,247.5z"/>
<path class="st6" d="M131,81.6c0.4,2.9,1.7,4.7,4.9,4.8c-2.4,1-5.1,1.6-4.6,5.3c-1-2.6-1.7-5-5.2-4.8
	C129.3,86.3,130.6,84.4,131,81.6"/>
<polygon class="st6" points="143.8,82 143.8,92.7 140.7,92.7 140.7,95.8 151.2,95.8 151.2,92.7 148.2,92.7 148.2,78.9 141.5,78.9 
	141.5,82 "/>
<path class="st6" d="M161,86.9c-1.3,0-1.9-0.6-1.9-2.5c0-1.9,0.5-2.7,2-2.7c1.4,0,1.9,0.8,1.9,2.8C163,86.1,162.4,86.9,161,86.9z
	 M160.5,93c-0.5,0-1.3-0.1-1.6-0.3v-1.9h-3.5v4.3c1.3,0.6,3.7,1,5.4,1c5,0,6.9-2.8,6.9-8.9v-1.4c0-6.3-3-7.4-6.7-7.4
	c-4.1,0-6.3,1.7-6.3,6.1c0,3.7,2,4.9,5.2,4.9c1.7,0,2.8-0.4,3.4-1.2C163.2,92.1,162.5,93,160.5,93z"/>
<path class="st6" d="M273.9,88.6c1.4,0,2.1,0.5,2.1,2.4c0,1.9-0.7,2.6-2.1,2.6c-1.4,0-2.1-0.5-2.1-2.5
	C271.8,89.2,272.6,88.6,273.9,88.6 M274.6,82.3c0.4,0,1.1,0.2,1.7,0.3v1.8h3.5v-4.2c-1.6-0.5-3.5-1-5.5-1c-4.8,0-6.9,2.7-6.9,9.4
	v1.3c0,5.7,3,6.9,6.6,6.9c4,0,6.4-1.4,6.4-5.6c0-3.8-2-5.1-5.2-5.1c-1.6,0-2.7,0.4-3.4,1.2C271.8,83.5,272.5,82.3,274.6,82.3z"/>
<path class="st6" d="M293.6,84.1c0,1.4-0.7,1.7-2,1.7c-1.3,0-1.9-0.3-1.9-1.7c0-1.3,0.6-1.8,1.9-1.8C293,82.3,293.6,82.7,293.6,84.1
	 M291.6,93.6c-1.5,0-2.4-0.4-2.4-2.4c0-1.6,0.6-2.3,2.4-2.3s2.4,0.7,2.4,2.3C294.1,93.1,293.2,93.6,291.6,93.6z M298.5,91.6
	c0-2.2-0.8-3.6-3-4.3c1.7-0.7,2.3-1.9,2.3-3.6c0-3.3-1.7-4.6-6.2-4.6c-4.4,0-6.2,1.4-6.2,4.6c0,1.7,0.6,2.9,2.2,3.6
	c-2.1,0.7-2.9,2.1-2.9,4.3c0,3.4,1.5,5.2,6.9,5.2C297.1,96.8,298.5,94.8,298.5,91.6z"/>
<path class="st6" d="M307.6,82.9c0.4,2.9,1.7,4.7,4.9,4.8c-2.4,1-5.1,1.6-4.6,5.3c-1-2.6-1.7-5-5.2-4.8
	C305.9,87.6,307.3,85.7,307.6,82.9"/>
<path class="st6" d="M141,319.2c-0.8-2.8-1.5-5-2-7.2c-0.3-1.3-0.9-1.8-2.2-2c-2.2-0.4-4.4-1.1-7.3-1.8c2.8-0.8,4.9-1.4,7-1.9
	c1.3-0.3,2.1-0.9,2.4-2.4c0.4-2.2,1-4.3,1.6-6.7c1.2,2.2,1.5,4.5,2,6.6c0.4,1.5,1,2.1,2.5,2.3c2.1,0.4,4.2,1,6.3,2
	c-2,0.5-4,1.2-6.1,1.6c-1.6,0.3-2.4,1.1-2.6,2.8C142.3,314.5,141.7,316.6,141,319.2"/>
<path class="st6" d="M112,301.1c-0.2-4.4-2.4-6.2-6.6-6.6c4.5-0.2,6.1-2.9,6.5-6.9c0.4,4.2,2.4,6.6,6.9,6.7
	C114.6,294.8,112.3,296.7,112,301.1"/>
<path class="st6" d="M303.9,317.3c-4.7,1.6-4.7,1.6-6.7,7.3c-0.4-4.5-2.1-7.2-6.8-6.8c1.9-1.1,4.1-0.8,5.1-2.1
	c0.9-1.2,1-3.1,1.8-4.8C297.5,315.2,299.8,317.2,303.9,317.3"/>
<path class="st6" d="M296.3,294.4c-6.8,2.3-6.8,2.3-9.6,10.5c-0.6-6.4-3-10.3-9.7-9.7c2.8-1.6,5.9-1.1,7.4-3
	c1.4-1.7,1.5-4.4,2.5-6.9C287.1,291.4,290.3,294.3,296.3,294.4"/>
<path class="st6" d="M327.8,298c-0.2-3.7-2.1-5.3-5.6-5.6c3.8-0.2,5.2-2.4,5.5-5.8c0.4,3.5,2,5.6,5.8,5.6
	C330,292.6,328,294.3,327.8,298"/>
<path class="st7" d="M212.3,35.9c0.7,0.9-0.8,1.8,2.5,0.3c1-0.5,2.3-0.8,3.6-0.8c5.4,0.2,7.8,6.3,5.9,10.4c-0.5,1.1-1.1,1.8-1.9,2.5
	c-2.8,2.3-9.5,2.4-13.3,4.3c-2.2,1.1-3.3,2.4-4,4.7c-0.8,2.4-0.9,5.2-0.2,7.6c0.2,0.8,1,2.6,1.5,2.8c0.1-0.4-0.1-0.6,0.1-0.9
	c0.4,0.2,0.1,1.3,0.8,2.3c0.3,0.4,1.1,1.3,1.5,1.4c0.1-0.5-0.3-1.9-0.3-2.6c0.1,0.2,0.2,0.4,0.2,0.7c0.9,4.3,3.2,3.8,4,1.7
	c0.3-0.8,0.3-1.9,0.5-2.8c0.2,0.4,0.1,1.2,0.1,1.7c0,0.5,0,1.1-0.1,1.6c1.1-0.3,2.1-0.9,2.6-1.7c0.5-0.9,0.5-2.4,0.7-3.6l0.1,0.1
	c0.1,0.2,0.1,0.4,0.1,0.6c0,0.3,0,0.6-0.1,0.9c-0.1,0.5-0.2,1-0.2,1.6c1.6-0.2,1.5-2.8,1.9-4.2c0.1,0.1,0.1,0,0.2,0.2
	c0.2,0.3,0.1,1.1,0.1,1.4l0.3-0.2c0.7-0.5,0.8-1.2,1.2-2l0,0.4c-0.2,1.4-0.6,1.2-1.4,2c-0.7,0.8-0.8,1.6-1.6,2.3
	c-0.8,0.6-1.4,1.2-2.1,1.7c-1.4,1-1.7,0.5-2.6,1.3c-0.4,0.3-0.9,0.5-1.5,0.5c-0.9-0.1-2.7-1.9-3.4-2.5c-1.3-1.4-2.4-2.9-3.1-4.6
	c-0.5,0.4-1.1,1.5-1.4,2.3c-0.5,1.1-0.4,5.5-0.2,6.8c0.1,1,0.4,2,0.7,3c1.3,4.9,3.9,11.3,6.7,15.3c0.6,0.9,1.4,1.7,2.1,2.5
	c0.2,0.2,0.3,0.3,0.5,0.5c1.6,1.5,3.1,2.8,5.2,3.9c0.9,0.5,4.2,2.2,5.3,2c0-1-3.5-3.9-4.2-7.9c-0.1-0.9-0.3-3.1,0.4-3.5
	c0.3,0.3,0.3,3.6,0.5,4.4c0.3,1.3,1,2.4,1.6,3.3c0.3,0.5,0.7,1.1,1.1,1.4c1.5,1.5,1.7,0.8,2.4,0.7c0.7-0.1,1.5,0,2,0.3
	c0.3,0.1,0.5,0.3,0.8,0.4c1-1.3,0.7-4.2,1.2-5.9c0.9,0.4-0.1,4-0.3,4.8c-0.2,0.7-1,2.9-0.5,3.5c0.2,0.2,0.5,0.4,0.9,0.5
	c1,0.3,4.2,0.3,5.4,0.3c1,0,3.3,0.1,4.2-0.1c0.2-0.1,0.2-0.1,0.5-0.2c1.1-0.2,0.4,0.5-0.2,0.8c0.4,0.9,1.6,2.1,2.5,2.7
	c1.5,0.9,3.5-0.1,4.6-1.1c1.1-1,0.9-1.5-0.1-2.2c-0.9-0.6-2.3-1.2-3.4-1.7c-1.5-0.6-3-1.3-4.2-2.3l-1.8-1.5
	c-7.7-6-6.8-13.9-7.7-23.8c-0.4-4.7-1.5-8.9-4.6-12.3c-0.1-0.1-0.2-0.2-0.3-0.4c-0.3-0.3-0.6-0.6-0.9-1c-0.2-0.3-0.3-0.5-0.4-0.8
	c-0.3-1.1,0-2.2,0.6-3.1c0.5-0.8,1.2-1.3,1.9-2l1.3-1.3c3.3-2.7,4.4-7,4.3-11.2c-0.2-10.6-11.6-16.2-21.1-11.7
	c-3.8,1.8-5.7,4.2-7.6,7.9c-0.3,0.6-1.4,3.3-0.9,4c0.7,0.8,3.7-1.1,4.2-2.2c0.3-0.6,0.1-1,0.6-1.6c0.4,0,0.9,0.2,0.9,0.7
	c0,0.4-0.4,0.7-0.6,0.9c-0.2,0.5,1.5,3.5,1.9,4.3c0.1,0.2,0.1,0.5,0.2,0.6c0.9-0.4,2.2-3,2.6-4c0.3-0.8,0.6-1.7,0.8-2.6l0.3-2.2
	c0-0.1,0-0.2,0.1-0.3C212.2,36,212.2,36.1,212.3,35.9L212.3,35.9z"/>
<path class="st7" d="M225.5,63l0.9,1.2c1.2,1.6,2.4,3.7,2.9,5.7c0.2,0.7,0.4,1,1.1,1c0.9,0.1,9-4.6,11.1-6.1
	c0.4-0.2,2.7-1.2,3.2-1.1c-0.4,2.1-1.6,4.6-0.2,7.2c0.4,0.8,0.9,1.3,1.8,1.4c-0.9-3.8,0.1-6.4,0.8-6.9c-0.3,1.9-1.6,3.2,0.3,6.8
	c0.7,1.2,2.8,1.9,2.1-0.7c-0.3-0.6-0.5-1.2-0.6-1.9c-0.2-1.2,0.2-3.7,0.9-4c0.4,0.8-0.9,2.4-0.2,4.8c0.3,0.9,1.5,3.4,2.3,3
	c0.4-0.2,1-1.2,0.8-1.9c-0.2-0.7-0.9-1.2-1.1-2c-0.1-0.8,0.2-4.2,1-4.2c0.2,1-1.5,3.4,0.4,5.8c0.3,0.4,0.6,0.7,1.1,0.8
	c1,0.2,1.1-1.6,1.2-2.3c0.1-1.1,0.1-2-0.1-3.4c-0.1-1-0.3-2-0.5-3c-0.1-0.5-0.6-2.6-0.4-3c0.5,0,0.6,0.6,0.7,1.2
	c0.6,2.5,0.2,4.4,1.5,6.6c0.2,0.4,0.6,0.9,0.9,1.2c0.5,0.5,1.6,1.6,2.6,1.4l-0.6-4.5c-0.7-6.4-0.1-11.9-3.4-17.6
	c-1.4-2.4-2.8-4-5.3-5.2c-2.7-1.3-5.8-1.7-8.3,0.1c-3.4,2.5-3.9,7-4.9,10.8c-0.8,2.9-3,5.9-5.6,7.5C230,63.1,227.9,63,225.5,63"/>
<path class="st7" d="M177.1,71c0.7-0.1,2-1,2.3-1.4c1.7-2.4,1.7-5.5,2.8-7.6c0.1-0.3,0.2-0.4,0.5-0.4c0.1,0.6-1.4,5.6-1.6,6.6
	c-0.4,1.4,0.4,6.4,1.5,6.6c0.9-0.1,1.8-1.9,2.1-3c0.3-1.2,0.1-4,0.4-4.7c1.4-0.5,1.3,4,0.9,5.3c-0.4,1.2-1.6,2.5-0.9,3.7
	c0.6,1,1,0.9,1.7,0c1.4-1.6,1.7-4.3,1.3-6.5c0.1-1.6,1.1-1,1.2-0.8c0.4,1,0,2.6-0.2,3.7c-0.2,1.4-1.3,2.5-0.1,3.4
	c0.7,0,1.3-0.7,1.6-1.1c1.3-1.9,1-4.1,0.5-6.1c-0.2-0.9,0.4-0.4,0.4-0.3c0.7,0.4,0.7,2.1,0.8,3c0,1.4-1.1,3.3-0.2,3.6
	c0.6,0,0.9-0.6,1.2-1c0.8-1.3,0.8-1.9,0.8-3.4c0-0.4,0-0.7,0-1.1c0-1.7-0.3-1.2,3.4,0.7c1,0.5,2.8,1.4,4.1,1.1
	c0.3-0.7,0.2-1.4,0.4-2.3c0.4-1.6,2.2-4.8,1.7-6.1c-0.1-0.4-0.5-0.4-0.9-0.4c-0.5,0-0.9,0-1.4,0c-0.9,0-1.4-0.2-2-0.6
	c-2.3-1.6-3-5.2-2.4-7.9c0.2-0.7,0.4-1.3,0.6-2.1c0.1-0.8,0.1-1.7,0.1-2.5c-0.5-5.3-5.4-6.5-9.7-4.6c-7,2.9-9.2,9.7-10,16.5
	C177.8,62.5,176.9,70.3,177.1,71"/>
<path class="st7" d="M250.7,76c0,8.3,0.4,15.1,5.5,21.5c0.2,0.2,0.3,0.3,0.5,0.4c0.3,0.3,0.5,0.7,1.2,0.6c0.3-1.5,0.1-2.4-0.1-4.1
	c-0.3-2.5-1.4-6.4-2.1-8.8c-1.4-4.7-1.9-7.1-2.3-12.1c-0.1,0-0.2,0.1-0.3,0.3c-0.5,0.4-0.6,1-1.3,0.8
	C250.7,74.3,250.7,74.1,250.7,76"/>
<path class="st7" d="M181.2,100.8c1,0.2,2.2-3.2,2.5-3.9c0.6-1.9,1.7-9.1,2-11.4c0.2-1.7,0.3-5-0.1-6.4c-0.6-0.2-0.6-0.2-1-0.9
	c-0.2-0.3-0.5-1.1-0.7-1.3c-0.3,1.8-0.6,3.9-0.9,5.8c-0.5,3.6-1.4,8.2-1.7,11.6C181.1,95.3,180.9,100.2,181.2,100.8"/>
<path class="st7" d="M185.5,101.8c0.3-0.1,0.6-0.6,0.7-1c1.5-3,2.2-6.2,2.6-9.8c0.3-2.9,0.3-9.3,0.1-12.5c-0.1-1.5-1.6-3.1-1.7,0.1
	c-0.1,1.2-0.1,2.4-0.1,3.6c-0.1,2.2-0.5,4.3-0.8,6.4c-0.3,2.1-0.7,4.2-0.9,6.3C185.3,96.2,185,101.1,185.5,101.8"/>
<path class="st7" d="M249.6,74.7l-1-0.6c0,0-0.1-0.1-0.2-0.1c-0.1,0,0,0-0.1,0.1c-0.4,0.6-0.7,13.1-0.3,15.7c0.5,3.4,1,6.5,2.7,9.3
	c0.3,0.6,1.2,2.1,2,1.7c0.8-0.8-1.2-10-1.5-11.4c-0.7-3.4-1.7-8-1.7-11.7L249.6,74.7z"/>
<path class="st7" d="M247.2,73.6c-0.2,0-0.8,0.5-1,0.7c-0.4,0.4-0.5,0.6-0.6,1.3c-0.2,1.1-0.4,2.3-0.5,3.5c-0.3,2.6-0.3,5.1-0.3,7.8
	c0,4,0.7,10.1,2.7,13c0.2,0.2,0.5,0.8,0.9,0.9c0.4,0.1,0.6-0.8,0.6-1.2c0.2-2.3-1.4-5.4-1.8-10.1c-0.3-4.1-0.2-7.8,0-11.9
	C247.2,76.4,247.3,74.7,247.2,73.6"/>
<path class="st7" d="M190.5,78c-0.1,3.6,0.1,6.7-0.2,10.5c-0.1,1.8-0.6,11.1-0.2,12.1c1.2-0.1,2.1-3.4,2.3-4.5
	c1.6-6.7,0.1-11.7-0.9-17.9C191.2,76.2,190.5,75.8,190.5,78"/>
<path class="st7" d="M259.7,89.6c0.4-1-0.5-7.3-0.6-8.8c-0.4-3.2-0.2-6.2-0.3-9.4c-0.6-0.4-1.5-1.4-2-1.8c-0.2,0.8-0.5,2.6-0.9,3.2
	c-0.3,0.4-0.7-0.2-0.8,1.6c-0.3,3.8,1.3,10.7,3.1,13.5C258.4,88.4,259.3,89.6,259.7,89.6"/>
<path class="st7" d="M178.4,76.8c0.1,2,0.1,4,0,6c-0.1,2.2-0.4,4.5-0.1,6.7c0.4,0,0.5-0.2,0.7-0.4c1.2-1,2.2-3.4,2.6-4.9
	c0.5-1.8,1.1-5.9,0.9-7.6c-1-0.7-1.5-1.1-2-2.3c-0.7-1.7-0.5-3.1-0.8-3.5c-0.3,0.1-1,0.7-1.1,0.9c-0.4,0.4-1.2,0.6-1.1,1.4
	C177.6,74.2,178.3,75.5,178.4,76.8"/>
<path class="st8" d="M226.8,108.2c0-2.1,0.9-6.5-0.3-7.7c-0.4-0.4-2-0.4-2.4,0c-1.1,1.3,2.5,5.5,1.2,9.3c-0.7,2-2,3.1-3.1,4.2
	c-0.5,0.5-2.1,1.4-2.4,1.9c0.5,0,1-0.1,1.6-0.2c1.7-0.1,3,0.2,4.5,0.7c0.6,0.2,2.2-0.4,2.8-0.6c0.9-0.3,1.8-0.5,2.7-0.8
	c-0.2-0.2-0.6-0.4-0.8-0.6C228,112.6,226.7,111.8,226.8,108.2"/>
<path class="st7" d="M242,85.8c0,3,0.1,5.5,0.7,8.4c0.2,1,0.6,2.2,1,3.1c0.3,0.7,1.1,2.4,1.7,2.2c0.1-0.7-0.8-5.1-0.9-6
	c-1.2-6.6-0.3-13,0.2-19.6c0-0.3,0.1-0.5,0-0.8c-0.6,2-1,4.1-1.5,6.1C242.7,81.3,242,83.5,242,85.8"/>
<path class="st8" d="M211,114.7c-0.2-0.3-1.2-1-1.5-1.1c-0.5-0.3-1.1-0.7-1.3-1.4c-0.2-1.3,0.6-3.1,1-4.1c0.5-1.2,1.1-2.4,1.6-3.7
	c0.1-0.3,0.3-0.7,0.3-1c0.1-0.6,0-0.7-0.3-1c-0.3-0.3-0.4-0.3-1-0.3c-0.3,0-0.9,0.1-1.1,0.2c-0.6,5.1-1.5,8.4-5.4,11.5
	c-1.7,1.4-3,1.5-3.7,1.9c1.1,0.1,2.3-0.1,3.4,0.1c1.2,0.1,2,1.1,2.5,0.9c0.2-0.1,0.5-0.6,0.9-0.8C208.6,114.6,210.3,115,211,114.7"
	/>
<path class="st7" d="M193.9,89.7l-0.1,4.6c0,0.7-0.3,3.2,0,3.6c1.2-0.3,1.9-3.7,2.1-4.6c0.3-2,0.4-4.2,0.2-6.2c-0.2-2-0.5-3.8-1-5.7
	c-0.2-0.9-1.2-4.7-1.6-5.1c-0.4,0.1-1,0.8-1,1c0,0.1,0.3,1.3,0.4,1.6C193.6,82.7,193.9,85.7,193.9,89.7"/>
<path class="st7" d="M212.1,102.7c0.3-0.1,1.1-1.1,1.3-1.4l0.6-0.7c0.4-0.5,1.1-1.2,1.3-1.8c-0.2-0.4-1.2-1.3-1.5-1.6
	c-0.3-0.3-0.5-0.5-0.8-0.7l-1.5-1.5c-0.3-0.3-0.5-0.4-0.8-0.7l-0.8-0.7c-0.2-0.2-0.7-0.6-0.9-0.6c-0.2,0.5-0.4,7.4-0.4,8.4
	C210.4,101.3,211.4,101.9,212.1,102.7"/>
<path class="st8" d="M202.6,47.9c0-0.5,0.3-0.7,0.5-1l0.5-0.7c0.2-0.4-0.6-0.2-0.9-0.2c-0.9,0.2-0.9,0.1-1,0.5
	c-0.2,1.2-0.1,1-0.5,2.4c-0.3,0.9-0.5,1.7-0.8,2.6c-0.2,0.8-0.9,3.6,0.6,3.6c1.5,0,0.7-1.8,3.1-5.2c1.1-1.4,1.3-1.5,2.3-2.8
	c0.1-0.2,0.3-0.3,0.4-0.4c0.1-0.2,0.2-0.3,0.4-0.5c-0.1-0.3-0.6-1.6-0.7-1.8c-3.4,1.8-1.7,1.4-2.7,2.8
	C203.5,47.8,203.2,48.2,202.6,47.9"/>
<path class="st7" d="M240.6,89.4c-0.1-3.5,1.1-11.3,3-16.3c0.3-0.9-0.4-1.6-0.4-1.7c-1.3,0.5-2.4,6.6-2.7,7.8
	c-0.3,1.6-0.6,3-0.6,4.7C239.9,86.5,240.1,87.5,240.6,89.4"/>
<path class="st7" d="M197.1,88.2c0.2-0.1,0.3-0.2,0.5-0.7c0.6-2,0.4-5.8,0-7.7c-0.4-1.9-1.3-3.8-2.4-5.3c-0.3-0.4-1-0.4-1,0.7
	c0.2,2.4,1.8,7,2.3,9.3C196.6,85,197,87.9,197.1,88.2"/>
<path class="st7" d="M233.3,87.1c-0.1-1.7-0.3-5.5,0.2-8c-0.3,0.2-0.9,0.5-1.1,0.8C232,80.6,230.9,87.4,233.3,87.1 M231.2,80.1
	c-0.8,0.4-1,2-1,2.9c0,1.1,0.4,3.3,0.9,3.9c0.5,0.1,0.1-5.2,0.4-6.3C231.5,80.4,231.7,79.7,231.2,80.1z"/>
<path class="st7" d="M237.8,84.1c0,1.2,0,3,0.6,3.9c0.2,0.3,0.9,0.9,0.9,0.1l-0.1-1.2c-0.4-5.6,1.3-9.3,1.3-11.4
	c-0.4,0.1-1.2,1-1.4,1.3C238.4,77.9,237.8,82.7,237.8,84.1"/>
<path class="st7" d="M194.8,69.8l-0.1,0.6c-0.3,2,1.7,4.7,2.7,6c0.5,0.6,2.1,2.5,2.8,2.3c0.2-0.5,0.1-0.7-0.2-1.1
	c-0.2-0.3-0.4-0.5-0.6-0.9c-0.6-0.9-2.2-5-2.4-5.9C196.9,70.8,195.2,69.7,194.8,69.8"/>
<path class="st7" d="M237.2,88c0.1-1.3-0.7-1.5-0.1-5.8c0.2-1.5,0.8-4.3,0.8-5.7c-0.5,0.2-1.4,1.3-1.6,2.1c-0.5,1.9-0.7,5.3-0.5,7.3
	C235.9,87,236.2,88.5,237.2,88"/>
<path class="st7" d="M236.6,76.2c0.8-0.1,2.6-3.5,2.8-4.1c0.3-0.7,0.6-2.6,0.8-4.1c-0.2-0.2-0.9,0.3-1.8,0.8
	c-0.1,0.5-0.3,1.4-0.4,1.8C237.7,71.6,236.6,75.4,236.6,76.2 M234.7,77.4c1.3-1.2,2.2-4.8,2.4-7c0.1-0.4-0.1-0.4-0.5-0.2
	c-0.4,0.2-0.6,0.3-1.1,0.5C235.1,72.9,234.5,77.1,234.7,77.4z M232.3,79c0.4-0.2,0.9-1.2,1.1-1.7c0.8-1.5,1.1-4.4,1.3-6.3
	c-0.8,0.4-1,0.4-1.8,0.7C232.7,73.6,232.3,78.5,232.3,79z M230.6,78.7c0.6-0.4,1.3-2.1,1.6-3.1c0.3-0.9,0.3-3.2-0.4-3.5
	c-0.7,0.2-0.7,0.2-1.4,0.3c-0.1,0.6,0,1.4,0,1.8C230.3,75,230.3,78.4,230.6,78.7z M238.9,74.9c0.4,0,0.6-0.4,0.9-0.9
	c0.3-0.4,0.5-0.7,0.8-1.1c0.5-0.7,1-1.5,1.5-2.2c1.3-1.9,0.9-1.1,1.4-4.3c0-0.3,0.1-0.6,0.1-0.9c0-0.2,0.1-0.1,0.1-0.3
	c-0.6,0.7-2.2,1.2-2.2,2.2c-0.5,1.9-0.8,2.9-1.6,4.7C239.5,72.9,238.6,74.2,238.9,74.9z"/>
<path class="st7" d="M237.8,108.8c0.3,0.1,3.9-0.3,3.9-1.2c-0.3,0.5-3.4-2.1-3.6-3.2c-0.7,0.1-1.6,0.1-2.4,0.2
	C235.6,106.3,236.7,107.6,237.8,108.8"/>
<path class="st7" d="M198.9,86.9c0.6,0,1.3-0.7,1.4-1.4c0.2-1,0.2-4.1-0.3-5.1c-0.2-0.4-1.1-1.3-1.7-1.2
	C198.2,79.5,198.7,86.4,198.9,86.9"/>
<path class="st7" d="M233.6,107.9c0.3,0.9,0.1,1.2,1.2,1.4c0.7,0.1,1.4,0,1.9-0.3c0-0.1-0.8-1-1.3-2c-0.5-1.1-0.8-2.3-0.8-2.3
	c0,0-0.1-0.1-0.1-0.1c-0.6,0-0.7,0-1.3,0c-0.5,0.1-0.4,0.6-0.1,1.4C233.1,106.6,233.3,107.3,233.6,107.9"/>
<path class="st7" d="M198,71.5c-0.2,1.2,1.7,5.1,2.7,6.4c0.2,0.3,1.3,1.5,1.6,1.4c0,0,0-0.1,0-0.1c0,0,0.2-0.2-0.6-2.3
	c-0.3-0.9-1.3-3.8-1.7-4.5c-0.2-0.4-0.3-0.6-0.8-0.8C199,71.6,198.2,71.4,198,71.5"/>
<path class="st7" d="M235.1,87.4c0-0.4-0.1-0.7-0.1-1c-0.1-0.4-0.1-0.8-0.1-1.2c0-0.8,0-1.7,0.1-2.5c0.1-1.5,0.5-3.2,0.5-4.7
	c-0.4,0.2-1.1,1.2-1.3,1.8c-0.5,1.3-0.5,6.6,0,7.6C234.5,87.8,234.9,87.7,235.1,87.4"/>
<path class="st7" d="M201.6,85.6c0.6-0.1,0.7-0.6,0.8-1.3c0.1-0.6,0.2-1.3,0.2-1.9c0.1-0.7,0.1-1.4-0.3-1.8
	c-0.3-0.3-0.8-0.8-1.3-0.8c0,1,0.1,2.1,0.1,3.1C201.2,83.5,201.2,85.2,201.6,85.6"/>
<path class="st7" d="M233.1,109.2c0-0.1-0.9-3.6-1.8-4.7c-0.3,0-0.9-0.1-0.9,0.2c-0.2,0.7,0.2,2.5,0.3,3c0.1,0.6,0.3,1.1,0.7,1.4
	C231.8,109.4,232.7,109.4,233.1,109.2"/>
<path class="st7" d="M202.5,77.8c0.1-0.7-0.3-2.6-0.4-3.3c-0.1-0.4-0.3-2-0.5-2.3c-0.1-0.2-0.5-0.3-0.7-0.1
	C200.5,72.6,202.1,77.1,202.5,77.8"/>
<path class="st7" d="M204.2,84.5c0.1-0.8-0.6-4.3-0.9-4.7c0,0.3,0.3,2.5,0.1,3.9C203.3,84.4,203.4,85.4,204.2,84.5"/>
</svg>
