<?xml version="1.0" encoding="utf-8"?>
<!-- Generator: Adobe Illustrator 27.9.0, SVG Export Plug-In . SVG Version: 6.00 Build 0)  -->
<svg version="1.1" xmlns="http://www.w3.org/2000/svg" xmlns:xlink="http://www.w3.org/1999/xlink" x="0px" y="0px"
	 viewBox="0 0 240 240" style="enable-background:new 0 0 240 240;" xml:space="preserve">
<style type="text/css">
	.st0{display:none;}
	.st1{display:inline;fill:#FEFEFE;}
	.st2{display:inline;fill:#BAA875;}
	.st3{display:inline;fill:#DAD0B4;}
	.st4{display:inline;fill:#E3DCC8;}
	.st5{display:inline;fill:#6C0C33;}
	.st6{display:inline;fill:#BAA874;}
	.st7{display:inline;fill:#6B0C32;}
	.st8{display:inline;fill:#4D0008;}
	.st9{display:inline;fill:#50000C;}
	.st10{display:inline;fill:#6B0C33;}
	.st11{display:inline;fill:#6B0D32;}
	.st12{display:inline;fill:#641728;}
	.st13{display:inline;fill:#4E0009;}
	.st14{display:inline;fill:#601224;}
	.st15{display:inline;fill:#50060F;}
	.st16{display:inline;fill:#510511;}
	.st17{display:inline;fill:#FDFDFD;}
	.st18{fill-rule:evenodd;clip-rule:evenodd;fill:#BAA975;}
	.st19{fill-rule:evenodd;clip-rule:evenodd;fill:#FFFFFF;}
	.st20{fill-rule:evenodd;clip-rule:evenodd;fill:#6C0633;}
	.st21{fill:#6C0633;}
	.st22{fill:#BAA975;}
	.st23{fill:#FFFFFF;}
	.st24{clip-path:url(#SVGID_00000032619360720480047230000014062253340364877984_);}
	.st25{fill:#E1CF9B;}
	.st26{fill:#FDFDFC;}
	.st27{fill:#E1CF9C;}
	.st28{fill:#FBFBFB;}
	.st29{fill:#E2D1A0;}
</style>
<g id="Layer_2_xA0_Image_00000161601709824292831600000003507989071585402753_">
	<g class="st0">
		<path class="st1" d="M21.9,116.4c0-31.2,0-62.3,0-93.5c0-0.9,0.2-1,1-1c31,0,62,0,93,0c0.1,0.1,0.1,0.2,0,0.3
			c-1.2,0.4-2.4,0.3-3.7,0.4c-10.9,0.8-21.3,3.5-31.4,7.9c-8.3,3.6-15.9,8.3-22.8,14c-9.3,7.6-16.9,16.6-22.9,27
			c-5.9,10.3-9.8,21.3-11.7,33.1c-0.6,3.5-1,7.1-1.1,10.7c0,0.4,0,0.7-0.2,1C22.1,116.5,22,116.5,21.9,116.4z"/>
		<path class="st1" d="M115,218.1c-30.7,0-61.4,0-92.1,0c-0.9,0-1-0.2-1-1c0-31.1,0-62.2,0-93.3c0.1-0.1,0.2-0.1,0.3,0
			c0.4,1.2,0.3,2.4,0.4,3.7c0.5,7.6,2,15,4.3,22.2c3,9.5,7.5,18.4,13.3,26.6c4.1,5.8,8.7,11,13.9,15.8c5.8,5.3,12.2,9.9,19.1,13.6
			c8.9,4.9,18.3,8.3,28.3,10.2c4.2,0.8,8.4,1.3,12.6,1.6c0.3,0,0.6,0,0.9,0.2C115,217.9,115,218,115,218.1z"/>
		<path class="st1" d="M124.3,21.9c30.9,0,61.8,0,92.7,0c0.9,0,1.1,0.2,1.1,1.1c0,30.9,0,61.8,0,92.7c-0.7-0.1-0.5-0.7-0.5-1.1
			c-0.3-8.6-2-17.1-4.7-25.2c-3.7-11-9.1-21.1-16.4-30.2c-9.2-11.5-20.4-20.5-33.6-27c-9.6-4.7-19.7-7.7-30.3-9
			c-2.5-0.3-4.9-0.5-7.4-0.7c-0.3,0-0.6,0-0.8-0.2C124.3,22.1,124.2,22,124.3,21.9z"/>
		<path class="st1" d="M218.1,124.3c0,30.9,0,61.9,0,92.8c0,0.9-0.2,1-1,1c-30.7,0-61.4,0-92.1,0c-0.1-0.1-0.1-0.2,0-0.3
			c1.1-0.4,2.2-0.3,3.3-0.4c6.5-0.5,12.8-1.7,19.1-3.5c7.9-2.3,15.4-5.6,22.5-9.8c6-3.6,11.5-7.7,16.6-12.4
			c8.3-7.7,15.1-16.6,20.3-26.6c4.8-9.2,8-18.8,9.7-29c0.6-3.5,1.1-7,1.1-10.6C217.6,125,217.4,124.4,218.1,124.3z"/>
		<path class="st2" d="M218,124.3c-0.1,1.6-0.1,3.2-0.3,4.9c-1.7,17.5-7.6,33.5-17.8,47.8c-10,14-22.9,24.7-38.4,32
			c-9,4.2-18.5,7-28.4,8.3c-2.7,0.3-5.3,0.6-8,0.7c-3.4,0.1-6.8,0.1-10.1,0c-18.4-1-35.3-6.6-50.5-17.2
			c-20.6-14.3-33.9-33.8-39.9-58.2c-1.5-6.1-2.3-12.4-2.5-18.7c-0.1-2.5-0.1-5,0-7.5c0.9-21.7,8.1-41.1,21.8-58
			c12.1-15,27.4-25.5,45.7-31.5c7.4-2.4,15-4,22.7-4.5c1.2-0.1,2.4-0.2,3.6-0.2c2.8-0.1,5.6-0.1,8.4,0c22.9,1.2,43.2,9.2,60.4,24.4
			c16.1,14.1,26.4,31.8,31.1,52.7c1.1,5.1,1.9,10.3,2,15.5c0,0.3-0.3-0.1,0,0.2C217.9,117.7,218.2,121.3,218,124.3z"/>
		<path class="st3" d="M114.9,217.9c3.4,0,6.8,0,10.1,0c0,0.1,0,0.1,0,0.2c-3.4,0-6.7,0-10.1,0C115,218.1,115,218,114.9,217.9z"/>
		<path class="st4" d="M124.3,22.1c-2.8,0-5.6,0-8.4,0c0-0.1,0-0.1,0-0.2c2.8,0,5.6,0,8.4,0C124.3,21.9,124.3,22,124.3,22.1z"/>
		<path class="st1" d="M215.8,120.1c0.2,52.5-42.9,95.7-95.7,95.6c-53-0.1-95.9-42.9-95.8-95.8c0-52.9,43-95.8,96.1-95.6
			C173.6,24.5,216.1,67.9,215.8,120.1z"/>
		<path class="st5" d="M213.1,129.1c-0.3,4.8-1.2,9.6-2.4,14.3c-7.6,27.8-24.4,48.2-50.2,61c-14.1,7-29.1,9.9-44.8,9
			c-28.1-1.6-51.1-13.4-68.8-35.3c-10.4-12.9-16.7-27.6-19.2-44c-0.3-2.1-0.6-4.1-0.7-6.2c0.2-0.8,0.7-0.7,1.3-0.7
			c3.1,0,6.2,0,9.4,0c7,0,14.1,0,21.1,0c0.8,0.2,0.8,0.8,0.9,1.4c0.8,5.6,2.3,10.9,4.6,16.1c2.8,6.4,6.7,12.2,11.5,17.3
			c4,4.2,8.5,7.9,13.5,10.8c7.2,4.2,14.9,6.8,23.2,7.9c10.2,1.3,20.1,0,29.8-3.7c6.8-2.6,12.9-6.3,18.3-11.2
			c11.2-10,17.9-22.5,20.1-37.4c0.1-0.5-0.1-1.3,0.9-1.2c9.8,0,19.6,0,29.5,0c0.4,0,0.7,0,1.1,0c0.8,0,1.1,0.3,1,1.1
			C212.9,128.6,212.9,128.9,213.1,129.1z"/>
		<path class="st5" d="M59,113.1c-10.4,0-20.7,0-31.1,0c-1.1,0-1.2-0.3-1.1-1.3c2.6-26.1,14-47.5,34.1-64.2
			c12.9-10.7,27.8-17.4,44.4-19.9c27.4-4,52.1,2.4,73.7,19.9c16.7,13.5,27.3,30.9,32.2,51.8c1,4.2,1.6,8.5,2,12.8
			c0.1,1-0.4,0.9-1,0.9c-10.4,0-20.7,0-31.1,0c-0.6,0-0.5-0.5-0.6-0.9c-0.9-6.9-2.9-13.5-6.1-19.7C169,81.6,160.9,73.1,150.4,67
			c-7.1-4.1-14.7-6.6-22.8-7.6c-8-1-15.8-0.4-23.6,1.7c-8.7,2.4-16.5,6.5-23.4,12.3c-5.9,5-10.6,10.9-14.3,17.7
			c-3.5,6.4-5.7,13.3-6.7,20.5C59.5,112.2,59.5,112.7,59,113.1z"/>
		<path class="st6" d="M59,113.1c1.5-12.5,6.3-23.6,14.5-33.1c9.1-10.6,20.6-17.4,34.3-20.1c19.2-3.7,36.5,0.6,51.6,13.1
			c10.9,8.9,17.6,20.5,20.7,34.2c0.4,1.9,0.7,3.9,1.1,5.9c-0.1,4-0.1,4,3.8,4c9.1,0,18.2,0,27.2,0c0.4,0,1-0.2,1.3,0.2
			c-0.1,0.1-0.2,0.2-0.4,0.2c-0.6,0.1-1.2,0.1-1.8,0.1c-9.2,0-18.5,0-27.7,0c-0.5,0-1.1-0.2-1.6,0.3c-0.5,1-0.1,2-0.2,3
			c-0.1,0.6,0.1,1.3-0.4,1.8c-0.1,1.3-0.2,2.6-0.3,4c0.5,0,1,0,1.4,0c9.6,0,19.3,0,28.9,0c0.5,0,1,0,1.4,0.1
			c-0.1,0.4-0.4,0.3-0.7,0.3c-10.2,0-20.4,0-30.5,0c-0.2,0-0.3,0-0.5-0.1c-0.4,2-0.7,4.1-1.2,6.1c-4.8,19.9-16.4,34.2-35,42.9
			c-8.9,4.1-18.3,5.8-28.1,5.3c-25.3-1.3-46.4-17.7-54.7-40.7c-1.5-4.3-2.5-8.7-3.2-13.3c-0.4-0.2-0.9-0.1-1.3-0.1
			c-9.8,0-19.6,0-29.3,0c-0.4,0-1,0.3-1.3-0.3c0.5,0,1-0.1,1.4-0.1c9.7,0,19.5,0,29.2,0c1,0,1.4-0.1,1.1-1.2
			c-0.3-0.9,0.1-1.9-0.3-2.8c-0.5-1-0.3-2-0.3-3c0-0.7,0.1-1.3-0.1-2c-0.4-0.3-0.9-0.2-1.4-0.2c-9.4,0-18.8,0-28.2,0
			c-0.6,0-1.3,0.2-1.8-0.4c0.4-0.4,0.8-0.2,1.2-0.2c9.9,0,19.7,0,29.6,0c1.1,0,1.4-0.3,1.4-1.3C58.8,114.9,59,114,59,113.1z"/>
		<path class="st7" d="M58.6,117.6c0,1.8,0,3.5,0,5.3c-10.1,0-20.2,0-30.4,0c-0.4,0-0.9,0-1.3,0c-0.2-1.6-0.1-3.1-0.1-4.7
			c0-0.5,0.2-0.7,0.7-0.7c0.2,0,0.3,0,0.5,0c9.9,0,19.7,0,29.6,0C57.9,117.5,58.3,117.4,58.6,117.6z"/>
		<path class="st7" d="M181.4,122.9c0-1.8,0-3.5,0-5.3c0.3-0.2,0.7-0.1,1.1-0.1c9.8,0,19.7,0,29.5,0c1.3,0,1.4,0,1.3,1.3
			c0,1.3,0.3,2.7-0.2,4c-4.9,0-9.8,0-14.8,0C192.7,122.9,187.1,122.9,181.4,122.9z"/>
		<path class="st8" d="M58.6,117.6c-10.2,0-20.5,0-30.7,0c-0.8,0-1.1,0.2-1,1c0.1,1.3-0.2,2.7,0.2,4c0,0-0.2,0.2-0.2,0.3
			c-0.4-0.1-0.3-0.4-0.3-0.6c0-1.6-0.1-3.2,0.1-4.9c10.3,0,20.6,0,30.9,0C57.9,117.4,58.4,117.1,58.6,117.6z"/>
		<path class="st8" d="M213.1,122.8c0-1.3-0.1-2.6,0-3.9c0.1-1.1-0.3-1.3-1.3-1.3c-9.9,0-19.7,0-29.6,0c-0.2,0-0.5,0-0.7,0
			c0.2-0.4,0.5-0.2,0.8-0.2c10.2,0,20.5,0,30.7,0c0.1,0,0.2,0,0.4,0c0.2,1.8,0.2,3.6,0,5.4C213.3,122.8,213.2,122.8,213.1,122.8z"/>
		<path class="st9" d="M181.2,127.2c1.4,0,2.8-0.1,4.2-0.1c8.7,0,17.5,0,26.2,0c0.4,0,0.9,0.1,1.3-0.1c0.9,0.6,0.2,1.4,0.2,2.1
			c-0.6-1.7-0.6-1.7-2.5-1.7c-9.3,0-18.7,0-28,0C182.1,127.4,181.6,127.6,181.2,127.2z"/>
		<path class="st9" d="M27.1,127c0.4,0.2,0.9,0.1,1.4,0.1c9.7,0,19.5,0,29.2,0c0.4,0,1-0.3,1.3,0.3c-10.2,0-20.4,0-30.6,0
			c-0.5,0-1.1-0.1-1.5,0.5C26.9,127.6,26.6,127.2,27.1,127z"/>
		<path class="st7" d="M213.3,122.8c0-1.8,0-3.6,0-5.4c0.1,0,0.1,0,0.2,0c0,1.6,0,3.3,0,4.9C213.6,122.5,213.7,122.7,213.3,122.8z"
			/>
		<path class="st1" d="M161,54.9c1.6,2.1,1.5,3.4-0.4,5.9c-1.3,1.6-2.7,2-4.8,0.9c-2.6-1.4-5.2-3-7.8-4.4c-0.5-0.3-0.4-0.5-0.2-0.8
			c2.5-4.3,5-8.7,7.5-13c0.2-0.4,0.4-0.5,0.9-0.3c2.4,1.4,4.9,2.8,7.3,4.3c2.8,1.8,2.4,5.9-0.5,7.4C162.5,55.1,161.8,55.1,161,54.9z
			"/>
		<path class="st1" d="M51.1,85.6c1.7-1.7,3-1.8,5.4-0.4c2,1.2,2.6,2.4,1.9,4.4c-1,3-2.6,5.8-3.9,8.7c-0.2,0.5-0.5,0.4-0.8,0.2
			c-4.5-2.1-9.1-4.3-13.7-6.4c-0.5-0.2-0.5-0.5-0.3-0.9c1.2-2.4,2.3-4.9,3.5-7.3c1.6-3.2,5.4-3.4,7.5-0.5
			C51.2,84,51.2,84.7,51.1,85.6z"/>
		<path class="st1" d="M194.6,83.4c1.4,0,2.3,0.7,3,1.8c1.2,2,2,4.2,2.5,6.4c0.4,1.7-1.1,3.8-2.9,4.1c-0.3,0.1-0.4-0.1-0.5-0.3
			c-0.3-0.6-0.5-1.3-0.8-1.9c-0.2-0.5,0.2-0.6,0.5-0.8c0.9-0.5,1.2-1.3,0.9-2.2c-0.3-1.1-0.7-2.1-1.3-3.1c-0.6-1-1.3-1.1-2.6-0.6
			c-1,0.4-1.6,1.1-1.2,2.2c0.4,1.3,0.9,2.6,1.3,3.8c1,3,0.2,4.6-2.7,5.7c-3.3,1.3-4.8,0.7-6.3-2.5c-0.8-1.7-1.6-3.5-2-5.4
			c-0.3-1.9,1.5-4.2,3.4-4.3c0.3,0,0.3,0.1,0.4,0.3c0.1,0.3,0.3,0.7,0.4,1c0.5,0.9,0.6,1.5-0.6,2c-0.8,0.3-1.1,1.2-0.8,2
			c0.4,1.2,0.9,2.3,1.4,3.4c0.6,1.2,1.4,1.3,2.8,0.7c1.2-0.5,1.6-1.2,1.2-2.5c-0.4-1.4-1-2.9-1.4-4.3c-0.7-2.4-0.1-3.7,2.2-4.8
			C192.6,83.8,193.6,83.4,194.6,83.4z"/>
		<path class="st1" d="M129.9,35.2c-2.1,2.6-4.1,4.9-6.1,7.3c-0.5,0.6-0.4,0.8,0,1.4c2.2,2.5,4.4,5,6.8,7.7c-1.3,0-2.4,0-3.5,0
			c-0.5,0-0.7-0.3-1-0.6c-1.6-1.9-3.2-3.8-4.8-5.6c-0.2-0.2-0.3-0.4-0.5-0.5c-0.4-0.5-1-0.3-1.5-0.2c-0.5,0.1-0.2,0.6-0.2,0.9
			c0,1.7,0,3.4,0,5.2c0,0.7-0.2,0.9-0.9,0.9c-2.3,0-2.3,0-2.3-2.2c0-4.4,0-8.8,0-13.2c0-0.8,0.2-1,1-1c2.2,0,2.2,0,2.2,2.2
			c0,1.1,0,2.2,0,3.2c0,0.4-0.4,1.1,0.3,1.2c0.6,0.1,1.2,0,1.7-0.6c1.2-1.6,2.6-3.1,3.8-4.8c0.7-1,1.5-1.4,2.7-1.3
			C128.3,35.3,129,35.2,129.9,35.2z"/>
		<path class="st1" d="M146.2,56.3c-0.9-0.3-1.7-0.5-2.5-0.7c-0.7-0.1-0.5-0.6-0.5-1c-0.1-2.4-0.1-2.4-2.4-3.1
			c-1.2-0.4-2.5-0.7-3.7-1.1c-0.5-0.2-0.8-0.1-1.2,0.4c-1.6,2.2-1.6,2.2-4.3,1.3c0,0-0.1,0-0.2-0.1c1.7-2.4,3.4-4.8,5-7.2
			c1.4-2,2.9-4,4.3-6.1c0.4-0.6,0.8-0.7,1.5-0.5c1.1,0.4,2.6,0.4,3.3,1.2c0.7,0.8,0.3,2.3,0.3,3.5c0.2,4.4,0.3,8.7,0.4,13.1
			C146.2,55.9,146.2,56,146.2,56.3z"/>
		<path class="st1" d="M49.4,74.6c0-0.7,0.2-1.3,0.5-2c1-2,2.2-3.9,3.8-5.5c1.6-1.6,4.4-1.4,6,0.4c0.1,0.2,0.2,0.3,0.1,0.5
			c-0.5,0.6-1,1.3-1.4,1.9c-0.4,0.5-0.6,0-0.9-0.1c-1.6-0.9-1.8-0.8-3,0.6c-0.6,0.8-1.3,1.6-1.8,2.6c-0.5,0.9-0.4,1.7,0.4,2.4
			c1.8,1.7,3.9,3.1,6,4.3c0.9,0.5,1.8,0.4,2.6-0.5c0.8-0.8,1.4-1.7,2-2.7c0.7-1.3,0.6-2-0.6-2.9c-0.6-0.5-0.8-0.8-0.2-1.4
			c1.4-1.9,1.4-1.9,3.1-0.2c1.3,1.3,1.7,2.7,0.9,4.4c-1,2.2-2.4,4.1-4.1,5.7c-1.3,1.3-3,1.6-4.6,0.7c-2.7-1.4-5.1-3.1-7.3-5.1
			C50,76.8,49.4,75.8,49.4,74.6z"/>
		<path class="st1" d="M97.4,47.3c0,0.5-0.5,0.5-0.7,0.6c-1.8,0.8-3.6,1.5-5.4,2.2c-0.7,0.3-0.9,0.5-0.5,1.2
			c0.4,0.9,0.8,1.8,1.1,2.8c0.2,0.6,0.5,0.6,1,0.4c1.9-0.8,3.9-1.6,5.9-2.4c0.7-0.3,1-0.3,1.3,0.5c0.6,1.5,0.6,1.5-0.9,2.1
			c-2.7,1.1-5.4,2.1-8.1,3.3c-0.6,0.3-0.8,0.2-1.1-0.5c-1.8-4.6-3.6-9.1-5.5-13.6c-0.2-0.6-0.2-0.8,0.4-1c3-1.2,6-2.4,9-3.6
			c0.5-0.2,0.7-0.1,0.9,0.4c0.1,0.4,0.2,0.8,0.4,1.1c0.4,0.6,0.1,0.8-0.5,1c-2,0.8-3.9,1.6-5.9,2.4c-0.6,0.2-0.9,0.5-0.5,1.2
			c0.4,0.7,0.6,1.5,0.9,2.2c0.2,0.7,0.5,1,1.3,0.6c1.6-0.8,3.3-1.4,5-2C96.6,45.5,97.4,46,97.4,47.3z"/>
		<path class="st1" d="M167.6,61.3c-0.3,0-0.4,0.3-0.5,0.4c-0.7,0.8-1.4,1.7-2.1,2.5c-0.5,0.5-0.3,0.7,0.2,1.1
			c1.6,1.3,3.2,2.7,4.9,4.1c0.5,0.4,0.8,0.7,0.2,1.4c-1.1,1.2-1.1,1.2-2.4,0.1c-2.2-1.8-4.3-3.7-6.5-5.4c-0.5-0.4-0.7-0.7-0.2-1.3
			c3.1-3.7,6.2-7.4,9.3-11.1c0.5-0.6,0.7-0.7,1.4-0.1c2.3,2,4.7,4,7.1,5.9c0.5,0.4,0.7,0.7,0.2,1.3c-1.2,1.3-1.1,1.4-2.5,0.2
			c-1.4-1.2-2.9-2.4-4.3-3.6c-0.4-0.4-0.7-0.4-1,0.1c-0.7,0.9-2,1.8-2,2.7c0,0.8,1.5,1.5,2.3,2.2c0.9,0.8,1.8,1.6,2.8,2.3
			c0.8,0.6,0.1,1-0.2,1.3c-0.3,0.3-0.5,1.2-1.3,0.5c-1.5-1.4-3.1-2.6-4.7-3.9C168,61.6,167.8,61.4,167.6,61.3z"/>
		<path class="st1" d="M111.5,35.5c0.4-0.2,0.5,0,0.6,0.5c0.5,2.2,0.5,2.2-1.6,2.5c-2.8,0.4-2.8,0.4-2.3,3.1c0.5,3.3,1,6.6,1.6,9.8
			c0.1,0.7,0.1,0.9-0.7,1.1c-2.4,0.4-2.3,0.4-2.7-2c-0.5-3.4-1.1-6.8-1.6-10.2c-0.1-0.8-0.3-1-1.1-0.8c-1,0.3-2,0.3-3.1,0.5
			c-0.5,0.1-0.7-0.1-0.8-0.6c-0.4-2.1-0.4-2.1,1.7-2.4C104.8,36.5,108.1,36,111.5,35.5z"/>
		<path class="st1" d="M75.3,67.9c-0.2-0.2-0.3-0.4-0.4-0.6c-2.8-4.1-5.7-8.1-8.5-12.1C66,54.6,66,54.4,66.5,54
			c1.9-1.4,1.9-1.4,3.3,0.5c2,2.9,4,5.7,6,8.6c0.4,0.6,0.6,0.6,1.2,0.2c1.6-1.2,3.2-2.2,4.8-3.4c0.6-0.5,0.8-0.4,1.3,0.2
			c1,1.6,1.1,1.5-0.5,2.6c-2.2,1.5-4.4,3.1-6.6,4.6C75.8,67.5,75.6,67.7,75.3,67.9z"/>
		<path class="st1" d="M179.6,80.8c-2,1.9-2,1.9-3.6-0.2c-1.5-2-3.1-4-4.7-5.9c-0.3-0.4-0.5-0.6,0.1-1.1c4-3,7.9-6.1,11.8-9.2
			c0.4-0.3,0.6-0.3,0.9,0.1c1.7,1.9,1.7,1.9-0.3,3.4c-2.7,2.1-5.5,4.3-8.2,6.4c-0.6,0.5-0.6,0.7-0.1,1.3
			C177,77.3,178.3,79,179.6,80.8z"/>
		<path class="st1" d="M80.4,45.1c0.3,0.1,0.4,0.3,0.5,0.5c2.4,4.4,4.7,8.8,7.1,13.3c0.2,0.4,0.2,0.7-0.2,0.8c0,0-0.1,0-0.1,0
			c-2.1,1.3-2.1,1.3-3.2-0.9c-2.1-3.9-4.1-7.7-6.2-11.6c-0.4-0.7-0.3-1,0.4-1.3C79.3,45.8,79.8,45.4,80.4,45.1z"/>
		<path class="st1" d="M193.7,78.1c-0.1,0.3-0.3,0.4-0.5,0.5c-4.3,2.6-8.6,5.2-12.9,7.8c-0.4,0.2-0.6,0.2-0.8-0.2
			c-0.3-0.5-0.6-1.1-0.9-1.5c-0.5-0.7-0.1-0.8,0.4-1.1c3.8-2.2,7.5-4.5,11.3-6.8c2.1-1.3,2.4-1.2,3.3,1.1
			C193.6,77.8,193.7,78,193.7,78.1z"/>
		<path class="st1" d="M60.7,120.1C60.5,87.4,87.4,60.6,120,60.7c32.8,0.1,59.5,26.5,59.5,59.3c0,32.7-26.4,59.5-59.5,59.4
			C86.7,179.4,60.5,152.3,60.7,120.1z"/>
		<path class="st7" d="M157.1,59.1c-1.1-0.2-1.9-0.7-2.8-1.2c-0.9-0.5-2.4-0.8-2.6-1.7c-0.2-0.7,0.9-1.7,1.4-2.7
			c0.5-1.1,1-1.3,2-0.6c1.1,0.8,2.3,1.4,3.5,2.1c0.7,0.4,1.1,1.1,0.6,1.9C158.7,58,158.3,59,157.1,59.1z"/>
		<path class="st7" d="M160.3,53c-1.1-0.1-1.9-0.8-2.8-1.2c-0.8-0.5-2.1-0.8-2.3-1.5c-0.3-0.7,0.8-1.6,1.2-2.4
			c0.4-1,0.9-1.3,1.9-0.6c1,0.8,2.2,1.3,3.3,2c0.6,0.4,1.1,1,0.7,1.8C161.8,51.9,161.4,52.8,160.3,53z"/>
		<path class="st10" d="M52.8,87.1c2.1-0.1,3.2,1.6,2.5,3.5c-0.5,1.2-1.1,2.4-1.7,3.7c-0.2,0.5-0.4,0.6-1,0.3
			c-1.1-0.6-2.8-0.8-3.3-1.7c-0.4-0.8,0.8-2.2,1.3-3.3c0.3-0.6,0.6-1.2,1-1.8C51.9,87.4,52.2,87.1,52.8,87.1z"/>
		<path class="st7" d="M49.2,86.6c-0.3,1.4-1,2.5-1.5,3.7C47,92,46.9,92,45.3,91.2c-2.2-1-2.2-1-1.2-3.3c0.4-0.8,0.8-1.7,1.2-2.5
			c0.4-0.8,1.1-1,1.9-0.7C48.2,85.1,49.1,85.5,49.2,86.6z"/>
		<path class="st11" d="M142.9,49.6c-1.7-0.5-3.4-1-5.2-1.6c1.7-2.4,3.3-4.7,4.9-7c0.1,0,0.2,0,0.3,0
			C142.9,43.8,142.9,46.7,142.9,49.6z"/>
		<path class="st5" d="M76.6,151.4c5.2,3.2,10.5,6.1,16.2,8.1c11.5,4,22.8,3.3,33.9-1.4c1.2-0.5,2.4-0.8,3.7-0.8
			c2.1,0,4.1,0,6.2,0.1c-5.7,3.4-11.8,5.9-18.3,7.1c-6.6,1.2-13.1,0.7-19.7-0.3c4.2,1.9,8.6,3.1,13.1,3.8c13.6,2,25.9-1.2,36.9-9.5
			c1.7-1.3,2.9-2.8,3.8-4.8c2.1-5,3.9-10,4.9-15.4c0-0.1,0-0.3,0.1-0.6c-2.2,1.4-3.9,3.2-5.9,5.1c0.6-2.5,1.1-4.8,1.6-7.2
			c0.1-0.4,0.3-0.5,0.6-0.7c1.1-0.7,2.1-1.5,3.2-2c1.1-0.4,1.3-1.1,1.4-2.2c0-1.8,0.1-3.6,0-5.4c0-0.5-0.1-0.8-0.8-0.6
			c-9.5,2.6-19.3,2.8-29,2.8c-2.8,0-5.7-0.1-8.5,0c-0.8,0-0.9-0.2-0.7-0.9c0.3-1.1,0.6-2.2,0.7-3.4c0.1-0.8,0.4-1,1.2-0.9
			c5,0.2,10,0.5,15,0.5c6.9,0,13.7-0.3,20.4-1.8c0.9-0.2,1.1-0.5,0.9-1.4c-0.6-2.8-1.2-5.6-2.4-8.3c-0.3-0.7-0.7-1-1.5-1
			c-4.1-0.1-7.8-1.7-11.3-3.6c-5.6-2.9-10.5-6.8-15.7-10.3c-0.3-0.2-0.5-0.4-0.4-0.9c0.4-1.4,0.7-2.9,1-4.5c1.7,1.2,3.2,2.2,4.8,3.3
			c4.6,3.3,9,6.8,14.2,9.1c2,0.9,4.1,1.7,6.5,1.8c-0.4-1.3-0.9-2.5-1.5-3.6c-7.1-14.8-19-23.4-34.9-26.5c-2.9-0.6-5.8-0.9-8.7-1.1
			c-1.8-0.1-3.4,0.7-5.1,1.3c-5.8,2.1-11,5.3-15.7,9.6c10.2-5.7,20.2-4.1,30.3,0.3c-0.1,0.4-0.5,0.1-0.7,0.2c0,0-0.1,0-0.1,0
			c-4.4-0.1-8.8,0.1-13.3-0.6c-6.9-1-13.2,1.3-19,4.8c-5.4,3.3-10,7.4-14,12.2c3.5-9.6,9.3-17.5,17.5-23.6
			c8.2-6.2,17.4-9.8,27.6-10.5c26.2-2,49.8,15.1,55.7,40.3c5.9,25.5-7.4,51.4-31.5,61.1C114.6,179.2,89,169.4,76.6,151.4z"/>
		<path class="st5" d="M79.8,139.4c2.9-0.4,5.8-0.8,8.8-1.2c0.1,0,0.2,0,0.4,0c1.7-0.2,2.3-0.9,2.2-2.6c0-0.7-1-0.5-1.3-0.5
			c-4.3,0-8.2,0-12.5,0c-0.3,0-0.5,0-1-0.1c3.5-0.4,6.8-0.9,10.2-1.3c1.3-0.2,2.6-0.4,3.9-0.5c1,0,1.5-0.4,1.6-1.4
			c0-0.4,0.1-0.8,0.2-1.2c-4.1,0-8.1,0-12.1,0c0.5-0.1,1.8-0.3,2.3-0.4c2.9,0,5.2,0.1,8.1,0.1c0.4,0,0.9-0.1,1.3,0
			c0,0-0.1,0.1,0,0.2c0,0,0,0,0-0.2c-1.8,0-3.5,0-5.3,0c-0.7,0-1.4,0.1-2.1-0.4c3.3-0.5,6.5-1.1,9.8-1.1c6.7,0,13.4,0,20.1,0
			c0.9,0,1.1,0.2,0.9,1.1c-0.6,2.4-1.1,4.9-1.6,7.4c-0.2,0.8-0.1,1,0.8,1c11.3-0.1,22.6-0.1,33.9-0.2c0.8,0,1,0.1,0.8,1
			c-1.1,4.8-2.2,9.7-3.2,14.5c-0.1,0.7-0.3,1-1.1,1c-18.9-0.1-37.9-0.1-56.8-0.1c-0.7,0-0.9,0-0.7-0.8c0.9-3.9,1.7-7.8,2.6-11.7
			c0.2-0.8,0.1-1.1-0.8-1.1c-3.1,0-6.1-0.1-9.2-0.1c0.6-0.4,1.2-0.2,1.7-0.2c2.4,0,4.7,0,7.1,0c0.2,0,0-0.2,0-0.1c0,0,0,0.1-0.1,0.1
			c-3.6,0-7.2,0-10.8-0.2c0.6-0.6,1.4-0.5,2.1-0.6c0,0,0.1,0,0.1,0C80,139.5,79.9,139.5,79.8,139.4z"/>
		<path class="st5" d="M77.2,114.9c3.4-0.5,6.8-0.9,10.2-1.4c2.7-0.4,5.4-0.7,8.1-1.1c0.7-0.1,1.8-2.3,1.4-2.9
			c-0.2-0.3-0.6-0.1-0.9-0.1c-4.4,0.1-8.7,0.1-13.1,0.2c-2.9,0-5.7,0-8.6-0.1c0.4-0.1,1.6-0.4,2.3-0.5c6.4-0.9,12.9-1.7,19.4-2.5
			c0.3,0,0.6,0,1,0c7.3,0,14.5,0,21.8,0c0.5,0,1.2-0.2,1.5,0.5c-0.5,2.6-1.1,5.1-1.6,7.7c-0.7,3.2-1.4,6.3-2.1,9.5
			c-0.1,0.6-0.4,0.8-1,0.8c-7,0-14,0-21,0c-0.8,0-1-0.1-0.8-1c0.5-1.8,0.4-1.8-1.5-1.8c-7.4,0.1-14.7,0.1-22.1,0.2
			c-0.8,0-1.5,0-2.3-0.2c3.3-0.4,6.5-0.8,9.8-1.2c5.4-0.7,10.9-1.4,16.3-2c0.7-0.1,1.1-0.3,1.1-1.1c0.1-0.7,0.3-1.4,0.4-2.1
			c-0.4-0.5-1-0.1-1.4-0.1c-5.5,0-11,0-16.5,0c-0.4,0-0.7,0-1-0.3c0.1-0.4,0.4-0.3,0.6-0.3c0.2,0-0.1,0.1,0.1,0
			C77.4,115.1,77.3,114.9,77.2,114.9z"/>
		<path class="st5" d="M95,89.7c2.3-0.3,4.6-0.8,6.9-0.9c7.3-0.1,14.5,0,21.8,0c0.2,0,0.4,0,0.6,0c-1,4.4-1.9,8.8-2.9,13.2
			c-0.1,0.5-0.3,0.7-0.9,0.7c-7.2,0-14.5,0-21.7,0c-0.1,0-0.2-0.1-0.3-0.1c0.4-2.4,0.4-2.4-2.1-2.4c-4.5,0-9,0-13.6-0.1
			c1.8-0.5,3.8-0.6,5.6-0.9c3.3-0.5,6.6-0.9,10-1.3c0.8-0.1,1.9-2.1,1.6-2.8c-0.2-0.4-0.6-0.2-0.9-0.2c-3.5,0-7,0-10.4,0
			c-0.8,0-1.6,0-2.4-0.2c2-0.2,4-0.5,6-0.7c2.4-0.3,4.7-0.7,7.1-0.9c1-0.1,1.3-0.4,1.4-1.3c0-0.5,0.4-1.1,0.2-1.6
			c-1.3-0.3-2.7-0.1-4-0.1C96.3,90.1,95.6,90.2,95,89.7z"/>
		<path class="st12" d="M77.2,114.9c0.3,0,0.7,0.1,1,0.1c0,0,0,0.1,0,0.1c-0.5,0-0.9,0-1.6,0.1c0.5,0.3,1,0.2,1.3,0.2
			c5.4,0,10.8,0,16.2,0c0.4,0,1-0.2,1.3,0.3c-8.7,0-18,0-26.7,0c0,0,0.5,0,0.5,0C72,115.5,74.6,115.2,77.2,114.9z"/>
		<path class="st13" d="M120.2,107c-0.5-0.3-1-0.2-1.5-0.2c-6.8,0-13.6,0-20.4,0c-0.5,0-1,0.2-1.4-0.2c0.4-0.1,0.7-0.2,1.1-0.2
			c7.1,0,14.3,0,21.4,0C119.8,106.4,120.6,106,120.2,107z"/>
		<path class="st14" d="M79.8,139.4c0.3,0,0.7,0.1,1,0.1c-1,0.2-1.7,0.1-2.8,0.6c4.1,0,7.8,0.1,11.7,0.1c0,0.1,0,0.2,0,0.3
			c-3.3,0-6.6,0-9.9,0c-2.6,0-7.2,0-9.7,0c0.1,0,2.1-0.2,2-0.2C74.7,140,77.2,139.7,79.8,139.4z"/>
		<path class="st15" d="M95,89.7c2,0.5,4,0.2,6,0.3c0,0,0.1,0,0.1,0.1c0,0.1,0,0.1,0,0.2c-3.3,0-8.4,0-11.7,0c0-0.1,1.9-0.1,1.9-0.2
			C92.5,90,93.7,89.8,95,89.7z"/>
		<path class="st16" d="M84.4,129.8c2.5,0.5,5,0.1,7.5,0.4c-3.4,0-6.1,0.3-9.5-0.1C83.3,130,83.6,129.9,84.4,129.8z"/>
		<path class="st1" d="M117.3,72.7c2.7,0,5.4-0.1,8.1,0.3c14,2.1,25.1,8.9,33.3,20.4c0.6,0.9,0.9,1.7,0.8,2.8c-0.2,2-0.5,4-1.5,5.9
			c-0.3,0.6-0.7,1.1-1.4,1.7c-3.7-8.1-8.7-15.1-15.5-20.8C134.1,77.2,126.2,73.9,117.3,72.7z"/>
		<path class="st1" d="M162.4,99.9c2,4.2,3.3,8.4,4.1,12.7c0.5,2.9-0.3,4.4-3.2,5.9c-1.8,1-1.8,1-2.2-1c-0.6-2.8-1.3-5.5-2.5-8.1
			c-0.2-0.3-0.3-0.6,0.1-0.9C161,106.2,161.8,103.3,162.4,99.9z"/>
		<path class="st1" d="M167.2,120.2c0,5.2-0.7,10-2.3,15c-0.6-1.3-1.5-2.1-2.6-2.7c-0.3-0.1-0.1-0.5-0.1-0.8c0.3-2.4,0.3-4.7,0-7.1
			c-0.1-0.4-0.2-0.9,0.4-1.1C164.3,122.8,165.7,121.7,167.2,120.2z"/>
		<path class="st17" d="M155.4,152.1c2.8-4.5,4.9-9.2,6-14.4c0.2-0.8,0.5-0.9,1.1-0.4c0.7,0.6,1.2,1.4,0.8,2.3
			C161.4,144.2,158.7,148.4,155.4,152.1z"/>
	</g>
	<g>
		<path class="st18" d="M120,0c66.3,0,120,53.7,120,120c0,66.3-53.7,120-120,120C53.7,240,0,186.2,0,120C0,53.7,53.7,0,120,0"/>
		<path class="st19" d="M120,2.8c64.7,0,117.1,52.5,117.1,117.1c0,64.7-52.5,117.1-117.1,117.1C55.3,237.1,2.9,184.7,2.9,120
			C2.9,55.3,55.3,2.8,120,2.8"/>
		<path class="st20" d="M120,46.1c40.8,0,73.9,33.1,73.9,73.9c0,40.8-33.1,73.9-73.9,73.9c-40.8,0-73.9-33.1-73.9-73.9
			C46.1,79.2,79.2,46.1,120,46.1 M120,5.6c63.1,0,114.3,51.2,114.3,114.3c0,63.1-51.2,114.3-114.3,114.3
			C56.9,234.3,5.7,183.1,5.7,120C5.7,56.8,56.9,5.6,120,5.6z"/>
		<rect x="4.6" y="111.5" class="st19" width="230.7" height="5.1"/>
		<rect x="4.6" y="123.5" class="st19" width="230.7" height="5.1"/>
		<path class="st21" d="M170.7,140.6L170.7,140.6c-1.5,7.4-4.7,14.5-9.1,20.6c4.8-5,8.6-10.8,11.3-17.2
			C173.3,142.5,172.3,140.7,170.7,140.6 M172,124.3L172,124.3c-0.2,0.1-0.4,0.2-0.6,0.3c0.5,3.5,0.6,7,0.1,10.6
			c1.5,0.6,2.7,1.9,3.4,3.3c1.9-5.9,2.8-12.2,2.8-18.4C176,121.9,174.1,123.3,172,124.3z M171.8,95.3L171.8,95.3
			c-0.7,3.8-1.9,8.3-5,10.9c1.9,4.2,2.9,8.5,3.8,13c2.4-0.9,5.5-2.6,6.3-5.3c0.3-0.8,0.1-1.7,0-2.5c-0.6-3.4-1.4-6.8-2.6-10.1
			C173.6,99.3,172.8,97.2,171.8,95.3z M114.5,62.1L114.5,62.1L114.5,62.1c1.6-0.1,3.2,0.3,4.7,0.5c3.4,0.6,6.8,1.4,10.1,2.6
			c5.5,2,10.7,4.9,15.3,8.5c8.8,6.9,15.4,16.2,20,26.3c2.9-2.3,3.4-7.3,3.6-10.7c0-0.5-0.3-0.8-0.5-1.1c-3.8-5.7-8.6-10.7-14.1-14.7
			c-9.4-7-21-11-32.7-11.4C118.9,61.9,116.7,61.8,114.5,62.1z M108.2,57c13.4-2.3,27.6-0.2,39.8,5.9c9.7,4.9,18.1,12.2,24.2,21.1
			c5.6,8.1,9.3,17.5,10.7,27.3c1.3,9.3,0.6,18.8-2.1,27.8c-3.1,10.4-9,20-16.7,27.5c-8.2,8-18.5,13.8-29.6,16.5
			c-4.4,1.1-8.9,1.7-13.5,1.8c-2,0-4,0.1-6-0.1c-15-0.9-29.3-7.1-40.2-17.4c-3.1-2.9-5.9-6.1-8.3-9.6c2.1,1.5,4.4,2.8,6.6,4.1
			c8.3,4.8,17.1,8.3,26.7,9.4c10.3,0.8,19.5-0.7,28.8-4.7c0.3-0.1,0.9-0.5,1.6-0.9l10.6,0c-0.3,0.2-0.7,0.4-1.2,0.7
			c-1.4,0.9-2.8,1.5-4.3,2.3c-13.1,6.3-25.1,8.6-42.7,5.1c-0.1,0,15,7.5,33.1,5.4c11.4-1.3,22.4-6,31.1-13.5
			c0.6-0.5,1.2-0.9,1.6-1.7c3.4-7.1,6.1-14.5,7.4-22.3c-0.5,0.2-0.9,0.5-1.3,0.8c-1.9,1.4-4.3,3.6-6,5.4l2-9.1
			c0.4-0.3,0.9-0.6,1.3-1c1.5-1,3-2.1,4.8-2.7c0.2-3.2,0.4-6.3,0-9.5c-15.2,4.3-32.1,3.7-47.8,3.5l0.6-2.6l0.8-3.7
			c15,0.6,31.1,1.8,45.7-2c-0.5-3.4-1.8-9.7-3.8-12.7c-11.3,0.6-25.3-11-34.6-17.2c-0.1-0.1-0.2-0.1-0.2-0.2l1.3-6
			c8.7,5.5,20.7,16.8,31.3,17.5c-4-10.4-10.8-19.9-19.9-26.5c-9.9-7.3-21.8-10.7-34-11.7c-1-0.1-2-0.2-3-0.1
			c-9.1,2.5-17.6,7.3-24.5,13.8c14-7.7,24.8-5.5,38.3,0l-13.3,0c-0.2-0.1-0.4-0.1-0.7-0.1c-6.8-1.6-13.9-0.8-20.3,1.9
			c-2.8,1.1-5.4,2.5-7.9,4.1c-3.7,2.4-7.2,5.2-10.3,8.2c-1.7,1.6-3.3,3.3-4.8,5.1c-0.5,0.5-0.9,1.1-1.2,1.7c0.3-1.3,0.9-2.5,1.4-3.7
			c4.1-9.7,10.7-18.3,18.9-24.8C87.1,63.4,97.4,58.8,108.2,57z"/>
		<path class="st21" d="M92.6,103.3l27.8,0l-5,22.8H87.6l0.8-3.4c-11,0.1-22.1,0.2-33.1,0.1l34.1-4.3l0.8-3.8
			c-10.8,0-21.6,0.1-32.4,0.2l0-0.1c11.1-1.1,22.3-2.7,33.4-4.2l0.8-3.6c-9.5,0-19.3,0.6-28.8,0.1L92.6,103.3z M125.2,81.8
			l-3.8,17.1l-27.8,0l0.7-3.1l-21.2,0l21.9-2.9l0.8-3.6l-18.4,0L96.2,87l0.7-3.4l-14.2,0l14.6-1.8L125.2,81.8z M86.6,130.5h27.8
			l-2.6,11.6l43.9-0.3l-4.4,20l-71.7-0.1l3.7-16.6l-23.6-0.2l24.3-3l0.8-3.4l-19.9,0l20.4-2.6l0.7-3.1l-16.2,0L86.6,130.5z"/>
		<path class="st22" d="M171.4,68.6c-13.2-13.2-31.3-21.3-51.4-21.3c-20.1,0-38.2,8.1-51.4,21.3C55.5,81.8,47.3,99.9,47.3,120
			s8.1,38.2,21.3,51.4c13.2,13.2,31.3,21.3,51.4,21.3c20.1,0,38.2-8.1,51.4-21.3c13.2-13.2,21.3-31.3,21.3-51.4
			S184.5,81.8,171.4,68.6 M120,44.9c20.7,0,39.5,8.4,53.1,22c13.6,13.6,22,32.4,22,53.1c0,20.7-8.4,39.5-22,53.1
			c-13.6,13.6-32.4,22-53.1,22c-20.7,0-39.5-8.4-53.1-22c-13.6-13.6-22-32.4-22-53.1c0-20.7,8.4-39.5,22-53.1
			C80.5,53.3,99.3,44.9,120,44.9z"/>
		<path class="st23" d="M213.9,90.4l-1.4-3.4c0.7-0.3,1.2-0.6,1.6-1c0.3-0.4,0.5-0.8,0.5-1.3c0-0.5-0.2-1.1-0.5-1.8l-0.4-1
			c-0.3-0.6-0.5-1.2-0.7-1.6c-0.2-0.4-0.5-0.8-0.8-1c-0.5-0.4-1.3-0.4-2.3,0c-0.6,0.2-1.1,0.5-1.4,0.8c-0.3,0.3-0.4,0.7-0.4,1.1
			c0,0.4,0.1,1,0.3,1.7c0.4,1.2,0.8,2.4,1.2,3.4c0.4,1.1,0.6,2.1,0.7,3c0.1,0.9-0.2,1.8-0.7,2.5c-0.5,0.8-1.5,1.4-2.9,2
			c-0.8,0.3-1.6,0.6-2.3,0.7c-0.7,0.1-1.3,0.2-1.9,0.1c-0.6-0.1-1.2-0.4-1.7-0.8c-0.5-0.4-1-1.1-1.5-1.9c-0.2-0.4-0.5-1-0.8-1.7
			c-0.3-0.8-0.6-1.3-0.7-1.7c-0.5-1.3-0.9-2.3-1.1-3.2c-0.2-0.8-0.3-1.6-0.2-2.4c0.1-0.7,0.4-1.4,1-2.1c0.6-0.6,1.5-1.2,2.7-1.7
			c0.1,0,0.2-0.1,0.3-0.1c0.1,0,0.2-0.1,0.4-0.2l1.4,3.4c-0.7,0.3-1.2,0.6-1.6,0.8c-0.4,0.3-0.6,0.6-0.8,1c-0.1,0.4-0.1,1,0.2,1.6
			c0.2,0.6,0.6,1.5,1.1,2.7c0.3,0.8,0.6,1.4,0.9,1.8c0.3,0.4,0.7,0.6,1.2,0.7c0.5,0.1,1.1-0.1,1.8-0.4c0.7-0.3,1.2-0.6,1.4-1
			c0.3-0.4,0.4-0.8,0.4-1.2c0-0.4-0.2-1-0.4-1.6c-0.2-0.6-0.5-1.2-0.7-1.8c-0.5-1.5-0.8-2.7-1-3.4c-0.2-0.7-0.2-1.4-0.1-2.1
			c0.1-0.7,0.5-1.4,1.1-2c0.6-0.6,1.5-1.1,2.8-1.6c1.1-0.4,2-0.6,2.8-0.6c0.8,0,1.6,0.3,2.2,0.7c0.7,0.5,1.2,1.3,1.7,2.3
			c0.4,0.8,0.9,1.8,1.3,2.9c0.7,1.6,1.1,3,1.3,4c0.2,1,0.1,1.9-0.4,2.8c-0.5,0.9-1.4,1.6-2.9,2.2L213.9,90.4z"/>
		
			<rect x="190.6" y="70.4" transform="matrix(0.8572 -0.515 0.515 0.8572 -8.5683 113.6477)" class="st23" width="20" height="3.8"/>
		<polygon class="st23" points="200.3,54.4 187.2,64.7 192.9,72 190.3,74.1 182.2,63.7 197.9,51.4 		"/>
		<polygon class="st23" points="183.2,41.9 179.8,45.9 187,51.9 185.2,54 178,48 174.4,52.3 182,58.7 180,61.2 169.5,52.4 182.4,37 
			192.8,45.8 190.7,48.2 		"/>
		<path class="st23" d="M153.6,42.8l10-17.3l8.9,5.1c1.1,0.6,1.9,1.3,2.5,1.9c0.6,0.7,0.8,1.4,0.8,2.3c0,0.8-0.3,1.8-1,2.9
			c-0.4,0.8-0.9,1.4-1.3,1.8c-0.4,0.4-0.9,0.7-1.4,0.9c-0.6,0.2-1.2,0.1-2-0.1l-0.1,0.1c0.7,0.5,1.1,1.1,1.4,1.6
			c0.2,0.6,0.3,1.1,0.1,1.8c-0.1,0.6-0.4,1.3-0.9,2.1c-0.5,0.9-1,1.6-1.6,2.1c-0.5,0.5-1.1,0.9-1.7,1c-0.6,0.2-1.3,0.2-2,0
			c-0.8-0.2-1.6-0.5-2.5-1L153.6,42.8z M162.7,34.6l4.2,2.4c0.7,0.4,1.4,0.7,1.8,0.8c0.5,0.1,0.9,0.1,1.3-0.2
			c0.4-0.2,0.8-0.7,1.2-1.4c0.5-0.8,0.6-1.4,0.5-1.9c-0.1-0.5-0.6-0.9-1.4-1.4l-5-2.9L162.7,34.6z M158.5,42l4.2,2.4
			c0.8,0.5,1.5,0.8,2,0.9c0.5,0.1,1,0.1,1.4-0.1c0.4-0.2,0.9-0.7,1.3-1.5c0.6-1,0.7-1.7,0.5-2.3c-0.2-0.5-0.8-1.1-1.8-1.7l-4.8-2.8
			L158.5,42z"/>
		<path class="st23" d="M148.2,36.8l-8.3-2.5l-2.3,3.3l-3.8-1.1l12.1-17.2l5.4,1.6L152,42l-3.7-1.1L148.2,36.8z M148.2,33.8
			l-0.4-10.9l-6.2,8.9L148.2,33.8z"/>
		<polygon class="st23" points="118.9,16.2 118.9,24.4 120.7,24.4 127.3,16.2 132,16.2 123.9,26 132.9,36.2 128,36.2 120.7,27.6 
			118.9,27.6 118.9,36.2 115,36.2 115,16.2 		"/>
		<polygon class="st23" points="104.9,20.7 107.5,37.1 103.7,37.7 101.1,21.3 95.4,22.2 94.9,18.8 110.2,16.4 110.7,19.7 		"/>
		<polygon class="st23" points="80.7,27.4 82.7,32.2 91.4,28.7 92.4,31.3 83.7,34.8 85.9,40.1 95.1,36.4 96.3,39.3 83.6,44.4 
			76.1,25.8 88.7,20.8 89.9,23.7 		"/>
		
			<rect x="72.8" y="27.9" transform="matrix(0.8829 -0.4695 0.4695 0.8829 -9.0691 39.5279)" class="st23" width="3.8" height="20"/>
		<polygon class="st23" points="57,37.6 66.5,51.2 74.1,45.9 76,48.6 65.3,56.2 53.8,39.8 		"/>
		<path class="st23" d="M49.3,62.5l2.2-3c0.1,0.1,0.4,0.3,0.7,0.4c0.3,0.2,0.5,0.4,0.7,0.5c1.2,0.9,2,1.8,2.3,2.8c0.3,1,0.3,2-0.1,3
			c-0.4,1-1,2.1-1.9,3.4l-1.6,2.2c-1.1,1.5-2.1,2.4-3.2,2.9c-1.1,0.5-2.2,0.5-3.4,0.1c-1.2-0.4-2.5-1.1-4-2.2
			c-0.8-0.6-1.5-1-2.1-1.5c-0.6-0.4-1.1-0.8-1.5-1c-1.3-1-2.3-1.9-2.9-2.8c-0.6-0.9-0.9-1.8-0.9-2.8c0-0.9,0.2-1.9,0.7-2.9
			c0.5-1,1.2-2.1,2.2-3.5l0.8-1c0.5-0.7,1-1.3,1.4-1.7c0.4-0.5,1-0.8,1.5-1.1c0.6-0.3,1.2-0.4,1.9-0.4c0.4,0,0.8,0.1,1.2,0.2
			c0.4,0.1,0.8,0.3,1.1,0.5c0.3,0.2,0.7,0.4,1,0.6c0.3,0.2,0.7,0.5,1.2,0.8L44.3,59c-0.1-0.1-0.5-0.3-1.1-0.7
			c-0.6-0.4-1.1-0.6-1.6-0.5c-0.4,0-0.9,0.4-1.4,1c-0.3,0.3-0.6,0.7-1.1,1.4l-0.4,0.5c-0.5,0.6-0.8,1.2-1.1,1.8
			c-0.3,0.5-0.4,1-0.3,1.5c0.1,0.4,0.3,0.8,0.6,1.2c0.3,0.3,0.7,0.7,1.2,1.1c0.7,0.5,1.1,0.9,1.5,1.2c0.7,0.5,1.7,1.2,3.2,2.2
			c1.1,0.8,2,1.2,2.6,1.4c0.7,0.1,1.2,0,1.8-0.4c0.5-0.4,1.2-1.2,2-2.3c0.4-0.6,0.8-1.1,1-1.5c0.2-0.4,0.4-0.8,0.5-1.2
			c0.1-0.4,0-0.8-0.1-1.2c-0.2-0.4-0.5-0.8-1.1-1.2c-0.2-0.2-0.4-0.3-0.6-0.4C49.7,62.7,49.5,62.6,49.3,62.5"/>
		<path class="st23" d="M39.6,94l-18.1-8.5l4.3-9.3c0.5-1.1,1.1-2,1.7-2.6c0.6-0.6,1.3-0.9,2.2-1c0.8-0.1,1.8,0.2,3,0.7
			c0.8,0.4,1.5,0.8,1.9,1.1c0.5,0.4,0.8,0.8,1,1.4c0.2,0.5,0.2,1.2,0,2l0.1,0.1c0.5-0.7,1-1.2,1.5-1.5c0.5-0.3,1.1-0.4,1.8-0.3
			c0.6,0.1,1.4,0.3,2.2,0.7c0.9,0.4,1.7,0.9,2.3,1.4c0.6,0.5,1,1,1.2,1.6c0.2,0.6,0.3,1.3,0.2,2c-0.1,0.8-0.4,1.6-0.8,2.6L39.6,94z
			 M30.6,85.6l2.1-4.4c0.4-0.8,0.6-1.4,0.7-1.9c0.1-0.5,0-0.9-0.3-1.3c-0.3-0.4-0.8-0.7-1.5-1c-0.8-0.4-1.5-0.5-1.9-0.3
			c-0.5,0.2-0.9,0.7-1.3,1.5l-2.4,5.2L30.6,85.6z M38.3,89.2l2.1-4.4c0.4-0.9,0.6-1.5,0.8-2.1c0.1-0.5,0-1-0.2-1.4
			c-0.3-0.4-0.8-0.8-1.6-1.2c-1-0.5-1.8-0.6-2.3-0.3c-0.5,0.3-1,0.9-1.5,2l-2.3,5L38.3,89.2z"/>
	</g>
</g>
<g id="_x36_0">
	<g>
		<path class="st23" d="M103.6,210.4c0.5-5.1,2.7-5.9,7.6-5.4c4.2,0.4,6.9,0.9,6.3,5.9l-3.3-0.3c0.2-2.3-0.7-2.5-3.3-2.7
			c-3.1-0.3-3.7-0.2-4,2.9l-0.3,2.9l0,0c0.7-1.5,2.5-1.5,4.2-1.4c4.9,0.5,6.4,1.3,6,5.9c-0.5,5-2.3,5.8-7.6,5.3
			c-5.4-0.5-6.9-1.6-6.3-7.8L103.6,210.4z M106.3,217c-0.3,2.9,0.1,3.3,3.3,3.6c3,0.3,3.7,0.3,3.9-2.5c0.3-2.6-0.4-2.7-3.4-3
			C107.5,214.8,106.5,214.7,106.3,217z"/>
		<path class="st23" d="M136.9,212.4l0.2,3.3c0.5,6.5-1.5,7.8-7,8.1c-5.5,0.4-7.6-0.5-8.1-7.1l-0.2-3.4c-0.4-6.1,0.8-7.7,7-8.1
			C134.3,204.8,136.5,205.8,136.9,212.4z M133.9,216.7l-0.3-5c-0.3-3.7-1.1-3.9-4.5-3.6c-3.4,0.2-4.2,0.5-4,4.2l0.3,5
			c0.3,3.8,1.1,3.9,4.5,3.6C133.4,220.7,134.2,220.5,133.9,216.7z"/>
	</g>
</g>
<g id="oak-leaf-svgrepo-com_xA0_Image_00000077293063953469563010000003864231889752094897_">
</g>
<g id="oak-leaf-svgrepo-com_xA0_Image_00000125567925926412977270000000111331067359083393_">
</g>
<g id="oak-leaf-svgrepo-com_xA0_Image_00000114045446369328480160000007330286372309234079_">
</g>
<g id="oak-leaf-svgrepo-com_xA0_Image_00000116235585038854071180000002807433503350024082_">
</g>
<g id="oak-leaf-svgrepo-com_xA0_Image_00000054978282405162099980000005000800547790928265_">
</g>
<g id="oak-leaf-svgrepo-com_xA0_Image_00000110461069781937575900000008806057141053419708_">
</g>
<g id="Layer_9">
	<g>
		<defs>
			<path id="SVGID_1_" d="M120,46.1c40.8,0,73.9,33.1,73.9,73.9c0,40.8-33.1,73.9-73.9,73.9c-40.8,0-73.9-33.1-73.9-73.9
				C46.1,79.2,79.2,46.1,120,46.1 M120,5.6c63.1,0,114.3,51.2,114.3,114.3c0,63.1-51.2,114.3-114.3,114.3
				C56.9,234.3,5.7,183.1,5.7,120C5.7,56.8,56.9,5.6,120,5.6z"/>
		</defs>
		<clipPath id="SVGID_00000044170768341852616180000002320429693578105731_">
			<use xlink:href="#SVGID_1_"  style="overflow:visible;"/>
		</clipPath>
		<g style="clip-path:url(#SVGID_00000044170768341852616180000002320429693578105731_);">
			<g>
				<path class="st25" d="M198.2,199.5c-1,1.6-2.7,1.9-4.2,2.6c-1.6,0.7-1.7,0.9-0.4,2.2c1.9,1.9,1.9,1.9-0.1,3.6
					c-1.2,1.1-2.7,2.1-3.9,3.1c-0.4-1.6-0.4-1.6,1-2.3c0.6-0.3,1.3-0.4,1.7-1.1c0-0.1,0.1-0.1,0.1-0.2c-0.1,0-0.1,0-0.2,0.1
					c-0.2,0-0.5,0.1-0.7,0.1c-2.2,0.5-2.2,0.5-2.2-1.8c0,0,0-0.1,0-0.1c0-1.3-0.2-2.7,0-3.9c0.3-1.5,2.2-0.9,3-1.9
					c-0.4-0.2-0.8,0-1.1,0.1c-1.8,0.4-1.8,0.5-2-1.3c-0.1-1.2-0.1-2.4-0.1-3.7c0-0.6,0.4-0.8,0.8-1.1c1-0.6,2.1-1,3-2
					c-1.2,0-2,0.6-2.9,0.9c-0.9,0.3-1.3,0.2-1.2-0.8c0-1.3,0-2.6-0.6-4.1c0,1.8,0,3.4,0,5c-1.5-0.5-2.4-1.8-4-2.6
					c0.7,1.4,1.6,2.1,2.6,2.8c1,0.7,1.5,1.5,1.4,2.8c-0.1,1.5,0,3,0,4.6c-1.4-0.4-2.5-1.1-3.6-1.7c-0.6-0.3-0.6-0.9-0.4-1.4
					c0.3-1,0.2-2,0.2-3c0-1.5-1-2.8-2.4-3.2c-1.6-0.4-2.3-1.7-2.8-3c-0.4-1.1,0.5-2.1,2-2.2c1.5-0.1,2.3-0.7,2.6-2.2
					c0.3-1.7,1.7-2.5,2.9-3.6c0.5-0.4,0.8-0.3,1.2-0.2c1.5,0.6,2.2,1.8,2.5,3.3c0.2,1.1,0.4,2.3,0.6,3.5c0.1,1,0.6,1.6,1.7,1.5
					c1-0.1,2,0,3,0c0.9,0,1.8,0.5,2.1,1.4c0.4,1.2,0.3,2.2-0.7,3.1c-0.5,0.5-1.1,0.8-1.6,1.4c-0.6,0.7-0.5,1.8,0.2,2.4
					c0.9,0.8,1.8,1.4,2.5,2.4C198.3,199,198.3,199.4,198.2,199.5z M183.8,189.9C183.8,189.9,183.9,189.8,183.8,189.9
					c0-0.1,0-0.2-0.1-0.2c0,0-0.1,0.1-0.1,0.1C183.7,189.8,183.7,189.9,183.8,189.9z"/>
				<path class="st25" d="M188.2,210.2c0,1.6-0.1,1.7-1.6,1.1c-1.4-0.5-2.7-1-3.9-1.9c-0.7-0.5-0.8-0.9,0-1.4
					c1.5-0.9,4.2-0.6,5.3,0.7C188.3,209.2,188.1,209.8,188.2,210.2z"/>
				<path class="st25" d="M183.9,199.1c1.3,0.8,2.5,1.5,3.8,2.2c0.5,0.3,0.5,0.8,0.5,1.2c0,1.4,0,2.7,0,4.1c0,0.4,0.3,1-0.4,1
					c-0.5,0-1.3-0.2-1.3-0.9c0-0.7-0.1-1.4,0-2.2c0.7-2.7,0.6-2.9-1.8-4.1C184.2,200.2,183.7,199.9,183.9,199.1z"/>
				<path class="st26" d="M183.8,189.9c-0.1,0-0.1-0.1-0.2-0.1c0,0,0.1-0.1,0.1-0.1C183.8,189.7,183.8,189.8,183.8,189.9
					C183.9,189.8,183.8,189.9,183.8,189.9z"/>
			</g>
			<g>
				<path class="st27" d="M150.1,206.5c-0.2-0.4-0.4-1.3,0-2c1.6-2.3,2.5-2.7,4.6-1.9c0.8,0.3,1.5,0.8,2.3,1.2
					c0.8,0.5,1.6,1,2.4,1.4c0.7,0.4,1.3,0.3,1.8-0.5c0.9-1.5,2.1-2.7,3.5-3.8c0.3-0.2,0.8-0.3,1.2,0c0.5,0.3,1.1,0.6,1.6,0.9
					c0.6,0.5,0.9,1.2,0.7,2c-0.2,0.9-0.9,0.3-1.3,0.4c-0.6,0.1-1.1,0.4-1.1,1c-0.1,0.8,0.5,1.2,1.1,1.5c2.2,1,4.4,2.1,6.6,3
					c1.2,0.5,1.7,1.1,1.1,2.5c-0.3,0.7-0.6,1.5-0.6,2.4c0,0.9-0.9,1.8-0.4,2.8c0.5,1.1,1.8,0.8,2.7,1.3c0.3,0.2,1.1,0.5,0.5,0.8
					c-1,0.4-1.9,1.1-2.5,0.6c-1.1-0.8-2.1-1.8-3.2-2.6c-0.8-0.6-1-1.2-0.6-2.1c0.4-1,0.9-1.9,0.7-3c-0.5,0.8-0.9,1.7-1.3,2.6
					c-0.4,0.8-0.8,1-1.5,0.4c-1.1-0.9-2.3-1.8-3.5-2.7c-0.7-0.5-0.9-1-0.7-1.9c0.3-1.4,0.6-2.8,0.5-4.4c-0.2,0.1-0.2,0.1-0.2,0.2
					c-0.2,0.7-0.5,1.5-0.7,2.2c-0.7,2-0.7,2-2.6,1.3c-0.1,0-0.3,0-0.4,0.1c0.3,0.7,1.2,0.8,1.3,1.6c-2.3,0.8-4.8,1.1-7.6,1.7
					c2.8,0.3,5.2-0.2,7.5-0.7c1-0.2,1.7-0.1,2.4,0.6c1,1,2,1.8,3.1,2.7c1.4,1.1,1.4,1.1-0.2,1.8c-1.9,0.7-3.8,1.4-5.7,2.2
					c2.6,0,4.9-0.9,7.2-1.7c0.4-0.2,0.9-0.5,1.4-0.1c1.2,1,3.1,1.3,4.3,2.6c-2,1-2.3,1.2-4.2,2.2c-0.7,0.4-3.4,1.7-3.4,0.6
					c0-0.8-0.6-0.8-1.1-0.8c-1.5,0-3,0.5-4.4,0.8c-1.5,0.3-2.9,0.3-4.2-0.6c-0.9-0.6-1.1-1.3-0.7-2.4c0.5-1.1,1.4-2,2.2-2.9
					c0.6-0.8,0.4-1.2-0.5-1.4c-1.1-0.3-2.2,0.2-3.3,0.1c-1.3,0-2.8,0.1-3.5-1.2c-0.7-1.3,0.3-2.3,0.8-3.3c0.3-0.5,0.8-1,0.3-1.6
					C151.2,209.2,150.9,207.7,150.1,206.5z"/>
			</g>
			<g>
				<path class="st28" d="M161.7,195.6c-0.4-0.4-0.3-1.1,0-1.6c1-0.9,2.1-1.7,3.3-2.3c1-0.4,1.2-1,1.1-2.1c-0.3-3.2,0.6-5.9,3.5-7.7
					c0.1,0,0.2-0.1,0.6,0c2.5,0.5,3.7,2.3,4.7,4.4c0.5,1.1,1.1,2.3,1.7,3.4c0.5,0.9,1.1,1.1,2,0.7c1.2-0.5,2.5-1,3.8-1.4
					c1.8-0.5,3.1,0,4,1.3c1.3,1.7,0.4,3.2-0.5,4.7c-2,3.1-1.8,3.6,1.7,4.8c1.3,0.5,2.7,0.9,3.3,2.3c0.1,0.2,0.2,0.6,0,0.9
					c-0.8,1.1-1.5,2.1-2.6,2.9c-0.8,0.6-1.6,1.3-2.3,2c-0.8,0.8-0.6,1.4,0.3,2c0.8,0.5,1.8,0.7,2.6,1.4c-1.8,1.3-2.9,2-5.3,3.6
					c-0.7,0.4-0.8,0.4-1-0.3c-0.5-1.7-1.1-3.5-1.8-5.1c-0.5-1.2-0.2-1.8,0.7-2.5c1.1-0.8,2-1.7,3-2.5c-0.1-0.1-0.2-0.2-0.3-0.3
					c-1,0.7-2.1,1.3-3.1,2.1c-0.9,0.6-1.4,0.7-1.8-0.5c-0.5-1.7-1.2-3.4-1.9-5c-0.4-0.9-0.2-1.5,0.4-2.1c1.4-1.3,2.7-2.7,3.5-4.5
					c-1.1,0.8-2.1,1.7-3.2,2.6c-1.8,1.4-1.7,1.4-2.7-0.6c-0.3-0.7-0.5-1.6-1.4-2.3c0.5,1.7,1,3,1.4,4.5c-2.7-0.4-4.9-1.8-7.5-2.1
					c2.2,1.4,4.5,2.4,7,3.3c0.4,0.2,1,0.2,1.2,0.8c0.8,2.5,1.6,5.1,2.4,7.7c-3.3-0.1-6.3-1.3-9.5-1.4c0.7,0.4,1.5,0.7,2.3,1
					c2.1,0.7,4.3,1.3,6.5,1.6c1,0.1,1.6,0.5,1.8,1.5c0.4,1.5,1,3,1.5,4.4c0.6,1.8-0.1,2-1.7,2.1c-1.2,0.1-2.4-0.3-4-0.1
					c1.4,0.4,2.2,0.7,3.5,1c-1.5,0.9-2.5,1.6-3.8,2.3c-1.4,0.8-2.3,0.6-3.8-0.8c-1.2-1.1-1.4-2.2-0.7-3.5c0.4-0.8,1-1.6,1.6-2.3
					c0.8-1,0.7-1.7-0.5-2.2c-1.6-0.8-3.4-1.3-5.1-1.9c-1.3-0.5-2.5-1.1-3.3-2.3c-1.3-2-1-3.2,1.2-4.2c0.7-0.3,1.4-0.5,2-0.8
					c0.8-0.3,2.1-0.3,2.2-1.1c0.1-1-1.2-1.4-2-1.9C165,198.2,163,197.5,161.7,195.6z"/>
			</g>
			<g>
				<path class="st25" d="M58,197c-1.3,0.2-2.2,1.2-3.3,1.8c-1.1,0.5-2.1,1.1-3.5,1.8c0-2.1,0-4,0-5.9c0-0.9,0.8-1.2,1.3-1.7
					c0.9-0.8,1.9-1.5,2.3-2.7c-1.1,0.8-2.3,1.6-3.6,2.6c0-1.8,0-3.3,0-5.2c-0.7,1.5-0.6,2.8-0.6,4.1c0,0.9-0.3,1.1-1.1,0.8
					c-1-0.3-1.9-0.9-3.1-0.7c1,0.6,2,1.3,3.1,1.8c0.7,0.3,0.9,0.8,0.9,1.5c-0.1,0.5,0,1.1,0,1.6c-0.1,1,0.1,2.3-0.4,3
					c-0.6,0.8-1.7-0.2-2.7-0.2c-0.1,0-0.3,0-0.4,0.1c0,0.1,0,0.2,0.1,0.2c3.1,1.2,3.1,1.2,3.1,4.6c0,0,0,0.1,0,0.1
					c0,1.1,0.3,2.4-0.2,3.1c-0.6,0.9-1.8-0.5-2.8-0.2l0,0c-0.2-0.4-0.5-0.3-0.8-0.3c-1.7-0.5-2-1.4-0.8-2.6c0.1-0.1,0.3-0.3,0.4-0.4
					c1.1-1.1,1.1-1.4-0.4-2c-0.8-0.3-1.5-0.7-2.3-1c-0.8-0.3-1.5-0.9-2-1.6c-0.2-0.3-0.1-0.7,0-0.9c0.7-0.9,1.6-1.6,2.4-2.3
					c1.1-1,1.2-1.6,0.1-2.7c-0.4-0.4-1-0.8-1.4-1.2c-0.9-0.8-1-1.8-0.7-2.8c0.3-1,1.1-1.6,2.2-1.6c0.6,0,1.2,0,1.8,0
					c2.8,0,2.8,0,3.2-2.8c0-0.2,0-0.5,0-0.7c0.3-1.8,0.7-3.5,2.3-4.6c0.5-0.2,0.8-0.2,1.2,0c1.9,1.1,3.3,2.5,3.6,4.8
					c0.1,0.9,1,0.9,1.7,1.1c2.9,0.5,3.4,1.7,1.5,4c-0.7,0.8-1.3,1.7-2.6,2c-1.1,0.2-0.9,1.2-0.5,2c0.3,0.6,0.8,1.1,1.3,1.6
					C58,195.8,58.1,196.3,58,197L58,197z M55.8,189.8C55.8,189.8,55.8,189.7,55.8,189.8c-0.2-0.1-0.2,0-0.3,0c0,0,0.1,0.1,0.1,0.1
					C55.7,189.9,55.7,189.8,55.8,189.8z"/>
				<path class="st29" d="M58,197c1.1-0.2,1.3,0.7,1.6,1.4c0.3,0.7-0.1,1.1-0.6,1.5c-0.6,0.5-1.1,1-1.7,1.4c-0.6,0.5-1,1.1-0.1,1.7
					c0.3,0.3,0.4,0.7,0.1,1c-0.4,0.4-0.7,0.1-1-0.2c-0.6-0.6-1.1-1.3-1.6-1.9c-0.4-0.5-0.9-0.8-1.5-0.5c-0.6,0.4-0.9,1-0.4,1.6
					c0.7,1.1,0.5,2.2,0.3,3.3c-0.1,0.8-0.6,1-1.2,1c-0.8,0-0.6-0.6-0.6-1.1c0,0,0-0.1,0-0.1c-0.5-3.2,0.2-5.6,3.6-6.9
					C56,198.9,57.2,198.1,58,197C58,197,58,197,58,197z"/>
				<path class="st29" d="M51.3,210.1c0-1.6,2.7-3.2,4.3-2.5c0.6,0.3,1.6,0.4,1.7,1.1c0.1,0.8-0.9,1-1.5,1.4
					c-0.9,0.5-1.8,0.9-2.8,1.2C51.4,211.9,51.2,211.8,51.3,210.1z"/>
				<path class="st29" d="M47.2,207.5c0.5,0.7,1.4,0.9,2.1,1.2c0.7,0.3,1,0.8,0.6,1.7c-1.1-0.8-3-2.4-4.7-3.9
					c-0.3-0.3,1.9,0.9,2.1,0.8C47.3,207.3,47.2,207.5,47.2,207.5z"/>
				<path class="st26" d="M55.8,189.8c-0.1,0-0.1,0.1-0.2,0.1c0,0-0.1-0.1-0.1-0.1C55.6,189.8,55.7,189.7,55.8,189.8
					C55.8,189.7,55.8,189.8,55.8,189.8z"/>
			</g>
			<g>
				<path class="st27" d="M73.3,201c0.5-0.3,0.9-0.1,1.2,0c1.6,0.8,2.7,2.2,3.7,3.7c0.7,1,1.4,1,2.3,0.5c1.1-0.7,2.1-1.4,3.2-2
					c2.9-1.6,4.3-1.1,5.7,1.7c0.2,0.6,0.2,1.1,0,1.8c-0.3,0.8-0.4,1.2-0.8,1.7c-1.4,1.7-1.6,3.4-0.2,5.3c0.9,1.2,0.2,2.3-1.3,2.7
					c-1.2,0.3-2.3,0.2-3.5,0.1c-0.6-0.1-1.3-0.1-1.9,0c-1.1,0.1-1.3,0.7-0.6,1.6c0.8,0.9,1.6,1.7,2.1,2.8c0.5,1,0.3,1.8-0.7,2.4
					c-1.3,0.9-2.7,0.9-4.2,0.6c-1.4-0.3-2.7-0.7-4.2-0.8c-0.7,0-1.4-0.2-1.5,0.9c0,0.6-0.6,0.3-0.8,0.1c-1.1-0.5-2.1-1-3.2-1.5
					c-2.8-1.4-2.8-1.4-0.4-3.3c0.9-0.8,1.7-1.1,3-0.5c2,0.9,4.2,1.6,6.5,1.8c-0.2-0.5-0.5-0.5-0.8-0.6c-1.7-0.7-3.5-1.3-5.2-2
					c-0.8-0.3-1-0.6-0.2-1.2c1.2-1,2.4-2,3.5-3.1c0.7-0.7,1.4-0.8,2.4-0.6c2.3,0.5,4.6,0.9,7.3,0.7c-2.7-0.7-5.1-0.9-7.3-1.8
					c0.1-0.7,1-0.8,1-1.6c-2,0.8-2,0.8-2.7-1.4c-0.3-0.8-0.5-1.5-0.7-2.3c-0.3,1.5-0.1,2.9,0.3,4.3c0.3,1,0,1.5-0.8,2.1
					c-1,0.7-2,1.5-3,2.3c-1.2,1-1.4,0.9-2-0.6c-0.4-0.8-0.7-1.5-1.1-2.3c-0.2,0-0.4,0-0.5,0c2.2,3.1,1.5,5.4-1.6,7.2
					c-1.6,1-1.6,0.9-3.3-0.5c0.6-0.2,1.2-0.4,1.9-0.5c1.1-0.3,1.5-1,1.3-2.1c-0.3-1.4-0.6-2.8-1.1-4.1c-0.5-1.3-0.1-1.9,1.1-2.4
					c2.3-1,4.5-2.1,6.8-3.1c0.6-0.3,1.3-0.7,1.1-1.5c-0.2-0.7-0.8-1.1-1.6-0.9c-1,0.2-0.9-0.4-0.8-1C71.3,202,72.5,201.7,73.3,201z"
					/>
			</g>
			<g>
				<path class="st28" d="M48.4,203.2c-0.2-0.4-0.1-0.8,0-1.2c1.1-1.4,2.7-1.8,4.2-2.3c2.2-0.8,2.4-1.6,1.3-3.6
					c-0.4-0.8-1-1.5-1.3-2.3c-1.1-2.3,0.6-4.8,3.1-4.7c0.8,0,1.6,0.3,2.4,0.5c4.2,1.4,4.2,1.4,6.1-2.7c1-2.1,2.2-4.1,4.7-4.8
					c0.1,0,0.6,0,0.8,0c0.8,0.4,1.3,0.8,1.9,1.4c1.5,1.8,2,3.9,1.7,6.2c-0.2,1.2,0.3,1.8,1.3,2.3c1.3,0.5,2.4,1.2,3.1,2.4
					c0.3,0.4,0.2,0.9,0,1.2c-1,1.4-2.3,2.3-3.8,3.1c-0.8,0.4-1.6,0.9-2.4,1.4c-0.5,0.3-1.1,0.7-1,1.3c0.1,0.6,0.8,0.6,1.3,0.8
					c1.2,0.5,2.5,0.7,3.7,1.4c1.3,0.8,1.6,1.6,0.9,3.1c-0.7,1.6-2,2.5-3.6,3.1c-1.7,0.6-3.4,1.2-5.1,1.9c-1.5,0.7-1.6,1-0.6,2.4
					c0.5,0.8,1.1,1.5,1.5,2.3c0.7,1.3,0.3,2.4-0.8,3.4c-1,0.9-1.9,1.4-3.4,0.6c-1.4-0.8-3.5-2-3.6-2.1c0.7-0.6,1.7-0.4,2.4-1.1
					c-1.1-0.2-2.1,0.1-3.1,0.1c-1.7-0.1-2.4-0.9-1.9-2.5c0.4-1.2,0.9-2.5,1.2-3.7c0.3-1.2,1-1.7,2.2-1.9c2.8-0.5,5.7-1.2,8.3-2.5
					c-3.1,0.1-6.1,1.2-9.3,1.4c0.5-1.5,1.1-2.8,1.4-4.2c0.5-2.8,1.8-4.6,4.7-5.2c1.7-0.4,3.4-1.3,4.8-2.5c-2.6,0.6-5,1.8-7.6,2.3
					c0.1-1.5,1-2.7,0.8-4.1c-0.5,0.8-1,1.7-1.3,2.6c-0.4,1.4-0.9,1.3-1.8,0.4c-1.2-1.1-2.4-2.1-3.7-3.1c0.8,1.9,2.1,3.3,3.5,4.7
					c0.6,0.6,0.8,1.1,0.4,1.9c-0.8,1.7-1.4,3.5-2,5.3c-0.4,1.1-0.8,1.1-1.6,0.5c-1.1-0.8-2.3-1.5-3.5-2.2c1,1.3,2.2,2.3,3.4,3.4
					c0.3,0.3,0.9,0.5,0.6,1.2c-0.8,2.1-1.5,4.3-2.3,6.5c-1.9-1.3-3.7-2.6-5.6-4.1c0.6-0.3,0.9-0.5,1.2-0.7c2.2-1.1,2.3-1.6,0.4-3.2
					C50.9,206.1,49.4,204.9,48.4,203.2z"/>
			</g>
		</g>
	</g>
</g>
</svg>
