<?xml version="1.0" encoding="utf-8"?>
<!-- Generator: Adobe Illustrator 22.1.0, SVG Export Plug-In . SVG Version: 6.00 Build 0)  -->
<svg version="1.1" id="Layer_1" xmlns="http://www.w3.org/2000/svg" xmlns:xlink="http://www.w3.org/1999/xlink" x="0px" y="0px"
	 width="368.6px" height="289.4px" viewBox="0 0 368.6 289.4" style="enable-background:new 0 0 368.6 289.4;" xml:space="preserve"
	>
<style type="text/css">
	.st0{fill:#FFFFFF;}
	.st1{fill:#0A5A32;}
</style>
<polygon points="0,0 368.6,0 368.6,221.1 300.3,289.4 0,289.4 "/>
<rect x="27.9" y="92.2" class="st0" width="67.8" height="131.3"/>
<rect x="272.9" y="92.2" class="st0" width="67.8" height="67.4"/>
<polygon class="st1" points="306.8,159.5 314.8,183.8 340.7,183.8 319.7,198.8 327.7,223 306.8,208.1 285.8,223 293.8,198.8 
	272.9,183.8 298.8,183.8 "/>
<path class="st0" d="M171.9,105.9c-2.9-4.4-5.6-9-7.9-13.7H95.8c1.8,6,4,12,6.4,17.8c14,33.1,37.3,61.3,67,81.4
	c30.6,20.7,66.6,31.7,103.6,31.6v-63.5c-16.3,0-32.4-3.2-47.3-9.6C203.7,140.7,185.1,125.4,171.9,105.9z"/>
<rect x="111.4" y="248.3" class="st0" width="161.4" height="3.7"/>
<path class="st0" d="M52.2,241.2c1.6,1.5,2.5,3.7,2.4,5.9c-0.1,2.5-1.1,4.9-2.9,6.7l-6.8,7.5h-6.7l6.1-6.5c-2.1,0.1-4.2-0.7-5.8-2.2
	c-1.4-1.5-2.1-3.5-2-5.5c-0.1-2.2,0.7-4.4,2.3-5.9c1.9-1.6,4.3-2.4,6.7-2.3C47.9,238.8,50.3,239.6,52.2,241.2z M48.8,247.1
	c0-1.8-1.2-2.9-3.2-2.9s-3.3,1.1-3.3,2.9s1.2,2.9,3.3,2.9S48.8,248.9,48.8,247.1z"/>
<path class="st0" d="M72.3,241.2c1.6,1.5,2.5,3.7,2.4,5.9c-0.1,2.5-1.1,4.9-2.9,6.7l-6.8,7.5h-6.8l6.1-6.5c-2.1,0.1-4.2-0.7-5.8-2.2
	c-1.4-1.5-2.1-3.5-2-5.5c-0.1-2.2,0.8-4.3,2.4-5.9c1.8-1.6,4.2-2.4,6.7-2.3C68.1,238.9,70.4,239.7,72.3,241.2z M68.9,247.1
	c0-1.8-1.2-2.9-3.2-2.9s-3.3,1.1-3.3,2.9s1.2,2.9,3.3,2.9S68.9,248.9,68.9,247.1z"/>
<path class="st0" d="M77,261.5v-5l9.2-6.1c0.8-0.5,1.6-1.2,2.3-1.9c0.4-0.4,0.6-1,0.6-1.6c0-1.8-1.2-2.7-3.2-2.7s-3.6,1.1-3.4,3.8
	h-5.8c-0.2-6,2.9-8.9,9.2-8.9s9,2.9,9,7.4c0,2.6-1,4.4-4.1,6.6l-3.6,2.4l-1.6,1h9v5.1L77,261.5z"/>
<rect x="27.9" y="239.4" class="st0" width="5.7" height="22"/>
<path class="st0" d="M121.8,38.7H94.3v7.7H121v9.5H94.3v7.5h27.6v10.8H82V27.9h39.8V38.7z"/>
<path class="st0" d="M166,27.9h12.7l-19.6,46.2h-13.2l-19.7-46.2h12.8l13.5,32.6L166,27.9z"/>
<path class="st0" d="M223,38.7h-27.6v7.7h26.7v9.5h-26.7v7.5h27.6v10.8h-39.8V27.9H223V38.7z"/>
<path class="st0" d="M230.3,74.1V63.3l26.1-24.7h-25.5V27.9h40.4v10.8l-26.1,24.7h26.1v10.8H230.3z"/>
<path class="st0" d="M317.9,75.1c-4,0.2-7.9-0.4-11.7-1.6c-5.3-1.8-8.6-5.9-9.2-13.8h11.4c0.7,3.6,4.2,5.5,10.4,5.5
	c6.3,0,9.5-1.7,9.5-5c0-2.6-1.5-3.9-5.6-4.2l-9.2-0.7c-10.5-0.8-15.7-5.5-15.7-13.9c0-9.5,6.6-14.4,21.7-14.4
	c3.9-0.2,7.7,0.4,11.4,1.6c5.1,1.7,8.8,5.9,9.2,13.8h-11.4c-1-4.2-3.8-5.5-9.8-5.5c-6.6,0-8.9,1.4-8.9,4.2c0,2.4,1.5,3.7,5.3,4
	l9.1,0.8c11.1,0.9,16.3,5.1,16.3,13.9C340.7,70,333.8,75.1,317.9,75.1L317.9,75.1z"/>
<polygon class="st0" points="62.2,27.9 62.2,54.5 62.3,60 61.5,60 43.8,27.9 27.9,27.9 27.9,62 40,74.1 40.2,74.1 40.2,47.5 
	40.1,42 40.8,42 58.6,74.1 74.5,74.1 74.5,27.9 "/>
<polygon class="st0" points="291.1,72.3 291.1,27.9 278.8,27.9 278.8,60.1 "/>
<rect x="193.7" y="16.3" class="st0" width="20" height="7.2"/>
<rect x="242.1" y="16.3" class="st0" width="20" height="7.2"/>
</svg>
