<?xml version="1.0" encoding="utf-8"?>
<!-- Generator: Adobe Illustrator 26.3.1, SVG Export Plug-In . SVG Version: 6.00 Build 0)  -->
<svg version="1.1" id="Layer_1" xmlns="http://www.w3.org/2000/svg" xmlns:xlink="http://www.w3.org/1999/xlink" x="0px" y="0px"
	 viewBox="0 0 3203.7 2371.5" style="enable-background:new 0 0 3203.7 2371.5;" xml:space="preserve">
<style type="text/css">
	.st0{fill:#DF002C;}
	.st1{fill:#FFFFFF;}
	.st2{fill:#D2D2CD;}
	.st3{fill-rule:evenodd;clip-rule:evenodd;fill:#FFFFFF;}
</style>
<g>
	<path class="st0" d="M765.2,207.7l396.2,240.5c0,0,88.7-71,185.3-92.6c96.6-21.7,195.1-53.2,287.8-45.3
		c92.6,7.9,226.7,33.5,283.8,61.1c57.2,27.6,96.6,41.4,96.6,41.4l343-228.6c0,0,277.9,279.9,283.8,279.9s-59.1,116.3-59.1,116.3
		s100.5,177.4,122.2,244.4s45.3,216.8,45.3,216.8s-96.6,725.4-226.7,833.8c-130.1,108.4-248.4,256.2-346.9,299.6
		c-98.6,43.4-331.2,153.8-445.5,151.8s-394.2,43.4-583.5-76.9S844,2080.3,765.2,1999.5c-78.8-80.8-141.9-161.6-183.3-220.8
		c-41.4-59.1-130.1-343-143.9-540.1c-13.8-197.1,19.7-283.8,49.3-364.7c29.6-80.8,106.4-252.3,106.4-252.3l-76.9-86.7l76.9-138
		L765.2,207.7L765.2,207.7z"/>
	<path d="M1305.7,1768.3c0,0,23.9,107.8,70,133.9c46.2,26.1,106.4,24.9,106.4,24.9s-93.2-56.1-117.9-167.7"/>
	<path d="M1627.9,614.2l6.4-165.4l-88.1,143.9c0,0-173.3-56.2-182.6-58s146.1,128.9,146.1,128.9l-34.4,143.9l103.1-98.8l251.4,113.9
		L1627.9,614.2L1627.9,614.2z"/>
	<g>
		<path d="M2002.1,234.2c-6.6,12.8-13.3,25.7-20,38.5c-12.6-6.5-25.4-12.8-38.2-18.7c2.6-5.7,5.3-11.4,7.9-17.1
			c-15.8-7.3-31.7-14.1-47.8-20.5c-4.3,10.9-8.6,21.7-12.9,32.6c7.4,11.2,14.6,22.4,21.4,33.7c22.9,10.1,45.6,21.2,67.8,33.3
			c12.7-1.4,25.6-2.5,38.6-3.3c13.1-22.1,26.2-44.3,39.3-66.4c-6.3-11.9-12.8-23.8-19.7-35.6c-19.8-11-39.9-21.2-60.3-30.8
			c4.2-9.1,8.4-18.2,12.6-27.3c-11.9-9.6-24.1-18.9-36.6-28c28.6,11.7,56.8,24.8,84.5,39.2c-2.6,5-5.2,10-7.8,15
			c17.1,8.8,33.9,18.2,50.6,28.1c5.3-9,10.7-18,16-27.1c-7.2-13.1-14.8-26.1-22.7-39c-28.9-15.7-58.2-30-88.1-42.9
			c-13.1,2.4-26.1,5-38.9,7.9c-9,22.8-18.1,45.6-27.1,68.4c7.3,10.4,14.3,20.9,21.1,31.4C1962.1,214.4,1982.2,223.9,2002.1,234.2
			L2002.1,234.2z"/>
		<path d="M1535.7,21.1c-1.1,59.4-2.1,118.7-3.2,178.1c16.5,0.3,33.1,1,49.6,2.3c2.6-35.4,5.2-70.7,7.8-106.1
			c-1.6-16.9-3.3-33.8-5.2-50.6c4.7,16.9,9,33.9,13.1,50.8c13,36.8,24.3,73.8,33.9,111c20.4,2.7,40.8,6,61,10.1
			c13.2-65,26.3-130.1,39.5-195.1c-27.4-5.5-54.9-10-82.5-13.4c-0.3,2.7-0.7,5.3-1,8c7,4.9,13.8,9.8,20.6,14.8
			c-4,27.7-8,55.5-12,83.2c0.1,15,0.2,29.9,0.1,44.8c-2.3-14.9-4.8-29.8-7.6-44.6c-10.8-36.9-23.4-73.7-37.7-110.2
			c-33.4-3-66.9-4.3-100.4-4.2c0,2.7,0,5.4,0,8C1519.8,12.3,1527.8,16.6,1535.7,21.1L1535.7,21.1z"/>
		<path d="M1499.5,199.3c-0.1-2.9-0.1-5.7-0.2-8.6c-7.7-10.7-15.6-21.2-23.8-31.7c-23.8,1.2-47.5,3.2-71.2,6.2
			c-1.9-14.9-3.8-29.8-5.6-44.7c22.2-2.8,44.5-4.8,66.9-6.1c-0.7-11.8-1.3-23.7-2-35.5c-23.2,1.3-46.3,3.4-69.3,6.3
			c-1.2-9.2-2.3-18.5-3.5-27.8c-14.9-1.1-29.9-1.9-45-2.3c41.1-7,82.6-11.5,124.1-13.5c8.1-11.1,16.5-22,25.2-32.9
			c-0.1-2.8-0.1-5.5-0.2-8.3c-56.9,1.4-113.8,7.2-170,17.5c12.1,65.1,24.1,130.2,36.1,195.3C1406.7,205,1453.1,200.3,1499.5,199.3z"
			/>
		<path d="M1167.6,122.6c2.8-8,5.7-16,8.7-24c8.9-3.1,17.8-6,26.7-8.9c14.4,45.1,28.8,90.3,43.1,135.4c-3.2,3.8-6.4,7.7-9.5,11.6
			c0.9,2.7,1.8,5.4,2.7,8.2c23.3-7.8,46.9-14.6,70.6-20.4c-0.7-2.8-1.4-5.6-2-8.3c-4.6-1.6-9.2-3.2-13.9-4.8
			c-11.9-45.9-23.7-91.7-35.6-137.6c8.8-2.3,17.6-4.4,26.4-6.5c6.8,5.2,13.4,10.4,20,15.7c3-0.6,6-1.3,8.9-1.9
			c-4-19.6-8.1-39.2-12.1-58.8c-55.4,11.4-110.1,27.1-163.5,47.2c7,18.7,14.1,37.4,21.1,56.2
			C1162.1,124.6,1164.9,123.6,1167.6,122.6L1167.6,122.6z"/>
		<path d="M1749.6,227.8c25.8,6.5,51.4,14.1,76.7,22.9c10.3-4.3,20.8-8.5,31.5-12.4c18.3-48,36.6-96.1,54.9-144.1
			c-6.5-10.5-13.3-20.9-20.2-31.3c-31.2-10.9-62.7-20.3-94.5-28.3c-11.9,4.7-23.6,9.7-35.1,14.8c-11.1,50.2-22.1,100.4-33.2,150.6
			C1736.5,209.2,1743.2,218.5,1749.6,227.8L1749.6,227.8z M1854.7,88.6c-12.8,40.1-25.7,80.1-38.5,120.2
			c-11.8-3.8-23.6-7.3-35.5-10.6c9.9-35.8,19.8-71.6,29.7-107.3c-12.1-8.5-24.5-16.8-37.1-24.8C1800.6,72.5,1827.8,80,1854.7,88.6
			L1854.7,88.6z"/>
		<path d="M974.9,168c26.1,44.8,52.2,89.6,78.3,134.4c11.4,2.2,22.6,4.6,33.7,7.2c24.4-13.3,49.2-25.3,74.4-36.2
			c4.6-10.3,9.4-20.5,14.5-30.7c-21.7-54.6-43.4-109.2-65.1-163.8c-17.9,7.1-35.7,14.8-53.4,22.9c22.7,49.2,45.3,98.4,68,147.6
			c-11.8,5.5-23.6,11.2-35.2,17.1c-24.7-48.2-49.4-96.4-74.1-144.6c-24.4,12.5-48.4,26-72,40.5c1.4,2.4,2.9,4.7,4.3,7.1
			C957.3,168.9,966.1,168.4,974.9,168L974.9,168z"/>
		<path d="M2791.5,1106.3c-5.9-106.1-33.4-207.4-69.9-306.6c-25.9-70.5-62-136-98-201.6c-9.8-17.8-8.5-22.3,3.8-38.3
			c17.4-22.7,33.8-46.2,50.6-69.4c6-8.3,5.5-16.6-1-24.6c-25.3-31.5-49.7-63.9-76-94.5c-71.8-83.5-155.9-153.7-243-220.5
			c-9.3-7.2-16.5-4.7-25.1,1.1c-114.9,76.8-229.9,153.5-345,230.2c-116.6-60.2-249-94.2-389.5-94.2c-156.8,0-303.4,42.8-429,117.4
			C1033.7,329,898,252.9,762.4,176.6c-6-3.4-9.7-3.3-14.5,2.2c-46.2,53.3-93.4,105.8-138.7,159.8c-49.7,59.3-96.2,121.1-132.7,189.8
			c-7.8,14.8-7.6,16.7,3.7,29.2c20.3,22.7,40.6,45.3,61,67.9c7.5,8.3,9.7,16.7,4.2,27.3c-8.5,16.5-16.1,33.6-24.1,50.4
			C413.6,929.6,372.6,1166,417.4,1414.3c33.1,183.3,111.1,346.7,227.2,492.1c55,68.9,120.4,127.4,187,184.6
			c130.5,112,279.1,191.5,444.1,238.1c110.2,31.1,223.3,47.7,338.5,42.4c47.9-2.2,95.9-5,143.3-11.7
			c113.9-16.1,222.3-52.6,325.4-102.5c191-92.6,352.3-222.3,478.7-393.8c42.5-57.7,83.1-116.6,116.1-180.4
			c35.9-69.4,58.8-143.7,80.7-218.1C2793.1,1347.6,2798.2,1227.4,2791.5,1106.3L2791.5,1106.3z M1790.8,437.7
			c9.7-39.5,44.6-59.6,85.8-45c36.5,13,72,29.6,106.3,47.9c81,43.3,150.2,101.7,209.8,171.6c1.8,2.2,3.5,4.5,5.2,6.7
			c-61.6-23.4-124.2-38-187.7-45.8c-61.8-10.2-134.8-11.8-211.1-7.6c-3.8-35.1-7.8-69.2-11-103.3
			C1787.4,454.1,1788.9,445.6,1790.8,437.7L1790.8,437.7z M2272.8,734.3c11.2,8.8,21.7,20.3,28.2,32.8
			c48,91.2,77.8,187.9,86.7,290.8c5,57.6,3.1,114.7-4.5,171.2c-5.6,30.5-11.9,60.8-18.4,90.5c-12.9-31.7-24.8-63.6-38.9-94.4
			c-28.9-63.2-70.4-117.6-119.9-166.2c-69.5-68.1-139.2-136.1-208.1-204.9c-57.6-57.6-110.3-119.3-149.2-191.6
			c-6.3-11.6-11.8-23.6-17.7-35.5c-0.6-1.2-0.7-2.7-1.3-4.7c1.9-0.5,3.5-1.3,5.1-1.3c88.7-4,176.7-0.3,262.6,24.8
			C2161.6,664.7,2220.5,693.3,2272.8,734.3L2272.8,734.3z M1856.7,772.2c45.3,60.8,97.7,115.1,151.9,167.8
			c54.6,53.2,110.2,105.5,163.2,160.2c49.9,51.5,89.7,110.3,117.4,177c46,110.7,33.8,214.2-38.9,309.5
			c-97,127.3-217.6,224.6-366.7,285c-3.2,1.3-6.6,2.4-11,4.1c-0.3-3.9-0.6-6.8-0.8-9.8c-3.8-76.1-5.2-152.4-11.8-228.3
			c-10.9-124.9-33.8-247.9-62.6-369.9c-48.4-205.3-115.6-404.7-188.4-602.3c-1.2-3.3-2.4-6.6-4.2-11.6
			c37.2-6.3,73.1-12.3,109.1-18.3c10.9-1.8,21.9-3.2,32.9-4.8c18.1-2.5,26.6,2,34.9,18.9C1802.8,693,1828.1,733.7,1856.7,772.2
			L1856.7,772.2z M1109.6,1757c-50.2-49-71.5-67-117.6-119.5c-82.7-94.1-134.5-204.4-163.2-325.2c-2.7-23.2-4.1-46.7-4.5-70.2
			c-0.2-7.9-0.4-15.8-0.7-23.7c3-12.9,7.6-25.7,13.5-38.2c54.1-116,135-210,235.9-287.7c59.2-45.6,123.5-82.7,189.6-117.2
			c16.1-8.4,32.1-17.1,49.3-26.3c20.6,58.8,28.7,117.8,23.8,178.6c-5.6,70.2-28,136.4-49.5,202.6c-27.3,83.9-57.7,166.8-85.2,250.7
			c-27.4,83.4-64.4,145-71.3,232.7c-3.3,41.6-11.2,52.8-11.8,94.6c-0.1,7.5-24.9,14-30.1,13.3
			C1073.6,1715.6,1110.2,1757.6,1109.6,1757L1109.6,1757z M1163.4,769.1c-139.1,81.4-258.9,185.6-345.1,329.9
			c-0.8-37.6,0.3-75.1,6.2-111.6c1.7-10.7,3.6-21.3,5.5-31.9c23.6-107.2,68.3-206.6,134.9-297.7c27.3-37.4,62.3-64.5,108.9-74.7
			c85.1-18.6,183.1,32.2,215.6,112c-73.3,38.9-126.5,73.9-126.5,73.9L1163.4,769.1L1163.4,769.1z M1172.4,1653.6
			c4.5-80.6,44.6-143.5,69.6-220.6c23.4-72,49.1-143.3,74.3-214.7c25-70.8,48.8-141.9,61.9-216.2c16.1-90.9,14.3-180.8-13.1-269.6
			c-0.3-1-0.3-2.1-0.6-4.7c18.6-5.9,36.6-11.6,54.5-17.4c35.3-11.4,70.6-23.1,106-34.4c20-6.4,29.6-2.1,36.9,17.4
			c62.4,166,119.2,333.8,163.6,505.6c29.7,115,54,231.2,70,348.9c11.6,85.1,21.7,170.4,21.2,256.5c-0.1,19.7-1.9,39.3-3.1,58.9
			c-1.1,18.8-13.5,33.8-31.9,38.2c-159.6,38.5-315.8,27.9-468.7-31.8c-20.9-8.2-41.2-18.3-62-26.8
			c-37.2-15.1-132.3-85.5-131.9-123.5C1119.6,1689.6,1170.7,1683.6,1172.4,1653.6L1172.4,1653.6z M1772.3,365.9
			c-56.2,62-41.1,132-23.6,203.1c-56.5,4.8-113.8,12.3-168.8,21.3c-36.1-76.3-72.5-152.5-108.8-228.7c-0.8-1.6-1.2-3.3-1.8-4.9
			C1524.8,335.2,1702.5,335.7,1772.3,365.9L1772.3,365.9z M1380.6,373.5c14.2-3.9,28.2,0.6,35,13.4
			c37.6,70.8,74.8,141.8,112.1,212.8c-60.7,13-127.7,40.5-187.6,69.5c-47.1-107-131.5-150.8-251.9-137.1c6.9-5.8,11.1-9.4,15.4-12.9
			C1185.9,451.5,1277.6,401.8,1380.6,373.5L1380.6,373.5z M2713.6,1313.7c-18.4,155.4-70.2,299-153.9,431.1
			c-90.1,142.3-205.2,260.5-344.3,355.5c-165.3,112.9-347.2,180.2-547,197.7c-124.8,10.9-247.9-1.1-367.8-35.7
			c-213.8-61.6-396.2-175.7-546.6-339.6c-116-126.4-203-269.2-243.8-438.1c-21.3-88-39.6-176.2-37.1-267.2c1-35.4,5.4-70.6,8-106
			c7.8-106.3,33.8-208.2,75-306.1c20-47.5,42.2-94.1,63.5-141c11.6-25.5,8.6-48.6-10.4-69.6c-11.8-13-23-26.5-34.7-39.6
			c-20.5-22.8-21.6-17.7-3.6-45.6c56.2-86.4,121.8-165.4,190.5-242c6.9-7.7,11.5-9.3,21.1-3.9c101.4,57.7,203.2,114.8,304.8,172.2
			c2.2,1.2,12.4,7.7,17.9,11.3c-211.9,153.6-349.6,403.8-349.9,687.2c0,17.3,0.5,34.5,1.6,51.5c-0.1,0.8-0.1,1.5-0.1,1.9
			c0.2,2,0.4,4.1,0.6,6.3c0.3,4.1,0.6,8.2,0.9,12.3c2.3,31.4,4.9,75.8,13.8,108.1c18.7,135,95.6,288.8,200.2,402.6
			c215.2,223,486.2,312.9,789,256.7c291.2-54.1,488.8-212.2,613.7-482.9c24.3-59.5,45.2-132.8,53.7-188.5
			c2.8-13.3,5.3-26.7,7.1-40.2c1.5-11.6,2.6-23.2,3.4-34.9c3.6-31.7,5.6-63.9,5.6-96.6c0-39.2-2.8-77.7-8-115.4
			c-0.1-1-0.3-1.9-0.4-2.9c-33.9-239.9-168.8-447.1-360.6-577.8c-0.6-0.5-1.2-1-1.8-1.4c-0.2-0.2-0.6-0.2-0.9-0.4
			c-5.3-3.6-10.7-7.1-16.1-10.6c5.5-4.3,11.2-8.8,13.2-10.1c86.2-57.9,172.4-115.8,258.6-173.7c15.7-10.5,22.1-10.8,36.2,1.7
			c39.6,35.2,80.3,69.3,117.8,106.6c37.2,37,71.3,77.2,106.3,116.5c10.3,11.6,9.4,16.2,0.4,28.3c-11.5,15.5-23,31.1-34.1,46.9
			c-15.7,22.3-18.4,46.3-6.6,71.1c5.2,10.9,11.6,21.4,18,31.7c69.8,113.7,112,238.3,139.6,367.6
			C2728.1,1109.5,2725.7,1211.8,2713.6,1313.7L2713.6,1313.7z"/>
	</g>
	<path d="M2383.6,1716.7c-8.4,9.7-15.4,19.8-24.4,27.7c-28.1,24.9-62.6,31.2-98.7,31c-37.6-0.2-75.2-1.8-112.8-2
		c-25.6-0.2-50.5-3.3-75.3-9.6c-9.5-2.4-20.7-2.3-30.3,0c-20.3,4.9-40.5,7.7-61.5,6.7c-22.5-1.1-45.1-1.4-67.6-0.8
		c-30.3,0.8-60-1.7-88.9-10.9c-6.4-2-12.6-4.6-17.9-4.8c-24,4.7-47.8,11.9-72,13.5c-32.8,2.3-66.2,3.3-98.7-0.7
		c-29.6-3.6-58.1-1-87.4-0.1c-104.5,3.1-209.1,3.1-313.6,1.9c-22.8-0.3-45.4-10.4-68.1-15.9c-2.4-0.6-5.8-1.4-7.5-0.3
		c-22.1,14.3-47.5,18.1-72.5,19.7c-42.5,2.7-85.2,4.4-127.7,2.6c-32.5-1.4-64.7-9.5-89-34.1c-9.4-9.6-16.2-21.7-24.5-33.1
		c-5,6-10.8,11.9-15.2,18.7c-11,17-26.8,28.6-43.1,39.6c-2,1.4-4.3,2.8-6.6,3.4c-27.1,6.2-53.9,13.4-82.3,13.5
		c-45.5,0.1-90.9,2.7-136.3,4.1c-43.4,1.4-82.7-8.7-113-41.2c-6.5,6.2-12.6,12.2-18.9,18c-25.1,23.3-56.7,29.4-89,31.7
		c-51.8,3.6-103.7,7-155.5,7.4c-33.9,0.2-67-8.8-92.3-33.7c-24.9-24.6-48.7-50.3-72.1-76.3c-5.4-6-8-14.9-10.6-22.9
		c-8.8-26.8-11.2-54.3-10.3-82.5c0.9-27.5,1-55.2,0-82.7c-1-29.2,2.2-57.7,10.3-85.8c5.4-18.6,16.8-33,30.5-45.5
		c28.4-26.2,65.6-27.5,100.9-33.5c12-2,24.1-3.1,37.3-4.8c0.2-3.6,0.5-7,0.5-10.5c-0.1-23.6-0.1-47.3-0.5-70.9
		c-0.1-3.5-1.3-8.1-3.7-10.1c-18.1-15.6-28.6-34.9-35.8-57.9c-11-35.3-5.5-68.8,5.4-102c4-12,12.6-23.9,22.2-32.4
		c13.1-11.6,26.7-23.4,45.4-27.1c62.4-12.5,124.5-26.4,187-38.4c59.7-11.4,119.6-21.4,179.6-31.2c8.7-1.4,18.1,2.4,27.2,3.1
		c4.2,0.3,8.6-1,12.6-2.2c4.3-1.3,8.3-4.4,12.7-5.2c49.7-8.5,99.2-17.8,149.1-24.8c53.4-7.4,107.3-12,160.8-18.8
		c23.8-3,44.8,7.2,67.2,10.9c2.8,0.5,6.7,1.4,8.3,0c21.6-18.2,48.8-20,74.5-24c29.6-4.6,59.9-5.7,89.9-6.9
		c121.1-4.7,242.2-9.8,363.4-12.8c69.6-1.7,139.3-0.1,208.9,1.1c17.7,0.3,35.2,4.9,52.9,6.9c8.3,0.9,21.1-2.1,29.5-2.6
		c15.2-0.9,26.2-1.2,41.3-0.8c40.8,1.2,81.6,2.9,122.3,6.1c99.4,7.8,198.7,16.2,298,25c28.1,2.5,55.9,7.7,83.9,11.1
		c48.9,5.9,98,10.8,146.9,17.4c22.2,3,45.1,6.5,65.7,14.8c13.6,5.5,25.1,2.3,38,1.3c12.9-1,25.7,3.1,38.6,5.5
		c39,7.3,78.5,13.1,116.5,23.9c16.3,4.7,31.5,4.5,47.5,5.8c19.8,1.6,39.4,6.7,59,10.9c53.8,11.5,107.9,22.2,161.2,35.7
		c15.1,3.8,30.3,14,41.3,25.3c30.6,31.5,59.2,64.9,88.2,98c3.8,4.3,5.7,10.5,7.6,16.2c14,40.2,12.6,82,9.9,123.2
		c-1.3,20.8-10.7,41-16.3,61.6c-0.6,2.1-0.7,4.8,0.1,6.7c10.2,23.8,16.6,48.5,16.7,74.5c0.2,59.4,1.1,118.9-0.4,178.3
		c-0.8,33.5-8.6,65.9-32.4,91.9c-2.6,2.9-5.7,5.4-8.8,7.7c-18.6,14-38,26.9-55.6,42.1c-25.2,21.7-53.7,34.7-86.3,39.4
		c-4.2,0.6-8.6,1-12.8,0.8c-53.6-2.3-107.4-3-160.9-7.7c-28.7-2.5-58.6-6.9-81.4-28.5c-5.2-5-9.3-3.9-14.7,0.2
		c-21.4,16.5-47.6,21.1-72.7,21.3c-56.9,0.4-113.8-2.1-170.6-5.4c-33.6-1.9-67.1-7.5-93.1-32.1
		C2402.1,1739.6,2393.3,1727.8,2383.6,1716.7L2383.6,1716.7z"/>
	<g>
		<g id="Juventus">
			<path class="st1" d="M247.4,1128.2c0,7.7,0,15.4,0.1,23.1c15.5,8.5,30.9,17.2,46.4,26.1c0.4,132.6,0.9,265.1,1.3,397.7
				c-22.6,1.7-45.3,3.4-67.9,5.2c-0.1-46.3-0.2-92.7-0.3-139c-37.3,4.5-74.6,9.2-111.9,14.1v170.9c19.5,18.7,39.1,37.9,58.8,57.4
				c58.6-2.9,117.3-5.7,176-8.3c19.3-21.7,38.6-43.6,57.8-65.9c-0.8-171-1.5-341.9-2.3-512.9C352.7,1106.6,300,1117.1,247.4,1128.2
				L247.4,1128.2z M673.5,1052c0.9,166.2,1.9,332.5,2.8,498.8c-29.2,1.5-58.4,3.2-87.6,4.9c-0.9-163.5-1.8-326.9-2.7-490.4
				c-51.9,8.2-103.7,17-155.5,26.4c0,8.1,0.1,16.2,0.1,24.2c14.9,9.3,29.9,18.9,44.9,28.6c0.8,152.8,1.5,305.6,2.3,458.3
				c19.7,21.4,39.5,43.1,59.2,65.1c64.3-2.4,128.6-4.6,192.9-6.5c19.3-24.2,38.5-48.6,57.8-73.2c-1-183.7-2-367.4-3-551.2
				C747.6,1041.7,710.5,1046.7,673.5,1052L673.5,1052z M1030.5,1408.6c-2.8,44.7-5.5,89.4-8.2,134.1c-3.3-44.4-6.6-88.9-9.8-133.2
				c-18.6-131.5-37.2-262.1-55.8-391.8c-50.6,5.1-101.2,10.7-151.8,16.9c0,8.7,0.1,17.4,0.1,26.1c15.7,11.3,31.4,22.8,47.1,34.4
				c32.6,184.2,65.2,371.2,97.7,560.5c48.5-1.1,97.1-2.1,145.6-3c34.6-216.3,69.4-434.8,104.3-654.6c-38.9,2.4-77.8,5.2-116.7,8.3
				C1065.5,1141,1047.9,1275.2,1030.5,1408.6L1030.5,1408.6z M1502.7,1511.4c-54.6,0.3-109.1,0.9-163.7,1.8
				c-0.1-49.6-0.2-99.3-0.3-148.9c48.9-1.1,97.9-1.9,146.8-2.5c0-39.5-0.1-78.9-0.1-118.4c-49,0.6-98,1.7-147,3.1
				c-0.1-30.8-0.2-61.7-0.2-92.6c-30.2-8.8-60.3-17.3-90.5-25.7c84.8-3.9,169.7-6.4,254.6-7.6c17.6-35.7,35.3-71.4,53-107
				c0-9.2,0-18.4,0-27.7c-112.1,0.9-224.2,4.6-336.2,11.2c1,217.5,1.9,435,2.9,652.5c111.2-1.2,222.4-1.7,333.6-1.6
				c0-9.5,0-19.1,0-28.6C1537.9,1583.4,1520.3,1547.3,1502.7,1511.4L1502.7,1511.4z M1850.1,1016.4c14.8,13.7,29.6,27.4,44.4,41.1
				c-0.2,92.6-0.5,185.2-0.7,277.9c4.8,49,9.6,97.9,14.4,146.8c-10.1-47.6-20.2-95.3-30.3-143.1c-33.9-116.9-67.9-234.2-101.9-351.6
				c-65.9-1.7-131.9-2.4-197.9-2.1c0,8.9,0,17.8,0,26.8c16,14.2,31.9,28.5,47.9,42.9c0,197.7-0.1,395.4-0.1,593
				c39.6,0,79.2,0.1,118.8,0.3c0.2-117.9,0.3-235.7,0.4-353.6c-6-55.6-12-111.3-18-167c11.7,55.3,23.3,110.6,35,165.8
				c34.1,118.8,68.2,237.4,102.1,355.5c49.2,0.4,98.4,1,147.6,1.7c0.8-217.6,1.5-435.2,2.2-652.9c-54.6-3.4-109.2-6.1-163.9-8.2
				C1850.1,998.7,1850.1,1007.6,1850.1,1016.4L1850.1,1016.4z M2030.8,1195.6c6,0.3,12.1,0.6,18.1,0.9
				c11.1-20.9,22.1-41.7,33.2-62.4c18.9,1.2,37.7,2.4,56.6,3.7c-0.7,153.7-1.3,307.4-2,461.2c-9.9,8.5-19.8,16.9-29.6,25.5
				c0,9.3-0.1,18.6-0.1,27.9c58.1,1,116.3,2.2,174.4,3.6c0.1-9.1,0.1-18.3,0.1-27.4c-9.5-8.8-19.1-17.6-28.6-26.5
				c0.8-151.8,1.5-303.6,2.2-455.3c18.4,1.5,36.7,3.2,55,4.8c10.9,21.9,21.7,43.7,32.5,65.4c6.3,0.5,12.6,1.1,18.8,1.7
				c0.3-63.2,0.7-126.3,1-189.5c-110.1-12.8-220.5-22.8-331.1-30C2031.3,1064.6,2031.1,1130.1,2030.8,1195.6L2030.8,1195.6z
				 M2630.4,1556c-29.2-1.7-58.4-3.3-87.6-4.9c0.9-166.1,1.9-332.1,2.8-498.2c-52-7.5-104.1-14.4-156.2-20.7
				c-0.1,8.7-0.1,17.4-0.1,26.2c14.9,14.7,29.9,29.3,44.8,43.9c-0.9,162-1.8,324.1-2.7,486.1c19.5,24.6,39,49,58.6,73.2
				c64.3,2,128.6,4.2,192.9,6.6c19.5-22,39-43.7,58.5-65c0.9-172.8,1.7-345.6,2.5-518.4c-36.9-6.5-73.8-12.7-110.8-18.6
				C2632.1,1229.5,2631.3,1392.7,2630.4,1556L2630.4,1556z M3085.2,1299.1c0-28,0-56,0-84c-24.5-25.4-48.9-51.2-73.4-77.3
				c-61.5-13.5-123.1-26.2-184.9-37.9c-21.2,17.3-42.4,35-63.6,53.2c-0.3,71.8-0.7,143.6-1,215.4c22.2,22.9,44.3,45.6,66.5,68
				c47.3,4.9,94.6,10.1,141.8,15.6c-0.1,40-0.2,80.1-0.3,120.1c-31.5-2.5-63.1-5-94.7-7.3c0.1-17.9,0.1-35.7,0.2-53.6
				c-38-3.4-76.1-6.6-114.2-9.7c-0.2,34.2-0.3,68.4-0.5,102.6c25.1,23.7,50.3,47.1,75.4,70.1c58.6,2.5,117.1,5.2,175.7,8.1
				c24.3-18.8,48.5-37,72.7-54.8c0-68.7,0-137.4,0.1-206.1c-23.6-22.2-47.2-44.8-70.8-67.7c-45.9-7.4-91.8-14.4-137.8-21.1
				c0.1-28.5,0.2-57,0.3-85.5c-29.5-15.2-58.9-30.6-88.4-46c61,9.6,122,19.9,182.8,31c0,15.6-0.1,31.2-0.1,46.8
				C3009.2,1285.5,3047.2,1292.2,3085.2,1299.1L3085.2,1299.1z"/>
		</g>
		<g id="Shape_28_copy_2">
			<polygon class="st2" points="1954.1,1058.8 1955.9,1650.2 2012.1,1650.9 2014,998 			"/>
		</g>
		<g id="Shape_29_copy_2">
			<polygon class="st2" points="1876.7,1333.8 1775.9,987.1 1737.1,1037.3 1900.5,1649.1 1908.1,1480.5 			"/>
		</g>
		<g id="Shape_34_copy_2">
			<polygon class="st2" points="2253.1,1601.4 2255.2,1147.1 2194.7,1211.4 2193.9,1654 2281.9,1656.1 2281.9,1628.2 			"/>
		</g>
		<g id="Shape_42_copy_2">
			<polygon class="st2" points="227,1441.3 168.6,1507.8 174,1683.6 227.4,1580.1 			"/>
		</g>
		<g id="Shape_30_copy_2">
			<polygon class="st2" points="1727.5,1129.2 1687.6,1198.5 1681.2,1648.2 1744.9,1648.3 1745.3,1294.3 			"/>
		</g>
		<g id="Shape_19_copy_2">
			<polygon class="st2" points="405.5,1096.7 342.7,1187.7 350,1675.5 407.8,1609.7 			"/>
		</g>
		<g id="Shape_20_copy_2">
			<polygon class="st2" points="784.7,1036.8 725.1,1112.5 729.9,1661.3 787.8,1588.1 			"/>
		</g>
		<g id="Shape_21_copy_2">
			<polygon class="st2" points="586,1065.3 525.3,1129.7 525.3,1559.4 536.9,1667.8 588.7,1555.7 			"/>
		</g>
		<g id="Shape_59_copy">
			<polygon class="st2" points="2917.8,1386.3 2762.2,1368.5 2829,1436.7 2970.7,1452.3 			"/>
		</g>
		<g id="Shape_52_copy_2">
			<polygon class="st2" points="2788.7,1201.4 2817.8,1262.9 2817.8,1325.2 2876.7,1332.9 2876.9,1247.3 			"/>
		</g>
		<g id="Shape_51_copy_2">
			<polygon class="st2" points="2833.2,1535.8 2836.5,1674 2875.7,1564.8 2875.8,1511.3 			"/>
		</g>
		<g id="Shape_22_copy_2">
			<polygon class="st2" points="1129,1078.1 1036,1653.8 1095.4,1652.6 1199.7,997.9 			"/>
		</g>
		<g id="Shape_24_copy_2">
			<polygon class="st2" points="1555.3,986 1452.5,1059.4 1368.7,1089.4 1248.4,1128.1 1502.6,1120.7 1555.5,1013.4 			"/>
		</g>
		<g id="Shape_25_copy_2">
			<polygon class="st2" points="1485.4,1243.3 1416.9,1308 1269.5,1365.3 1485.7,1361.9 			"/>
		</g>
		<g id="Shape_27_copy_2">
			<polygon class="st2" points="1502.7,1511.3 1449.9,1585.5 1220.2,1648.6 1555.7,1648.1 1555.7,1619.3 			"/>
		</g>
		<polygon class="st2" points="909.9,1106.3 956.5,1017.7 1012.6,1409.5 1022.3,1542.3 995.1,1654.3 		"/>
		<g id="Shape_32_copy_2">
			<polygon class="st2" points="2688.8,1129.2 2683,1668.1 2741.4,1603.2 2743.9,1084.8 			"/>
		</g>
		<g id="Shape_33_copy_3">
			<polygon class="st2" points="2490.7,1106.3 2490.2,1661.4 2543,1551.1 2545.8,1052.9 			"/>
		</g>
		<g id="Shape_54_copy_2">
			<polygon class="st2" points="2269.9,1086.7 2070.1,1099.6 2030.8,1195.6 2049.2,1196.6 2082.1,1134.2 2310.2,1151.6 2342.9,1217 
				2361.7,1218.8 2362.7,1028.9 			"/>
		</g>
		<g id="Shape_55_copy_2">
			<polygon class="st2" points="3085.1,1421.2 3015.4,1458.4 3012.3,1682.4 3085.3,1627.7 			"/>
		</g>
		<g id="Shape_58_copy_3">
			<polygon class="st2" points="3011.8,1137.8 2941.3,1186.4 2788.7,1201.4 2971.1,1232.4 2971,1279.2 3085.3,1299.3 3085.3,1215.1 
							"/>
		</g>
	</g>
	<path class="st1" d="M3134.7,1362.9c24.5-20.3,28.4-50.4,28.5-74.5l0.1-10.7c0.1-16.8,0.2-34.1-0.2-51.3
		c-0.6-27.9-10.1-51.3-28-69.5c-14.9-15.1-29.8-31-44.2-46.3c-6.4-6.8-12.7-13.5-19.1-20.2c-13.6-14.4-29.1-23.2-47.4-26.9
		c-68.7-13.9-121.6-25-171.7-36c-9.8-2.2-18.7-3.2-27.1-3.2c-10.9,0-21.2,1.8-30.8,5.4c-19.6-17.2-43.7-21-55.9-22.9l-1.9-0.3
		c-28-4.4-56.9-9-85-14.3c-6.7-1.3-13.3-1.9-19.7-1.9c-12.8,0-24.7,2.5-35.7,7.6c-11.2-10.5-24.7-17-40.2-19.5
		c-5.4-0.8-10.7-1.7-16.1-2.6c-14.4-2.4-29.3-4.9-44.4-6.7c-22.5-2.7-45.4-5.2-67.5-7.6c-16.6-1.8-33.2-3.6-49.8-5.5
		c-18.7-2.2-37.3-4.5-56-6.8c-35.2-4.4-71.5-8.9-107.6-12.2c-74.7-7-148.2-12.2-210.1-16.4c-53.9-3.6-103.5-5.9-151.5-7.1l-1.4,0
		c-12.7,0-23.7,4-32.5,7.3c-1.7,0.6-3.3,1.2-4.8,1.7c-13.7-7.8-29.5-11.7-48.1-11.9c-19.5-0.2-39-0.6-58.6-0.9
		c-34.4-0.6-69.9-1.2-105-1.2c-23.1,0-43.9,0.2-63.6,0.8c-116.8,3.1-235.4,8.2-350.1,13.1l-44.8,1.9c-25.3,1.1-52.6,4.1-83.4,9.1
		c-21.2,3.5-38.4,15.5-48.9,33.4c-14.6-16.5-35.2-25.5-60.3-25.5c-3.3,0-6.6,0.2-10,0.5c-46.9,4.2-94.3,9.9-140.1,15.5
		c-10.4,1.3-20.8,2.5-31.2,3.8c-20.5,2.4-41,5.3-61,8.1c-11,1.5-22,3.1-33,4.5c-14.3,1.9-39.7,5.3-59.8,22.9
		c-10.3-5.1-21.3-7.7-32.3-7.7c-3.5,0-7,0.3-10.5,0.8c-56.1,8.5-112.4,18.9-164.8,28.8c-45.4,8.6-91.4,17.9-135.9,26.9
		c-16.1,3.3-32.3,6.5-48.5,9.8c-25.4,5.1-45.5,22.1-53.8,45.5c-4.7,13.3-11.7,39.8-5.8,68.3c5.5,26.6,21.2,47.6,44.6,60.3
		c0,30.6,0.2,61.5,0.4,91.4c0.1,13.2,0.2,26.4,0.2,39.6c0,1.8,0,3.7,0,5.5c-31.1,3.5-62.5,7.6-92.8,11.5l-2.9,0.4
		c-55.1,7.2-81.6,35.1-83.4,88.1c-1.6,46.3-1,93.2-0.5,138.5l0.2,19.6c0.3,26.9,7.9,47.5,23.4,63.1c19.5,19.6,40.4,39.9,62.3,60.5
		c14.9,14,34.3,21.1,57.7,21.1c1.5,0,3,0,4.5-0.1c58.5-2.2,117.1-5.3,166.8-8c27.3-1.5,49.8-12.5,66.8-32.9
		c9.9-11.8,20-23.3,30.6-35.2c9.2,10.1,18.1,19.8,26.9,29.8c17.4,19.8,40.4,30.2,66.4,30.2l2,0c55.8-1.2,115.7-3.1,183.1-5.9
		c32.7-1.4,66.4-21.8,84.2-46.9c12.1-17.2,17-23.9,29.1-44.9l6.9-10.3c9.1-14.6,9.8-15.9,13.8-23.2c3.1,17.3,8.9,34,12.2,50.3
		c4.5,25.2,21.4,67.6,84.2,68.6c9,0.1,18,0.2,27,0.2c35.2,0,71.7-1.1,111.5-3.3c30.6-1.7,52.9-12.6,66.7-32.5
		c14.9,19.9,38.5,29.9,70.6,29.9c118.8-0.1,222.9-0.7,318.4-2c13.2-0.2,24.8-4.4,34.1-7.9c2.5-0.9,4.9-1.8,7.2-2.5
		c2.1,0.7,4.4,1.6,6.9,2.6c8.5,3.3,19,7.4,31.2,7.8c19.9,0.8,40.3,1.1,62.4,1.1c15.6,0,31.6-0.2,48.9-0.6
		c33.6-0.7,53.3-13.2,64.8-27.1c4.1,4.7,9.1,9.1,15,12.6c15.9,9.2,34.2,14.7,51.6,15.5c26.9,1.1,53.9,1.3,80.1,1.4
		c14.7,0.1,29.4,0.1,44.1,0.4c1.1,0,2.3,0,3.4,0c10.7,0,36.5,0,59.5-16.5c23,17.6,49.5,18.1,60.4,18.3c19,0.3,38,0.8,57,1.3
		c31.7,0.8,64.5,1.6,96.9,1.8h0.6c48.5,0,81.1-26.8,87.3-71.6c1.1-8.1,2.9-20.8,2-35.1c2.8,5,6.1,9.7,9.8,14.2l7.4,8.8
		c12.9,15.3,25,29.8,35.5,45.2c19.9,29.4,48.9,44.1,88.8,45.2c26.1,0.7,52.7,1.6,78.5,2.5c30.2,1.1,61.5,2.1,92.3,2.8
		c0.9,0,1.8,0,2.6,0c28.1,0,52.1-10.6,69.3-30.6c2.7-3.1,5.4-6.2,8.1-9.3c6.4,5.8,12.5,11.4,18.3,17.3c18,18.1,41.1,28,68.5,29.4
		c52.9,2.8,108,5.2,163.6,7.2c1.2,0,2.4,0.1,3.7,0.1c20.3,0,39.1-6.3,54.6-18.1c4.5-3.5,9-7,13.5-10.5
		c15.6-12.1,30.3-23.6,45.8-33.7c28.8-18.8,43.3-47,43.3-83.8c0-15.1-0.1-30.3-0.1-45.4c-0.1-43.1-0.3-87.6,0.4-131.3
		c0.5-33.6-8.9-60.3-28.6-81L3134.7,1362.9z M3104.7,1375.5c22.1,17.5,29.5,40.3,29.1,67.9c-0.9,59.1-0.3,118.2-0.3,177.2
		c0,24.8-8,44.7-29.9,59.1c-21.2,13.9-41,30-61.1,45.5c-10.9,8.4-23.5,12-36.6,12c-0.9,0-1.7,0-2.6-0.1
		c-54.4-1.9-108.8-4.3-163.1-7.2c-18.6-1-35.4-7-49.2-20.8c-13.1-13.1-27.2-25.2-41.3-38.2c-9.9,11-19.4,21.2-28.5,31.8
		c-12.5,14.5-28.9,20.3-46.9,20.3c-0.6,0-1.3,0-2,0c-56.9-1.3-113.8-3.8-170.7-5.3c-26.9-0.7-49.1-11.5-65.1-32.2
		c-0.2-0.2-0.6-0.6-0.9-0.9l-96.9-121.2l-7.3,75c-1.5,10.3-2.3,20.2-3.2,26.6c-4.6,33.6-29,46.1-58,46.1c-0.2,0-0.3,0-0.5,0
		c-51.2-0.2-102.4-2.2-153.6-3.1c-25.5-0.5-47.4-7-60.2-34.5c-13.5,26.8-35.4,32.7-60.3,32.7c-1,0-1.9,0-2.9,0
		c-41.2-0.7-82.4,0-123.5-1.8c-12.9-0.6-26.8-5-38-11.5c-7.9-4.6-13.7-13.9-17.1-23l-16.9-65.4l-9.9,66.8c-0.8,2.1-1.9,4.5-3.3,7.4
		c-9.3,19.4-28.6,24.3-48,24.7c-16.1,0.4-32.2,0.6-48.3,0.6c-20.4,0-40.9-0.3-61.3-1.1c-11.2-0.4-22.1-6.7-33.3-9.9
		c-2-0.6-4.2-0.9-6.4-0.9c-1.3,0-2.6,0.1-3.8,0.4c-12.6,3.3-24.9,10.3-37.4,10.4c-106,1.4-211.9,1.9-317.9,2h-0.1
		c-20.4,0-40.9-4.7-51.2-24.9c-5.4-10.7-3.5-7.7-6.1-14.8c-0.5-2.5-1.2-4.6-2-6.6l-12.5-77.7c0,0-8.8,50.9-12.3,74.6
		c-0.4,1.6-0.8,3.8-1.3,6.8c-6.1,34.1-25.7,43.6-53.7,45.2c-36.6,2-73.2,3.2-109.8,3.2c-8.8,0-17.7-0.1-26.5-0.2
		c-22-0.4-41.1-6.9-50.7-28l-35.4-129.7l-18.6,29.4l-70.5,107.6c-13.8,16.7-36.7,26.3-56.8,27.1c-60.8,2.5-121.7,4.6-182.5,5.9
		c-0.5,0-0.9,0-1.4,0c-17,0-32.3-6.7-44.2-20.2c-16-18.2-32.6-35.9-49.4-54.4c-18.2,20.6-36,40.1-52.9,60.3
		c-12.1,14.5-27.6,21.3-45.7,22.3c-55.4,3-110.8,5.8-166.3,8c-1.1,0-2.2,0.1-3.4,0.1c-13.6,0-27-3.3-37.5-13.1
		c-20.9-19.6-41.4-39.5-61.6-59.8c-11.5-11.6-14.6-27.1-14.8-42.6c-0.6-52.3-1.6-104.6,0.2-156.8c1.2-36.3,14.3-54.1,57.7-59.8
		c33-4.3,66-8.6,99.1-12.2c1-0.1,2-0.2,3-0.2c5.9,0,12.2,1.7,19.4,2.5c0-12.3,0-24.6,0-36.9c-0.2-46.2-0.7-92.4-0.6-138.6
		c0-7.3-1.6-12.1-8.7-15c-44.4-18.2-42.5-66-31.9-96c4.8-13.6,16.5-23.3,31.7-26.4c61.3-12.3,122.6-25,184-36.6
		c54.4-10.3,109-20.3,163.8-28.6c2-0.3,4.1-0.5,6.1-0.5c14.2,0,27.6,7.5,38.5,19.7c10.8-26.2,33.4-31.9,57.5-35.1
		c31.2-4.2,62.3-8.8,93.6-12.5c56.8-6.8,113.5-14.1,170.4-19.2c2.5-0.2,5-0.3,7.4-0.3c27.9,0,49,15.4,53.9,55.3
		c2.7,21.8,6.2,43.5,11.9,65.3c2.4-18.1,4.7-36.2,7.3-54.3c2-13.8,3.9-27.7,7.1-41.2c4.2-17.8,15.8-30.5,33.8-33.4
		c26.4-4.3,53.2-7.6,79.9-8.7c131.5-5.6,262.9-11.5,394.5-15c20.9-0.6,41.9-0.8,62.9-0.8c54.4,0,108.8,1.4,163.2,2
		c14.3,0.2,28.3,3.1,40.3,12.3c1,0.8,3.1,2.8,4.8,3.8c2.1-1.5,3.9-3,6-4.3c7.6-3.7,23.1-8.9,34.6-8.9c0.2,0,0.5,0,0.7,0
		c50.1,1.2,100.2,3.7,150.2,7c69.8,4.7,139.7,9.8,209.4,16.3c54.4,5.1,108.7,12.7,163,19c39,4.5,78.1,8.4,117.1,13.1
		c19.9,2.4,39.6,6,59.4,9.2c18.7,3,30.3,14.8,38.5,30.9c12-12.7,25.9-18.7,42-18.7c4.5,0,9.2,0.5,14.1,1.4
		c29.1,5.6,58.5,10.2,87.8,14.8c21.9,3.4,42.1,9.4,53,32c12.1-10.3,24.9-14,38.3-14c6.8,0,13.7,0.9,20.9,2.5
		c57.3,12.5,114.7,24.4,172.1,36.1c12.9,2.6,23.1,9,31.9,18.3c21.2,22.3,42.1,45,63.7,66.9c13.7,13.9,19.1,30.7,19.6,49.5
		c0.5,20.4,0.2,40.8,0.1,61.2c-0.2,35.2-9.2,58.3-51.8,65.6C3090,1361.5,3096.8,1369.1,3104.7,1375.5L3104.7,1375.5z"/>
	<g id="Shape_14_copy_8">
		<polygon class="st1" points="1703.1,725.9 1619.3,637.8 1688,607.7 1604.2,614.2 1606.4,545.4 1574.1,607.7 1511.8,513.2 
			1546.2,614.2 1464.6,586.2 1511.8,627.1 1445.2,655 1533.3,655 1518.3,728 1569.8,674.3 1632.2,807.5 1604.2,674.3 		"/>
	</g>
</g>
<g>
	<polygon class="st3" points="1633.6,2192.5 1633.6,2258.5 1622.2,2258.5 1622.2,2192.5 1633.6,2192.5 	"/>
	<polygon class="st3" points="1744.1,2193.7 1744.1,2258.6 1738.6,2258.6 1696.7,2214.1 1696.7,2258.5 1685.3,2258.5 1685.3,2192.5 
		1691.5,2192.5 1732.6,2237.1 1732.6,2192.5 1744.1,2192.5 1744.1,2193.7 	"/>
	<path class="st3" d="M1571.5,2230.8c-1.4-2.4-3.2-4.5-5.3-6.2c-2.1-1.6-4.3-3-6.8-4c-2.3-1-4.5-1.9-6.5-2.6
		c-1.2-0.4-2.4-0.8-3.5-1.3c-1-0.4-1.9-0.9-2.7-1.5c-0.7-0.5-1.2-1.2-1.7-1.9c-0.4-0.7-0.6-1.7-0.6-2.8c0-2.2,0.7-4.1,2-5.7
		c1.3-1.5,3.3-2.3,6.2-2.3c1.2,0,2.3,0.1,3.4,0.4c1.1,0.3,2.1,0.7,3,1.1c0.9,0.4,1.7,0.9,2.3,1.4c0.7,0.5,1.2,0.9,1.7,1.4l1.6,1.6
		l1.4-1.7c0.7-0.9,1.4-1.8,2.1-2.7c0.7-0.9,1.4-1.8,2.1-2.7l1.2-1.5l-1.5-1.3c-3.4-2.9-6.4-4.7-9.3-5.7c-6.6-2.1-12.9-1.6-17.2,0.3
		c-2.5,1.1-4.6,2.6-6.2,4.5c-1.6,1.8-2.7,3.9-3.4,6.1c-0.7,2.2-1,4.4-0.9,6.6c0.1,2.9,0.7,5.5,1.8,7.6c1.1,2,2.4,3.8,3.9,5.1
		c1.5,1.4,3.1,2.4,4.8,3.2c1.6,0.7,2.9,1.3,4,1.8c1.4,0.6,3.1,1.1,4.9,1.7c1.7,0.6,3.4,1.3,4.9,2.2c1.5,0.9,2.7,1.9,3.7,3.2
		c0.9,1.1,1.3,2.6,1.3,4.6c0,1.4-0.3,2.6-0.8,3.7c-0.5,1-1.2,1.9-2.1,2.6c-0.9,0.7-2,1.3-3.2,1.6c-2.6,0.8-5.7,0.7-8.1,0
		c-1.3-0.4-2.6-1-3.7-1.7c-1.2-0.7-2.3-1.5-3.2-2.4c-1-0.9-1.9-1.7-2.6-2.5l-1.4-1.5l-7.3,7.3l0.9,1.4c0.9,1.4,2.1,2.7,3.7,4
		c1.5,1.3,3.2,2.5,5.1,3.5s4,1.9,6.3,2.6c2.3,0.7,4.8,1,7.2,1c2.7,0,5.4-0.4,7.8-1.3c2.5-0.9,4.7-2.2,6.6-3.9
		c1.9-1.7,3.4-3.8,4.5-6.2c1.1-2.4,1.7-5.1,1.7-8.1C1573.7,2236.3,1573,2233.3,1571.5,2230.8L1571.5,2230.8L1571.5,2230.8z"/>
	<path class="st3" d="M1390,2245.7l4,5.9l1.2,1.8l-1.9,1.1c-1.3,0.7-2.6,1.4-3.9,2c-1.3,0.6-2.8,1.1-4.2,1.5c-1.4,0.4-2.9,0.8-4.5,1
		s-3.1,0.3-4.7,0.3c-2.3,0-4.6-0.2-6.8-0.7c-2.2-0.4-4.4-1.1-6.4-2c-2.1-0.9-4-1.9-5.8-3.2c-1.8-1.2-3.5-2.6-5-4.1l0,0
		c-1.5-1.5-2.9-3.2-4.1-5c-1.2-1.8-2.3-3.7-3.2-5.8c-1.8-4.1-2.7-8.6-2.7-13.2s0.9-9.1,2.7-13.3c0.9-2.1,1.9-4,3.2-5.8
		c1.2-1.8,2.6-3.5,4.1-5l0,0c1.5-1.5,3.2-2.9,5-4.1s3.7-2.3,5.8-3.2c4.2-1.8,8.6-2.7,13.3-2.7c1.6,0,3.2,0.1,4.7,0.3
		c1.6,0.2,3.1,0.5,4.5,0.9c1.4,0.4,2.8,0.9,4.2,1.5c1.4,0.6,2.7,1.2,4,2l1.8,1.1l-1.1,1.8c-0.3,0.6-0.7,1.1-1,1.6
		c-0.4,0.5-0.7,1-1.1,1.5l0,0c-0.4,0.6-0.8,1-1,1.4l0,0c-0.4,0.5-0.7,1-1,1.5l-1,1.6l-1.6-1c-0.8-0.5-1.7-0.9-2.6-1.3l0,0
		c-0.9-0.4-1.8-0.7-2.8-1c-0.9-0.3-1.9-0.5-2.8-0.6c-1-0.1-2-0.2-3.1-0.2c-1.6,0-3.1,0.1-4.6,0.4c-1.4,0.3-2.8,0.8-4.2,1.3
		c-1.3,0.6-2.6,1.3-3.8,2.2c-1.2,0.8-2.3,1.8-3.3,2.8c-1,1.1-2,2.2-2.8,3.4c-0.8,1.2-1.5,2.6-2.1,4c-0.6,1.4-1,2.8-1.3,4.3
		c-0.3,1.5-0.4,3-0.4,4.6s0.2,3.1,0.4,4.6l0,0c0.3,1.5,0.7,2.9,1.3,4.3c0.6,1.4,1.3,2.7,2.1,3.9c0.8,1.2,1.7,2.3,2.8,3.4l0,0
		c1,1,2.2,2,3.3,2.8c1.2,0.8,2.5,1.6,3.8,2.1l0,0c1.3,0.6,2.8,1.1,4.2,1.3c1.4,0.3,3,0.4,4.6,0.4c4.1,0,7.8-1,11.3-3l1.6-0.9
		L1390,2245.7L1390,2245.7L1390,2245.7z"/>
	<path class="st3" d="M1840,2225.2c0,3.2-0.6,6.2-1.8,8.9c-1.2,2.8-2.8,5.2-4.9,7.3c-2.1,2.1-4.5,3.7-7.2,4.9
		c-5.5,2.4-12.1,2.4-17.6,0c-2.7-1.2-5.2-2.9-7.2-4.9c-2.1-2.1-3.7-4.5-4.9-7.3c-1.2-2.8-1.8-5.8-1.8-8.9s0.6-6.2,1.8-8.9
		c1.2-2.8,2.8-5.2,4.9-7.3c2.1-2.1,4.5-3.8,7.2-5c2.7-1.2,5.7-1.8,8.8-1.8c3.1,0,6.1,0.6,8.8,1.8c2.8,1.2,5.2,2.9,7.2,5
		c2.1,2.1,3.7,4.5,4.9,7.3C1839.4,2219,1840,2222,1840,2225.2L1840,2225.2L1840,2225.2z M1848.7,2212c-1.8-4.1-4.3-7.8-7.4-10.9
		c-3.1-3.1-6.8-5.6-10.9-7.4c-8.4-3.6-18.3-3.6-26.5,0c-4.1,1.8-7.7,4.3-10.8,7.4c-3.1,3.1-5.5,6.8-7.3,10.9
		c-1.8,4.1-2.7,8.6-2.7,13.2c0,4.7,0.9,9.1,2.7,13.2c1.8,4.1,4.2,7.7,7.3,10.8c3.1,3.1,6.7,5.5,10.8,7.3c4.1,1.8,8.6,2.7,13.3,2.7
		s9.1-0.9,13.2-2.7c4.1-1.8,7.8-4.2,10.9-7.3s5.6-6.7,7.4-10.8c1.8-4.1,2.7-8.6,2.7-13.3S1850.6,2216.1,1848.7,2212L1848.7,2212
		L1848.7,2212z"/>
	<path class="st3" d="M1455.5,2232.5c1.9-4.6,3.9-9.2,6.7-15.6c0.5-1.1,0.9-2.1,1.3-3.3c2.7,6.3,5.3,12.6,8,18.8L1455.5,2232.5
		L1455.5,2232.5z M1493.2,2255.8l-13.9-32.8l-6.9-16.4l-6-14.1h-5.7l-12.9,30.4l-6.9,16.4l-7,16.5l-1.2,2.8h11.8l0.5-1.2l2.6-6.2
		l2.6-6.2c0.2-0.5,0.4-0.9,0.6-1.4h25.4c1.1,2.5,2.2,5.1,3.2,7.6l2.6,6.2l0.5,1.2h8.8l3.2,0.2L1493.2,2255.8L1493.2,2255.8
		L1493.2,2255.8z"/>
	<path class="st3" d="M1856.4,2103.4c0,7.2-1.3,13.9-3.9,20.1c-2.6,6.2-6.4,11.9-11.6,17.1c-10.2,10.2-22.6,15.3-37.2,15.3
		c-7.3,0-14-1.3-20.3-3.8c-6.2-2.6-11.9-6.4-17.1-11.5c-10.2-10.4-15.3-22.8-15.3-37.2v-91.5h29.5v91.5c0,3.2,0.6,6.1,1.7,8.9
		c1.1,2.7,2.8,5.2,5.1,7.5c2.3,2.3,4.8,4,7.5,5.1c2.7,1.1,5.7,1.7,8.9,1.7s6.2-0.6,8.9-1.7c2.7-1.1,5.2-2.8,7.5-5.1
		c2.3-2.3,4-4.8,5.1-7.5c1.1-2.6,1.6-5.4,1.7-8.4v-91.9l0,0v0h29.5L1856.4,2103.4L1856.4,2103.4L1856.4,2103.4z"/>
	<path class="st3" d="M1623.1,2040.4c-1.5-0.2-4.5-0.6-5.1-0.6l-1.6-0.1l-1.6,0c-3,0-5.9,0.3-8.7,0.8c-2.8,0.5-5.4,1.3-8,2.4
		c-2.6,1.1-5.1,2.4-7.4,4c-2.3,1.6-4.6,3.5-6.8,5.6c-2.2,2.2-4.1,4.4-5.6,6.8s-2.9,4.8-4,7.4c-1.1,2.6-1.8,5.2-2.4,8
		c-0.5,2.8-0.8,5.7-0.8,8.7s0.3,5.9,0.8,8.7s1.3,5.4,2.4,7.9c1.1,2.6,2.4,5,4,7.3s3.5,4.6,5.6,6.8c2.2,2.2,4.4,4,6.8,5.6
		c2.3,1.6,4.8,2.9,7.4,4c2.6,1.1,5.2,1.8,8,2.4s5.7,0.8,8.7,0.8l1.7,0l1.7-0.1c0.5,0,3.4-0.4,5-0.6c0,9.8,0,19.5,0,29.2h0v0.3
		c-1.1,0.1-2.3,0.2-3.4,0.3c-1.6,0.1-3.1,0.1-4.6,0.1c-5,0-9.8-0.4-14.5-1.3c-1.7-0.3-3.4-0.7-5.1-1.2h-0.1l-0.2-0.1
		c-3-0.8-6-1.8-8.8-3c-8.6-3.5-16.4-8.8-23.6-15.8c-7-7.1-12.3-14.9-15.8-23.5c-3.6-8.6-5.3-17.9-5.3-28.1s1.8-19.5,5.3-28
		c3.5-8.6,8.8-16.4,15.8-23.5c7.1-7.1,14.9-12.4,23.6-16c2.5-1,5-1.9,7.6-2.6c2.2-0.6,4.4-1.2,6.7-1.6c4.7-0.9,9.5-1.3,14.5-1.3
		c1.4,0,3,0.1,4.6,0.1c1.2,0.1,2.3,0.2,3.4,0.3v0.4h0C1623.2,2020.6,1623.1,2030.5,1623.1,2040.4L1623.1,2040.4L1623.1,2040.4z"/>
	<path class="st3" d="M1890.9,2011.9h21v142.6h-29.5v-142.6H1890.9z M1920.6,2011.9h7.2c3,0,6,0.3,8.9,0.8c2.9,0.6,5.6,1.4,8.3,2.5
		c2.6,1.1,5.2,2.4,7.6,4.1c2.4,1.6,4.6,3.6,6.8,5.7c2.2,2.1,4.1,4.4,5.7,6.8c1.7,2.4,3,4.9,4.1,7.5c1.1,2.6,1.9,5.4,2.5,8.2
		c0.5,2.9,0.8,5.8,0.8,8.8c0,4.4-0.6,8.6-1.8,12.6c-1,3.4-2.4,6.6-4.2,9.7c1.2,1.6,2.3,3.3,3.3,5c1.3,2.3,2.4,4.7,3.3,7.2
		c0.9,2.5,1.5,5.1,2,7.7c0.4,2.7,0.7,5.4,0.7,8.2c0,3.2-0.3,6.4-0.9,9.4c-0.6,3-1.5,6-2.6,8.8s-2.6,5.6-4.4,8.1
		c-1.8,2.6-3.8,5-6.1,7.3h0c-2.3,2.3-4.8,4.3-7.4,6c-2.6,1.7-5.3,3.2-8.1,4.4h0c-2.8,1.2-5.8,2-8.9,2.6c-3.1,0.6-6.2,0.9-9.5,0.9
		h-7.2v-28.8h6.2c1.8,0,3.5-0.2,5.1-0.7c1.6-0.4,3.2-1.1,4.6-1.9c1.4-0.9,2.8-1.9,3.9-3c1.1-1.1,2.2-2.4,3.1-3.9
		c0.9-1.4,1.5-2.9,2-4.5c0.4-1.6,0.7-3.3,0.7-5.1c0-1.8-0.2-3.5-0.7-5.1c-0.4-1.6-1.1-3.1-2-4.5c-0.9-1.4-1.9-2.8-3.1-3.9
		c-1.1-1.1-2.4-2.1-3.9-3c-1.4-0.8-3-1.5-4.6-1.9c-1.6-0.4-3.3-0.7-5.1-0.7h-6.2v-15.4h7.2c1.4,0,2.9-0.2,4.2-0.6
		c1.3-0.4,2.6-0.9,3.8-1.6c1.2-0.7,2.3-1.5,3.2-2.5s1.8-2,2.5-3.2c0.7-1.2,1.2-2.4,1.6-3.7c0.4-1.3,0.6-2.7,0.6-4.2v0
		c0-1.5-0.2-2.9-0.6-4.2c-0.4-1.3-0.9-2.5-1.6-3.7c-0.7-1.2-1.6-2.3-2.5-3.2s-2-1.8-3.2-2.4c-1.2-0.7-2.4-1.2-3.8-1.6
		s-2.8-0.6-4.2-0.6h-7.2L1920.6,2011.9L1920.6,2011.9L1920.6,2011.9z"/>
	<path class="st3" d="M1434,2011.9h29.5V2138l-29.5-51.3V2011.9L1434,2011.9z M1463.4,2154.4h-34l-16.9-28.8l-66-113.7v0h34.5
		l16.1,27.5L1463.4,2154.4L1463.4,2154.4L1463.4,2154.4z M1376.1,2079.1v75.3h-29.5v-126.2L1376.1,2079.1L1376.1,2079.1
		L1376.1,2079.1z"/>
	<polygon class="st3" points="1491,2011.9 1493.9,2011.9 1496.9,2011.9 1514.6,2011.9 1517.5,2011.9 1520.5,2011.9 1520.5,2154.4 
		1517.5,2154.4 1514.6,2154.4 1496.9,2154.4 1493.9,2154.4 1491,2154.4 1491,2011.9 	"/>
	<path class="st3" d="M1323.1,2103.4c0,7.2-1.3,13.9-3.9,20.1c-2.6,6.2-6.4,11.9-11.6,17.1c-10.2,10.2-22.6,15.3-37.2,15.3
		c-7.3,0-14-1.3-20.3-3.8c-2.9-1.2-5.7-2.7-8.4-4.4c-0.8-0.4-1.5-0.9-2.1-1.5c-2.3-1.7-4.5-3.5-6.6-5.6
		c-10.2-10.4-15.3-22.8-15.3-37.2v-91.5h29.5v91.5c0,3.2,0.6,6.1,1.7,8.9c1.1,2.7,2.8,5.2,5.1,7.5c2.3,2.3,4.8,4,7.5,5.1
		c2.7,1.1,5.7,1.7,8.9,1.7s6.2-0.6,8.9-1.7c2.7-1.1,5.2-2.8,7.5-5.1c2.3-2.3,4-4.8,5.1-7.5c1-2.5,1.6-5.2,1.7-8.1v-92.3h0v0h29.5
		L1323.1,2103.4L1323.1,2103.4L1323.1,2103.4z"/>
	<path class="st3" d="M1648.7,2011.9h29.5v76.2l-0.2,66.3h-29.3L1648.7,2011.9L1648.7,2011.9L1648.7,2011.9z M1685.5,2124.9h50.9
		v29.5h-51L1685.5,2124.9L1685.5,2124.9z"/>
</g>
</svg>
